<?xml version="1.0" encoding="UTF-8"?>
<svg id="Layer_1" data-name="Layer 1" xmlns="http://www.w3.org/2000/svg" xmlns:xlink="http://www.w3.org/1999/xlink" version="1.1" viewBox="0 0 32 33">
  <defs>
    <style>
      .cls-1 {
        fill: url(#linear-gradient);
        stroke-width: 0px;
      }
    </style>
    <linearGradient id="linear-gradient" x1="2.8" y1="18.1" x2="29.2" y2="18.1" gradientUnits="userSpaceOnUse">
      <stop offset="0" stop-color="#3875b9"/>
      <stop offset="1" stop-color="#38c2df"/>
    </linearGradient>
  </defs>
  <g id="tw-Chat-Alt-2-Regular">
    <path id="Shape" class="cls-1" d="M2.8,8.7c0-2.2,1.8-3.9,3.9-3.9h13.3c2.2,0,3.9,1.8,3.9,3.9v1.4h1.4c2.2,0,3.9,1.8,3.9,3.9v8c0,2.2-1.8,3.9-3.9,3.9h-1.4v4.1c0,.5-.3,1-.8,1.2s-1,0-1.4-.3l-5-5h-4.8c-.6,0-1.2-.1-1.7-.4h0c-.4.4-.9.5-1.4.3-.5-.2-.8-.6-.8-1.2v-4.1h-1.4c-2.2,0-3.9-1.8-3.9-3.9v-8ZM12.4,23.5h5c.3,0,.6.1.9.4l3.2,3.2v-2.3c0-.7.6-1.2,1.2-1.2h2.7c.8,0,1.4-.6,1.4-1.4v-8c0-.8-.6-1.4-1.4-1.4h-1.4v4.1c0,2.2-1.8,3.9-3.9,3.9h-4.8l-2.8,2.8ZM21.4,8.7c0-.8-.6-1.4-1.4-1.4H6.7c-.8,0-1.4.6-1.4,1.4v8c0,.8.6,1.4,1.4,1.4h2.7c.7,0,1.2.6,1.2,1.2v2.3l3.2-3.2c.2-.2.6-.4.9-.4h5.3c.8,0,1.4-.6,1.4-1.4v-8Z"/>
  </g>
</svg>