<?xml version="1.0" encoding="UTF-8"?>
<svg id="Layer_1" data-name="Layer 1" xmlns="http://www.w3.org/2000/svg" xmlns:xlink="http://www.w3.org/1999/xlink" version="1.1" viewBox="0 0 25 20">
  <defs>
    <style>
      .cls-1 {
        fill: url(#linear-gradient);
      }

      .cls-1, .cls-2, .cls-3 {
        stroke-width: 0px;
      }

      .cls-2 {
        fill: url(#linear-gradient-2);
      }

      .cls-3 {
        fill: url(#linear-gradient-3);
      }
    </style>
    <linearGradient id="linear-gradient" x1=".6" y1="10" x2="24.5" y2="10" gradientUnits="userSpaceOnUse">
      <stop offset="0" stop-color="#3875b9"/>
      <stop offset="1" stop-color="#38c2df"/>
    </linearGradient>
    <linearGradient id="linear-gradient-2" x1="5.1" y1="7.6" x2="10.1" y2="7.6" xlink:href="#linear-gradient"/>
    <linearGradient id="linear-gradient-3" x1="9.6" y1="12.1" x2="15.8" y2="12.1" xlink:href="#linear-gradient"/>
  </defs>
  <path class="cls-1" d="M22,2.2c.8,0,1.5.7,1.5,1.5v12.6c0,.8-.7,1.5-1.5,1.5H3.1c-.8,0-1.5-.7-1.5-1.5V3.7c0-.8.7-1.5,1.5-1.5h18.9M22,1.2H3.1C1.7,1.2.6,2.3.6,3.7v12.6c0,1.4,1.1,2.5,2.5,2.5h18.9c1.4,0,2.5-1.1,2.5-2.5V3.7c0-1.4-1.1-2.5-2.5-2.5h0Z"/>
  <g>
    <path class="cls-2" d="M10.1,8.4l-5,3.2v-2l3.2-2h0l-3.2-2v-2l5,3.2v1.5h0Z"/>
    <path class="cls-3" d="M15.8,11.3v1.6h-6.2v-1.6h6.2Z"/>
  </g>
</svg>