<svg width="22" height="22" viewBox="0 0 22 22" fill="none" xmlns="http://www.w3.org/2000/svg">
<g id="DocIcon">
<path id="Vector" d="M5.07 16.78H12.91C13.06 16.78 13.19 16.66 13.19 16.5V14.66C13.19 14.51 13.07 14.38 12.91 14.38H5.07C4.92 14.38 4.79 14.5 4.79 14.66V16.5C4.79 16.65 4.91 16.78 5.07 16.78ZM5.07 11.99H16.5C16.65 11.99 16.78 11.87 16.78 11.71V9.87C16.78 9.72 16.66 9.59 16.5 9.59H5.07C4.92 9.59 4.79 9.71 4.79 9.87V11.71C4.79 11.86 4.91 11.99 5.07 11.99ZM5.07 7.19H16.5C16.65 7.19 16.78 7.07 16.78 6.91V5.07C16.78 4.92 16.66 4.79 16.5 4.79H5.07C4.92 4.79 4.79 4.91 4.79 5.07V6.91C4.79 7.06 4.91 7.19 5.07 7.19ZM2.4 21.58C1.81 21.58 1.3 21.39 0.86 21.02C0.27 20.51 0 19.72 0 18.94V2.64C0 1.86 0.27 1.07 0.86 0.56C1.29 0.19 1.81 0 2.4 0H18.94C19.72 0 20.51 0.27 21.02 0.86C21.4 1.3 21.58 1.81 21.58 2.4V18.94C21.58 19.72 21.31 20.51 20.72 21.02C20.28 21.4 19.77 21.58 19.18 21.58H2.4ZM2.68 19.18H18.91C19.06 19.18 19.19 19.06 19.19 18.9V2.68C19.19 2.53 19.07 2.4 18.91 2.4H2.68C2.53 2.4 2.4 2.52 2.4 2.68V18.91C2.4 19.06 2.52 19.19 2.68 19.19V19.18Z" fill="white"/>
</g>
</svg>
