<?xml version="1.0" encoding="UTF-8"?>
<svg id="Layer_1" data-name="Layer 1" xmlns="http://www.w3.org/2000/svg" xmlns:xlink="http://www.w3.org/1999/xlink" version="1.1" viewBox="0 0 25 25">
  <defs>
    <style>
      .cls-1 {
        fill: url(#linear-gradient);
      }

      .cls-1, .cls-2, .cls-3, .cls-4, .cls-5 {
        stroke-width: 0px;
      }

      .cls-2 {
        fill: #bcbec0;
      }

      .cls-3 {
        fill: #4cc6e1;
      }

      .cls-4 {
        fill: url(#linear-gradient-2);
      }

      .cls-5 {
        fill: #d1d3d4;
      }
    </style>
    <linearGradient id="linear-gradient" x1="1.3" y1="11.2" x2="22.2" y2="11.2" gradientTransform="translate(0 25) scale(1 -1)" gradientUnits="userSpaceOnUse">
      <stop offset="0" stop-color="#3975bb"/>
      <stop offset="1" stop-color="#39c3e0"/>
    </linearGradient>
    <linearGradient id="linear-gradient-2" x1="1.9" y1="21.8" x2="3" y2="21.8" gradientTransform="translate(0 25) scale(1 -1)" gradientUnits="userSpaceOnUse">
      <stop offset="0" stop-color="#3975bb"/>
      <stop offset="1" stop-color="#39c3e0"/>
    </linearGradient>
  </defs>
  <path class="cls-2" d="M23.6,21s-.1,0-.1-.1v-3.2h-4v3.2s0,.1-.1.1h-4.1s-.1,0-.1-.1v-11.2h-7.5v11.2s0,.1,0,.1H2.3s0,0,0-.1,0-.1,0-.1h5.1v-11.2s0-.1,0-.1h7.8s.1,0,.1.1v11.2h3.8v-3.2s0-.1.1-.1h4.2s.1,0,.1.1v3.3s0,.1-.1.1h0Z"/>
  <path class="cls-1" d="M8.4,22.4h0c-.5,0-.7-.8-1.1-4-.2-1.2-.4-2.9-.6-3.4-.2.6-.4,2.3-.5,3.4-.3,3-.5,3.7-.9,3.7h0c-.6,0-.8-1.3-1.4-8.6-.3-3-.6-6.6-.9-7.6-.3.9-.7,4.2-1.2,15.2,0,.1,0,.2-.3.2s-.2-.1-.2-.3c.7-15.8,1.3-15.9,1.7-15.9h0c.5,0,.8,1.2,1.4,8.3.3,3,.6,6.9.9,8,.2-.6.3-2,.4-3.1.4-3.2.5-4,1-4h0c.5,0,.7.8,1.1,4,.2,1.2.4,2.9.6,3.4.3-.8.6-4.1.9-6.8.7-7,1-9.4,1.9-9.4h0c.8,0,1.3,2.4,2.2,8.1.5,3.1,1.2,7.4,1.7,7.7.3-.2.6-3.3.8-5.6.4-4.7.8-7.6,1.8-7.7h0c.8,0,2,1.7,4.4,13.5,0,.1,0,.3-.2.3s-.3,0-.3-.2c-2.5-12.1-3.6-13.1-3.9-13.1s0,0,0,0c-.7,0-1.1,4.5-1.4,7.2-.4,4.4-.6,6-1.3,6s-1.3-2.3-2.2-8.1c-.5-3.1-1.2-7.4-1.7-7.7-.5.3-1,5.5-1.3,9-.6,6.3-.8,7.4-1.4,7.4h0Z"/>
  <rect class="cls-4" x="1.9" y="2.6" width="1.1" height="1.1"/>
  <g>
    <rect class="cls-3" x="4.4" y="3.1" width="0" height="0"/>
    <polygon class="cls-5" points="5.1 2.6 3.9 2.6 3.9 3.8 5.1 3.8 5.1 2.6 5.1 2.6"/>
  </g>
</svg>