<?xml version="1.0" encoding="UTF-8"?>
<svg id="Layer_1" data-name="Layer 1" xmlns="http://www.w3.org/2000/svg" xmlns:xlink="http://www.w3.org/1999/xlink" version="1.1" viewBox="0 0 25 25">
  <defs>
    <style>
      .cls-1 {
        fill: url(#linear-gradient);
        stroke-width: 0px;
      }
    </style>
    <linearGradient id="linear-gradient" x1=".8" y1="12.5" x2="24.5" y2="12.5" gradientUnits="userSpaceOnUse">
      <stop offset="0" stop-color="#3975bb"/>
      <stop offset="1" stop-color="#39c3e0"/>
    </linearGradient>
  </defs>
  <path class="cls-1" d="M22.9,12.8h-1.7v-4.1c0-.9-.7-1.6-1.6-1.6h-1.7V2.3c0-.9-.7-1.6-1.6-1.6H2.4c-.9,0-1.6.7-1.6,1.6v8.3c0,.9.7,1.6,1.6,1.6h1.7v4.8c0,.9.7,1.6,1.6,1.6h1.7v4.1c0,.9.7,1.6,1.6,1.6h13.7c.9,0,1.6-.7,1.6-1.6v-8.3c0-.9-.7-1.6-1.6-1.6ZM4.1,8.7v2.8h-1.7c-.5,0-.9-.4-.9-.9V2.3c0-.5.4-.9.9-.9h13.7c.5,0,.9.4.9.9v4.2h0v.6H5.7c-.9,0-1.6.7-1.6,1.6ZM7.5,14.4v3.5h-1.7c-.5,0-.9-.4-.9-.9v-8.3c0-.5.4-.9.9-.9h13.7c.5,0,.9.4.9.9v4.1h-11.2c-.9,0-1.6.7-1.6,1.6ZM23.8,22.7c0,.5-.4.9-.9.9h-13.7c-.5,0-.9-.4-.9-.9v-8.3c0-.5.4-.9.9-.9h11.2s.8,0,.8,0h0s1.7,0,1.7,0c.5,0,.9.4.9.9v8.3Z"/>
</svg>