<?xml version="1.0" encoding="UTF-8"?>
<svg id="Layer_1" data-name="Layer 1" xmlns="http://www.w3.org/2000/svg" xmlns:xlink="http://www.w3.org/1999/xlink" version="1.1" viewBox="0 0 25 25">
  <defs>
    <style>
      .cls-1 {
        fill: url(#linear-gradient);
      }

      .cls-1, .cls-2 {
        stroke-width: 0px;
      }

      .cls-2 {
        fill: url(#linear-gradient-2);
      }
    </style>
    <linearGradient id="linear-gradient" x1=".6" y1="10.5" x2="24.4" y2="10.5" gradientUnits="userSpaceOnUse">
      <stop offset="0" stop-color="#3975bb"/>
      <stop offset="1" stop-color="#39c3e0"/>
    </linearGradient>
    <linearGradient id="linear-gradient-2" x1="10.1" y1="17.9" x2="25.8" y2="17.9" xlink:href="#linear-gradient"/>
  </defs>
  <path class="cls-1" d="M20.2,18.2c1.1,0,2.2-.4,3-1.2.8-.8,1.2-1.8,1.2-3,0-1.8-1.2-3.4-2.9-4-.8-1.5-2.3-2.5-4-2.5,0,0,0,0-.1,0-.9-2.7-3.4-4.5-6.3-4.5h0c-2.6,0-5,1.6-6.1,4-2.6.6-4.4,2.8-4.4,5.5,0,2.9,2.1,5.3,4.9,5.6h7.3c0,0-.2-.9-.2-.9h-6.6c-2.5-.2-4.4-2.2-4.4-4.7,0-2.3,1.6-4.2,3.9-4.6h.3s.1-.3.1-.3c.8-2.2,2.9-3.6,5.3-3.6h0c2.6,0,4.8,1.7,5.4,4.2v.4c.1,0,.5,0,.5,0,.1,0,.3,0,.4,0,1.4,0,2.7.8,3.2,2.1v.2c0,0,.3,0,.3,0,1.4.4,2.4,1.6,2.4,3.1,0,1.8-1.4,3.2-3.2,3.2h-.6s-.8.6-.8.6l.5.4h.7c0,0,.1,0,.2,0Z"/>
  <polygon class="cls-2" points="18.5 18.2 18 17.7 18.8 17.2 20 16.2 12.5 13.2 13.1 17.1 13.3 18.1 13.7 20.9 16.1 19.2 18.3 22.6 21.1 20.2 18.5 18.2"/>
</svg>