<svg width="21" height="21" viewBox="0 0 21 21" fill="none" xmlns="http://www.w3.org/2000/svg">
<g id="openNew">
<path id="Vector" d="M2.33333 21C1.69167 21 1.14217 20.7717 0.684833 20.3152C0.228278 19.8578 0 19.3083 0 18.6667V2.33333C0 1.69167 0.228278 1.14217 0.684833 0.684833C1.14217 0.228278 1.69167 0 2.33333 0H9.33333C9.66389 0 9.94117 0.111611 10.1652 0.334833C10.3884 0.558833 10.5 0.836111 10.5 1.16667C10.5 1.49722 10.3884 1.77411 10.1652 1.99733C9.94117 2.22133 9.66389 2.33333 9.33333 2.33333H2.33333V18.6667H18.6667V11.6667C18.6667 11.3361 18.7787 11.0588 19.0027 10.8348C19.2259 10.6116 19.5028 10.5 19.8333 10.5C20.1639 10.5 20.4408 10.6116 20.664 10.8348C20.888 11.0588 21 11.3361 21 11.6667V18.6667C21 19.3083 20.7717 19.8578 20.3152 20.3152C19.8578 20.7717 19.3083 21 18.6667 21H2.33333ZM7 14C6.78611 13.7861 6.67917 13.5139 6.67917 13.1833C6.67917 12.8528 6.78611 12.5806 7 12.3667L17.0333 2.33333H14C13.6694 2.33333 13.3926 2.22133 13.1693 1.99733C12.9453 1.77411 12.8333 1.49722 12.8333 1.16667C12.8333 0.836111 12.9453 0.558833 13.1693 0.334833C13.3926 0.111611 13.6694 0 14 0H19.8333C20.1639 0 20.4408 0.111611 20.664 0.334833C20.888 0.558833 21 0.836111 21 1.16667V7C21 7.33056 20.888 7.60744 20.664 7.83067C20.4408 8.05467 20.1639 8.16667 19.8333 8.16667C19.5028 8.16667 19.2259 8.05467 19.0027 7.83067C18.7787 7.60744 18.6667 7.33056 18.6667 7V3.96667L8.60417 14.0292C8.39028 14.2431 8.12778 14.35 7.81667 14.35C7.50556 14.35 7.23333 14.2333 7 14Z" fill="white"/>
</g>
</svg>
