<svg width="220" height="43" viewBox="0 0 220 43" fill="none" xmlns="http://www.w3.org/2000/svg">
<g id="almalinux 1" clip-path="url(#clip0_133_553)">
<path id="path4" d="M67.8151 34.4713L66.3319 30.0219H56.4442L54.9611 34.4713H49.6641L58.2805 9.7522H64.3544L73.0414 34.4713H67.8151ZM57.998 25.4312H64.7781L61.3881 15.3317L57.998 25.4312Z" fill="black"/>
<path id="path6" d="M75.3014 34.4715V8.69287H79.8921V34.4715H75.3014Z" fill="black"/>
<path id="path8" d="M103.552 16.3206C105.6 16.3206 107.154 16.9563 108.355 18.2982C109.555 19.6401 110.191 21.4057 110.191 23.5951V34.4715H105.671V23.8776C105.671 22.8182 105.388 21.9707 104.894 21.4057C104.4 20.8407 103.623 20.5582 102.705 20.5582C101.645 20.5582 100.868 20.9113 100.303 21.6176C99.7384 22.3238 99.4559 23.3126 99.4559 24.5839V34.4715H94.9358V23.8776C94.9358 22.8182 94.6533 21.9707 94.1589 21.4057C93.6645 20.8407 92.8876 20.5582 91.9695 20.5582C90.9807 20.5582 90.1332 20.9113 89.4975 21.6176C88.9325 22.3238 88.65 23.3126 88.65 24.5839V34.4715H84.1299V16.815H88.65V18.6513C89.7094 17.0975 91.3338 16.25 93.5939 16.25C95.7833 16.25 97.3371 17.0975 98.3965 18.7925C99.4559 17.1681 101.222 16.3206 103.552 16.3206Z" fill="black"/>
<path id="path10" d="M127.494 16.815H132.014V34.4716H127.494V32.3528C126.152 34.0478 124.175 34.966 121.703 34.966C119.372 34.966 117.324 34.0478 115.629 32.2822C113.934 30.4459 113.087 28.2565 113.087 25.6433C113.087 23.0301 113.934 20.8407 115.629 19.0044C117.324 17.1681 119.372 16.25 121.703 16.25C124.175 16.25 126.082 17.0975 127.494 18.8632V16.815ZM119.09 29.2452C120.008 30.1634 121.138 30.6578 122.55 30.6578C123.963 30.6578 125.164 30.234 126.082 29.2452C127 28.3271 127.494 27.1265 127.494 25.6433C127.494 24.1602 127 22.9595 126.082 22.112C125.164 21.1938 123.963 20.6995 122.55 20.6995C121.138 20.6995 120.008 21.1938 119.09 22.112C118.172 23.0301 117.748 24.2308 117.748 25.6433C117.748 27.0558 118.172 28.3271 119.09 29.2452Z" fill="black"/>
<path id="path12" d="M141.266 29.81H150.659V34.4713H136.393V9.7522H141.266V29.81Z" fill="black"/>
<path id="path14" d="M155.533 14.6962C154.756 14.6962 154.12 14.4137 153.555 13.9193C152.99 13.3543 152.708 12.7186 152.708 11.9418C152.708 11.1649 152.99 10.5292 153.555 9.96422C154.12 9.3992 154.756 9.1167 155.533 9.1167C156.31 9.1167 156.946 9.3992 157.511 9.96422C158.076 10.5292 158.358 11.1649 158.358 11.9418C158.358 12.7186 158.076 13.3543 157.511 13.9193C156.946 14.4137 156.31 14.6962 155.533 14.6962ZM153.273 34.4715V16.815H157.864V34.4715H153.273Z" fill="black"/>
<path id="path16" d="M171.777 16.3206C173.684 16.3206 175.309 16.9562 176.58 18.2981C177.851 19.5694 178.487 21.4056 178.487 23.6657V34.4715H173.967V24.1601C173.967 22.9594 173.614 22.1119 172.978 21.4763C172.342 20.8406 171.495 20.4875 170.435 20.4875C169.235 20.4875 168.317 20.8406 167.61 21.6175C166.904 22.3944 166.551 23.4538 166.551 24.9369V34.4715H162.031V16.8149H166.551V18.7925C167.681 17.1681 169.376 16.3206 171.777 16.3206Z" fill="black"/>
<path id="path18" d="M194.024 16.8149H198.615V34.4715H194.024V32.4939C192.894 34.1183 191.199 34.9659 188.798 34.9659C186.891 34.9659 185.267 34.3302 183.995 32.9883C182.724 31.7171 182.159 29.8808 182.159 27.6207V16.8149H186.75V27.0557C186.75 28.2564 187.032 29.1745 187.668 29.8101C188.304 30.4458 189.151 30.7283 190.21 30.7283C191.411 30.7283 192.329 30.3752 193.035 29.6689C193.742 28.9626 194.095 27.8326 194.095 26.3495V16.8149H194.024Z" fill="black"/>
<path id="path20" d="M219.026 34.4715H213.729L209.915 29.1039L206.031 34.4715H200.805L207.232 25.4313L201.016 16.8149H206.243L209.845 21.7588L213.376 16.8149H218.602L212.387 25.4313L219.026 34.4715Z" fill="black"/>
<path id="path22" d="M39.847 24.4424C41.6833 24.3012 43.1664 25.5018 43.3077 27.3381C43.4489 29.245 42.107 30.7988 40.2708 30.94C38.5051 31.0813 36.9513 29.7394 36.8101 27.9737C36.6688 26.0668 37.9401 24.6543 39.847 24.4424Z" fill="#86DA2F"/>
<path id="path24" d="M17.5292 39.4859C17.5292 37.6496 18.9417 36.2371 20.6368 36.2371C22.3318 36.2371 23.9562 37.7908 23.9562 39.5565C23.9562 41.2515 22.5437 42.7347 20.9193 42.8053C18.8711 42.8053 17.5292 41.534 17.5292 39.4859Z" fill="#24C2FF"/>
<path id="path26" d="M22.5436 18.8631C22.2611 19.0044 22.1199 18.7925 22.0492 18.5806C19.4361 13.7074 20.213 7.56295 24.8037 3.89039C26.0043 2.90162 28.2644 2.68974 29.2531 3.67851C29.6769 4.03164 29.7475 4.4554 29.8181 4.94978C29.9594 6.00917 30.1713 7.06857 30.8775 7.91608C31.6544 8.83422 32.6432 9.18735 33.7732 9.11673C34.762 9.11673 35.7508 8.97547 36.3864 10.1055C36.7395 10.7411 36.5983 13.213 36.0333 13.7074C35.7508 13.9193 35.5389 13.7781 35.327 13.7074C33.7026 13.0718 32.0076 13.0718 30.3125 13.3543C29.7475 13.4249 29.465 13.2837 29.465 12.648C29.3944 11.5886 29.1825 10.5999 28.6175 9.68174C27.5581 7.77483 25.5806 7.7042 24.3093 9.46986C23.2499 10.8824 22.9674 12.5774 22.6849 14.2724C22.4024 15.7556 22.473 17.3094 22.5436 18.8631Z" fill="#FFCB12"/>
<path id="path28" d="M24.3093 19.9225C24.168 19.7106 24.2386 19.4987 24.4505 19.3574C28.4762 15.6849 34.4794 14.9786 39.1408 18.5806C40.3414 19.5693 41.1183 21.6175 40.4827 22.8181C40.2002 23.3125 39.847 23.5244 39.4233 23.6657C38.4345 24.0894 37.5164 24.5132 36.8807 25.4313C36.2451 26.3495 36.1038 27.4088 36.3863 28.5389C36.5982 29.457 36.9514 30.4458 36.0332 31.2933C35.5388 31.7877 33.1375 32.2114 32.5019 31.7877C32.2194 31.5758 32.29 31.3639 32.3607 31.0814C32.5725 29.3158 32.1488 27.6913 31.5131 26.1376C31.3013 25.5726 31.3719 25.2901 31.9369 25.1488C32.9257 24.8663 33.8438 24.3719 34.5501 23.6657C36.1038 22.1825 35.7507 20.2756 33.7025 19.4281C32.0781 18.7218 30.3831 18.8631 28.7587 19.0043C27.2049 19.0749 25.7218 19.4987 24.3093 19.9225Z" fill="#86DA2F"/>
<path id="path30" d="M23.3912 21.7587C23.6031 21.5468 23.7443 21.6175 23.9562 21.7587C28.6175 24.5838 31.0188 30.1632 28.9 35.6014C28.335 37.014 26.4988 38.4265 25.1569 38.0734C24.5918 37.9321 24.3093 37.6496 24.0268 37.2965C23.3912 36.449 22.6849 35.6721 21.6255 35.3189C20.4955 34.9658 19.5067 35.1777 18.518 35.7427C17.6705 36.2371 16.8229 36.8727 15.7635 36.2371C15.1279 35.8839 14.0685 33.6945 14.2804 32.9883C14.4216 32.7058 14.7042 32.7058 14.9867 32.7058C16.7523 32.4233 18.1648 31.5758 19.5067 30.4457C19.9305 30.0926 20.2836 30.0926 20.6368 30.587C21.2018 31.4345 21.908 32.1408 22.8262 32.6351C24.6625 33.6945 26.4281 32.7764 26.64 30.6576C26.8519 28.892 26.2162 27.3382 25.6512 25.7844C25.0156 24.3719 24.2387 23.03 23.3912 21.7587Z" fill="#24C2FF"/>
<path id="path32" d="M21.1312 22.1824C20.8486 23.595 20.213 24.9369 19.3655 26.1375C16.823 29.9513 13.1504 31.5051 8.6303 31.0813C7.0059 30.9401 5.664 29.5982 5.52275 28.2563C5.45212 27.6913 5.59337 27.2675 5.9465 26.8438C6.44089 26.2081 6.86465 25.6431 7.07652 24.8662C7.50028 23.3125 6.93527 22.0412 5.80525 20.9112C4.25147 19.3574 4.46335 17.9449 6.29963 16.8148C6.51151 16.6736 6.79402 16.5323 7.07652 16.3911C7.50028 16.1792 7.85341 16.1792 7.99466 16.6736C8.6303 18.298 9.90158 19.4986 11.3141 20.4874C11.8085 20.9112 11.8085 21.1937 11.3847 21.6881C10.5372 22.6062 10.0428 23.7362 9.9722 25.0075C9.83095 26.5613 10.7491 27.55 12.3029 27.55C13.2916 27.55 14.2098 27.1969 15.0573 26.7731C17.2467 25.6431 18.9417 24.0187 20.5661 22.3237C20.778 22.2531 20.8486 22.1118 21.1312 22.1824Z" fill="#0069DA"/>
<path id="path34" d="M9.54845 7.35107C9.68971 7.35107 10.0428 7.4217 10.396 7.49232C13.0091 7.98671 14.6335 7.06857 15.4811 4.59665C16.0461 2.97225 17.2467 2.47787 18.8005 3.32538C18.8711 3.32538 18.8711 3.39601 18.9417 3.39601C20.5662 4.31415 20.5662 4.4554 19.5774 5.86792C18.7299 6.99794 18.3061 8.26921 18.0942 9.61111C17.953 10.388 17.6705 10.5292 16.9642 10.2467C15.8342 9.82298 14.6335 9.82298 13.4329 10.2467C12.091 10.6705 11.526 11.8711 11.9497 13.213C12.5148 14.9787 14.0685 15.7556 15.4104 16.6737C16.7523 17.5919 18.3061 18.0862 19.7893 18.7219C20.0011 18.7925 20.3543 18.7925 20.2836 19.1456C20.213 19.3575 19.9305 19.3575 19.648 19.3575C16.4698 19.4988 13.4329 19.0044 10.961 16.8856C8.63031 14.9787 6.93528 12.648 7.21779 9.39923C7.42967 8.33984 8.20656 7.56295 9.54845 7.35107Z" fill="#FF4649"/>
<path id="path36" d="M3.75707 27.197C2.06204 27.4089 0.367016 25.9963 0.225764 24.2307C0.0845118 22.5357 1.49703 20.8406 3.12144 20.6994C4.95772 20.4875 6.65274 21.7588 6.794 23.4538C6.86462 25.0782 5.80523 27.0557 3.75707 27.197Z" fill="#0069DA"/>
<path id="path38" d="M33.4202 2.05394C35.1858 1.91268 36.8809 3.32521 37.0221 5.09086C37.1634 6.78588 35.7509 8.41028 34.0558 8.55154C32.2195 8.69279 30.5951 7.35089 30.4539 5.58524C30.3126 3.81959 31.5839 2.19519 33.4202 2.05394Z" fill="#FFCB12"/>
<path id="path40" d="M14.9867 3.3959C15.1986 5.23219 13.9273 6.78597 12.0204 7.06847C10.396 7.28035 8.70094 5.93845 8.48906 4.38467C8.27718 2.33651 9.4072 0.853354 11.3141 0.641475C13.0798 0.429596 14.7748 1.7715 14.9867 3.3959Z" fill="#FF4649"/>
</g>
<defs>
<clipPath id="clip0_133_553">
<rect width="218.81" height="42.186" fill="white" transform="translate(0.216003 0.619385)"/>
</clipPath>
</defs>
</svg>
