<svg width="192" height="57" viewBox="0 0 192 57" fill="none" xmlns="http://www.w3.org/2000/svg">
<g id="jetstream2-head-logo 1" clip-path="url(#clip0_128_190)">
<g id="Layer_2_00000002345003680731727880000015040511464820500137_">
<g id="Layer_3">
<path id="Vector" d="M135.89 10.5686L131.434 33.902H120.574C118.138 33.9659 116.049 32.1759 116.049 29.9385C116.049 29.6189 116.049 29.2992 116.119 28.9796L117.72 20.4773C118.347 17.6645 120.992 15.6189 124.055 15.491H129.485L130.251 11.4636C130.39 11.08 130.181 10.6326 129.764 10.5047C129.624 10.4408 129.555 10.4408 129.416 10.4408H121.967L122.941 5.45448H131.434C133.871 5.39055 135.89 7.11658 136.029 9.35402C135.959 9.86544 135.959 10.249 135.89 10.5686ZM128.58 20.5412H124.194C123.568 20.5412 123.011 20.9248 122.941 21.5001L121.688 28.0846C121.619 28.5321 121.897 28.9157 122.384 29.0435C122.454 29.0435 122.524 29.0435 122.593 29.0435H126.979L128.58 20.5412Z" fill="#991B1E"/>
<path id="Vector_2" d="M79.0834 10.5687L75.7418 28.0208C75.6722 28.4683 75.9507 28.8518 76.438 28.9797C76.5076 28.9797 76.5772 28.9797 76.6468 28.9797H81.0326L80.058 33.966H74.628C72.1914 34.0299 70.1726 32.3039 70.0334 30.0664C70.0334 29.6829 70.0334 29.3632 70.1726 28.9797L75.533 0.660034H80.963L79.9884 5.64634H85.4184L84.4438 10.6326H79.0834V10.5687Z" fill="#991B1E"/>
<path id="Vector_3" d="M98.5062 10.5687H94.1204C93.4938 10.5687 93.0065 10.9523 92.8673 11.5276L88.6207 33.902H83.1907L87.6461 10.5687C88.2727 7.75591 90.9181 5.71025 93.9811 5.5824H99.4112L98.5062 10.5687Z" fill="#991B1E"/>
<path id="Vector_4" d="M116.745 10.5687L114.518 22.2673H103.658L102.544 28.0847C102.405 28.4683 102.683 28.9157 103.17 28.9797C103.24 28.9797 103.31 28.9797 103.379 28.9797H111.942L110.967 33.902H101.5C99.0631 33.966 96.9746 32.176 96.9746 29.9386C96.9746 29.6189 96.9746 29.2993 97.0442 28.9797L100.525 10.5687C101.152 7.75592 103.797 5.71026 106.86 5.58241H112.29C114.727 5.51848 116.745 7.24451 116.885 9.48195C116.885 9.86551 116.885 10.2491 116.745 10.5687ZM111.246 11.4637C111.315 11.0801 111.107 10.6966 110.689 10.6326C110.619 10.6326 110.55 10.6326 110.48 10.6326H106.93C106.373 10.6326 105.955 11.0162 105.816 11.5276L104.702 17.345H110.132L111.246 11.4637Z" fill="#991B1E"/>
<path id="Vector_5" d="M38.5671 10.5686L36.3394 22.2673H25.4097L24.3655 28.0846C24.2959 28.4682 24.5047 28.9157 24.992 28.9796C25.0616 28.9796 25.1312 28.9796 25.2009 28.9796H33.7636L32.7194 33.9659H23.2516C20.8151 34.0298 18.7266 32.2399 18.7266 30.0024C18.7266 29.6828 18.7266 29.3631 18.7962 29.0435L22.277 10.6326C22.9035 7.81977 25.5489 5.7741 28.612 5.64625H34.1117C36.5482 5.58232 38.5671 7.30835 38.7063 9.54579C38.7063 9.86543 38.6367 10.249 38.5671 10.5686ZM32.9978 11.4636C33.0674 11.08 32.8586 10.6965 32.4409 10.6326C32.3713 10.6326 32.3017 10.6326 32.232 10.6326H28.6816C28.1247 10.6326 27.707 11.0161 27.5678 11.5275L26.3843 17.281H31.8144L32.9978 11.4636Z" fill="#991B1E"/>
<path id="Vector_6" d="M20.6759 0.659996L14.2016 34.6691C13.4358 38.5047 9.53735 39.9111 5.36041 39.9111H0L1.3227 34.6691H7.44888C8.28426 34.6691 8.98042 34.0938 9.11965 33.3267L15.3851 0.596069H20.6759V0.659996Z" fill="#991B1E"/>
<path id="Vector_7" d="M161.926 5.51844C164.363 5.45452 166.381 7.18054 166.521 9.41799C166.521 9.80155 166.521 10.1212 166.381 10.5047L161.926 33.8381H156.496L160.743 11.4636C160.882 11.0801 160.603 10.6326 160.116 10.5047C160.046 10.5047 159.977 10.5047 159.907 10.5047H155.521L151.066 33.8381H145.636L149.883 11.4636C150.022 11.0162 149.743 10.6326 149.256 10.5047C149.186 10.5047 149.117 10.5047 149.047 10.5047H144.661L140.206 33.8381H134.776L139.231 10.5047L140.206 5.51844H161.926Z" fill="#991B1E"/>
<path id="Vector_8" d="M172.716 5.64634C173.343 2.83355 175.988 0.787888 179.052 0.660034H187.962C190.956 0.660034 192.418 2.83355 191.861 5.58241L190.677 12.3587C190.26 15.8746 188.798 17.2171 185.804 17.2171L182.323 17.281C176.336 17.345 172.786 20.1578 172.299 23.2262L171.324 28.9797H187.405L186.431 33.966H167.983C165.407 33.966 165.337 32.7514 165.755 30.2582L167.008 23.2902C169.514 11.9751 181.07 12.4865 185.387 12.4865L186.5 6.47739C186.64 6.09382 186.361 5.64634 185.874 5.51848C185.804 5.51848 185.804 5.51848 185.735 5.51848H177.798L176.824 10.4409H171.811L172.716 5.64634Z" fill="#991B1E"/>
<path id="Vector_9" d="M63.3503 10.5687H70.2422L71.2168 5.5824H64.3249C62.5845 5.5824 60.8441 6.02989 59.3822 6.92486C57.9899 7.75591 56.8064 8.84267 55.971 10.1851C55.1356 11.4637 54.7179 12.8701 54.7875 14.3404C54.8571 15.8107 55.4141 17.1532 56.3887 18.3039L62.6541 24.7605C63.3503 25.5276 63.3503 26.6144 62.7933 27.3815C62.2364 28.2765 61.2618 28.8518 60.1479 28.9157H51.8637L51.3067 31.7924C55.2748 31.9842 59.2429 32.3678 63.1414 33.0071C63.4895 32.8792 63.768 32.6874 64.116 32.4956C65.5083 31.6646 66.6918 30.5139 67.5272 29.2354C68.293 27.9568 68.7107 26.5504 68.7107 25.0801C68.641 23.6098 68.0841 22.2034 67.0399 21.1166L60.7745 14.66C60.0783 13.8929 60.0783 12.8061 60.6352 11.9751C61.2618 11.208 62.2364 10.6326 63.3503 10.5687Z" fill="#991B1E"/>
<path id="Vector_10" d="M47.269 10.5687H52.6991L53.6737 5.58241H48.2437L49.2183 0.660034H43.7883L38.3582 28.9797C38.0798 30.3221 38.4975 31.7285 39.4721 32.6874C42.4656 32.1121 45.5983 31.7925 48.6614 31.7925L49.2183 28.9797H44.8325C44.3452 28.9797 43.9275 28.66 43.9275 28.2125C43.9275 28.1486 43.9275 28.0847 43.9275 28.0208L47.269 10.5687Z" fill="#991B1E"/>
<path id="Vector_11" d="M0.696152 51.8016C18.1001 42.9797 33.5547 36.3952 59.3822 40.3587C71.8434 42.1486 84.1653 44.8336 96.4873 47.2628C112.22 50.3313 128.093 53.0801 144.104 50.7148C153.642 49.3085 160.534 46.6874 167.704 40.4226C172.647 36.1395 175.71 28.8518 176.754 24.5687C175.571 26.5505 174.318 29.1715 172.647 31.4728C165.825 40.7422 155.73 44.1943 144.313 45.0893C133.523 45.9203 122.941 44.5779 112.36 42.5961C97.81 39.7833 83.3299 36.5231 68.7107 33.9021C46.7121 30.7057 35.9913 27.8929 0.696152 51.8016Z" fill="url(#paint0_linear_128_190)"/>
</g>
</g>
</g>
<defs>
<linearGradient id="paint0_linear_128_190" x1="11.7144" y1="55.783" x2="173.784" y2="22.0095" gradientUnits="userSpaceOnUse">
<stop stop-color="#69090D"/>
<stop offset="0.18" stop-color="#6C0A0E"/>
<stop offset="0.3" stop-color="#750B11"/>
<stop offset="0.41" stop-color="#840E16"/>
<stop offset="0.5" stop-color="#9A121D"/>
<stop offset="0.59" stop-color="#B51726"/>
<stop offset="0.67" stop-color="#D71D31"/>
<stop offset="0.68" stop-color="#DC1E33"/>
<stop offset="0.75" stop-color="#DC2132"/>
<stop offset="0.81" stop-color="#DE2B30"/>
<stop offset="0.86" stop-color="#E03C2D"/>
<stop offset="0.91" stop-color="#E25428"/>
<stop offset="0.96" stop-color="#E67221"/>
<stop offset="1" stop-color="#EA941A"/>
</linearGradient>
<clipPath id="clip0_128_190">
<rect width="192" height="56" fill="white" transform="translate(0 0.660034)"/>
</clipPath>
</defs>
</svg>
