<?xml version="1.0" encoding="UTF-8"?>
<svg id="Layer_1" data-name="Layer 1" xmlns="http://www.w3.org/2000/svg" version="1.1" viewBox="0 0 208 68.6">
  <defs>
    <style>
      .cls-1 {
        fill: #000;
      }

      .cls-1, .cls-2 {
        stroke-width: 0px;
      }

      .cls-2 {
        fill: #a80030;
      }
    </style>
  </defs>
  <g>
    <path class="cls-2" d="M37.4,34.5c-.9,0,.2.4,1.3.6.3-.2.6-.5.8-.7-.7.2-1.4.2-2.1.1"/>
    <path class="cls-2" d="M42,33.3c.5-.7.9-1.5,1-2.3-.1.6-.4,1.1-.7,1.6-1.6,1-.2-.6,0-1.2-1.7,2.2-.2,1.3-.3,1.9"/>
    <path class="cls-2" d="M43.7,28.9c.1-1.6-.3-1.1-.4-.5.2,0,.3,1.1.4.5"/>
    <path class="cls-2" d="M34.1,7.6c.5,0,1,.1.9.3.5-.1.6-.2-.9-.3"/>
    <path class="cls-2" d="M35,7.9h-.3c0,0,.3,0,.3,0h0"/>
    <path class="cls-2" d="M49.4,29.5c0,1.4-.4,2.1-.8,3.3l-.7.4c-.6,1.2,0,.8-.4,1.7-1,.8-2.9,2.7-3.5,2.8-.5,0,.3-.5.4-.7-1.3.9-1,1.3-3,1.8h0c-4.8,2.1-11.5-2.4-11.4-8.5,0,.4-.1.3-.3.4-.2-3.2,1.5-6.3,4.3-7.6,2.8-1.4,6.1-.8,8.1,1.1-1.1-1.4-3.3-3-5.9-2.8-2.6,0-4.9,1.7-5.7,3.4-1.3.8-1.5,3.2-2,3.6-.8,5.6,1.4,8.1,5.2,10.9.6.4.2.5.2.8-1.2-.6-2.4-1.5-3.3-2.5.5.7,1,1.4,1.7,2-1.2-.4-2.7-2.8-3.2-2.9,2,3.6,8.2,6.3,11.4,5-1.5,0-3.4,0-5.1-.6-.7-.4-1.7-1.1-1.5-1.3,4.4,1.6,9,1.2,12.8-1.8,1-.8,2-2,2.3-2.1-.5.7,0,.3-.3.9,1-1.6-.4-.6,1-2.7l.5.7c-.2-1.3,1.6-2.9,1.4-4.9.4-.6.5.7,0,2.1.6-1.6.2-1.9.3-3.2.2.4.4.9.5,1.4-.4-1.5.4-2.6.6-3.5-.2,0-.6.7-.7-1.1,0-.8.2-.4.3-.6-.2,0-.6-.7-.8-1.9.2-.3.5.7.7.8-.2-.9-.4-1.6-.4-2.3-.7-1.5-.3.2-.8-.6-.8-2.4.6-.6.7-1.6,1.2,1.7,1.8,4.3,2.1,5.3-.2-1.3-.6-2.6-1.1-3.8.4.1-.6-2.7.5-.8-1.1-4-4.7-7.8-8-9.5.4.4.9.8.7.9-1.6-1-1.4-1.1-1.6-1.5-1.3-.5-1.4,0-2.3,0-2.5-1.3-3-1.2-5.3-2v.5c-1.6-.6-1.8.2-3.6,0-.1,0,.6-.3,1.1-.4-1.6.2-1.5-.3-3.1,0,.4-.3.8-.5,1.2-.7-1.3,0-3.1.8-2.6.1-2.1,1-5.9,2.3-8.1,4.3v-.4c-1,1.2-4.3,3.5-4.6,5h-.3c-.5.9-.8,1.9-1.2,2.8-.7,1.1-1,.4-.9.6-1.3,2.7-2,4.9-2.5,6.7.4.6,0,3.6.2,6-.7,11.9,8.3,23.4,18.2,26.1,1.4.5,3.6.5,5.4.5-2.1-.6-2.4-.3-4.5-1.1-1.5-.7-1.8-1.5-2.9-2.5l.4.7c-2.1-.7-1.2-.9-2.9-1.5l.5-.6c-.7,0-1.8-1.1-2.1-1.8h-.7c-.9-1.1-1.4-1.9-1.3-2.5l-.2.4c-.3-.5-3.3-4.1-1.7-3.3-.3-.3-.7-.4-1.1-1.2l.3-.4c-.8-1-1.4-2.2-1.3-2.6.4.5.7.6,1,.7-1.9-4.7-2-.3-3.4-4.8h.3c-.2-.4-.4-.8-.6-1.1v-1.3c-1.2-1.6-.2-6.7,0-9.6.1-1.1,1.1-2.4,1.9-4.3h-.5c.9-1.6,5.1-6.3,7-6.1.9-1.2-.2,0-.4-.3,2.1-2.1,2.7-1.5,4.1-1.9,1.5-.9-1.3.3-.6-.3,2.6-.7,1.8-1.5,5.2-1.8.4.2-.8.3-1.1.6,2.2-1.1,6.9-.8,9.9.6,3.5,1.7,7.5,6.5,7.7,11.1h.2c0,1.9.3,4-.4,5.9l.4-.9"/>
    <path class="cls-2" d="M27.9,35.7v.6c.4.8.9,1.6,1.6,2.2-.5-1-.9-1.4-1.6-2.8"/>
    <path class="cls-2" d="M29.3,35.6c-.3-.3-.5-.7-.7-1.1.2.7.6,1.3.9,1.9l-.3-.8"/>
    <path class="cls-2" d="M53,30.5v.3c-.4,1.7-.9,3.3-1.6,4.8.9-1.6,1.4-3.3,1.6-5.1"/>
    <path class="cls-2" d="M34.3,7.2c.6-.2,1.4-.1,2.1-.3-.8,0-1.6.1-2.4.2h.4"/>
    <path class="cls-2" d="M13.8,18.1c.1,1.2-.9,1.7.2.9.6-1.4-.2-.4-.2-.9"/>
    <path class="cls-2" d="M12.4,23.9c.3-.8.3-1.3.4-1.8-.7,1-.3,1.2-.4,1.8"/>
  </g>
  <path class="cls-1" d="M80.9,32.4c0,0,0,8.9-.2,11.2-.1,1.9-.3,5.9-4.2,5.9s-5.1-4.7-5.4-6.7c-.4-2.3-.4-4.1-.4-5,0-2.6.2-10,6.4-10s2.9.6,3.7,1v3.6ZM65,38.9c0,15.5,8.3,15.5,9.5,15.5,3.4,0,5.6-1.9,6.6-5.1v4.9c1.2,0,2.2-.2,3.9-.2s1.1,0,1.5,0c.4,0,.9,0,1.4.1-.9-1.8-1.5-5.7-1.5-14.3s0-22.5.7-26.8c-2,.9-3.7,1.5-7.4,1.9,1.5,1.6,1.5,2.4,1.5,9.7-1-.3-2.4-.7-4.6-.7-9.9,0-11.5,8.6-11.5,15"/>
  <path class="cls-1" d="M94.8,36.1c0-4.6,1-8.6,4.9-8.6s4.6,4.7,4.5,8.6h-9.4ZM109.7,36.6c0-6.4-1.3-12.8-9.4-12.8s-11.2,12.4-11.2,15.1c0,11.2,5,15.6,13.4,15.6s5.6-.5,6.6-.8c0-2,.2-3.2.6-5-1.2.7-2.6,1.7-5.9,1.7-8.6,0-8.7-7.8-8.7-10.5h14.6v-3.2"/>
  <path class="cls-1" d="M127.6,39c0,5.1-.9,12-7.3,12s-2-.2-2.7-.3c-.1-2-.1-5.4-.1-9.4s.5-7.2.9-8.4c1.2-3.9,3.7-4,4.2-4,4.2,0,5,5.8,5,10.1ZM111.8,45c0,4.1,0,6.4-.7,8.1,2.3.9,5.1,1.4,8.4,1.4s8.4,0,11.7-6.9c1.6-3.2,2.1-7.5,2.1-10.7s-.2-6.3-1.8-9.1c-1.5-2.6-4-3.9-6.7-3.9-5.3,0-6.8,4.4-7.7,6.7,0-2.8,0-12.6.5-17.6-3.6,1.7-5.8,1.9-8.1,2.1,2.1.9,2.1,4.5,2.1,16.4v13.5"/>
  <path class="cls-1" d="M144,54.2c-1.1-.2-1.9-.3-3.5-.3s-3,.1-4.2.3c.6-1,.8-1.5.9-5.1.2-4.9.3-18-.1-20.8-.3-2.1-.8-2.4-1.5-3,4.5-.4,5.8-.8,7.9-1.8-.4,2.4-.5,3.6-.5,7.3-.1,19-.2,21,1,23.3"/>
  <path class="cls-1" d="M161.7,38.6c-.1,3.5-.2,5.9-1.1,7.8-1.2,2.5-3.1,3.2-4.5,3.2-3.3,0-4-2.8-4-5.4,0-5.2,4.6-5.6,6.7-5.6h2.9ZM146.5,45.4c0,3.5,1,6.9,4.1,8.4,1.4.6,2.8.6,3.2.6,5.1,0,6.8-3.7,7.8-6.1,0,2.4,0,3.9.2,5.8,1,0,2-.2,3.6-.2s1.8.1,2.8.2c-.6-.9-.9-1.5-1.1-3.6-.1-2.1-.1-4.2-.1-7.1v-11.2c0-4.2-1-8.3-9.3-8.3s-8.6,1.7-10.2,2.5c.7,1.2,1.2,2.3,1.7,4.6,2.1-1.9,5-2.9,7.8-2.9,4.6,0,4.6,3,4.6,7.3-1,0-1.9-.2-3.4-.2-7,0-11.6,2.7-11.6,10.1"/>
  <path class="cls-1" d="M193.4,48.7c0,1.9,0,3.9.8,5.5-1.2-.1-1.9-.3-4.2-.3s-2,.1-3.1.3c.2-.7.3-1,.4-1.9.2-1.3.3-5.5.3-7v-5.9c0-2.6,0-6.3-.2-7.7-.1-.9-.4-3.5-3.6-3.5s-4.2,2.3-4.6,4.2c-.4,1.9-.4,4-.4,12.2,0,7,0,7.7.6,9.6-.9-.1-2.1-.2-3.7-.2s-2.2,0-3.3.2c.4-.9.6-1.3.7-4.4.1-3,.3-17.9-.2-21.4-.3-2.1-.8-2.6-1.4-3.2,4.5-.2,5.9-.9,7.3-1.7v5.8c.7-1.7,2-5.5,7.5-5.5s6.9,5,7,8.3v16.6"/>
  <path class="cls-2" d="M144.5,15.8l-4.6,4.6-4.6-4.6,4.6-4.6,4.6,4.6"/>
</svg>