<svg width="183" height="35" viewBox="0 0 183 35" fill="none" xmlns="http://www.w3.org/2000/svg">
<g id="Vector">
<path d="M30.5881 0.654297H3.74134C2.05638 0.654297 0.67778 2.10715 0.67778 3.88287V11.4914H8.12385V10.2486C8.12385 9.2843 8.86534 8.50287 9.78034 8.50287H24.5491C25.4641 8.50287 26.2056 9.2843 26.2056 10.2486V11.4914H33.6517V3.8843C33.6517 2.10715 32.2731 0.654297 30.5881 0.654297Z" fill="#DA1A32"/>
<path d="M26.2056 25.0714C26.2056 26.0357 25.4641 26.8172 24.5491 26.8172H9.78169C8.86669 26.8172 8.1252 26.0357 8.1252 25.0714V23.8286H0.67778V31.4372C0.67778 33.2129 2.05638 34.6657 3.74134 34.6657H30.5881C32.2731 34.6657 33.6517 33.2129 33.6517 31.4372V23.8286H26.2056V25.0714Z" fill="#DA1A32"/>
<path d="M8.12385 13.7357H0.67778V21.5829H8.12385V13.7357Z" fill="#DA1A32"/>
<path d="M33.6517 13.7357H26.2056V21.5829H33.6517V13.7357Z" fill="#DA1A32"/>
<path d="M182.322 24.2514C182.322 23.0343 181.383 22.0443 180.228 22.0443C179.073 22.0443 178.134 23.0343 178.134 24.2514C178.134 25.4686 179.073 26.4586 180.228 26.4586C181.383 26.4586 182.322 25.4686 182.322 24.2514ZM180.228 25.9172C179.356 25.9172 178.647 25.17 178.647 24.2514C178.647 23.3329 179.356 22.5857 180.228 22.5857C181.1 22.5857 181.808 23.3329 181.808 24.2514C181.807 25.17 181.098 25.9172 180.228 25.9172Z" fill="#4E4540"/>
<path d="M181.013 23.8514V23.8386C181.013 23.6257 180.952 23.4557 180.839 23.3372C180.71 23.2014 180.519 23.13 180.282 23.13H179.511V25.2929H179.935V24.5829H180.202L180.58 25.2929H181.067L180.63 24.49C180.858 24.3857 181.013 24.1786 181.013 23.8514ZM180.584 23.8643C180.584 24.0586 180.466 24.1886 180.25 24.1886H179.936V23.5357H180.241C180.458 23.5357 180.584 23.6443 180.584 23.86V23.8643Z" fill="#4E4540"/>
<path d="M56.5036 17.81V17.51C56.5036 12.2872 53.253 8.4943 48.8339 8.4943C44.3822 8.4943 41.1004 12.3529 41.1004 17.5429V17.8414C41.1004 23.0643 44.3524 26.8229 48.7715 26.8229C53.2205 26.8243 56.5036 23 56.5036 17.81ZM44.6656 17.7429V17.5429C44.6656 14.2486 46.276 11.8214 48.7688 11.8214C51.1993 11.8214 52.9358 14.2829 52.9358 17.5757V17.7757C52.9358 21.0686 51.3254 23.53 48.8325 23.53C46.402 23.5314 44.6656 21.0372 44.6656 17.7429Z" fill="#4E4540"/>
<path d="M73.4833 17.8772V17.4114C73.4833 11.4557 70.3262 8.49573 66.9807 8.49573C64.5814 8.49573 63.1296 9.96001 62.0885 11.6557V8.82715H58.522V31.4814H62.0885V23.7972C63.0984 25.36 64.5502 26.7914 66.9807 26.7914C70.3588 26.7914 73.4833 23.7986 73.4833 17.8772ZM62.0248 17.81V17.4772C62.0248 14.0172 63.8562 11.8229 66.002 11.8229C68.1492 11.8229 69.8843 13.9857 69.8843 17.5114V17.8114C69.8843 21.3386 68.1804 23.4672 66.002 23.4672C63.8562 23.4657 62.0248 21.27 62.0248 17.81Z" fill="#4E4540"/>
<path d="M88.9394 24.0972L87.0768 21.7686C85.972 22.9 84.8036 23.6314 83.2257 23.6314C81.0473 23.6314 79.3109 22.0343 78.9964 19.0743H89.4762C89.5073 18.5429 89.5073 18.01 89.5073 17.7772C89.5073 12.4886 87.108 8.49573 82.5628 8.49573C78.4596 8.49573 75.4285 12.2886 75.4285 17.5772V17.8429C75.4285 23.3657 78.774 26.8243 83.0671 26.8243C85.5613 26.8243 87.4238 25.7943 88.9394 24.0972ZM82.5628 11.6557C84.6463 11.6557 85.846 13.6843 86.0358 16.4786H78.9652C79.2173 13.4857 80.6054 11.6557 82.5628 11.6557Z" fill="#4E4540"/>
<path d="M99.9817 8.49573C97.7085 8.49573 96.3515 9.86001 95.404 11.4229V8.82858H91.8375V26.46H95.404V15.7814C95.404 13.3529 96.6986 11.8886 98.5611 11.8886C100.455 11.8886 101.56 13.2529 101.56 15.7143V26.46H105.126V14.65C105.126 10.89 103.201 8.49573 99.9817 8.49573Z" fill="#4E4540"/>
<path d="M119.504 21.4357V21.4029C119.504 18.6414 117.547 17.3786 114.959 16.1472C113.002 15.2157 111.676 14.6172 111.676 13.4529V13.3857C111.676 12.4214 112.465 11.6557 113.791 11.6557C115.116 11.6557 116.506 12.3214 117.768 13.2186L119.283 10.4572C117.706 9.26001 115.717 8.56144 113.854 8.56144C110.73 8.56144 108.331 10.5572 108.331 13.7172V13.7843C108.331 16.6786 110.414 17.8757 112.908 19.0072C114.897 19.9057 116.191 20.4714 116.191 21.7357V21.7686C116.191 22.8672 115.339 23.6986 113.856 23.6986C112.373 23.6986 110.762 22.9329 109.247 21.6372L107.574 24.3314C109.5 26.0272 111.804 26.7929 113.792 26.7929C117.012 26.7914 119.504 24.8957 119.504 21.4357Z" fill="#4E4540"/>
<path d="M130.549 25.96V22.8657C129.95 23.1986 129.319 23.3643 128.623 23.3643C127.487 23.3643 126.824 22.7986 126.824 21.4343V12.0529H130.581V8.82573H126.824V4.06858H123.258V8.82573H121.427L122.012 12.0529H123.257V22.1986C123.257 25.6257 125.119 26.7229 127.581 26.7229C128.782 26.7257 129.729 26.4257 130.549 25.96Z" fill="#4E4540"/>
<path d="M144.218 10.4243C143.144 9.26001 141.471 8.62858 139.293 8.62858C137.052 8.62858 135.378 9.1943 133.769 10.0257L134.779 13.02C135.884 12.4886 137.209 11.9557 138.82 11.9557C141.093 11.9557 142.419 13.1872 142.419 15.5486V16.2814C141.283 15.8814 140.145 15.5829 138.568 15.5829C135.032 15.5829 132.633 17.4457 132.633 21.2372V21.4029C132.633 24.83 134.969 26.7914 137.746 26.7914C139.924 26.7914 141.407 25.7929 142.386 24.2972V26.46H145.89V15.5157C145.89 13.3186 145.322 11.5886 144.218 10.4243ZM142.45 20.5372C142.45 22.5329 140.872 23.9972 138.82 23.9643C137.273 23.9314 136.106 22.9329 136.106 21.17V21.1029C136.106 19.24 137.306 18.1429 139.357 18.1429C140.556 18.1429 141.63 18.4086 142.45 18.7743V20.5372Z" fill="#4E4540"/>
<path d="M161.052 24.1643L159.127 21.67C158.149 22.7014 157.17 23.4657 155.718 23.4657C153.288 23.4657 151.584 21.17 151.584 17.7443V17.5786C151.584 14.2514 153.288 11.89 155.625 11.89C157.14 11.89 158.119 12.6886 159.003 13.6529L160.991 10.8914C159.602 9.42715 158.024 8.49573 155.625 8.49573C151.237 8.49573 147.986 12.2886 147.986 17.5443V17.8772C147.986 23.1329 151.143 26.8257 155.498 26.8257C158.054 26.8243 159.726 25.7272 161.052 24.1643Z" fill="#4E4540"/>
<path d="M171.97 17.3086L169.466 20.1443L172.824 26.4586H176.96L171.97 17.3086Z" fill="#4E4540"/>
<path d="M172.572 8.82715L166.858 16.5786V2.44144H163.292V26.4586H166.858V21.37L176.802 8.82715H172.572Z" fill="#4E4540"/>
</g>
</svg>
