<svg width="216" height="39" viewBox="0 0 216 39" fill="none" xmlns="http://www.w3.org/2000/svg">
<g id="vexxhost 1" clip-path="url(#clip0_133_450)">
<g id="Group">
<g id="Group_2">
<path id="Vector" d="M66.8344 11.2683L59.1353 29.5667H56.1738L48.4517 11.2683H51.1792L57.6584 27.0655L64.1031 11.2683H66.8344Z" fill="#2A1659"/>
<path id="Vector_2" d="M84.5574 11.2683V13.3053H74.3878V17.2143H72.0056V11.2683H84.5574ZM84.3579 21.2422H72.0056V19.1976H84.3579V21.2422ZM74.384 27.5335H84.5536V29.5743H72.0056V23.2063H74.3878L74.384 27.5335Z" fill="#2A1659"/>
<path id="Vector_3" d="M107.685 11.1802L92.7475 29.5668H89.7285L104.666 11.1802H107.685ZM95.6745 18.4688L89.7285 11.1802H92.7974L97.1936 16.6121L95.6745 18.4688ZM107.712 29.5591H104.697L100.239 24.1079L101.774 22.2397L107.712 29.5591Z" fill="#2A1659"/>
<path id="Vector_4" d="M130.84 11.1802L115.899 29.5668H112.899L127.821 11.1802H130.84ZM118.829 18.4688L112.883 11.1802H115.952L120.349 16.6121L118.829 18.4688ZM130.867 29.5591H127.86L123.398 24.1079L124.933 22.2397L130.867 29.5591Z" fill="#2A1659"/>
<path id="Vector_5" d="M152.027 19.1401V29.5667H149.641V21.177H136.038V11.2683H138.424V19.1401H152.027ZM136.038 29.5667V23.1603H138.424V29.5667H136.038ZM149.626 17.1568V11.2683H152.027V17.1568H149.626Z" fill="#6536FF"/>
<path id="Vector_6" d="M176.229 20.4022C176.229 25.8035 172.351 29.8544 166.693 29.8544C161.035 29.8544 157.183 25.8035 157.183 20.4022C157.183 15.0009 161.019 10.95 166.693 10.95C172.366 10.95 176.229 15.0009 176.229 20.4022ZM173.759 20.4022C173.759 16.1211 170.97 12.9601 166.693 12.9601C162.416 12.9601 159.654 16.1211 159.654 20.4022C159.654 24.6833 162.381 27.8443 166.693 27.8443C171.005 27.8443 173.759 24.6526 173.759 20.4022Z" fill="#6536FF"/>
<path id="Vector_7" d="M195.821 24.5107C195.821 27.1538 193.925 29.8813 188.754 29.8813C185.451 29.8813 182.981 28.6768 181.4 26.9812L182.835 25.2281C183.595 26.0682 184.525 26.738 185.562 27.1935C186.599 27.649 187.721 27.88 188.854 27.8712C192.272 27.8712 193.362 26.1181 193.362 24.6834C193.362 19.9726 182.014 22.6157 182.014 16.0943C182.014 13.0752 184.83 10.9807 188.624 10.9807C191.524 10.9807 193.795 11.9282 195.402 13.5356L193.968 15.2043C192.529 13.6698 190.515 13.0177 188.421 13.0177C186.153 13.0177 184.485 14.1954 184.485 15.9216C184.473 20.0301 195.821 17.6748 195.821 24.5107Z" fill="#6536FF"/>
<path id="Vector_8" d="M200.965 13.3053V11.2683H215.5V13.3053H200.965ZM207.026 29.5667V15.2886H209.408V29.5667H207.026Z" fill="#6536FF"/>
</g>
<g id="Group_3">
<g id="Group_4">
<path id="Vector_9" d="M21.3647 29.5171H21.9824L17.9736 23.9739L17.6092 24.3306L21.3647 29.5171Z" fill="#2A1659"/>
<path id="Vector_10" d="M8.72852 11.1074H8.05336L15.1003 20.8512C15.2039 20.7016 15.3113 20.5558 15.4187 20.4062L8.72852 11.1074Z" fill="#2A1659"/>
<path id="Vector_11" d="M10.0597 11.1074H9.38834L15.7602 19.9305L16.0862 19.497L10.0597 11.1074Z" fill="#2A1659"/>
<path id="Vector_12" d="M22.6844 29.517H23.2943L18.7638 23.2065L18.3802 23.5556L22.6844 29.517Z" fill="#2A1659"/>
<path id="Vector_13" d="M24.284 29.5171H28.0243L21.7138 20.717C20.9044 21.35 20.118 22.0021 19.3623 22.6773L24.284 29.5171Z" fill="#2A1659"/>
<path id="Vector_14" d="M14.8126 11.1074H11.0264L16.6118 18.8296C17.2562 18.001 17.9352 17.1954 18.6372 16.409L14.8126 11.1074Z" fill="#2A1659"/>
</g>
<path id="Vector_15" d="M36.8401 12.9871C37.6529 15.0541 38.0781 17.253 38.0945 19.474C38.1261 24.0242 36.5023 28.4307 33.5257 31.8724C31.2653 34.4939 28.3172 36.4315 25.0141 37.4666C21.711 38.5017 18.1844 38.5929 14.8322 37.7301C12.585 37.1688 10.4629 36.1917 8.57544 34.8492C5.73647 32.8281 3.49943 30.0742 2.10295 26.8813C0.706483 23.6884 0.202975 20.1763 0.646145 16.7197C1.25212 12.1227 3.49862 7.89942 6.97194 4.82767C8.68493 3.31331 10.6613 2.12618 12.8029 1.32529C14.9334 0.533475 17.1937 0.148318 19.4662 0.189794C23.9827 0.23659 28.3118 2.00197 31.5731 5.12689C28.1553 2.37698 23.8571 0.958321 19.4739 1.13348C17.3375 1.19845 15.2317 1.65889 13.2632 2.49147C11.3102 3.31948 9.52022 4.48856 7.977 5.94399C6.45141 7.38589 5.18495 9.07925 4.23293 10.9501C2.81631 13.7633 2.17378 16.9028 2.37131 20.0464C2.56883 23.1899 3.59929 26.2243 5.35692 28.838C6.51284 30.5785 7.97046 32.0985 9.66107 33.3263C11.3605 34.5441 13.2675 35.4423 15.2887 35.977C19.3793 37.0724 23.7279 36.6528 27.5336 34.7955C31.3683 32.8756 34.398 29.6583 36.0844 25.7154C36.9386 23.7314 37.4435 21.6146 37.5766 19.4587C37.705 17.2752 37.4558 15.0859 36.8401 12.9871Z" fill="#2A1659"/>
<g id="Group_5">
<path id="Vector_16" d="M36.8226 4.98017V4.96167H36.7745C36.7745 4.96167 36.793 4.96167 36.8226 4.98017Z" fill="#9EB3E5"/>
<path id="Vector_17" d="M14.195 25.6577C13.3894 26.7661 12.6466 27.9187 11.97 29.1102C12.2271 28.6307 12.4994 28.155 12.7795 27.6832C13.3779 26.6704 14.0301 25.6769 14.7244 24.6987C20.5707 16.5047 29.202 10.0868 37.5072 7.05245L36.8244 4.96176C36.7937 4.94258 36.7707 4.93107 36.7592 4.94258C25.0513 9.19685 14.2564 20.0991 10.474 32.2559C10.6581 31.8109 10.8576 31.3697 11.0609 30.9286C16.4813 22.0556 26.8888 14.7938 36.5789 11.6251L36.2912 9.63801C27.7673 12.3156 19.5579 18.2194 14.195 25.6577Z" fill="#6536FF"/>
</g>
</g>
</g>
</g>
<defs>
<clipPath id="clip0_133_450">
<rect width="215" height="38.1005" fill="white" transform="translate(0.5 0.189697)"/>
</clipPath>
</defs>
</svg>
