<svg width="32" height="33" viewBox="0 0 32 33" fill="none" xmlns="http://www.w3.org/2000/svg">
<g id="tw-Chat-Alt-2-Regular">
<path id="Shape" d="M2.75 8.73991C2.75 6.57679 4.50355 4.82324 6.66667 4.82324H20C22.1631 4.82324 23.9167 6.57679 23.9167 8.73991V10.1566H25.3333C27.4964 10.1566 29.25 11.9101 29.25 14.0732V22.0732C29.25 24.2364 27.4964 25.9899 25.3333 25.9899H23.9167V30.0732C23.9167 30.5788 23.6121 31.0346 23.145 31.2281C22.6779 31.4216 22.1403 31.3146 21.7828 30.9571L16.8156 25.9899H12C11.3749 25.9899 10.7834 25.8429 10.2588 25.5822L10.2172 25.6238C9.85972 25.9813 9.32207 26.0882 8.85498 25.8948C8.38789 25.7013 8.08333 25.2455 8.08333 24.7399V20.6566H6.66667C4.50355 20.6566 2.75 18.903 2.75 16.7399V8.73991ZM12.3511 23.4899H17.3333C17.6649 23.4899 17.9828 23.6216 18.2172 23.856L21.4167 27.0555V24.7399C21.4167 24.0496 21.9763 23.4899 22.6667 23.4899H25.3333C26.1157 23.4899 26.75 22.8556 26.75 22.0732V14.0732C26.75 13.2908 26.1157 12.6566 25.3333 12.6566H23.9167V16.7399C23.9167 18.903 22.1631 20.6566 20 20.6566H15.1844L12.3511 23.4899ZM21.4167 8.73991C21.4167 7.95751 20.7824 7.32324 20 7.32324H6.66667C5.88426 7.32324 5.25 7.95751 5.25 8.73991V16.7399C5.25 17.5223 5.88426 18.1566 6.66667 18.1566H9.33333C10.0237 18.1566 10.5833 18.7162 10.5833 19.4066V21.7221L13.7828 18.5227C14.0172 18.2883 14.3351 18.1566 14.6667 18.1566H20C20.7824 18.1566 21.4167 17.5223 21.4167 16.7399V8.73991Z" fill="#13151A"/>
</g>
</svg>
