<svg width="21" height="21" viewBox="0 0 21 21" fill="none" xmlns="http://www.w3.org/2000/svg">
<g id="gitlab">
<path id="Vector" d="M5.50122 1.29456L2.67627 8.82861L2.51733 9.25671L1.1792 12.8251L10.5 19.6055L19.8208 12.8251L18.4827 9.25671L15.4962 1.29456L13.0481 8.82861H7.9519L5.50122 1.29456ZM5.41406 5.26794L6.57275 8.82861H4.07849L5.41406 5.26794ZM15.5859 5.26794L16.9215 8.82861H14.4272L15.5859 5.26794ZM3.5863 10.1411H6.99829L9.24902 17.0728L2.7583 12.3508L3.5863 10.1411ZM8.37744 10.1411H12.6226L10.5 16.6703L8.37744 10.1411ZM14.0017 10.1411H17.4111L18.2417 12.3508L11.7484 17.0728L14.0017 10.1411Z" fill="white"/>
</g>
</svg>
