<?xml version="1.0" encoding="UTF-8"?><svg xmlns="http://www.w3.org/2000/svg" xmlns:xlink="http://www.w3.org/1999/xlink" viewBox="0 0 87.53 76.14"><defs><style>.uuid-e06f546c-6c8b-484f-a9d4-1c49cac8f65b{fill:#336ba0;}.uuid-e06f546c-6c8b-484f-a9d4-1c49cac8f65b,.uuid-d8254f48-bdfe-4bbf-be8e-9fe34285638f,.uuid-8e2c9388-57af-4202-91b3-252bf1da2e42,.uuid-0d9765ad-7277-45b3-ac21-59456d4ffb6f,.uuid-436691ee-8af6-4216-bcdb-a410467d544f,.uuid-a8baf2d1-decb-4cea-a40a-9863b8c248d0,.uuid-0882568a-2380-4823-87e4-0369e2c83b54,.uuid-4d517af8-7de4-4d7f-865a-0394b2fe0358,.uuid-d379bb86-f648-4b16-acc3-7543e2940168,.uuid-bd181ae6-c777-4e6a-9d66-8c15f4eb7c87,.uuid-cb1e972e-00c7-486e-a9f8-258cbad77ca7,.uuid-69d1f202-5ebc-4133-97b1-41d7e8b10700,.uuid-2b2a28c5-f0eb-4c00-8c82-b6b813def363,.uuid-ce657dfe-584c-4bc0-9d4e-84cc6b7d1f19,.uuid-5400d44f-af16-4658-bc15-f1952faeb6a6,.uuid-85b650c3-3470-4606-b297-ca70fa51adcc,.uuid-3c404034-5242-466b-a58a-ff1cc36a7553,.uuid-d12f64a8-df5c-47ff-8bb7-69baece49ece,.uuid-314eedd1-83ca-4f99-9630-dd58f76a0f3f,.uuid-0806c109-e9b6-4b02-950f-36d074e610d0,.uuid-c68314ed-8bb2-4247-b39e-705bdabae7ba,.uuid-30c6185c-29f2-497c-9c99-1a3cd4e8c906,.uuid-042f3ae3-3045-47c0-84fc-a5322ae8f207,.uuid-94f54e3f-8214-4934-94c9-6062f576fc84,.uuid-6f3da6a9-b615-4593-b57c-b021e54bb405{stroke-width:0px;}.uuid-d8254f48-bdfe-4bbf-be8e-9fe34285638f{fill:#939598;}.uuid-8e2c9388-57af-4202-91b3-252bf1da2e42,.uuid-55c11576-7786-40fe-9fdc-46e4aa1d41b1{fill:none;}.uuid-0d9765ad-7277-45b3-ac21-59456d4ffb6f{fill:url(#uuid-5f39b571-7337-4de1-a509-b43caed7aa09);}.uuid-436691ee-8af6-4216-bcdb-a410467d544f{fill:url(#uuid-28e6ccb6-5064-49c0-bcd9-b02b32a35705);}.uuid-a8baf2d1-decb-4cea-a40a-9863b8c248d0{fill:#bcc2d8;}.uuid-0882568a-2380-4823-87e4-0369e2c83b54{fill:#8b181b;}.uuid-4d517af8-7de4-4d7f-865a-0394b2fe0358{fill:#fff4ec;}.uuid-d379bb86-f648-4b16-acc3-7543e2940168{fill:#a7a9ac;}.uuid-bd181ae6-c777-4e6a-9d66-8c15f4eb7c87{fill:url(#uuid-5f6a8f8a-59fd-46a8-a05f-cc850269668d);}.uuid-cb1e972e-00c7-486e-a9f8-258cbad77ca7{fill:#d91f33;}.uuid-69d1f202-5ebc-4133-97b1-41d7e8b10700{fill:#bcbec0;}.uuid-2b2a28c5-f0eb-4c00-8c82-b6b813def363{fill:#c8e8fa;}.uuid-ce657dfe-584c-4bc0-9d4e-84cc6b7d1f19{fill:#000;}.uuid-5400d44f-af16-4658-bc15-f1952faeb6a6{fill:#4f4640;}.uuid-85b650c3-3470-4606-b297-ca70fa51adcc{fill:#d49470;}.uuid-55c11576-7786-40fe-9fdc-46e4aa1d41b1{stroke:url(#uuid-0a098827-705d-4554-bf09-d368db5017ae);stroke-width:.06px;}.uuid-55c11576-7786-40fe-9fdc-46e4aa1d41b1,.uuid-7249b87a-8ec8-4526-9303-df71367fb994{stroke-miterlimit:10;}.uuid-3c404034-5242-466b-a58a-ff1cc36a7553{fill:url(#uuid-0973de67-fcf3-48d0-a735-e84a141604a4);}.uuid-d12f64a8-df5c-47ff-8bb7-69baece49ece{fill:#231f20;}.uuid-314eedd1-83ca-4f99-9630-dd58f76a0f3f{fill:url(#uuid-26b45905-6bfe-4a1a-869f-904e7a628d36);}.uuid-0806c109-e9b6-4b02-950f-36d074e610d0{fill:#9b4922;}.uuid-c68314ed-8bb2-4247-b39e-705bdabae7ba{fill:#e6e7e8;}.uuid-30c6185c-29f2-497c-9c99-1a3cd4e8c906{fill:url(#uuid-a61c298e-04ec-4eb0-b0ec-bd10570717e1);}.uuid-042f3ae3-3045-47c0-84fc-a5322ae8f207{fill:url(#uuid-de7659cc-6043-440c-8530-53179e0f388b);}.uuid-7249b87a-8ec8-4526-9303-df71367fb994{filter:url(#uuid-9e4e1219-550f-4dbe-8c29-c9d2cea40166);stroke:#1e76ba;stroke-width:.07px;}.uuid-7249b87a-8ec8-4526-9303-df71367fb994,.uuid-94f54e3f-8214-4934-94c9-6062f576fc84{fill:#fff;}.uuid-6f3da6a9-b615-4593-b57c-b021e54bb405{fill:#1c75bc;}</style><filter id="uuid-9e4e1219-550f-4dbe-8c29-c9d2cea40166" filterUnits="userSpaceOnUse"><feOffset dx=".77" dy=".77"/><feGaussianBlur result="uuid-18770270-4e64-40cd-83b3-bae695bba2ae" stdDeviation="0"/><feFlood flood-color="#a0cdd7" flood-opacity=".42"/><feComposite in2="uuid-18770270-4e64-40cd-83b3-bae695bba2ae" operator="in"/><feComposite in="SourceGraphic"/></filter><linearGradient id="uuid-0a098827-705d-4554-bf09-d368db5017ae" x1="71.31" y1="13.89" x2="84.95" y2="13.89" gradientTransform="translate(-.79 -.8)" gradientUnits="userSpaceOnUse"><stop offset="0" stop-color="#1a54a0"/><stop offset="1" stop-color="#2b7cc1"/></linearGradient><linearGradient id="uuid-0973de67-fcf3-48d0-a735-e84a141604a4" x1="14.45" y1="34.92" x2="35.16" y2="34.92" gradientUnits="userSpaceOnUse"><stop offset="0" stop-color="#3975bb"/><stop offset="1" stop-color="#39c3e0"/></linearGradient><linearGradient id="uuid-5f6a8f8a-59fd-46a8-a05f-cc850269668d" x1="14.71" y1="43.48" x2="34.9" y2="43.48" xlink:href="#uuid-0973de67-fcf3-48d0-a735-e84a141604a4"/><linearGradient id="uuid-28e6ccb6-5064-49c0-bcd9-b02b32a35705" x1="63.7" y1="28.95" x2="71.61" y2="28.95" xlink:href="#uuid-0973de67-fcf3-48d0-a735-e84a141604a4"/><linearGradient id="uuid-de7659cc-6043-440c-8530-53179e0f388b" x1="-224.88" y1="-267.64" x2="-224.61" y2="-267.64" gradientTransform="translate(3606.31 4175.75) scale(15.86 15.4)" xlink:href="#uuid-0973de67-fcf3-48d0-a735-e84a141604a4"/><linearGradient id="uuid-5f39b571-7337-4de1-a509-b43caed7aa09" x1="-243.63" y1="-329.85" x2="-243.39" y2="-329.85" gradientTransform="translate(3027.23 2214.17) scale(12.26 6.55)" xlink:href="#uuid-0973de67-fcf3-48d0-a735-e84a141604a4"/><linearGradient id="uuid-26b45905-6bfe-4a1a-869f-904e7a628d36" x1="-244.76" y1="-335.04" x2="-244.53" y2="-335.04" gradientTransform="translate(3266.22 2094.96) scale(13.18 6.09)" xlink:href="#uuid-0973de67-fcf3-48d0-a735-e84a141604a4"/><linearGradient id="uuid-a61c298e-04ec-4eb0-b0ec-bd10570717e1" x1="-229.31" y1="-295.26" x2="-229.07" y2="-295.26" gradientTransform="translate(1478.82 3836.28) scale(6.27 12.81)" xlink:href="#uuid-0973de67-fcf3-48d0-a735-e84a141604a4"/></defs><g id="uuid-e7963870-740c-4904-8587-62eb7b71d471"><circle class="uuid-2b2a28c5-f0eb-4c00-8c82-b6b813def363" cx="45.14" cy="35.38" r="33.74"/><rect class="uuid-94f54e3f-8214-4934-94c9-6062f576fc84" x="1.45" y="9.39" width="34.65" height="10.13" rx="3.99" ry="3.99"/><path class="uuid-cb1e972e-00c7-486e-a9f8-258cbad77ca7" d="M8.6,11.74h-4.57c-.29,0-.52.23-.52.52v1.23h1.27v-.2c0-.16.13-.28.28-.28h2.51c.16,0,.28.13.28.28v.2h1.27v-1.23c0-.29-.23-.52-.52-.52Z"/><path class="uuid-cb1e972e-00c7-486e-a9f8-258cbad77ca7" d="M7.85,15.68c0,.16-.13.28-.28.28h-2.51c-.16,0-.28-.13-.28-.28v-.2h-1.27v1.23c0,.29.23.52.52.52h4.57c.29,0,.52-.23.52-.52v-1.23h-1.27v.2Z"/><rect class="uuid-cb1e972e-00c7-486e-a9f8-258cbad77ca7" x="3.51" y="13.85" width="1.27" height="1.27"/><rect class="uuid-cb1e972e-00c7-486e-a9f8-258cbad77ca7" x="7.85" y="13.85" width="1.27" height="1.27"/><path class="uuid-5400d44f-af16-4658-bc15-f1952faeb6a6" d="M34.4,15.55c0-.2-.16-.36-.36-.36s-.36.16-.36.36.16.36.36.36.36-.16.36-.36ZM34.05,15.82c-.15,0-.27-.12-.27-.27s.12-.27.27-.27.27.12.27.27c0,.15-.12.27-.27.27Z"/><path class="uuid-5400d44f-af16-4658-bc15-f1952faeb6a6" d="M34.18,15.48h0s-.01-.06-.03-.08c-.02-.02-.05-.03-.09-.03h-.13v.35h.07v-.11h.05l.06.11h.08l-.07-.13s.07-.05.07-.1ZM34.11,15.48s-.02.05-.06.05h-.05v-.11h.05s.06.02.06.05h0s0,0,0,0Z"/><path class="uuid-5400d44f-af16-4658-bc15-f1952faeb6a6" d="M13,14.51v-.05c0-.84-.55-1.46-1.3-1.46s-1.32.62-1.32,1.46v.05c0,.84.55,1.45,1.3,1.45.76,0,1.32-.62,1.32-1.45ZM10.99,14.5v-.03c0-.53.27-.92.7-.92s.71.4.71.93v.03c0,.53-.27.93-.7.93-.41,0-.71-.4-.71-.93Z"/><path class="uuid-5400d44f-af16-4658-bc15-f1952faeb6a6" d="M15.89,14.52v-.08c0-.96-.54-1.44-1.11-1.44-.41,0-.65.24-.83.51v-.46h-.61v3.66h.61v-1.24c.17.25.42.48.83.48.57,0,1.11-.48,1.11-1.44ZM13.94,14.51v-.05c0-.56.31-.91.68-.91s.66.35.66.92v.05c0,.57-.29.91-.66.91-.36,0-.68-.35-.68-.91Z"/><path class="uuid-5400d44f-af16-4658-bc15-f1952faeb6a6" d="M18.52,15.52l-.32-.38c-.19.18-.39.3-.65.3-.37,0-.67-.26-.72-.74h1.78c0-.09,0-.17,0-.21,0-.85-.41-1.5-1.18-1.5-.7,0-1.21.61-1.21,1.47v.04c0,.89.57,1.45,1.3,1.45.42,0,.74-.17,1-.44ZM17.44,13.51c.35,0,.56.33.59.78h-1.2c.04-.48.28-.78.61-.78Z"/><path class="uuid-5400d44f-af16-4658-bc15-f1952faeb6a6" d="M20.4,13c-.39,0-.62.22-.78.47v-.42h-.61v2.85h.61v-1.72c0-.39.22-.63.54-.63s.51.22.51.62v1.73h.61v-1.91c0-.61-.33-.99-.87-.99Z"/><path class="uuid-5400d44f-af16-4658-bc15-f1952faeb6a6" d="M23.72,15.09h0c0-.45-.33-.65-.77-.85-.33-.15-.56-.25-.56-.43h0c0-.17.13-.29.36-.29s.46.11.68.25l.26-.45c-.27-.19-.61-.31-.92-.31-.53,0-.94.32-.94.83h0c0,.48.35.67.78.85.34.15.56.24.56.44h0c0,.18-.15.32-.4.32s-.53-.12-.78-.33l-.28.43c.33.27.72.4,1.06.4.55,0,.97-.31.97-.86Z"/><path class="uuid-5400d44f-af16-4658-bc15-f1952faeb6a6" d="M25.6,15.82v-.5c-.1.05-.21.08-.33.08-.19,0-.31-.09-.31-.31v-1.51h.64v-.52h-.64v-.77h-.61v.77h-.31l.1.52h.21v1.64c0,.55.32.73.74.73.2,0,.37-.05.5-.12Z"/><path class="uuid-5400d44f-af16-4658-bc15-f1952faeb6a6" d="M27.92,13.31c-.18-.19-.47-.29-.84-.29s-.67.09-.94.23l.17.48c.19-.09.41-.17.69-.17.39,0,.61.2.61.58v.12c-.19-.06-.39-.11-.66-.11-.6,0-1.01.3-1.01.91v.03c0,.55.4.87.87.87.37,0,.62-.16.79-.4v.35h.6v-1.77c0-.35-.1-.63-.28-.82ZM27.62,14.95c0,.32-.27.56-.62.55-.26,0-.46-.17-.46-.45h0c0-.31.2-.49.55-.49.2,0,.39.04.53.1v.28Z"/><path class="uuid-5400d44f-af16-4658-bc15-f1952faeb6a6" d="M30.79,15.53l-.33-.4c-.17.17-.33.29-.58.29-.41,0-.7-.37-.7-.92v-.03c0-.54.29-.92.69-.92.26,0,.42.13.57.28l.34-.45c-.24-.24-.5-.39-.91-.39-.75,0-1.3.61-1.3,1.46v.05c0,.85.54,1.44,1.28,1.44.43,0,.72-.18.94-.43Z"/><polygon class="uuid-5400d44f-af16-4658-bc15-f1952faeb6a6" points="32.64 14.43 32.22 14.88 32.79 15.9 33.49 15.9 32.64 14.43"/><polygon class="uuid-5400d44f-af16-4658-bc15-f1952faeb6a6" points="32.75 13.06 31.77 14.31 31.77 12.03 31.17 12.03 31.17 15.9 31.77 15.9 31.77 15.08 33.47 13.06 32.75 13.06"/><path class="uuid-7249b87a-8ec8-4526-9303-df71367fb994" d="M77.96,16.5c-.48-1.48-1.81-2.61-3.46-2.75-.16-.01-.31-.02-.47-.01-.46-2.68-2.66-4.82-5.5-5.07-2.6-.23-4.97,1.2-6.05,3.42-2.46.2-4.5,2.15-4.72,4.69-.25,2.76,1.73,5.21,4.45,5.58v.02s13.95,1.25,13.95,1.25c.07.01.14.02.21.03,2.03.18,3.82-1.32,4-3.35.15-1.71-.88-3.24-2.42-3.8Z"/><rect class="uuid-e06f546c-6c8b-484f-a9d4-1c49cac8f65b" x="70.55" y="7.78" width="13.58" height="10.63" rx="1.03" ry="1.03"/><rect class="uuid-55c11576-7786-40fe-9fdc-46e4aa1d41b1" x="70.55" y="7.78" width="13.58" height="10.63" rx="1.03" ry="1.03"/><path class="uuid-94f54e3f-8214-4934-94c9-6062f576fc84" d="M80.29,12.47h-.43c-.07-.23-.16-.45-.29-.66l.33-.33c.13-.13.13-.33,0-.45l-.46-.46c-.13-.13-.33-.13-.45,0l-.35.35c-.19-.11-.4-.19-.62-.25v-.52c0-.18-.14-.32-.32-.32h-.65c-.18,0-.32.14-.32.32v.53c-.21.05-.41.14-.6.24l-.38-.38c-.13-.13-.33-.13-.45,0l-.46.46c-.13.13-.13.33,0,.45l.36.36c-.12.19-.21.4-.28.61h-.5c-.18,0-.32.14-.32.32v.65c0,.18.14.32.32.32h.44c.05.24.13.47.25.69l-.3.3c-.13.13-.13.33,0,.45l.46.46c.13.13.33.13.45,0l.26-.26c.22.14.46.25.71.32v.36c0,.18.14.32.32.32h.65c.18,0,.32-.14.32-.32v-.34c.26-.06.51-.16.73-.3l.25.25c.13.13.33.13.45,0l.46-.46c.13-.13.13-.33,0-.45l-.26-.26c.13-.22.22-.46.28-.71h.4c.18,0,.32-.14.32-.32v-.65c0-.18-.14-.32-.32-.32ZM77.69,14.8c-1.16.22-2.16-.78-1.94-1.94.12-.65.65-1.17,1.3-1.3,1.16-.22,2.16.78,1.94,1.94-.12.65-.65,1.17-1.3,1.3Z"/></g><g id="uuid-3efdd890-99cd-49a8-9442-44b9998510e3"><path class="uuid-ce657dfe-584c-4bc0-9d4e-84cc6b7d1f19" d="M66.81,46.55l-.41.17c.02.05,2.09,5.07.04,7.22l.32.31c2.24-2.36.13-7.48.04-7.7Z"/><path class="uuid-ce657dfe-584c-4bc0-9d4e-84cc6b7d1f19" d="M66.01,46.3c-.19.33-.54.87-.95,1.37-.11-.84-.36-1.49-.38-1.54l-.83.33s.4,1.03.36,2.05c-.32.24-.63.39-.91.33-.55-.11-.93-1-1.1-2.56l-.22.02c.19,1.71.61,2.62,1.28,2.75.06.01.11.02.17.02.25,0,.51-.11.76-.27-.02.17-.05.34-.11.49-.5,1.5.13,3.54.15,3.62l.85-.26s-.57-1.86-.16-3.08c.17-.52.2-1.08.16-1.59.62-.71,1.08-1.52,1.11-1.58l-.19-.11Z"/><path class="uuid-ce657dfe-584c-4bc0-9d4e-84cc6b7d1f19" d="M23.33,48.69c-.04-.84.15-1.89.36-2.57l-.91-.28c-.06.18-.33,1.14-.4,2.19-.2-.43-.35-1.06-.44-1.89l-.22.02c.12,1.09.34,1.85.65,2.3,0,.73.14,1.46.55,1.95.41.49.44.67.44.68,0-.02,0-.1.06-.17.05-.06.12-.1.21-.1l.05.95c.19-.01.45-.12.57-.4.17-.38-.02-.87-.6-1.57-.17-.2-.26-.52-.3-.89,1.2-.22,2.53-2.54,2.59-2.65l-.19-.11c-.4.7-1.53,2.34-2.42,2.53Z"/><rect class="uuid-69d1f202-5ebc-4133-97b1-41d7e8b10700" x="6.3" y="62.06" width="72.48" height="1.18"/><path class="uuid-d12f64a8-df5c-47ff-8bb7-69baece49ece" d="M78.56,62.29v.73H6.52v-.73h72.04M79,61.84H6.08v1.62h72.93v-1.62h0Z"/><polygon class="uuid-94f54e3f-8214-4934-94c9-6062f576fc84" points="6.08 62.06 5.96 61.65 25.8 49.8 25.91 49.77 59.8 49.77 59.91 49.81 79.12 61.65 79 62.06 6.08 62.06"/><path class="uuid-d12f64a8-df5c-47ff-8bb7-69baece49ece" d="M59.8,50l19.21,11.85H6.08l19.84-11.85h33.88M59.8,49.55H25.91l-.23.06-19.84,11.85.23.83h72.93l.23-.82-19.21-11.85-.23-.07h0Z"/><polygon class="uuid-d8254f48-bdfe-4bbf-be8e-9fe34285638f" points="8.77 68.84 8.55 68.62 8.55 63.46 8.77 63.24 76.42 63.24 76.64 63.46 76.64 68.62 76.42 68.84 8.77 68.84"/><path class="uuid-d12f64a8-df5c-47ff-8bb7-69baece49ece" d="M76.42,63.46v5.16H8.77v-5.16h67.65M76.42,63.02H8.77l-.44.44v5.16l.44.44h67.65l.44-.44v-5.16l-.44-.44h0Z"/><rect class="uuid-d12f64a8-df5c-47ff-8bb7-69baece49ece" x="8.77" y="63.46" width="67.94" height="2.18"/><path class="uuid-c68314ed-8bb2-4247-b39e-705bdabae7ba" d="M74.02,46.46c-22.86-1.04-44.26-1.3-62.72,0v-21.85c19.65,2.08,40.82,1.73,62.72,0v21.85Z"/><path class="uuid-ce657dfe-584c-4bc0-9d4e-84cc6b7d1f19" d="M10.85,46.94v-22.82l.49.05c18.02,1.91,38.51,1.91,62.64,0l.48-.04v22.8l-.46-.02c-25.64-1.17-46.14-1.17-62.67,0l-.48.03ZM39.24,45.14c10.29,0,21.68.29,34.33.86v-20.91c-23.75,1.86-43.99,1.86-61.83.01v20.88c8.16-.56,17.28-.84,27.5-.84Z"/><path class="uuid-3c404034-5242-466b-a58a-ff1cc36a7553" d="M33.87,41.43l-18.3.62c-.62.02-1.13-.47-1.13-1.09v-12.06c0-.63.53-1.12,1.15-1.09l18.53,1.02c.59.03,1.04.52,1.03,1.11l-.23,10.42c-.01.58-.47,1.05-1.05,1.06Z"/><path class="uuid-ce657dfe-584c-4bc0-9d4e-84cc6b7d1f19" d="M26.46,36.42l-12.22.5c-.32.01-.59-.25-.59-.57v-8.92c0-.33.28-.59.61-.57l12.22.84c.3.02.53.27.53.57v7.58c0,.31-.24.56-.55.57Z"/><path class="uuid-c68314ed-8bb2-4247-b39e-705bdabae7ba" d="M25.29,29.46s-.01,0-.02,0l-10.12-.7c-.12,0-.21-.11-.21-.24,0-.12.12-.21.24-.21l10.12.7c.12,0,.21.11.21.24,0,.12-.11.21-.22.21Z"/><path class="uuid-c68314ed-8bb2-4247-b39e-705bdabae7ba" d="M25.13,31.12s0,0-.01,0l-9.93-.49c-.12,0-.22-.11-.21-.23s.09-.22.23-.21l9.93.49c.12,0,.22.11.21.23,0,.12-.1.21-.22.21Z"/><path class="uuid-c68314ed-8bb2-4247-b39e-705bdabae7ba" d="M25.15,32.68h0l-9.93-.22c-.12,0-.22-.1-.22-.23s.09-.2.23-.22l9.93.22c.12,0,.22.1.22.23,0,.12-.1.22-.22.22Z"/><path class="uuid-c68314ed-8bb2-4247-b39e-705bdabae7ba" d="M15.36,34.05c-.12,0-.22-.1-.22-.22,0-.12.1-.22.22-.22l5.97-.05h0c.12,0,.22.1.22.22,0,.12-.1.22-.22.22l-5.97.05h0Z"/><path class="uuid-c68314ed-8bb2-4247-b39e-705bdabae7ba" d="M15.6,35.67c-.12,0-.22-.09-.22-.21,0-.12.09-.23.21-.23l3.7-.15c.14,0,.23.09.23.21,0,.12-.09.23-.21.23l-3.7.15h0Z"/><polygon class="uuid-bd181ae6-c777-4e6a-9d66-8c15f4eb7c87" points="34.9 43.69 14.71 44.54 14.71 43.23 34.9 42.41 34.9 43.69"/><polygon class="uuid-94f54e3f-8214-4934-94c9-6062f576fc84" points="51.49 41.94 72.64 41.94 72.64 26.17 51.49 27.6 51.49 41.94"/><path class="uuid-436691ee-8af6-4216-bcdb-a410467d544f" d="M64.86,30.99h5.59c.64,0,1.16-.52,1.16-1.16v-1.76c0-.66-.55-1.19-1.21-1.16l-5.59.24c-.62.03-1.11.54-1.11,1.16v1.52c0,.64.52,1.16,1.16,1.16Z"/><rect class="uuid-d379bb86-f648-4b16-acc3-7543e2940168" x="63.7" y="31.4" width="7.91" height="9.53" rx="1.38" ry="1.38"/><path class="uuid-6f3da6a9-b615-4593-b57c-b021e54bb405" d="M60.08,40.18c-.39,0-.61-.96-1.05-3.31-.35-1.82-.82-4.31-1.35-4.31h0c-.46,0-.89,1.89-1.24,3.41-.48,2.08-.8,3.36-1.34,3.36h0c-.43,0-1-.74-1.66-6.4,0-.06.04-.12.1-.12.06,0,.12.04.12.1.65,5.59,1.22,6.21,1.44,6.21h0c.39,0,.79-1.77,1.12-3.19.51-2.23.86-3.58,1.45-3.58h0c.67,0,1.05,1.78,1.57,4.5.24,1.24.59,3.11.84,3.13.39-.05.69-3.88.85-5.93.28-3.53.37-4.16.65-4.16h.01c.22,0,.54.18,1.13,10.19,0,.06-.04.11-.1.12h0c-.06,0-.11-.05-.11-.1-.45-7.64-.75-9.55-.92-9.93-.16.41-.3,2.26-.43,3.9-.34,4.31-.56,6.12-1.06,6.14h0Z"/><polygon class="uuid-d12f64a8-df5c-47ff-8bb7-69baece49ece" points="54.6 59.27 63.86 64.62 62.36 67.15 54.6 63.79 54.6 59.27"/><path class="uuid-d12f64a8-df5c-47ff-8bb7-69baece49ece" d="M68.57,66.06c-.59-.21-10.75-.32-10.75-.32l.11,1.18,5.33,2.39c-.3,3-.57,4.84-2.56,4.74l-5.65-3.15.59-5.16,1.41-13.93-29.27-.29.8,10.93-4.6,3.13-7.81,1.78s0,3.19.43,3.3c.13.03.72.04,1.5.05.25,1.64.98,5.27,2.57,5.35,1.68.09,5.1.04,6.31.02l34.6.79s5.35-1.61,5.62-6.53c0,0,.7.27.91,0s1.08-4.06.48-4.28ZM23.64,74.62s-1.61-2.28-1.63-3.95c.53,0,.88-.01.88-.01l6.56-4.92s.95,5.78.81,6.68l-6.62,2.2Z"/><path class="uuid-85b650c3-3470-4606-b297-ca70fa51adcc" d="M43.06,20.07l-5.65,3.26-2.98,7.21,3.64,8.36.63,3.53-5.06,2.14-2.86.7-2.42,1.72c-1.29,2.85-2.58,5.23-3.91,6.47l.4.66-5.81,7.01-1.51.84-1.19,3.83v2.42c2.02.27,3.78-.4,6.26-1.32l2.26-.81,4.58-6.6,1.31.12,2.68,1.1,20.87-6.29,1.59,3.3,1.56-.21,3.53,5.4c-.57,1.9-1.74,4.16-3.7,6.87l-1.69,1.12-1.02,2.83-.31,2.33s4.8,1.62,5.6.81.81-1.46.81-1.46l.07-3.84,3.72-3.35,2.37-2.39,1.48-3.01-6.8-9.06.26-.66-3.76-6.44-3.13-1.67-6.97-1.23v-4.25l3.23-4.88-.58-10.45-2.65-2.91-4.84-1.2Z"/><polygon class="uuid-a8baf2d1-decb-4cea-a40a-9863b8c248d0" points="26.58 56.57 25.03 54.39 24.46 53.45 26.86 50.04 28.36 46.98 31.04 45.2 33.42 45.13 35.92 44.81 38.07 43.39 39.57 42.53 39.46 44.35 39.61 46.81 40.33 48.04 42.95 48.06 44.69 48.29 45.62 48.66 46.18 47.5 46.85 45.04 46.54 42.53 51.34 44.67 55.38 45.26 56.76 46 58.75 47.56 60.29 51.27 61.61 53.49 60.87 54.83 58.6 56.82 56.8 57.72 55.87 57.72 54.5 54.86 54.5 57.72 51.93 62.38 51.53 68.94 52.57 72.37 53.64 75.1 54.25 76.44 30.17 75.66 31.02 73.44 33.8 67.67 30.81 60.05 33.16 59.65 35.51 59.7 37.98 58.77 39.1 58.63 40.7 57.61 39.2 57.51 37.51 58.09 35.92 57.72 38.24 55.9 37.98 54.83 38.37 54.45 38.27 53.77 36.45 53.62 38.27 52.86 38.17 51.85 36.53 51.74 36.88 51.27 36.53 50.79 34.34 50.98 30.59 53.01 28.63 54.74 27.6 55.96 26.58 56.57"/><path class="uuid-94f54e3f-8214-4934-94c9-6062f576fc84" d="M37.79,49.36l-.17,2.29h.57c.12.53.23,1.05.08,1.21l-.49.14.2.61.28-.09.1.92-.51.04.48,1.17-.23.99,2.38.86.93.11,2.19-.2,1.91-.87.54-7.19-.6-.76-1.71-.52h-2.33l-1.81.21-1.54.53-.28.54Z"/><polygon class="uuid-94f54e3f-8214-4934-94c9-6062f576fc84" points="34.59 51.81 34.79 50.49 35.92 49.79 37.92 49.84 38.25 50.8 37.03 50.72 36.31 50.89 36.07 51.27 36.2 51.68 34.59 51.81"/><path class="uuid-4d517af8-7de4-4d7f-865a-0394b2fe0358" d="M44.69,28.37c.1.65.37,1.26.96,1.8,0,0,2.12.1,2.19.08.36-.1,1.49-1.27,1.27-1.19l-1.78-1.43-1.81.23-.83.51Z"/><path class="uuid-4d517af8-7de4-4d7f-865a-0394b2fe0358" d="M41.66,27.86c-.1.65-.13,1.35-1.03,1.75,0,0-1.87-.17-1.94-.2-.34-.09-1.41-1.3-1.05-1.56.25-.18.2-.02,0,.19l1.56-1.25,1.44.18,1.03.89Z"/><polygon class="uuid-0806c109-e9b6-4b02-950f-36d074e610d0" points="39.9 27.2 39.35 27.4 39.2 28.41 39.61 29.06 40.05 29.33 40.49 29.06 40.63 28.27 40.63 27.86 40.33 27.2 39.9 27.2"/><polygon class="uuid-0806c109-e9b6-4b02-950f-36d074e610d0" points="46.78 27.68 46.24 27.87 46.09 28.89 46.5 29.54 46.94 29.8 47.38 29.54 47.76 28.74 47.71 28 47.21 27.68 46.78 27.68"/><path class="uuid-0882568a-2380-4823-87e4-0369e2c83b54" d="M38.7,34.44s1.21-.28,1.79-.34,2.91-.08,3.68.19,1.31.35,1.31.35c0,0-1.37,1.85-2.14,2.14-.69.26-1.52.37-1.52.37-.22-.11-1.2-.38-1.2-.38l-.93-.85c-.3-.09-1.03-1.43-.99-1.48Z"/><polygon class="uuid-4d517af8-7de4-4d7f-865a-0394b2fe0358" points="39.06 34.48 40.25 34.63 42.32 34.68 45.24 34.8 44.78 35.3 43.65 35.99 42.51 36.29 41.42 36.19 40.33 35.82 39.7 35.41 39.06 34.68 39.06 34.48"/><g id="uuid-4ebc2ce6-b5fb-40b6-8446-f539dd8cbf90"><g id="uuid-6a3b3d8c-af0c-41a2-b228-051042b94e64"><g id="uuid-d4c7c7f7-f8d8-48ac-972a-0be59a2fc02f"><path id="uuid-9701e99c-0ef2-4590-97e5-f2a9de8ff540" class="uuid-042f3ae3-3045-47c0-84fc-a5322ae8f207" d="M43.4,55.27c.05-.06.14.01.09.07-.05.06-.11.12-.16.18-.02.02-.06.02-.08,0-.02-.02-.02-.06,0-.08.06-.05.11-.11.16-.17h0ZM43.67,54.83c.03-.07.14-.02.11.05-.03.07-.07.15-.11.21-.02.03-.05.04-.08.02-.03-.02-.04-.05-.02-.08.04-.07.07-.13.11-.2h0ZM42.35,55.94c.08-.02.15-.04.22-.07.07-.03.12.08.04.11-.08.03-.16.05-.24.08-.03,0-.07-.01-.07-.04s.01-.06.04-.07h0ZM41.83,56.01c.08,0,.15,0,.23-.01.03,0,.06.02.07.05,0,.03-.02.06-.05.06-.08,0-.16.01-.25.01h0s-.06-.03-.06-.06.03-.06.06-.06h0ZM43.65,53.11s-.07,0-.08-.02c-.04-.07-.08-.13-.13-.19-.04-.06.05-.13.1-.07.05.06.09.13.14.2.02.03,0,.06-.02.08h0ZM40.21,52.87c-.05,0-.08-.06-.05-.09.05-.06.11-.12.16-.18.06-.06.14.03.08.08-.06.05-.11.11-.16.17-.01.01-.03.02-.05.02h0ZM40.01,55.01s.07,0,.08.02c.04.07.08.13.13.19.05.06-.05.13-.1.07-.05-.06-.09-.13-.14-.2-.02-.03,0-.06.02-.08ZM42.83,55.75c.07-.04.13-.08.2-.12.06-.04.13.05.07.09-.07.05-.14.09-.21.13-.07.04-.13-.06-.06-.1h0ZM41.6,52.12c-.08,0-.09-.11-.01-.12.08,0,.16-.01.24-.01h0s.06.03.06.06-.03.06-.06.06c-.08,0-.15,0-.23.01h0ZM40.63,52.49c-.06.05-.14-.05-.07-.09.07-.05.14-.09.21-.13.07-.04.13.06.06.1-.07.04-.13.08-.2.12h0ZM39.99,53.02c.04-.07.14,0,.1.06-.04.07-.07.13-.11.2-.03.07-.14.02-.11-.05.03-.07.07-.15.11-.21h0ZM42.37,52.18s-.01,0-.02,0c-.07-.02-.15-.03-.23-.05-.03,0-.06-.03-.05-.07,0-.03.04-.05.07-.05.08.01.16.03.24.05.07.02.05.11-.02.11h0ZM39.76,53.99s.06.03.06.06h0c0,.08,0,.16.01.23,0,.08-.11.09-.12.01,0-.08-.01-.16-.01-.24h0s.03-.06.06-.06h0ZM42.87,52.38s-.02,0-.03,0c-.07-.04-.14-.07-.21-.1-.07-.03-.02-.13.05-.11.08.03.15.07.22.11.05.03.03.11-.03.11ZM41.09,52.25c-.07.02-.11-.08-.04-.11.08-.03.16-.05.24-.07.03,0,.07.01.07.04,0,.03-.01.06-.04.07-.08.02-.15.04-.22.07h0ZM43.84,54.06c0-.07,0-.15-.01-.22,0-.03.02-.06.05-.06.03,0,.06.02.07.05,0,.08.01.16.01.24h0s-.03.06-.06.06-.06-.03-.06-.06h0ZM41.31,55.94c.07.02.15.03.23.05.08,0,.06.13-.02.12-.08-.01-.16-.03-.24-.05-.08-.02-.05-.14.03-.11h0ZM39.82,54.52s.07.01.07.04c.02.07.04.14.07.21.02.07-.08.11-.11.04-.03-.07-.06-.15-.08-.23,0-.03.01-.06.04-.07h0ZM43.84,53.6s-.07-.01-.07-.04c-.02-.07-.04-.15-.07-.21-.03-.07.08-.11.11-.04.03.07.06.15.08.23,0,.03-.01.06-.04.07h0ZM39.89,53.55c-.02.07-.04.15-.05.22-.01.08-.13.06-.12-.02.01-.08.03-.16.05-.24,0-.03.04-.05.07-.04.03,0,.05.04.04.07h0ZM40.82,55.75c.07.04.14.07.21.1.03.01.04.05.03.08-.01.03-.05.04-.08.03-.08-.03-.15-.07-.22-.11-.07-.04,0-.14.06-.1h0ZM40.41,55.44c.05.05.11.1.17.15.04.03.02.1-.04.1-.01,0-.03,0-.04-.01-.06-.05-.13-.1-.18-.16-.06-.06.03-.14.08-.08h0ZM43.77,54.57c.02-.07.04-.15.05-.22,0-.03.04-.05.07-.05.03,0,.06.03.05.07-.01.08-.03.16-.05.24-.02.07-.14.04-.12-.03h0ZM43.25,52.68c-.06-.05-.11-.1-.17-.15-.07-.05.01-.14.07-.09.06.05.13.1.18.16.05.06-.03.13-.09.08h0Z"/></g><g id="uuid-5cac8699-c676-4da4-82c6-f508a59db141"><g id="uuid-c12530dd-34ac-43c3-bae1-283f0630e19d"><path id="uuid-2d3fd15f-3d88-46fa-88c6-80dfb335aa80" class="uuid-0d9765ad-7277-45b3-ac21-59456d4ffb6f" d="M41.1,52.95c.17.06.34.11.51.17.17.05.35.12.52.14.22.02.43-.14.5-.35.04-.11.09-.08.16-.04.25.16.41.39.49.66.05.17.06.36.08.54,0,.1-.06.16-.15.21-.5.26-.95.16-1.4-.14-.24-.16-.51-.31-.78-.42-.14-.06-.31-.04-.47-.04-.18,0-.24-.06-.17-.22.14-.32.29-.49.7-.52h0Z"/><path id="uuid-1527f8e7-6532-44c7-8456-9f7511bc6479" class="uuid-314eedd1-83ca-4f99-9630-dd58f76a0f3f" d="M40.29,54.2c0-.27,0-.26.2-.3.39-.09.71.06,1.02.27.23.16.45.32.73.4.31.08.6.08.9-.03.04-.02.09,0,.14-.01,0,.05,0,.1-.02.14-.18.46-.73.55-1.18.36-.13-.06-.27-.12-.41-.16-.28-.07-.54.05-.66.3-.05.11-.1.1-.18.04-.37-.27-.5-.65-.55-1h0Z"/><path id="uuid-74f4d280-c91b-45f5-b625-b6158bb198cf" class="uuid-30c6185c-29f2-497c-9c99-1a3cd4e8c906" d="M42.61,55.41c-.19.06-.34.12-.5.15-.27.06-.54.03-.79-.08-.16-.07-.18-.24-.04-.35.13-.11.28-.12.43-.06.27.1.52.25.81.26.02,0,.04.03.1.08h0ZM41.11,52.69c.14-.05.28-.11.43-.13.24-.04.49-.04.73.05.11.04.19.11.18.23s-.1.19-.21.21c-.12.02-.25.01-.36-.02-.24-.07-.47-.16-.71-.25-.02,0-.04-.02-.06-.03,0-.02,0-.04,0-.05h0Z"/></g></g></g></g><path class="uuid-ce657dfe-584c-4bc0-9d4e-84cc6b7d1f19" d="M34.58,51.99l-.02-.11s-.24-1.64,1.03-2.03c.9-.27,1.89-.13,1.93-.12h.09s-.03,1.27-.03,1.27l-.12-.02s-.73-.1-1.09.07c-.29.14-.16.46-.14.5l.05.12-1.71.32ZM36.85,49.89c-.35,0-.79.03-1.19.16-.93.28-.92,1.35-.9,1.69l1.25-.23c-.05-.2-.03-.5.28-.65.32-.16.86-.13,1.09-.1l.02-.84c-.11-.01-.31-.03-.56-.03Z"/><polygon class="uuid-ce657dfe-584c-4bc0-9d4e-84cc6b7d1f19" points="37.81 49.79 37.81 51.65 37.51 51.65 37.51 49.83 37.81 49.79"/><path class="uuid-ce657dfe-584c-4bc0-9d4e-84cc6b7d1f19" d="M36.53,50.89s.31.47.13.63,1,.13,1,.13v-.64l-1.13-.12Z"/><path class="uuid-8e2c9388-57af-4202-91b3-252bf1da2e42" d="M38.24,51.75c.16.31.48,1.04.03,1.18-.06.02-.14.05-.23.07l.03.46c.13,0,.23.02.28.06.29.24,0,1.02,0,1.02l-.18.11v.18c.18.21.47.63.32.83-.07.09-.15.18-.22.27l.04.58c.42.25,3.89,2.2,7.13-.14l.48-6.52c-.64.57-2.34.88-3.96.88-1.83,0-3.75-.39-4.15-1.11l.14,1.91c.11.02.2.04.23.07.06.06.08.11.08.14Z"/><path class="uuid-8e2c9388-57af-4202-91b3-252bf1da2e42" d="M41.18,39.77c1.16.09,2.36-.03,3.56-.34,3.89-1.26,4.65-3.92,4.65-3.92h.32c.38-1.07.66-2.37.78-3.77l-.89,1.51.94-2.35c.11-3.3-.75-6.94-3.54-9.1-.61-.16-1.54.19-1.55.2l-.28.11v-.3c-.01-.17-.29-.5-1.28-.5h0c-2.85-.41-5.97,2.87-6.85,5.25-.16.41-2.02,5.27-.58,8.56,1.36,3.13,4.39,4.51,4.71,4.65ZM37.56,29.33l.27-.17-.66-.2.54-.15c-.02.14.11.29.39.44l-.54.08ZM37.92,28.74s.01.02.03.04c.1.14.41.57.78.63.44.07,1.83.13,1.83.13,0,0,.38-.03.61-.09.05-.02.1-.03.13-.05,0,0-.05.02-.13.05-.19.08-.52.22-.58.23-.08.02-1.8-.12-1.91-.14-.11-.02-.5-.13-.76-.81ZM40.84,31.66c.16.45.41.86.99,1.11-.34-.03-.63-.12-.87-.28l-.47.22.29-.33s-.02-.67.06-.71ZM38.68,34.44h0s0,0,0,0l6.84.24c-4.13,5.77-6.84-.24-6.84-.24ZM47.78,30.27c-.08.03-1.8.01-1.91,0-.11-.01-.51-.09-.82-.75,0,0,.01.02.03.04.11.13.46.54.82.57.44.04,1.83,0,1.83,0,0,0,.38-.05.6-.14.05-.02.09-.04.12-.06,0,0-.05.03-.12.06-.18.09-.5.25-.56.27ZM48.46,31.05c-.07,0-.13-.06-.13-.13s.06-.13.13-.13.13.06.13.13-.06.13-.13.13ZM48.87,30.35l-.54-.08c.28-.15.41-.29.39-.44l.54.15-.66.2.27.17ZM46.33,24.52c1.35.21,3.06,1.52,3.06,1.52,0,0-2.59-.71-3.44-.76s-1.26.3-1.26.3c0,0,.29-1.28,1.64-1.06ZM49.15,28.55l.75.11-.74.47-.33-.33c-.38-.36-.77-.59-1.14-.75.1.19.16.41.16.65,0,.67-.45,1.22-1,1.22s-1-.55-1-1.22c0-.33.11-.63.28-.84-.99.13-1.68.69-1.68.69,2.55-3.01,4.69.01,4.69.01ZM45.62,34.68s-3.57-.94-6.94-.24c0,0,2.73-1.16,6.94.24ZM43.63,32.41l.24.11s-.71,0-1.1.15c0,0,.45-.41.86-.26ZM40.37,24.19c1-.13,1.05,1.16,1.05,1.16,0,0-.25-.37-.87-.38s-2.58.53-2.58.53c0,0,1.4-1.18,2.4-1.31ZM37.72,27.66s2.25-2.77,4.15.48c0,0-.51-.58-1.32-.84.18.22.3.55.3.91,0,.67-.39,1.22-.87,1.22s-.87-.55-.87-1.22c0-.42.15-.79.38-1.01-.47.06-.98.27-1.52.72l-.34.3-.59-.54.68-.03Z"/><path class="uuid-8e2c9388-57af-4202-91b3-252bf1da2e42" d="M39.92,35.49c1.53.98,3.01.82,4.19.22.44-.31.82-.62.92-.93l-.93-.04c-1.09.03-2.6.04-3.88-.07h.02c-.45-.03-.88-.06-1.04-.03.1.24.4.54.72.84Z"/><path class="uuid-8e2c9388-57af-4202-91b3-252bf1da2e42" d="M40.05,29.15c.45,0,.58-.49.58-.93s-.14-.82-.64-.82c-.28,0-.51.38-.51.82s.16.93.57.93Z"/><path class="uuid-8e2c9388-57af-4202-91b3-252bf1da2e42" d="M24.76,54.43l-4.56,5.72,5.95-3.57c-.33-.3-1-1.3-1.39-2.15Z"/><polygon class="uuid-8e2c9388-57af-4202-91b3-252bf1da2e42" points="38.68 34.44 38.68 34.44 38.68 34.44 38.68 34.44"/><path class="uuid-8e2c9388-57af-4202-91b3-252bf1da2e42" d="M37.81,53.07h0s0,.39,0,.39c.02,0,.03,0,.05,0l-.03-.4s-.01,0-.02,0Z"/><path class="uuid-8e2c9388-57af-4202-91b3-252bf1da2e42" d="M45.24,34.99s-.09.08-.15.12c-3.2,2.96-5.9-.05-6.34-.59-.02-.02-.03-.03-.04-.05,2.74,4.71,5.54,1.63,6.53.51Z"/><path class="uuid-8e2c9388-57af-4202-91b3-252bf1da2e42" d="M46.92,29.62c.51,0,.66-.49.66-.93s-.16-.82-.74-.82c-.32,0-.58.38-.58.82s.19.93.66.93Z"/><path class="uuid-8e2c9388-57af-4202-91b3-252bf1da2e42" d="M57.98,47.22c-.87-.92-2.69-1.84-3.71-1.65-.27.05-.65.03-1.07-.04h0s0,0,0,0c-1.37-.23-3.16-.94-3.26-.98l-2.07-1.04c0,.11-.02.25-.04.42.17,1.16.1,3.85-.59,4.16.33-2.19.51-3.45.59-4.16-.05-.32-.11-.53-.19-.53l-.92-.46c.24,1.08.5,3.69-.93,5.81.25.18.4.38.4.62,0,.07-.02.13-.04.2l-.52,6.94-.04.03c-1.24.91-2.51,1.21-3.65,1.21-2.13,0-3.77-1.04-3.79-1.06l-.04-.03v-.05s-.03-.42-.03-.42c-.51.58-1.11,1.09-1.78,1.55.31.08.83.21,1.05.15.33-.07,1.94-.44,2.24-.44s1.26.21,1.26.21c0,0-1.52,1.15-2.06,1.23-.53.08-3.1.93-3.1.93-1.52-.09-3.3.08-4.66.17.14.36,1.14,2.95,1.72,4.28.62,1.45,1.16,2.7,1.23,3.22.08.59-.56,1.88-1.62,3.94-.37.72-.76,1.47-1.07,2.15,2-1.32,8.54-4.82,20.1-3.51,0,0-10.51-.85-20.19,3.71-.14.31-.26.59-.35.85,4.79-3.72,19.62-2.66,21.61-2.5-.52-1.52-.96-3.06-.96-3.98,0-2.23.32-5.44.32-5.48,0-.03.01-.06.03-.09.01-.02,1.23-2.08,1.81-3.37.15-.34.3-.84.43-1.39.27-1.25.37-2.4.24-3.41.16.14,1.56-2.65,1.56-4.77.2.16.2,3.38-.6,3.73.6.16,2.81-2.21,2.81-2.21-.8,1.42-1.71,2.7-2.92,3.58.13.59.3,1.18.48,1.67.02,0,4.14-1.54,4.97-3.07.1-.24.13-.41.15-.49,0,.16-.06.33-.15.49-.33.84-1.4,2.46-4.75,3.59.16.33.32.54.47.57.32.05,1.82-.76,3.3-1.92,1.33-1.04,1.87-1.73,1.95-2.05-.38-.55-.93-1.62-1.51-2.75-.74-1.43-1.57-3.06-2.06-3.58ZM45.87,59.8l-7.86,2.65s4.97-2.69,7.86-2.65ZM42.2,61.04c2.51.65,6.52-.33,6.52-.33-3.82,1.5-6.52.33-6.52.33Z"/><path class="uuid-8e2c9388-57af-4202-91b3-252bf1da2e42" d="M37.74,48.96l.08.04c.33-.47,1.33-.79,2.5-.94-.21-.24-.42-.5-.65-.78-.82-1.73-.51-3.54-.27-4.47-.93.65-2.8,1.92-3.38,1.99-4.27.48-4.92.74-5.02.81-.09.06-.23.14-.4.24-.65.38-1.87,1.09-2.3,1.89l-.09.17c-1.92,3.56-2.95,5.25-3.36,5.48-.16.31,1.1,2.51,1.54,2.88.08-.02.17-.02.26,0l.82-.49.25-.23c-.64-.46-1.27-1.17-1.73-2.26,0,0,.87,1.13,1.99,2.03l2.23-2.03s.51-.35,1.19-.77c.17-1.08.29-1.83.29-1.83-.08.6.09,1.05.03,1.64,1.1-.68,2.36-1.4,2.94-1.4,0,0-1.76.66-3.18,1.62-.03.02-.06.04-.09.06-.46.32-.88.67-1.18,1.04l-.77.73,2.95-1.88,2.83-.9s1.66-.15,2.49-.09l-.16-2.19.19-.37Z"/><path class="uuid-8e2c9388-57af-4202-91b3-252bf1da2e42" d="M45.57,48.6c1.53-2.14.86-5.16.68-5.85l-.1,1.08v-4.32h-.05c-1.08.62-3.66,2.09-3.88,2.15-.21.06-1.48-1.19-2.13-1.84v4.77l-.21-1.82c-.23.8-.6,2.64.2,4.33.15.33.35.63.57.92.43-.04.87-.07,1.31-.07,1.39,0,2.83.22,3.62.65Z"/><path class="uuid-ce657dfe-584c-4bc0-9d4e-84cc6b7d1f19" d="M38.68,34.44c3.37-.7,6.94.24,6.94.24-4.21-1.4-6.94-.24-6.94-.24Z"/><path class="uuid-ce657dfe-584c-4bc0-9d4e-84cc6b7d1f19" d="M38.68,34.44h0s2.71,6.01,6.84.24l-6.84-.24h0ZM40.24,34.67h-.02c1.28.1,2.8.09,3.88.07l.93.04c-.11.3-.48.61-.92.93-1.18.6-2.66.75-4.19-.22-.32-.31-.61-.61-.72-.84.16-.03.59,0,1.04.03ZM38.75,34.52c.44.54,3.14,3.54,6.34.59.05-.04.1-.08.15-.12-.99,1.11-3.79,4.2-6.53-.51.01.01.02.03.04.05ZM38.68,34.44s0,0,0,0h0s0,0,0,0Z"/><path class="uuid-ce657dfe-584c-4bc0-9d4e-84cc6b7d1f19" d="M40.96,32.49c.24.16.53.25.87.28-.58-.25-.82-.66-.99-1.11-.07.05-.06.71-.06.71l-.29.33.47-.22Z"/><path class="uuid-ce657dfe-584c-4bc0-9d4e-84cc6b7d1f19" d="M43.63,32.41c-.41-.15-.86.26-.86.26.38-.15,1.1-.15,1.1-.15l-.24-.11Z"/><path class="uuid-ce657dfe-584c-4bc0-9d4e-84cc6b7d1f19" d="M45.85,28.69c0,.67.45,1.22,1,1.22s1-.55,1-1.22c0-.24-.06-.46-.16-.65.37.15.76.39,1.14.75l.33.33.74-.47-.75-.11s-2.14-3.02-4.69-.01c0,0,.69-.56,1.68-.69-.17.22-.28.52-.28.84ZM46.85,27.86c.57,0,.74.38.74.82s-.15.93-.66.93c-.47,0-.66-.49-.66-.93s.26-.82.58-.82Z"/><path class="uuid-ce657dfe-584c-4bc0-9d4e-84cc6b7d1f19" d="M47.74,30.14s-1.39.04-1.83,0c-.37-.03-.72-.44-.82-.57-.02-.03-.03-.04-.03-.04.31.66.71.74.82.75.11.01,1.83.03,1.91,0,.06-.02.38-.18.56-.27-.22.09-.6.14-.6.14Z"/><path class="uuid-ce657dfe-584c-4bc0-9d4e-84cc6b7d1f19" d="M48.34,30c.07-.04.12-.06.12-.06-.03.02-.07.04-.12.06Z"/><path class="uuid-ce657dfe-584c-4bc0-9d4e-84cc6b7d1f19" d="M48.46,30.79c-.07,0-.13.06-.13.13s.06.13.13.13.13-.06.13-.13-.06-.13-.13-.13Z"/><path class="uuid-ce657dfe-584c-4bc0-9d4e-84cc6b7d1f19" d="M37.98,27.94c.54-.45,1.06-.66,1.52-.72-.23.22-.38.59-.38,1.01,0,.67.39,1.22.87,1.22s.87-.55.87-1.22c0-.36-.12-.69-.3-.91.81.25,1.32.84,1.32.84-1.9-3.26-4.15-.48-4.15-.48l-.68.03.59.54.34-.3ZM39.99,27.4c.5,0,.64.38.64.82s-.13.93-.58.93c-.41,0-.57-.49-.57-.93s.23-.82.51-.82Z"/><path class="uuid-ce657dfe-584c-4bc0-9d4e-84cc6b7d1f19" d="M41.17,29.46c.07-.03.13-.05.13-.05-.03.02-.07.04-.13.05Z"/><path class="uuid-ce657dfe-584c-4bc0-9d4e-84cc6b7d1f19" d="M40.59,29.69c.06-.01.39-.15.58-.23-.23.07-.61.09-.61.09,0,0-1.39-.06-1.83-.13-.37-.06-.68-.49-.78-.63-.02-.03-.03-.04-.03-.04.26.68.65.79.76.81.11.02,1.82.16,1.91.14Z"/><path class="uuid-ce657dfe-584c-4bc0-9d4e-84cc6b7d1f19" d="M49.39,26.04s-1.71-1.3-3.06-1.52-1.64,1.06-1.64,1.06c0,0,.41-.35,1.26-.3s3.44.76,3.44.76Z"/><path class="uuid-ce657dfe-584c-4bc0-9d4e-84cc6b7d1f19" d="M41.42,25.35s-.05-1.28-1.05-1.16c-1,.13-2.4,1.31-2.4,1.31,0,0,1.96-.54,2.58-.53s.87.38.87.38Z"/><path class="uuid-ce657dfe-584c-4bc0-9d4e-84cc6b7d1f19" d="M37.71,28.8l-.54.15.66.2-.27.17.54-.08c-.28-.15-.41-.29-.39-.44Z"/><path class="uuid-ce657dfe-584c-4bc0-9d4e-84cc6b7d1f19" d="M48.73,29.83c.02.14-.11.29-.39.44l.54.08-.27-.17.66-.2-.54-.15Z"/><path class="uuid-ce657dfe-584c-4bc0-9d4e-84cc6b7d1f19" d="M60.59,53.36c.09-.16.14-.33.15-.49-.01.08-.05.25-.15.49Z"/><path class="uuid-ce657dfe-584c-4bc0-9d4e-84cc6b7d1f19" d="M38.17,54.83l.08,1.1c.07-.09.15-.18.22-.27.15-.2-.14-.62-.31-.83Z"/><path class="uuid-ce657dfe-584c-4bc0-9d4e-84cc6b7d1f19" d="M37.81,53.47v-.39h0s.01,0,.02,0v-.12c-.47.14-1.33.31-1.72.37-.52.09-1.1.59-1.1.59l.24-.07h0l.2-.02v.29l1.58-.42c.32,0,.59.02.85.05l-.02-.27s-.03,0-.05,0Z"/><path class="uuid-ce657dfe-584c-4bc0-9d4e-84cc6b7d1f19" d="M38.35,53.52s-.14-.05-.28-.06l.02.3s.1.01.15.02c.08.17.08.34-.03.51-.01.01-.04.03-.08.05l.02.31.18-.11s.3-.78,0-1.02Z"/><path class="uuid-ce657dfe-584c-4bc0-9d4e-84cc6b7d1f19" d="M38.01,51.85s.05,0,.11-.01c.26.19.12.81,0,.98-.01.02-.05.04-.09.06v.13c.1-.03.18-.05.24-.07.45-.14.13-.87-.03-1.18,0-.03-.01-.08-.08-.14-.03-.03-.12-.06-.23-.07l.02.31s.06,0,.06,0Z"/><path class="uuid-ce657dfe-584c-4bc0-9d4e-84cc6b7d1f19" d="M61.94,53.37c-.37-.5-.93-1.6-1.53-2.76-.79-1.53-1.6-3.11-2.13-3.68-.42-.44-1.01-.87-1.65-1.2h.03c.49-1.06-1-2.74-1.99-3.7.05-.09.09-.16.14-.25,1.62-3.02-1.94-5.27-1.94-5.27,0,0,3.18-3.5,1.39-11.01-1.57-6.6-5.69-5.88-6.66-5.6-.42-.62-3.11-2.18-6.36-1.44-4.16.96-9.05,5.34-9.01,11.63.03,5.68,1.6,5.33,1.6,5.33,0,0-4.73,2.62-2.57,5.27.49.6.95,1.01,1.37,1.31-.27.46-.41,1.34-.29,2.88h0c-1.28.21-1.47.34-1.55.39-.09.06-.22.14-.38.23-.74.43-1.97,1.15-2.46,2.05l-.09.17c-2.24,4.17-2.98,5.2-3.2,5.32-.09.05-.21.17-.2.42,0,.11.03.24.07.38l-5.53,7.04-.74.45s-.04.02-.06.04l-.04.02h0c-2.19,1.41-2.22,6.88-2.22,6.88.25.75,7.66-.84,8.91-2.17l4.85-6.38c.06.01.56.26.62.27h0l.33.18h0c.19.49.36.94.48,1.26.04.12.09.25.14.39.02.04.03.08.03.08,0,0,0,0,0,0,.24.63.58,1.45,1.05,2.54.56,1.3,1.13,2.65,1.2,3.12.07.5-.8,2.2-1.57,3.69-.53,1.02-1.03,2-1.37,2.82,0,0,0,0,0,0,0,0,0,0,0,0-.29.69-.46,1.26-.42,1.61.04.37.12,1.05,12.27,1.19,1.41.02,2.83.02,4.17.02,3.2,0,5.96-.03,7.15-.05h0c.4,0,.62,0,.63,0,.07,0,.13-.04.17-.1.04-.06.04-.13.01-.2-.03-.06-2.71-6.19-2.71-8.37s.28-4.99.32-5.39c.17-.3,1.26-2.16,1.81-3.37.39-.87.73-2.64.92-3.79.26.96.71,2.2,1.31,2.32.61.12,2.56-1.16,3.64-2,.78-.61,2.09-1.73,2.12-2.42,0-.05-.01-.09-.04-.13ZM37.05,26.56c.88-2.38,4-5.67,6.85-5.25h0c.98,0,1.26.33,1.28.5v.3l.28-.11s.93-.35,1.55-.2c2.79,2.16,3.65,5.8,3.54,9.1l-.94,2.35.89-1.51c-.12,1.4-.4,2.7-.78,3.77h-.32s-.76,2.66-4.65,3.92c-1.21.31-2.4.43-3.56.34-.32-.14-3.35-1.53-4.71-4.65-1.43-3.29.42-8.15.58-8.56ZM24.76,54.43c.39.85,1.06,1.85,1.39,2.15l-5.95,3.57,4.56-5.72ZM59.6,55.6c-1.48,1.16-2.98,1.97-3.3,1.92-.15-.03-.31-.24-.47-.57,3.35-1.13,4.42-2.75,4.75-3.59-.83,1.53-4.95,3.06-4.97,3.07-.18-.49-.35-1.08-.48-1.67,1.21-.89,2.12-2.16,2.92-3.58,0,0-2.21,2.37-2.81,2.21.8-.36.8-3.57.6-3.73,0,2.13-1.4,4.91-1.56,4.77.14,1.01.03,2.16-.24,3.41-.13.55-.28,1.05-.43,1.39-.58,1.29-1.79,3.35-1.81,3.37-.02.03-.03.06-.03.09,0,.03-.32,3.24-.32,5.48,0,.92.44,2.46.96,3.98-1.98-.16-16.82-1.23-21.61,2.5.1-.26.21-.54.35-.85,9.68-4.57,20.19-3.71,20.19-3.71-11.55-1.31-18.09,2.19-20.1,3.51.32-.68.71-1.44,1.07-2.15,1.06-2.05,1.7-3.34,1.62-3.94-.07-.52-.61-1.77-1.23-3.22-.57-1.33-1.58-3.93-1.72-4.28,1.36-.1,3.14-.26,4.66-.17,0,0,2.57-.85,3.1-.93.53-.08,2.06-1.23,2.06-1.23,0,0-.96-.21-1.26-.21s-1.91.37-2.24.44c-.23.05-.74-.07-1.05-.15.67-.46,1.27-.98,1.78-1.55l-.02-.28c-.49.58-2.35,1.87-2.37,1.71v.37s1.28.13,1.71.13,2.19-.45,2.19-.45h.81s-.75.88-1.68.96c-.85.07-2.56.65-2.86.75-.01,0-.03,0-.06.02-.14.1-2.89.05-4.61.28-.15.02-.29-.02-.42-.04-.5-.18-1.97-.89-1.97-.89l.66.77c-1.24,1.76-4.22,5.96-4.58,6.08-2.05,1.93-7.45,2.84-8.51,2.41v-1.4c.87-3.26,1.83-4.49,2.28-4.91l8.11-4.98.45-.28.43-.26.42-.4.23-.22.77-.73c1.05-.63,3.2-1.91,3.38-1.98.24-.1,2.37-.82,2.87-.94.4-.09,1.86-.05,2.47-.03l-.02-.32c-.83-.05-2.49.09-2.49.09l-2.83.9-2.95,1.88.77-.73c.3-.37.72-.72,1.18-1.04.03-.02.06-.04.09-.06,1.42-.96,3.18-1.62,3.18-1.62-.58,0-1.84.71-2.94,1.4.06-.59-.1-1.04-.03-1.64,0,0-.13.76-.29,1.83-.68.43-1.19.77-1.19.77l-2.23,2.03c-1.12-.9-1.99-2.03-1.99-2.03.46,1.09,1.1,1.8,1.73,2.26l-.25.23-.82.49c-.09,0-.19-.01-.26,0-.45-.38-1.7-2.58-1.54-2.88.41-.23,1.44-1.92,3.36-5.48l.09-.17c.43-.79,1.65-1.51,2.3-1.89.17-.1.31-.18.4-.24.1-.07.76-.32,5.02-.81.58-.07,2.45-1.33,3.38-1.99-.25.92-.55,2.74.27,4.47.23.28.44.54.65.78.1-.01.2-.03.3-.04-.23-.28-.42-.59-.57-.92-.8-1.69-.43-3.53-.2-4.33l.21,1.82v-4.77c.65.66,1.93,1.9,2.13,1.84.23-.06,2.81-1.53,3.88-2.14h.05s0,4.31,0,4.31l.1-1.08c.18.69.85,3.71-.68,5.85.08.04.15.08.21.13,1.44-2.12,1.18-4.72.93-5.81l.92.46c.08,0,.14.21.19.53.02-.17.03-.3.04-.42l2.07,1.04c.1.04,1.89.75,3.26.98h0s0,0,0,0c.42.07.79.1,1.07.04,1.03-.19,2.84.73,3.71,1.65.49.52,1.33,2.15,2.06,3.58.58,1.13,1.13,2.2,1.51,2.75-.08.31-.62,1.01-1.95,2.05Z"/><path class="uuid-ce657dfe-584c-4bc0-9d4e-84cc6b7d1f19" d="M37.82,54.86l.12-.07c-.06.04-.11.07-.12.07Z"/><path class="uuid-ce657dfe-584c-4bc0-9d4e-84cc6b7d1f19" d="M36.08,55.96l1.73-1.09s.1.15.17.33l-.05-.74c-.62.32-1.98,1.02-1.85,1.5ZM37.94,54.79l-.12.07s.06-.04.12-.07Z"/><path class="uuid-ce657dfe-584c-4bc0-9d4e-84cc6b7d1f19" d="M47.82,43.92c-.08.71-.26,1.98-.59,4.16.7-.31.77-3,.59-4.16Z"/><path class="uuid-ce657dfe-584c-4bc0-9d4e-84cc6b7d1f19" d="M38.01,62.45l7.86-2.65c-2.89-.04-7.86,2.65-7.86,2.65Z"/><path class="uuid-ce657dfe-584c-4bc0-9d4e-84cc6b7d1f19" d="M43.5,60.15s2.7.63,6.52-.18c0,0-4.01.53-6.52.18Z"/><path class="uuid-ce657dfe-584c-4bc0-9d4e-84cc6b7d1f19" d="M32.4,56.82s2.43-.46,1.97-.5c-.46-.04-1.97.5-1.97.5Z"/><path class="uuid-ce657dfe-584c-4bc0-9d4e-84cc6b7d1f19" d="M37.86,53.47c.08,0,.15,0,.21,0l-.03-.46c-.06.02-.13.04-.2.06l.03.4Z"/><path class="uuid-ce657dfe-584c-4bc0-9d4e-84cc6b7d1f19" d="M38.07,54.71s.04.05.1.12v-.18s-.1.06-.1.06Z"/><path class="uuid-ce657dfe-584c-4bc0-9d4e-84cc6b7d1f19" d="M45.78,48.73c-.05.07-.1.14-.15.21.19.13.29.27.29.4,0,.33-.62.68-1.65.9-.11.08-.21.15-.32.23-.05.02-.1.03-.15.01-.11-.03-.19-.07-.29-.11-.47.06-.99.1-1.56.1-2.34,0-3.97-.6-3.97-1.13,0-.42,1.01-.87,2.56-1.05-.07-.08-.13-.16-.2-.24-1.17.15-2.17.47-2.5.94l-.08-.04-.19.37.16,2.19c.08,0,.15.01.21.02l-.14-1.91c.4.72,2.33,1.11,4.15,1.11,1.62,0,3.32-.31,3.96-.88l-.48,6.52c-3.24,2.34-6.7.39-7.13.14l-.04-.58c-.06.08-.12.15-.19.23l.03.42v.05s.05.03.05.03c.03.02,1.67,1.06,3.79,1.06,1.13,0,2.41-.3,3.65-1.21l.04-.03.52-6.94c.02-.06.04-.13.04-.2,0-.23-.15-.44-.4-.62Z"/><path class="uuid-ce657dfe-584c-4bc0-9d4e-84cc6b7d1f19" d="M41.94,48.21c1.57,0,2.81.27,3.46.61.06-.07.11-.15.16-.22-.79-.42-2.24-.65-3.62-.65-.44,0-.88.02-1.31.07.07.08.14.16.22.24.35-.03.7-.05,1.09-.05Z"/><path class="uuid-ce657dfe-584c-4bc0-9d4e-84cc6b7d1f19" d="M43.79,50.48c.05.02.1.01.15-.01.12-.07.22-.15.32-.23-.24.05-.49.1-.77.13.1.04.19.07.29.11Z"/><path class="uuid-ce657dfe-584c-4bc0-9d4e-84cc6b7d1f19" d="M38.17,54.83c-.06-.07-.1-.12-.1-.12l.09-.06-.02-.31c-.05.03-.12.06-.2.11l.05.74c.08.19.17.4.17.47,0,.05-.04.12-.12.22l.02.28c.07-.07.13-.15.19-.23l-.08-1.1Z"/><path class="uuid-ce657dfe-584c-4bc0-9d4e-84cc6b7d1f19" d="M37.93,51.54c-.06,0-.13-.02-.21-.02l.02.32c.09,0,.16,0,.21,0l-.02-.31Z"/><path class="uuid-ce657dfe-584c-4bc0-9d4e-84cc6b7d1f19" d="M45.62,48.94c.05-.07.1-.14.15-.21-.06-.04-.13-.09-.21-.13-.05.07-.1.15-.16.22.08.04.16.08.22.12Z"/><path class="uuid-ce657dfe-584c-4bc0-9d4e-84cc6b7d1f19" d="M40.85,48.26c-.07-.08-.15-.16-.22-.24-.1.01-.2.03-.3.04.07.08.13.16.2.24.1-.01.21-.02.32-.03Z"/><path class="uuid-ce657dfe-584c-4bc0-9d4e-84cc6b7d1f19" d="M38.07,53.47c-.06,0-.13,0-.21,0l.02.27c.07,0,.14.02.21.03l-.02-.3Z"/><path class="uuid-ce657dfe-584c-4bc0-9d4e-84cc6b7d1f19" d="M38.04,53.01v-.13c-.06.02-.13.05-.21.08v.12c.08-.02.15-.04.21-.06Z"/><path class="uuid-ce657dfe-584c-4bc0-9d4e-84cc6b7d1f19" d="M44.46,50.37l-3.06.35-2.73-.48-.42-.35s3.75-1.19,7.34,0"/><polygon class="uuid-ce657dfe-584c-4bc0-9d4e-84cc6b7d1f19" points="40.05 48.36 40.05 49.68 40.33 49.68 40.33 48.06 40.19 48.29 40.05 48.36"/><rect class="uuid-ce657dfe-584c-4bc0-9d4e-84cc6b7d1f19" x="43.24" y="48.15" width=".26" height="1.53"/><polygon class="uuid-ce657dfe-584c-4bc0-9d4e-84cc6b7d1f19" points="43.88 48.29 43.88 49.89 44.27 50.04 44.27 48.38 43.88 48.29"/><path class="uuid-ce657dfe-584c-4bc0-9d4e-84cc6b7d1f19" d="M34.75,50.72s-4.42,1.82-5.37,3.34c0,0,4.47-3.16,5.37-2.94v-.39Z"/><polygon class="uuid-ce657dfe-584c-4bc0-9d4e-84cc6b7d1f19" points="30.59 53.24 32.59 52.59 29.45 54.39 30.22 53.29 30.59 53.24"/><polygon class="uuid-ce657dfe-584c-4bc0-9d4e-84cc6b7d1f19" points="57.03 57.72 60.97 62.91 60.97 62.45 57.2 57.18 57.03 57.72"/><polygon class="uuid-ce657dfe-584c-4bc0-9d4e-84cc6b7d1f19" points="61.4 53.85 68.08 62.91 68.57 62.73 61.55 53.55 61.4 53.85"/><path class="uuid-ce657dfe-584c-4bc0-9d4e-84cc6b7d1f19" d="M60.73,71.57s5.1-3.53,7.35-8.66l.48-.18s-2.4,5.84-7.83,8.84Z"/><path class="uuid-ce657dfe-584c-4bc0-9d4e-84cc6b7d1f19" d="M60.73,71.57s3.26-3.27,4.61-4.33c0,0-3.35,3.8-4.61,4.33Z"/><path class="uuid-ce657dfe-584c-4bc0-9d4e-84cc6b7d1f19" d="M54.25,75.73s.36-4.1,1.75-5.33c1.39-1.23,4.92-6.43,4.97-7.95s3.91-1.74,3.91-1.74c0,0-3.04.58-3.47,1.74s-3.38,7.09-4.98,8.16-2.18,5.12-2.18,5.12Z"/><path class="uuid-ce657dfe-584c-4bc0-9d4e-84cc6b7d1f19" d="M60.59,70.34s.63,2.97,0,5.39v-5.39Z"/><path class="uuid-d12f64a8-df5c-47ff-8bb7-69baece49ece" d="M36.45,67.45s6.41-1.68,14.11.76c0,0-3.76-3.28-14.11-.76Z"/><path class="uuid-ce657dfe-584c-4bc0-9d4e-84cc6b7d1f19" d="M41.53,26.04s.37,2.82-.12,3.96,1.12-1.84.12-3.96Z"/></g></svg>