<?xml version="1.0" encoding="UTF-8"?><svg xmlns="http://www.w3.org/2000/svg" xmlns:xlink="http://www.w3.org/1999/xlink" viewBox="0 0 87.53 76.14"><defs><style>.uuid-47a62c3a-ceac-44fe-8a6f-c8325d17aa1d{fill:#336ba0;}.uuid-47a62c3a-ceac-44fe-8a6f-c8325d17aa1d,.uuid-93fece6f-6618-4e6f-b62a-706adc74d136,.uuid-f0ecadd8-cc28-4dfb-a1cd-5ccbdf4d6354,.uuid-58d08073-8a90-4db6-baef-2dddf8f69fe3,.uuid-7d6c2108-0716-46f1-9f38-3588f06187c8,.uuid-f477e549-e8c0-4ab8-8c44-52544cd19157,.uuid-5d0ac5a6-fd09-4a66-b823-9c30bbca78b0,.uuid-4b27311f-5f94-4732-a4df-de3be89466aa,.uuid-6ccc9d05-ca4c-41c1-886b-8a8717e2ca69,.uuid-685eb43f-8cf0-4478-927e-cb7800bd5655,.uuid-89b2b07a-33cb-4e21-a670-ace02fce7162,.uuid-3ab72bfd-4385-4e12-8e7a-c011e10d48d1,.uuid-51b68a99-b7b5-4500-a6c7-f575e52b111a,.uuid-13ef59f3-2893-4c01-a720-42f68878e60e,.uuid-d53f5fc9-c7f2-4ec0-acb2-31915cb00ea6,.uuid-d435166f-9005-4efd-8cb3-6f3ee96b8052,.uuid-eeac76eb-2114-4f44-8078-85aeeda230f7,.uuid-2e1c8041-313a-4e07-a0ea-16ee3cf97681,.uuid-f6548fcc-2bf9-4f54-9f64-a8b413f3cb83,.uuid-2d4115ff-6686-4b49-a81f-b46d04ab57fb,.uuid-ceb57e0a-d7bb-4eb7-aad1-056c06a33718,.uuid-21faf157-d224-4661-9b82-3719874d9305,.uuid-bff3ed94-91a4-4371-88f0-22c876361173,.uuid-56537dd4-20dd-4e48-9ddd-6a2de74635e6,.uuid-a771c68a-30c4-449c-9bcd-c77a81f4a0d2{stroke-width:0px;}.uuid-93fece6f-6618-4e6f-b62a-706adc74d136{fill:#939598;}.uuid-f0ecadd8-cc28-4dfb-a1cd-5ccbdf4d6354{fill:url(#uuid-40c1b033-16ef-44e3-90cf-23fceedac23c);}.uuid-58d08073-8a90-4db6-baef-2dddf8f69fe3,.uuid-2113956e-053e-450f-afd2-643fada4d8bf{fill:none;}.uuid-2113956e-053e-450f-afd2-643fada4d8bf{stroke:url(#uuid-16d7f5fa-df00-4c64-9bff-d575dc136185);stroke-width:.06px;}.uuid-2113956e-053e-450f-afd2-643fada4d8bf,.uuid-0413fe5d-4586-4118-b98a-ed1e7b0efde8{stroke-miterlimit:10;}.uuid-7d6c2108-0716-46f1-9f38-3588f06187c8{fill:url(#uuid-6b057926-a07c-41c0-a457-d23a7236426b);}.uuid-f477e549-e8c0-4ab8-8c44-52544cd19157{fill:#bcc2d8;}.uuid-5d0ac5a6-fd09-4a66-b823-9c30bbca78b0{fill:#8b181b;}.uuid-4b27311f-5f94-4732-a4df-de3be89466aa{fill:#fff4ec;}.uuid-6ccc9d05-ca4c-41c1-886b-8a8717e2ca69{fill:url(#uuid-605ec8e9-f268-4b76-a806-965bcfbd26e6);}.uuid-685eb43f-8cf0-4478-927e-cb7800bd5655{fill:#a7a9ac;}.uuid-89b2b07a-33cb-4e21-a670-ace02fce7162{fill:#d91f33;}.uuid-3ab72bfd-4385-4e12-8e7a-c011e10d48d1{fill:#bcbec0;}.uuid-51b68a99-b7b5-4500-a6c7-f575e52b111a{fill:url(#uuid-21c78a04-04b2-441a-a600-669371f6e6d2);}.uuid-13ef59f3-2893-4c01-a720-42f68878e60e{fill:url(#uuid-864710b4-a13c-4fdf-bba5-37d1c21afe6b);}.uuid-d53f5fc9-c7f2-4ec0-acb2-31915cb00ea6{fill:#000;}.uuid-d435166f-9005-4efd-8cb3-6f3ee96b8052{fill:#4f4640;}.uuid-eeac76eb-2114-4f44-8078-85aeeda230f7{fill:url(#uuid-909b57ab-aae4-4287-9881-34e6f0ac75d0);}.uuid-2e1c8041-313a-4e07-a0ea-16ee3cf97681{fill:#231f20;}.uuid-f6548fcc-2bf9-4f54-9f64-a8b413f3cb83{fill:#e9eff3;}.uuid-0413fe5d-4586-4118-b98a-ed1e7b0efde8{filter:url(#uuid-c90eb79f-f0dd-4dd2-82f1-b9f6a5330c7e);stroke:#1e76ba;stroke-width:.07px;}.uuid-0413fe5d-4586-4118-b98a-ed1e7b0efde8,.uuid-21faf157-d224-4661-9b82-3719874d9305{fill:#fff;}.uuid-2d4115ff-6686-4b49-a81f-b46d04ab57fb{fill:#9b4922;}.uuid-ceb57e0a-d7bb-4eb7-aad1-056c06a33718{fill:#e6e7e8;}.uuid-bff3ed94-91a4-4371-88f0-22c876361173{fill:url(#uuid-c465eb27-13de-44ff-9b14-e17abddd852a);}.uuid-56537dd4-20dd-4e48-9ddd-6a2de74635e6{fill:#1c75bc;}.uuid-a771c68a-30c4-449c-9bcd-c77a81f4a0d2{fill:#cb9c71;}</style><filter id="uuid-c90eb79f-f0dd-4dd2-82f1-b9f6a5330c7e" filterUnits="userSpaceOnUse"><feOffset dx=".77" dy=".77"/><feGaussianBlur result="uuid-ae34c4d6-00bc-4153-ae2b-a63ac71d77d9" stdDeviation="0"/><feFlood flood-color="#a0cdd7" flood-opacity=".42"/><feComposite in2="uuid-ae34c4d6-00bc-4153-ae2b-a63ac71d77d9" operator="in"/><feComposite in="SourceGraphic"/></filter><linearGradient id="uuid-16d7f5fa-df00-4c64-9bff-d575dc136185" x1="71.31" y1="13.89" x2="84.95" y2="13.89" gradientTransform="translate(-.79 -.8)" gradientUnits="userSpaceOnUse"><stop offset="0" stop-color="#1a54a0"/><stop offset="1" stop-color="#2b7cc1"/></linearGradient><linearGradient id="uuid-605ec8e9-f268-4b76-a806-965bcfbd26e6" x1="14.45" y1="34.92" x2="35.16" y2="34.92" gradientUnits="userSpaceOnUse"><stop offset="0" stop-color="#3975bb"/><stop offset="1" stop-color="#39c3e0"/></linearGradient><linearGradient id="uuid-c465eb27-13de-44ff-9b14-e17abddd852a" x1="14.71" y1="43.48" x2="34.9" y2="43.48" xlink:href="#uuid-605ec8e9-f268-4b76-a806-965bcfbd26e6"/><linearGradient id="uuid-21c78a04-04b2-441a-a600-669371f6e6d2" x1="63.7" y1="28.95" x2="71.61" y2="28.95" xlink:href="#uuid-605ec8e9-f268-4b76-a806-965bcfbd26e6"/><linearGradient id="uuid-864710b4-a13c-4fdf-bba5-37d1c21afe6b" x1="-224.85" y1="-267.74" x2="-224.56" y2="-267.74" gradientTransform="translate(3606.31 4175.75) scale(15.86 15.4)" xlink:href="#uuid-605ec8e9-f268-4b76-a806-965bcfbd26e6"/><linearGradient id="uuid-6b057926-a07c-41c0-a457-d23a7236426b" x1="-243.59" y1="-330.09" x2="-243.32" y2="-330.09" gradientTransform="translate(3027.23 2214.17) scale(12.26 6.55)" xlink:href="#uuid-605ec8e9-f268-4b76-a806-965bcfbd26e6"/><linearGradient id="uuid-909b57ab-aae4-4287-9881-34e6f0ac75d0" x1="-244.71" y1="-335.28" x2="-244.47" y2="-335.28" gradientTransform="translate(3266.22 2094.96) scale(13.18 6.09)" xlink:href="#uuid-605ec8e9-f268-4b76-a806-965bcfbd26e6"/><linearGradient id="uuid-40c1b033-16ef-44e3-90cf-23fceedac23c" x1="-229.21" y1="-295.37" x2="-228.95" y2="-295.37" gradientTransform="translate(1478.82 3836.28) scale(6.27 12.81)" xlink:href="#uuid-605ec8e9-f268-4b76-a806-965bcfbd26e6"/></defs><g id="uuid-18a7f812-70ac-48b8-9126-0e1ddc5c57c5"><circle class="uuid-f6548fcc-2bf9-4f54-9f64-a8b413f3cb83" cx="45.14" cy="35.38" r="33.74"/><rect class="uuid-21faf157-d224-4661-9b82-3719874d9305" x="1.45" y="9.39" width="34.65" height="10.13" rx="3.99" ry="3.99"/><path class="uuid-89b2b07a-33cb-4e21-a670-ace02fce7162" d="M8.6,11.74h-4.57c-.29,0-.52.23-.52.52v1.23h1.27v-.2c0-.16.13-.28.28-.28h2.51c.16,0,.28.13.28.28v.2h1.27v-1.23c0-.29-.23-.52-.52-.52Z"/><path class="uuid-89b2b07a-33cb-4e21-a670-ace02fce7162" d="M7.85,15.68c0,.16-.13.28-.28.28h-2.51c-.16,0-.28-.13-.28-.28v-.2h-1.27v1.23c0,.29.23.52.52.52h4.57c.29,0,.52-.23.52-.52v-1.23h-1.27v.2Z"/><rect class="uuid-89b2b07a-33cb-4e21-a670-ace02fce7162" x="3.51" y="13.85" width="1.27" height="1.27"/><rect class="uuid-89b2b07a-33cb-4e21-a670-ace02fce7162" x="7.85" y="13.85" width="1.27" height="1.27"/><path class="uuid-d435166f-9005-4efd-8cb3-6f3ee96b8052" d="M34.4,15.55c0-.2-.16-.36-.36-.36s-.36.16-.36.36.16.36.36.36.36-.16.36-.36ZM34.05,15.82c-.15,0-.27-.12-.27-.27s.12-.27.27-.27.27.12.27.27c0,.15-.12.27-.27.27Z"/><path class="uuid-d435166f-9005-4efd-8cb3-6f3ee96b8052" d="M34.18,15.48h0s-.01-.06-.03-.08c-.02-.02-.05-.03-.09-.03h-.13v.35h.07v-.11h.05l.06.11h.08l-.07-.13s.07-.05.07-.1ZM34.11,15.48s-.02.05-.06.05h-.05v-.11h.05s.06.02.06.05h0s0,0,0,0Z"/><path class="uuid-d435166f-9005-4efd-8cb3-6f3ee96b8052" d="M13,14.51v-.05c0-.84-.55-1.46-1.3-1.46s-1.32.62-1.32,1.46v.05c0,.84.55,1.45,1.3,1.45.76,0,1.32-.62,1.32-1.45ZM10.99,14.5v-.03c0-.53.27-.92.7-.92s.71.4.71.93v.03c0,.53-.27.93-.7.93-.41,0-.71-.4-.71-.93Z"/><path class="uuid-d435166f-9005-4efd-8cb3-6f3ee96b8052" d="M15.89,14.52v-.08c0-.96-.54-1.44-1.11-1.44-.41,0-.65.24-.83.51v-.46h-.61v3.66h.61v-1.24c.17.25.42.48.83.48.57,0,1.11-.48,1.11-1.44ZM13.94,14.51v-.05c0-.56.31-.91.68-.91s.66.35.66.92v.05c0,.57-.29.91-.66.91-.36,0-.68-.35-.68-.91Z"/><path class="uuid-d435166f-9005-4efd-8cb3-6f3ee96b8052" d="M18.52,15.52l-.32-.38c-.19.18-.39.3-.65.3-.37,0-.67-.26-.72-.74h1.78c0-.09,0-.17,0-.21,0-.85-.41-1.5-1.18-1.5-.7,0-1.21.61-1.21,1.47v.04c0,.89.57,1.45,1.3,1.45.42,0,.74-.17,1-.44ZM17.44,13.51c.35,0,.56.33.59.78h-1.2c.04-.48.28-.78.61-.78Z"/><path class="uuid-d435166f-9005-4efd-8cb3-6f3ee96b8052" d="M20.4,13c-.39,0-.62.22-.78.47v-.42h-.61v2.85h.61v-1.72c0-.39.22-.63.54-.63s.51.22.51.62v1.73h.61v-1.91c0-.61-.33-.99-.87-.99Z"/><path class="uuid-d435166f-9005-4efd-8cb3-6f3ee96b8052" d="M23.72,15.09h0c0-.45-.33-.65-.77-.85-.33-.15-.56-.25-.56-.43h0c0-.17.13-.29.36-.29s.46.11.68.25l.26-.45c-.27-.19-.61-.31-.92-.31-.53,0-.94.32-.94.83h0c0,.48.35.67.78.85.34.15.56.24.56.44h0c0,.18-.15.32-.4.32s-.53-.12-.78-.33l-.28.43c.33.27.72.4,1.06.4.55,0,.97-.31.97-.86Z"/><path class="uuid-d435166f-9005-4efd-8cb3-6f3ee96b8052" d="M25.6,15.82v-.5c-.1.05-.21.08-.33.08-.19,0-.31-.09-.31-.31v-1.51h.64v-.52h-.64v-.77h-.61v.77h-.31l.1.52h.21v1.64c0,.55.32.73.74.73.2,0,.37-.05.5-.12Z"/><path class="uuid-d435166f-9005-4efd-8cb3-6f3ee96b8052" d="M27.92,13.31c-.18-.19-.47-.29-.84-.29s-.67.09-.94.23l.17.48c.19-.09.41-.17.69-.17.39,0,.61.2.61.58v.12c-.19-.06-.39-.11-.66-.11-.6,0-1.01.3-1.01.91v.03c0,.55.4.87.87.87.37,0,.62-.16.79-.4v.35h.6v-1.77c0-.35-.1-.63-.28-.82ZM27.62,14.95c0,.32-.27.56-.62.55-.26,0-.46-.17-.46-.45h0c0-.31.2-.49.55-.49.2,0,.39.04.53.1v.28Z"/><path class="uuid-d435166f-9005-4efd-8cb3-6f3ee96b8052" d="M30.79,15.53l-.33-.4c-.17.17-.33.29-.58.29-.41,0-.7-.37-.7-.92v-.03c0-.54.29-.92.69-.92.26,0,.42.13.57.28l.34-.45c-.24-.24-.5-.39-.91-.39-.75,0-1.3.61-1.3,1.46v.05c0,.85.54,1.44,1.28,1.44.43,0,.72-.18.94-.43Z"/><polygon class="uuid-d435166f-9005-4efd-8cb3-6f3ee96b8052" points="32.64 14.43 32.22 14.88 32.79 15.9 33.49 15.9 32.64 14.43"/><polygon class="uuid-d435166f-9005-4efd-8cb3-6f3ee96b8052" points="32.75 13.06 31.77 14.31 31.77 12.03 31.17 12.03 31.17 15.9 31.77 15.9 31.77 15.08 33.47 13.06 32.75 13.06"/><path class="uuid-0413fe5d-4586-4118-b98a-ed1e7b0efde8" d="M77.96,16.5c-.48-1.48-1.81-2.61-3.46-2.75-.16-.01-.31-.02-.47-.01-.46-2.68-2.66-4.82-5.5-5.07-2.6-.23-4.97,1.2-6.05,3.42-2.46.2-4.5,2.15-4.72,4.69-.25,2.76,1.73,5.21,4.45,5.58v.02s13.95,1.25,13.95,1.25c.07.01.14.02.21.03,2.03.18,3.82-1.32,4-3.35.15-1.71-.88-3.24-2.42-3.8Z"/><rect class="uuid-47a62c3a-ceac-44fe-8a6f-c8325d17aa1d" x="70.55" y="7.78" width="13.58" height="10.63" rx="1.03" ry="1.03"/><rect class="uuid-2113956e-053e-450f-afd2-643fada4d8bf" x="70.55" y="7.78" width="13.58" height="10.63" rx="1.03" ry="1.03"/><path class="uuid-21faf157-d224-4661-9b82-3719874d9305" d="M80.29,12.47h-.43c-.07-.23-.16-.45-.29-.66l.33-.33c.13-.13.13-.33,0-.45l-.46-.46c-.13-.13-.33-.13-.45,0l-.35.35c-.19-.11-.4-.19-.62-.25v-.52c0-.18-.14-.32-.32-.32h-.65c-.18,0-.32.14-.32.32v.53c-.21.05-.41.14-.6.24l-.38-.38c-.13-.13-.33-.13-.45,0l-.46.46c-.13.13-.13.33,0,.45l.36.36c-.12.19-.21.4-.28.61h-.5c-.18,0-.32.14-.32.32v.65c0,.18.14.32.32.32h.44c.05.24.13.47.25.69l-.3.3c-.13.13-.13.33,0,.45l.46.46c.13.13.33.13.45,0l.26-.26c.22.14.46.25.71.32v.36c0,.18.14.32.32.32h.65c.18,0,.32-.14.32-.32v-.34c.26-.06.51-.16.73-.3l.25.25c.13.13.33.13.45,0l.46-.46c.13-.13.13-.33,0-.45l-.26-.26c.13-.22.22-.46.28-.71h.4c.18,0,.32-.14.32-.32v-.65c0-.18-.14-.32-.32-.32ZM77.69,14.8c-1.16.22-2.16-.78-1.94-1.94.12-.65.65-1.17,1.3-1.3,1.16-.22,2.16.78,1.94,1.94-.12.65-.65,1.17-1.3,1.3Z"/></g><g id="uuid-17085eb6-f7e9-440b-b1d6-433f5ff4c91b"><path class="uuid-d53f5fc9-c7f2-4ec0-acb2-31915cb00ea6" d="M66.81,46.55l-.41.17c.02.05,2.09,5.07.04,7.22l.32.31c2.24-2.36.13-7.48.04-7.7Z"/><path class="uuid-d53f5fc9-c7f2-4ec0-acb2-31915cb00ea6" d="M66.01,46.3c-.19.33-.54.87-.95,1.37-.11-.84-.36-1.49-.38-1.54l-.83.33s.4,1.03.36,2.05c-.32.24-.63.39-.91.33-.55-.11-.93-1-1.1-2.56l-.22.02c.19,1.71.61,2.62,1.28,2.75.06.01.11.02.17.02.25,0,.51-.11.76-.27-.02.17-.05.34-.11.49-.5,1.5.13,3.54.15,3.62l.85-.26s-.57-1.86-.16-3.08c.17-.52.2-1.08.16-1.59.62-.71,1.08-1.52,1.11-1.58l-.19-.11Z"/><path class="uuid-d53f5fc9-c7f2-4ec0-acb2-31915cb00ea6" d="M23.33,48.69c-.04-.84.15-1.89.36-2.57l-.91-.28c-.06.18-.33,1.14-.4,2.19-.2-.43-.35-1.06-.44-1.89l-.22.02c.12,1.09.34,1.85.65,2.3,0,.73.14,1.46.55,1.95.41.49.44.67.44.68,0-.02,0-.1.06-.17.05-.06.12-.1.21-.1l.05.95c.19-.01.45-.12.57-.4.17-.38-.02-.87-.6-1.57-.17-.2-.26-.52-.3-.89,1.2-.22,2.53-2.54,2.59-2.65l-.19-.11c-.4.7-1.53,2.34-2.42,2.53Z"/><rect class="uuid-3ab72bfd-4385-4e12-8e7a-c011e10d48d1" x="6.3" y="62.06" width="72.48" height="1.18"/><path class="uuid-2e1c8041-313a-4e07-a0ea-16ee3cf97681" d="M78.56,62.29v.73H6.52v-.73h72.04M79,61.84H6.08v1.62h72.93v-1.62h0Z"/><polygon class="uuid-21faf157-d224-4661-9b82-3719874d9305" points="6.08 62.06 5.96 61.65 25.8 49.8 25.91 49.77 59.8 49.77 59.91 49.81 79.12 61.65 79 62.06 6.08 62.06"/><path class="uuid-2e1c8041-313a-4e07-a0ea-16ee3cf97681" d="M59.8,50l19.21,11.85H6.08l19.84-11.85h33.88M59.8,49.55H25.91l-.23.06-19.84,11.85.23.83h72.93l.23-.82-19.21-11.85-.23-.07h0Z"/><polygon class="uuid-93fece6f-6618-4e6f-b62a-706adc74d136" points="8.77 68.84 8.55 68.62 8.55 63.46 8.77 63.24 76.42 63.24 76.64 63.46 76.64 68.62 76.42 68.84 8.77 68.84"/><path class="uuid-2e1c8041-313a-4e07-a0ea-16ee3cf97681" d="M76.42,63.46v5.16H8.77v-5.16h67.65M76.42,63.02H8.77l-.44.44v5.16l.44.44h67.65l.44-.44v-5.16l-.44-.44h0Z"/><rect class="uuid-2e1c8041-313a-4e07-a0ea-16ee3cf97681" x="8.77" y="63.46" width="67.94" height="2.18"/><path class="uuid-ceb57e0a-d7bb-4eb7-aad1-056c06a33718" d="M74.02,46.46c-22.86-1.04-44.26-1.3-62.72,0v-21.85c19.65,2.08,40.82,1.73,62.72,0v21.85Z"/><path class="uuid-d53f5fc9-c7f2-4ec0-acb2-31915cb00ea6" d="M10.85,46.94v-22.82l.49.05c18.02,1.91,38.51,1.91,62.64,0l.48-.04v22.8l-.46-.02c-25.64-1.17-46.14-1.17-62.67,0l-.48.03ZM39.24,45.14c10.29,0,21.68.29,34.33.86v-20.91c-23.75,1.86-43.99,1.86-61.83.01v20.88c8.16-.56,17.28-.84,27.5-.84Z"/><path class="uuid-6ccc9d05-ca4c-41c1-886b-8a8717e2ca69" d="M33.87,41.43l-18.3.62c-.62.02-1.13-.47-1.13-1.09v-12.06c0-.63.53-1.12,1.15-1.09l18.53,1.02c.59.03,1.04.52,1.03,1.11l-.23,10.42c-.01.58-.47,1.05-1.05,1.06Z"/><path class="uuid-d53f5fc9-c7f2-4ec0-acb2-31915cb00ea6" d="M26.46,36.42l-12.22.5c-.32.01-.59-.25-.59-.57v-8.92c0-.33.28-.59.61-.57l12.22.84c.3.02.53.27.53.57v7.58c0,.31-.24.56-.55.57Z"/><path class="uuid-ceb57e0a-d7bb-4eb7-aad1-056c06a33718" d="M25.29,29.46s-.01,0-.02,0l-10.12-.7c-.12,0-.21-.11-.21-.24,0-.12.12-.21.24-.21l10.12.7c.12,0,.21.11.21.24,0,.12-.11.21-.22.21Z"/><path class="uuid-ceb57e0a-d7bb-4eb7-aad1-056c06a33718" d="M25.13,31.12s0,0-.01,0l-9.93-.49c-.12,0-.22-.11-.21-.23s.09-.22.23-.21l9.93.49c.12,0,.22.11.21.23,0,.12-.1.21-.22.21Z"/><path class="uuid-ceb57e0a-d7bb-4eb7-aad1-056c06a33718" d="M25.15,32.68h0l-9.93-.22c-.12,0-.22-.1-.22-.23s.09-.2.23-.22l9.93.22c.12,0,.22.1.22.23,0,.12-.1.22-.22.22Z"/><path class="uuid-ceb57e0a-d7bb-4eb7-aad1-056c06a33718" d="M15.36,34.05c-.12,0-.22-.1-.22-.22,0-.12.1-.22.22-.22l5.97-.05h0c.12,0,.22.1.22.22,0,.12-.1.22-.22.22l-5.97.05h0Z"/><path class="uuid-ceb57e0a-d7bb-4eb7-aad1-056c06a33718" d="M15.6,35.67c-.12,0-.22-.09-.22-.21,0-.12.09-.23.21-.23l3.7-.15c.14,0,.23.09.23.21,0,.12-.09.23-.21.23l-3.7.15h0Z"/><polygon class="uuid-bff3ed94-91a4-4371-88f0-22c876361173" points="34.9 43.69 14.71 44.54 14.71 43.23 34.9 42.41 34.9 43.69"/><polygon class="uuid-21faf157-d224-4661-9b82-3719874d9305" points="51.49 41.94 72.64 41.94 72.64 26.17 51.49 27.6 51.49 41.94"/><path class="uuid-51b68a99-b7b5-4500-a6c7-f575e52b111a" d="M64.86,30.99h5.59c.64,0,1.16-.52,1.16-1.16v-1.76c0-.66-.55-1.19-1.21-1.16l-5.59.24c-.62.03-1.11.54-1.11,1.16v1.52c0,.64.52,1.16,1.16,1.16Z"/><rect class="uuid-685eb43f-8cf0-4478-927e-cb7800bd5655" x="63.7" y="31.4" width="7.91" height="9.53" rx="1.38" ry="1.38"/><path class="uuid-56537dd4-20dd-4e48-9ddd-6a2de74635e6" d="M60.08,40.18c-.39,0-.61-.96-1.05-3.31-.35-1.82-.82-4.31-1.35-4.31h0c-.46,0-.89,1.89-1.24,3.41-.48,2.08-.8,3.36-1.34,3.36h0c-.43,0-1-.74-1.66-6.4,0-.06.04-.12.1-.12.06,0,.12.04.12.1.65,5.59,1.22,6.21,1.44,6.21h0c.39,0,.79-1.77,1.12-3.19.51-2.23.86-3.58,1.45-3.58h0c.67,0,1.05,1.78,1.57,4.5.24,1.24.59,3.11.84,3.13.39-.05.69-3.88.85-5.93.28-3.53.37-4.16.65-4.16h.01c.22,0,.54.18,1.13,10.19,0,.06-.04.11-.1.12h0c-.06,0-.11-.05-.11-.1-.45-7.64-.75-9.55-.92-9.93-.16.41-.3,2.26-.43,3.9-.34,4.31-.56,6.12-1.06,6.14h0Z"/><polygon class="uuid-2e1c8041-313a-4e07-a0ea-16ee3cf97681" points="56.19 58.13 66.1 63.86 64.5 66.58 56.19 62.97 56.19 58.13"/><path class="uuid-2e1c8041-313a-4e07-a0ea-16ee3cf97681" d="M71.15,65.41c-.63-.23-11.53-.34-11.53-.34l.11,1.26,5.71,2.56c-.32,3.21-.61,5.19-2.74,5.08l-6.06-3.37.63-5.53,1.51-14.93-31.38-.32.86,11.72-4.93,3.36-8.37,1.91s0,3.42.46,3.54c.13.03.77.05,1.6.05.27,1.76,1.05,5.65,2.75,5.73,1.8.09,5.47.05,6.76.03l37.09.84s5.74-1.72,6.02-7c0,0,.75.29.97,0s1.15-4.36.52-4.59ZM22.99,74.59s-1.73-2.45-1.75-4.23c.57,0,.94-.02.94-.02l7.03-5.27s1.02,6.2.87,7.16l-7.1,2.36Z"/><path class="uuid-a771c68a-30c4-449c-9bcd-c77a81f4a0d2" d="M43.81,16.11l-6.06,3.5-3.19,7.73,3.9,8.96.68,3.78-5.43,2.29-3.06.75-2.6,1.84c-1.38,3.05-2.77,5.61-4.19,6.94l.42.71-6.23,7.52-1.62.9-1.27,4.11v2.6c2.16.29,4.05-.43,6.71-1.41l2.42-.87,4.91-7.07,1.4.13,2.87,1.18,22.37-6.74,1.7,3.54,1.67-.22,3.79,5.78c-.61,2.04-1.87,4.46-3.97,7.36l-1.81,1.2-1.09,3.04-.33,2.49s5.14,1.74,6,.87.87-1.57.87-1.57l.08-4.11,3.99-3.59,2.54-2.56,1.59-3.22-7.29-9.71.28-.7-4.03-6.91-3.36-1.79-7.48-1.32v-4.55l3.46-5.23-.62-11.2-2.84-3.12-5.19-1.29Z"/><polygon class="uuid-f477e549-e8c0-4ab8-8c44-52544cd19157" points="26.14 55.24 24.48 52.9 23.87 51.89 26.45 48.24 28.06 44.96 30.93 43.04 33.47 42.97 36.16 42.63 38.46 41.1 40.07 40.19 39.95 42.14 40.11 44.77 40.88 46.09 43.69 46.11 45.56 46.36 46.55 46.76 47.16 45.51 47.87 42.88 47.54 40.19 52.69 42.48 57.01 43.11 58.49 43.9 60.63 45.58 62.28 49.56 63.7 51.93 62.9 53.37 60.47 55.51 58.54 56.47 57.55 56.47 56.07 53.4 56.07 56.47 53.32 61.46 52.89 68.5 54.01 72.18 55.15 75.1 55.8 76.53 29.99 75.7 30.9 73.32 33.88 67.13 30.68 58.96 33.2 58.53 35.72 58.59 38.36 57.6 39.56 57.44 41.28 56.35 39.67 56.25 37.86 56.86 36.16 56.47 38.64 54.52 38.36 53.37 38.78 52.97 38.68 52.23 36.72 52.07 38.68 51.26 38.57 50.17 36.81 50.06 37.18 49.56 36.81 49.03 34.46 49.24 30.44 51.41 28.34 53.28 27.23 54.58 26.14 55.24"/><path class="uuid-21faf157-d224-4661-9b82-3719874d9305" d="M38.16,47.51l-.18,2.45h.62c.13.57.25,1.13.09,1.3l-.52.15.22.65.3-.09.1.99-.54.04.52,1.25-.24,1.06,2.55.93.99.12,2.35-.21,2.04-.93.58-7.71-.64-.82-1.84-.56h-2.5l-1.94.23-1.65.57-.3.58Z"/><polygon class="uuid-21faf157-d224-4661-9b82-3719874d9305" points="34.73 50.13 34.94 48.72 36.16 47.97 38.3 48.03 38.65 49.05 37.35 48.97 36.58 49.15 36.32 49.56 36.46 50 34.73 50.13"/><path class="uuid-4b27311f-5f94-4732-a4df-de3be89466aa" d="M45.56,25.01c.1.7.4,1.35,1.03,1.93,0,0,2.27.11,2.35.09.39-.11,1.6-1.37,1.36-1.28l-1.9-1.53-1.94.24-.89.55Z"/><path class="uuid-4b27311f-5f94-4732-a4df-de3be89466aa" d="M42.31,24.46c-.1.7-.14,1.45-1.11,1.88,0,0-2-.19-2.08-.21-.36-.1-1.51-1.39-1.12-1.67.27-.19.21-.02,0,.2l1.67-1.34,1.54.19,1.11.95Z"/><polygon class="uuid-2d4115ff-6686-4b49-a81f-b46d04ab57fb" points="40.42 23.75 39.83 23.96 39.67 25.05 40.11 25.75 40.59 26.03 41.06 25.75 41.2 24.9 41.2 24.46 40.88 23.75 40.42 23.75"/><polygon class="uuid-2d4115ff-6686-4b49-a81f-b46d04ab57fb" points="47.8 24.26 47.22 24.48 47.06 25.56 47.5 26.26 47.97 26.54 48.44 26.26 48.85 25.4 48.79 24.61 48.26 24.26 47.8 24.26"/><path class="uuid-5d0ac5a6-fd09-4a66-b823-9c30bbca78b0" d="M39.14,31.52s1.3-.3,1.92-.36,3.12-.09,3.95.2,1.4.37,1.4.37c0,0-1.47,1.98-2.29,2.29-.74.28-1.63.4-1.63.4-.24-.11-1.29-.41-1.29-.41l-1-.91c-.32-.09-1.1-1.54-1.07-1.59Z"/><polygon class="uuid-4b27311f-5f94-4732-a4df-de3be89466aa" points="39.52 31.55 40.79 31.72 43.02 31.77 46.14 31.9 45.65 32.44 44.45 33.17 43.22 33.49 42.05 33.39 40.88 32.99 40.21 32.55 39.52 31.77 39.52 31.55"/><g id="uuid-1c02207a-fdb7-417b-821a-59d409760048"><g id="uuid-cd5e3725-5d23-486a-b6f0-58d77585c39a"><g id="uuid-abdef3fb-3431-48fe-a864-8bf29b87f7c9"><path id="uuid-49c1c4c9-b5cf-45bf-b22c-48ae370ab8d6" class="uuid-13ef59f3-2893-4c01-a720-42f68878e60e" d="M44.18,53.84c.05-.06.15.01.1.08-.06.07-.11.13-.18.19-.03.02-.07.02-.09,0-.03-.02-.03-.06,0-.09.06-.06.12-.12.17-.18h0ZM44.46,53.37c.04-.07.15-.03.12.05-.03.08-.08.16-.12.23-.02.03-.06.04-.09.02-.03-.02-.04-.06-.02-.09.04-.07.08-.14.11-.22h0ZM43.04,54.56c.08-.02.16-.05.24-.08.08-.03.13.09.05.12-.08.03-.17.06-.25.08-.03,0-.07-.01-.08-.04s.01-.07.05-.08h0ZM42.49,54.63c.08,0,.17,0,.25-.01.04,0,.07.02.07.06,0,.03-.02.07-.06.07-.09,0-.18.01-.26.01h0s-.06-.03-.06-.06.03-.06.07-.06h0ZM44.44,51.53s-.07,0-.09-.02c-.04-.07-.09-.14-.14-.2-.05-.07.05-.14.1-.07.05.07.1.14.15.21.02.03,0,.07-.02.09h0ZM40.76,51.27c-.05,0-.08-.06-.05-.1.06-.07.11-.13.18-.19.06-.06.15.03.09.09-.06.06-.12.12-.17.18-.01.01-.03.02-.05.02h0ZM40.54,53.56s.07,0,.09.02c.04.07.09.14.14.2.05.07-.05.14-.1.07-.05-.07-.1-.14-.15-.21-.02-.03,0-.07.02-.09ZM43.56,54.35c.07-.04.14-.09.21-.13.07-.05.14.05.08.1-.07.05-.15.1-.22.14-.07.04-.14-.07-.06-.11h0ZM42.25,50.47c-.09,0-.1-.12-.01-.12.09,0,.17-.01.26-.01h0s.06.03.06.06-.03.06-.07.06c-.08,0-.16,0-.24.01h0ZM41.21,50.87c-.07.05-.15-.05-.08-.1.07-.05.15-.1.22-.14.07-.04.14.07.06.11-.07.04-.14.09-.21.13h0ZM40.52,51.43c.04-.07.15,0,.11.06-.04.07-.08.14-.11.22-.03.08-.15.03-.12-.05.04-.08.08-.16.12-.23h0ZM43.07,50.53s-.01,0-.02,0c-.08-.02-.16-.04-.24-.05-.03,0-.06-.04-.05-.07,0-.03.04-.06.07-.05.09.01.17.03.26.05.07.02.06.12-.02.12h0ZM40.27,52.47s.06.03.06.06h0c0,.09,0,.17.01.25,0,.08-.12.09-.13.01-.01-.09-.02-.17-.02-.26h0s.03-.07.06-.07h0ZM43.6,50.75s-.02,0-.03,0c-.07-.04-.15-.08-.22-.11-.07-.03-.03-.14.05-.12.08.03.16.07.24.12.06.03.03.12-.03.12ZM41.7,50.6c-.08.03-.12-.08-.05-.12.08-.03.17-.06.25-.08.03,0,.07.01.08.04,0,.03-.01.07-.05.08-.08.02-.16.05-.24.08h0ZM44.64,52.54c0-.08,0-.16-.01-.24,0-.03.02-.07.06-.07.04,0,.07.02.07.06,0,.08.01.17.01.25h0s-.03.06-.06.06-.06-.03-.06-.06h0ZM41.93,54.56c.08.02.16.04.24.05.09,0,.07.14-.02.12-.09-.01-.17-.03-.26-.05-.09-.02-.05-.15.03-.12h0ZM40.33,53.04s.07.01.08.04c.02.08.05.15.08.23.03.08-.09.12-.12.05-.03-.08-.06-.16-.08-.24,0-.03.01-.07.05-.08h0ZM44.65,52.05s-.07-.01-.08-.04c-.02-.08-.05-.16-.08-.23-.03-.08.09-.12.12-.05.03.08.06.16.08.24,0,.03-.01.07-.05.08h0ZM40.41,52c-.02.08-.04.16-.05.24-.01.08-.14.07-.13-.02.01-.08.03-.17.05-.25,0-.03.04-.05.08-.04.03,0,.05.04.05.08h0ZM41.41,54.35c.07.04.15.08.22.11.03.01.05.05.03.08-.01.03-.05.05-.09.03-.08-.03-.16-.07-.24-.12-.07-.04,0-.15.06-.11h0ZM40.97,54.02c.06.06.12.11.19.16.05.04.02.11-.04.11-.01,0-.03,0-.04-.01-.07-.05-.14-.11-.2-.17-.06-.06.03-.15.09-.09h0ZM44.57,53.09c.02-.08.04-.16.05-.24,0-.03.04-.06.07-.05.03,0,.06.04.05.07-.01.09-.03.17-.05.25-.02.08-.15.05-.12-.03h0ZM44.02,51.07c-.06-.06-.12-.11-.19-.16-.07-.05.01-.15.08-.1.07.05.14.11.2.17.06.06-.03.14-.09.09h0Z"/></g><g id="uuid-6d8625c2-c7ed-4f11-b769-92fa8988678d"><g id="uuid-a70f4fda-106e-49f3-8c46-4f3effe1b021"><path id="uuid-f20df986-58df-4e2c-bdeb-359decb11e7d" class="uuid-7d6c2108-0716-46f1-9f38-3588f06187c8" d="M41.71,51.36c.18.06.37.12.55.18.18.06.37.13.56.15.24.02.46-.15.54-.37.04-.12.1-.08.17-.04.27.17.44.42.53.71.06.18.07.39.08.58,0,.11-.06.18-.16.22-.53.27-1.02.17-1.5-.15-.26-.17-.54-.33-.83-.45-.15-.06-.33-.04-.5-.04-.19,0-.25-.07-.18-.23.15-.34.32-.53.75-.56h0Z"/><path id="uuid-9d6ce332-97d1-4936-a450-e41a1f5c9739" class="uuid-eeac76eb-2114-4f44-8078-85aeeda230f7" d="M40.84,52.7c0-.29,0-.28.21-.33.42-.1.77.06,1.1.29.25.17.48.35.78.43.33.09.65.08.96-.04.05-.02.1,0,.15-.01,0,.05,0,.1-.02.15-.2.5-.78.59-1.26.39-.14-.06-.29-.13-.44-.17-.3-.08-.58.05-.71.32-.05.12-.1.11-.19.05-.39-.29-.54-.69-.59-1.08h0Z"/><path id="uuid-0751c8a2-08d7-453a-877d-dae09c51f600" class="uuid-f0ecadd8-cc28-4dfb-a1cd-5ccbdf4d6354" d="M43.33,53.99c-.2.06-.37.12-.54.16-.29.07-.57.03-.84-.09-.17-.08-.19-.25-.05-.37.14-.12.3-.13.46-.07.29.11.56.26.87.28.02,0,.04.03.1.09h0ZM41.72,51.07c.15-.05.3-.12.46-.14.26-.05.53-.05.78.05.12.05.2.12.2.24s-.11.21-.22.22c-.13.02-.27.01-.39-.02-.26-.07-.51-.17-.76-.26-.02,0-.04-.02-.06-.03,0-.02,0-.04-.01-.06h0Z"/></g></g></g></g><path class="uuid-d53f5fc9-c7f2-4ec0-acb2-31915cb00ea6" d="M34.72,50.32l-.02-.11s-.26-1.76,1.1-2.17c.96-.29,2.03-.14,2.07-.13h.1s-.03,1.36-.03,1.36l-.12-.02s-.79-.11-1.17.08c-.31.15-.17.5-.16.53l.05.13-1.83.34ZM37.15,48.08c-.37,0-.84.03-1.28.17-1,.3-.99,1.44-.96,1.81l1.34-.25c-.05-.22-.03-.53.31-.69.34-.17.92-.13,1.17-.11l.02-.9c-.12-.01-.33-.03-.6-.03Z"/><polygon class="uuid-d53f5fc9-c7f2-4ec0-acb2-31915cb00ea6" points="38.19 47.97 38.19 49.96 37.86 49.96 37.86 48.01 38.19 47.97"/><path class="uuid-d53f5fc9-c7f2-4ec0-acb2-31915cb00ea6" d="M36.81,49.15s.34.5.14.67,1.07.14,1.07.14v-.69l-1.21-.13Z"/><path class="uuid-58d08073-8a90-4db6-baef-2dddf8f69fe3" d="M38.64,50.07c.17.33.51,1.11.03,1.27-.07.02-.15.05-.25.08l.04.49c.14,0,.25.02.3.06.32.26,0,1.09,0,1.09l-.2.12v.19c.19.22.51.68.34.89-.08.1-.16.19-.24.29l.05.62c.45.27,4.17,2.36,7.64-.15l.52-6.99c-.69.61-2.51.94-4.25.94-1.96,0-4.02-.41-4.45-1.19l.15,2.05c.12.02.21.04.25.08.07.07.09.12.08.15Z"/><path class="uuid-58d08073-8a90-4db6-baef-2dddf8f69fe3" d="M41.79,37.23c1.25.1,2.53-.03,3.82-.36,4.17-1.35,4.98-4.2,4.98-4.2h.34c.41-1.15.71-2.54.84-4.04l-.95,1.62,1-2.52c.12-3.54-.81-7.44-3.8-9.76-.66-.17-1.65.21-1.66.21l-.3.12v-.32c-.01-.18-.32-.53-1.37-.53h0c-3.05-.44-6.4,3.08-7.34,5.63-.17.44-2.16,5.65-.62,9.18,1.46,3.35,4.71,4.84,5.05,4.99ZM37.92,26.03l.29-.19-.71-.21.58-.16c-.02.15.12.31.42.47l-.58.09ZM38.3,25.4s.01.02.03.05c.1.15.44.61.84.68.47.08,1.96.14,1.96.14,0,0,.41-.03.65-.1.05-.02.1-.03.13-.06,0,0-.06.02-.13.06-.2.08-.56.23-.62.25-.09.02-1.93-.13-2.04-.15-.11-.02-.54-.14-.81-.86ZM41.43,28.53c.18.48.44.93,1.06,1.19-.36-.03-.67-.13-.93-.3l-.5.23.31-.36s-.02-.72.06-.77ZM39.12,31.52h0s0,0,0,0l7.33.26c-4.43,6.19-7.33-.25-7.33-.26ZM48.87,27.04c-.09.03-1.93.01-2.05,0-.11-.01-.54-.1-.87-.8,0,0,.01.02.03.04.11.14.49.58.88.61.47.04,1.96,0,1.96,0,0,0,.41-.06.64-.15.05-.02.1-.04.13-.07,0,0-.05.03-.13.07-.19.1-.54.27-.6.29ZM49.6,27.88c-.08,0-.14-.06-.14-.14s.06-.14.14-.14.14.06.14.14-.06.14-.14.14ZM50.04,27.13l-.58-.09c.3-.16.44-.31.42-.47l.58.16-.71.21.29.19ZM47.32,20.88c1.45.23,3.28,1.63,3.28,1.63,0,0-2.78-.77-3.69-.81s-1.35.33-1.35.33c0,0,.32-1.37,1.76-1.14ZM50.34,25.19l.8.11-.79.5-.36-.36c-.41-.38-.82-.64-1.22-.8.1.2.17.44.17.69,0,.72-.48,1.3-1.07,1.3s-1.07-.58-1.07-1.3c0-.35.12-.67.3-.91-1.06.14-1.8.74-1.8.74,2.74-3.22,5.03.01,5.03.01ZM46.55,31.77s-3.83-1.01-7.44-.26c0,0,2.93-1.24,7.44.26ZM44.42,29.33l.25.12s-.77,0-1.18.16c0,0,.49-.44.92-.28ZM40.93,20.52c1.07-.14,1.12,1.24,1.12,1.24,0,0-.27-.39-.93-.41s-2.76.57-2.76.57c0,0,1.5-1.27,2.57-1.4ZM38.09,24.25s2.41-2.97,4.45.52c0,0-.55-.62-1.41-.9.19.24.32.59.32.97,0,.72-.42,1.3-.93,1.3s-.93-.58-.93-1.3c0-.45.16-.84.41-1.08-.5.07-1.05.29-1.63.77l-.36.32-.64-.58.72-.03Z"/><path class="uuid-58d08073-8a90-4db6-baef-2dddf8f69fe3" d="M40.44,32.63c1.64,1.05,3.22.88,4.49.24.47-.34.88-.67.99-.99l-.99-.05c-1.16.03-2.79.04-4.16-.07h.02c-.48-.03-.94-.06-1.12-.03.11.25.43.57.77.9Z"/><path class="uuid-58d08073-8a90-4db6-baef-2dddf8f69fe3" d="M40.59,25.84c.48,0,.62-.52.62-1s-.15-.88-.69-.88c-.3,0-.54.41-.54.88s.17,1,.61,1Z"/><path class="uuid-58d08073-8a90-4db6-baef-2dddf8f69fe3" d="M24.19,52.94l-4.89,6.13,6.38-3.83c-.35-.32-1.07-1.39-1.49-2.31Z"/><polygon class="uuid-58d08073-8a90-4db6-baef-2dddf8f69fe3" points="39.12 31.52 39.12 31.52 39.12 31.52 39.12 31.52"/><path class="uuid-58d08073-8a90-4db6-baef-2dddf8f69fe3" d="M38.18,51.49h0s0,.42,0,.42c.02,0,.03,0,.05,0l-.03-.43s-.01,0-.02,0Z"/><path class="uuid-58d08073-8a90-4db6-baef-2dddf8f69fe3" d="M46.14,32.1c-.05.04-.1.09-.16.13-3.43,3.17-6.33-.05-6.8-.63-.02-.02-.03-.04-.05-.05,2.94,5.05,5.94,1.74,7.01.55Z"/><path class="uuid-58d08073-8a90-4db6-baef-2dddf8f69fe3" d="M47.95,26.34c.55,0,.71-.52.71-1s-.17-.88-.79-.88c-.34,0-.62.41-.62.88s.2,1,.7,1Z"/><path class="uuid-58d08073-8a90-4db6-baef-2dddf8f69fe3" d="M59.81,45.21c-.94-.99-2.88-1.98-3.98-1.77-.29.06-.7.03-1.14-.05h0s0,0,0,0c-1.47-.25-3.39-1.01-3.5-1.05l-2.22-1.12c-.01.12-.03.27-.05.45.19,1.24.11,4.13-.64,4.46.36-2.35.55-3.7.64-4.46-.05-.35-.12-.57-.21-.57l-.98-.5c.26,1.16.54,3.95-1,6.23.27.19.43.41.43.66,0,.07-.02.14-.04.21l-.55,7.44-.04.03c-1.33.97-2.7,1.29-3.91,1.29-2.28,0-4.04-1.12-4.07-1.14l-.05-.03v-.05s-.04-.45-.04-.45c-.55.62-1.19,1.17-1.91,1.67.34.09.89.22,1.13.17.36-.08,2.08-.47,2.4-.47s1.35.23,1.35.23c0,0-1.63,1.23-2.21,1.32-.57.09-3.33,1-3.33,1-1.63-.09-3.54.08-5,.19.15.38,1.23,3.16,1.84,4.59.67,1.55,1.24,2.89,1.32,3.45.09.63-.6,2.02-1.73,4.22-.4.77-.81,1.58-1.15,2.31,2.14-1.41,9.16-5.17,21.54-3.76,0,0-11.26-.91-21.65,3.98-.15.33-.28.63-.38.91,5.13-3.99,21.04-2.85,23.16-2.68-.56-1.63-1.03-3.28-1.03-4.27,0-2.39.34-5.84.35-5.87,0-.03.01-.06.03-.09.01-.02,1.32-2.23,1.94-3.61.16-.37.32-.9.46-1.49.29-1.34.4-2.57.25-3.65.17.15,1.68-2.84,1.68-5.12.21.17.21,3.62-.64,4,.64.17,3.01-2.36,3.01-2.36-.86,1.52-1.83,2.89-3.13,3.84.14.63.32,1.27.52,1.79.02,0,4.44-1.65,5.33-3.29.1-.26.14-.44.16-.53,0,.17-.06.35-.16.53-.36.9-1.5,2.64-5.09,3.85.17.35.35.58.5.61.35.06,1.95-.82,3.54-2.06,1.42-1.11,2.01-1.86,2.09-2.2-.41-.59-1-1.74-1.62-2.95-.79-1.54-1.68-3.28-2.21-3.84ZM46.82,58.7l-8.43,2.84s5.33-2.88,8.43-2.84ZM42.89,60.02c2.69.7,6.99-.35,6.99-.35-4.09,1.61-6.99.35-6.99.35Z"/><path class="uuid-58d08073-8a90-4db6-baef-2dddf8f69fe3" d="M38.11,47.07l.09.04c.35-.51,1.43-.85,2.68-1.01-.22-.26-.45-.54-.69-.84-.87-1.85-.55-3.8-.28-4.79-1,.7-3,2.06-3.62,2.13-4.57.52-5.28.79-5.39.87-.1.07-.25.15-.43.26-.7.41-2.01,1.17-2.47,2.03l-.1.18c-2.05,3.82-3.16,5.63-3.6,5.88-.17.33,1.17,2.69,1.65,3.09.08-.02.18-.02.28,0l.88-.53.27-.25c-.68-.5-1.36-1.25-1.86-2.42,0,0,.93,1.21,2.13,2.18l2.39-2.18s.55-.37,1.28-.83c.18-1.16.31-1.97.31-1.97-.08.65.1,1.12.03,1.76,1.18-.73,2.53-1.5,3.15-1.5,0,0-1.89.71-3.41,1.74-.03.02-.07.05-.1.07-.49.34-.94.72-1.26,1.11l-.82.79,3.17-2.01,3.03-.97s1.78-.16,2.67-.1l-.17-2.35.2-.39Z"/><path class="uuid-58d08073-8a90-4db6-baef-2dddf8f69fe3" d="M46.5,46.69c1.64-2.3.92-5.54.72-6.27l-.11,1.16v-4.63h-.05c-1.16.66-3.92,2.24-4.16,2.3-.22.06-1.59-1.27-2.29-1.97v5.11l-.23-1.95c-.25.86-.65,2.83.21,4.64.17.35.37.68.62.98.46-.05.93-.07,1.4-.07,1.49,0,3.04.24,3.89.69Z"/><path class="uuid-d53f5fc9-c7f2-4ec0-acb2-31915cb00ea6" d="M39.12,31.52c3.61-.75,7.44.26,7.44.26-4.51-1.5-7.44-.26-7.44-.26Z"/><path class="uuid-d53f5fc9-c7f2-4ec0-acb2-31915cb00ea6" d="M39.12,31.52h0s2.9,6.45,7.33.26l-7.33-.26h0ZM40.79,31.76h-.02c1.37.11,3,.1,4.16.07l.99.05c-.11.32-.52.66-.99.99-1.26.64-2.85.81-4.49-.24-.34-.33-.66-.65-.77-.9.17-.03.64,0,1.12.03ZM39.19,31.6c.47.58,3.37,3.8,6.8.63.06-.04.11-.09.16-.13-1.06,1.2-4.06,4.5-7.01-.55.01.01.03.03.05.05ZM39.12,31.52s0,0,0,0h0s0,0,0,0Z"/><path class="uuid-d53f5fc9-c7f2-4ec0-acb2-31915cb00ea6" d="M41.56,29.43c.25.17.57.27.93.3-.62-.27-.88-.71-1.06-1.19-.08.05-.06.77-.06.77l-.31.36.5-.23Z"/><path class="uuid-d53f5fc9-c7f2-4ec0-acb2-31915cb00ea6" d="M44.42,29.33c-.44-.16-.92.28-.92.28.41-.16,1.18-.16,1.18-.16l-.25-.12Z"/><path class="uuid-d53f5fc9-c7f2-4ec0-acb2-31915cb00ea6" d="M46.81,25.35c0,.72.48,1.3,1.07,1.3s1.07-.58,1.07-1.3c0-.25-.06-.49-.17-.69.4.16.81.41,1.22.8l.36.36.79-.5-.8-.11s-2.29-3.24-5.03-.01c0,0,.74-.6,1.8-.74-.19.23-.3.55-.3.91ZM47.87,24.46c.62,0,.79.41.79.88s-.16,1-.71,1c-.5,0-.7-.53-.7-1s.28-.88.62-.88Z"/><path class="uuid-d53f5fc9-c7f2-4ec0-acb2-31915cb00ea6" d="M48.83,26.9s-1.49.04-1.96,0c-.4-.04-.77-.47-.88-.61-.02-.03-.03-.04-.03-.04.33.7.76.79.87.8.11.01,1.96.03,2.05,0,.06-.02.41-.2.6-.29-.24.09-.64.15-.64.15Z"/><path class="uuid-d53f5fc9-c7f2-4ec0-acb2-31915cb00ea6" d="M49.47,26.75c.08-.04.13-.07.13-.07-.03.02-.08.05-.13.07Z"/><path class="uuid-d53f5fc9-c7f2-4ec0-acb2-31915cb00ea6" d="M49.6,27.6c-.08,0-.14.06-.14.14s.06.14.14.14.14-.06.14-.14-.06-.14-.14-.14Z"/><path class="uuid-d53f5fc9-c7f2-4ec0-acb2-31915cb00ea6" d="M38.36,24.54c.58-.48,1.13-.71,1.63-.77-.25.23-.41.63-.41,1.08,0,.72.42,1.3.93,1.3s.93-.58.93-1.3c0-.39-.12-.74-.32-.97.87.27,1.41.9,1.41.9-2.04-3.49-4.45-.52-4.45-.52l-.72.03.64.58.36-.32ZM40.52,23.96c.54,0,.69.41.69.88s-.14,1-.62,1c-.44,0-.61-.53-.61-1s.24-.88.54-.88Z"/><path class="uuid-d53f5fc9-c7f2-4ec0-acb2-31915cb00ea6" d="M41.78,26.17c.08-.03.13-.06.13-.06-.03.02-.08.04-.13.06Z"/><path class="uuid-d53f5fc9-c7f2-4ec0-acb2-31915cb00ea6" d="M41.16,26.42c.06-.02.42-.16.62-.25-.24.07-.65.1-.65.1,0,0-1.49-.07-1.96-.14-.39-.06-.73-.53-.84-.68-.02-.03-.03-.05-.03-.05.28.72.7.84.81.86.11.02,1.96.17,2.04.15Z"/><path class="uuid-d53f5fc9-c7f2-4ec0-acb2-31915cb00ea6" d="M50.6,22.51s-1.83-1.4-3.28-1.63-1.76,1.14-1.76,1.14c0,0,.44-.37,1.35-.33s3.69.81,3.69.81Z"/><path class="uuid-d53f5fc9-c7f2-4ec0-acb2-31915cb00ea6" d="M42.05,21.77s-.05-1.38-1.12-1.24c-1.07.14-2.57,1.4-2.57,1.4,0,0,2.1-.58,2.76-.57s.93.41.93.41Z"/><path class="uuid-d53f5fc9-c7f2-4ec0-acb2-31915cb00ea6" d="M38.07,25.47l-.58.16.71.21-.29.19.58-.09c-.3-.16-.44-.31-.42-.47Z"/><path class="uuid-d53f5fc9-c7f2-4ec0-acb2-31915cb00ea6" d="M49.88,26.57c.02.15-.12.31-.42.47l.58.09-.29-.19.71-.21-.58-.16Z"/><path class="uuid-d53f5fc9-c7f2-4ec0-acb2-31915cb00ea6" d="M62.6,51.79c.1-.18.15-.35.16-.53-.01.08-.05.27-.16.53Z"/><path class="uuid-d53f5fc9-c7f2-4ec0-acb2-31915cb00ea6" d="M38.57,53.37l.09,1.18c.08-.1.17-.19.24-.29.17-.21-.15-.66-.33-.89Z"/><path class="uuid-d53f5fc9-c7f2-4ec0-acb2-31915cb00ea6" d="M38.19,51.91v-.42h0s.01,0,.02,0v-.13c-.5.16-1.42.33-1.84.4-.56.09-1.18.64-1.18.64l.26-.08h0l.21-.02v.31l1.7-.45c.34,0,.63.02.91.05l-.02-.29s-.03,0-.05,0Z"/><path class="uuid-d53f5fc9-c7f2-4ec0-acb2-31915cb00ea6" d="M38.76,51.97s-.15-.05-.3-.06l.02.32c.05,0,.11.01.16.02.08.19.08.37-.03.54-.02.01-.05.03-.08.05l.02.33.2-.12s.32-.83,0-1.09Z"/><path class="uuid-d53f5fc9-c7f2-4ec0-acb2-31915cb00ea6" d="M38.4,50.18s.06,0,.12-.01c.28.2.13.87,0,1.05-.02.02-.05.04-.1.06v.14c.1-.03.19-.06.26-.08.48-.15.14-.94-.03-1.27,0-.04-.01-.09-.08-.15-.04-.04-.13-.06-.25-.08l.02.33s.06,0,.06,0Z"/><path class="uuid-d53f5fc9-c7f2-4ec0-acb2-31915cb00ea6" d="M64.05,51.81c-.39-.54-1-1.72-1.63-2.96-.84-1.64-1.71-3.34-2.28-3.94-.45-.47-1.09-.93-1.77-1.29h.03c.53-1.13-1.07-2.94-2.14-3.97.05-.09.09-.17.15-.27,1.73-3.24-2.08-5.65-2.08-5.65,0,0,3.41-3.76,1.49-11.81-1.69-7.08-6.1-6.3-7.14-6.01-.45-.66-3.34-2.34-6.82-1.54-4.46,1.03-9.7,5.73-9.66,12.47.04,6.09,1.72,5.72,1.72,5.72,0,0-5.07,2.81-2.75,5.65.53.64,1.02,1.09,1.46,1.4-.29.5-.44,1.44-.31,3.08h0c-1.38.23-1.57.36-1.66.42-.09.06-.24.15-.41.25-.79.46-2.11,1.24-2.63,2.2l-.1.19c-2.4,4.47-3.19,5.57-3.43,5.7-.1.06-.22.18-.22.45,0,.11.03.26.07.41l-5.92,7.54-.8.48s-.04.03-.07.04l-.04.02h0c-2.34,1.51-2.38,7.38-2.38,7.38.27.8,8.21-.9,9.56-2.32l5.2-6.84c.06.01.6.28.66.29h0l.35.19h0c.21.53.39,1.01.51,1.35.04.13.09.27.15.42.02.05.03.08.03.08,0,0,0,0,0,0,.26.67.62,1.55,1.12,2.72.6,1.4,1.22,2.84,1.28,3.34.07.54-.86,2.35-1.69,3.96-.56,1.09-1.1,2.15-1.47,3.02,0,0,0,0,0,0,0,0,0,0,0,0-.31.74-.5,1.35-.45,1.73.05.39.13,1.13,13.15,1.27,1.52.02,3.03.02,4.47.02,3.43,0,6.39-.04,7.66-.06h0c.42,0,.66-.01.68-.01.07,0,.14-.04.18-.1.04-.06.05-.14.02-.21-.03-.07-2.91-6.64-2.91-8.97s.3-5.35.34-5.78c.19-.32,1.36-2.32,1.94-3.62.42-.94.78-2.83.99-4.06.28,1.03.76,2.36,1.4,2.49.66.13,2.75-1.24,3.9-2.14.83-.65,2.24-1.85,2.27-2.59,0-.05-.01-.1-.04-.14ZM37.36,23.07c.94-2.55,4.29-6.08,7.34-5.63h0c1.05,0,1.36.35,1.37.53v.32l.3-.12s1-.38,1.66-.21c2.99,2.32,3.92,6.21,3.8,9.76l-1,2.52.95-1.62c-.13,1.5-.43,2.9-.84,4.04h-.34s-.81,2.85-4.98,4.2c-1.3.34-2.57.46-3.82.36-.35-.15-3.59-1.63-5.05-4.99-1.54-3.53.45-8.73.62-9.18ZM24.19,52.94c.42.91,1.14,1.98,1.49,2.31l-6.38,3.83,4.89-6.13ZM61.55,54.19c-1.59,1.24-3.19,2.12-3.54,2.06-.16-.03-.33-.26-.5-.61,3.59-1.21,4.74-2.95,5.09-3.85-.89,1.64-5.3,3.28-5.33,3.29-.2-.52-.38-1.16-.52-1.79,1.3-.95,2.27-2.32,3.13-3.84,0,0-2.36,2.54-3.01,2.36.86-.38.86-3.83.64-4,0,2.28-1.5,5.27-1.68,5.12.15,1.08.04,2.31-.25,3.65-.14.59-.3,1.12-.46,1.49-.62,1.38-1.92,3.59-1.94,3.61-.02.03-.03.06-.03.09,0,.03-.35,3.48-.35,5.87,0,.99.47,2.64,1.03,4.27-2.12-.17-18.03-1.32-23.16,2.68.1-.28.23-.58.38-.91,10.38-4.89,21.65-3.98,21.65-3.98-12.38-1.41-19.4,2.35-21.54,3.76.34-.73.76-1.54,1.15-2.31,1.14-2.2,1.82-3.59,1.73-4.22-.08-.56-.65-1.9-1.32-3.45-.61-1.43-1.69-4.21-1.84-4.59,1.46-.1,3.37-.28,5-.19,0,0,2.75-.91,3.33-1,.57-.09,2.21-1.32,2.21-1.32,0,0-1.03-.23-1.35-.23s-2.04.39-2.4.47c-.24.05-.79-.08-1.13-.17.72-.49,1.36-1.05,1.91-1.67l-.02-.3c-.53.62-2.52,2-2.54,1.83v.4s1.38.14,1.83.14,2.35-.49,2.35-.49h.87s-.8.95-1.81,1.03c-.91.08-2.75.69-3.07.8-.01,0-.03,0-.07.02-.16.1-3.1.05-4.95.3-.17.02-.31-.02-.45-.04-.53-.2-2.11-.96-2.11-.96l.71.83c-1.33,1.89-4.53,6.39-4.91,6.52-2.2,2.06-7.99,3.04-9.13,2.58v-1.5c.93-3.5,1.97-4.82,2.44-5.26l8.7-5.33.48-.3.46-.28.45-.43.25-.24.82-.79c1.13-.67,3.43-2.04,3.62-2.13.26-.11,2.54-.88,3.07-1.01.42-.1,2-.06,2.65-.03l-.03-.35c-.89-.06-2.67.1-2.67.1l-3.03.97-3.17,2.01.82-.79c.32-.4.77-.77,1.26-1.11.03-.02.07-.05.1-.07,1.52-1.03,3.41-1.74,3.41-1.74-.62,0-1.97.77-3.15,1.5.07-.63-.11-1.11-.03-1.76,0,0-.13.81-.31,1.97-.73.46-1.28.83-1.28.83l-2.39,2.18c-1.2-.97-2.13-2.18-2.13-2.18.5,1.17,1.18,1.92,1.86,2.42l-.27.25-.88.53c-.1-.01-.2-.01-.28,0-.48-.4-1.82-2.76-1.65-3.09.43-.25,1.54-2.06,3.6-5.88l.1-.18c.46-.85,1.76-1.62,2.47-2.03.18-.11.33-.19.43-.26.11-.07.81-.35,5.39-.87.62-.07,2.62-1.43,3.62-2.13-.27.99-.59,2.94.28,4.79.25.3.47.58.69.84.11-.01.21-.03.33-.04-.24-.31-.45-.63-.62-.98-.86-1.81-.46-3.79-.21-4.64l.23,1.95v-5.11c.7.7,2.07,2.04,2.29,1.97.24-.07,3.01-1.65,4.16-2.29h.05s0,4.62,0,4.62l.11-1.16c.2.74.91,3.98-.72,6.27.08.04.16.09.23.14,1.54-2.27,1.26-5.06,1-6.23l.98.5c.08,0,.15.23.21.57.02-.18.04-.33.05-.45l2.22,1.12c.1.04,2.03.8,3.5,1.05h0s0,0,0,0c.45.07.85.1,1.14.05,1.1-.21,3.05.78,3.98,1.77.53.56,1.42,2.3,2.21,3.84.62,1.21,1.21,2.35,1.62,2.95-.08.34-.67,1.08-2.09,2.2Z"/><path class="uuid-d53f5fc9-c7f2-4ec0-acb2-31915cb00ea6" d="M38.2,53.4l.13-.08c-.06.04-.11.07-.13.08Z"/><path class="uuid-d53f5fc9-c7f2-4ec0-acb2-31915cb00ea6" d="M36.33,54.58l1.86-1.17s.1.16.19.35l-.06-.79c-.66.35-2.12,1.1-1.99,1.61ZM38.32,53.33l-.13.08s.06-.04.13-.08Z"/><path class="uuid-d53f5fc9-c7f2-4ec0-acb2-31915cb00ea6" d="M48.91,41.67c-.09.76-.28,2.12-.64,4.46.75-.34.82-3.22.64-4.46Z"/><path class="uuid-d53f5fc9-c7f2-4ec0-acb2-31915cb00ea6" d="M38.4,61.54l8.43-2.84c-3.1-.04-8.43,2.84-8.43,2.84Z"/><path class="uuid-d53f5fc9-c7f2-4ec0-acb2-31915cb00ea6" d="M44.28,59.07s2.9.68,6.99-.19c0,0-4.3.56-6.99.19Z"/><path class="uuid-d53f5fc9-c7f2-4ec0-acb2-31915cb00ea6" d="M32.39,55.51s2.6-.49,2.11-.54c-.49-.04-2.11.54-2.11.54Z"/><path class="uuid-d53f5fc9-c7f2-4ec0-acb2-31915cb00ea6" d="M38.24,51.91c.08,0,.16,0,.22,0l-.04-.49c-.07.02-.14.04-.22.07l.03.43Z"/><path class="uuid-d53f5fc9-c7f2-4ec0-acb2-31915cb00ea6" d="M38.46,53.24s.05.05.11.13v-.19s-.11.06-.11.06Z"/><path class="uuid-d53f5fc9-c7f2-4ec0-acb2-31915cb00ea6" d="M46.72,46.83c-.05.08-.11.15-.16.23.2.14.31.29.31.43,0,.35-.67.73-1.77.97-.11.08-.22.17-.35.24-.05.02-.11.03-.16.01-.11-.04-.21-.08-.32-.11-.5.06-1.06.1-1.67.1-2.51,0-4.26-.64-4.26-1.21,0-.45,1.08-.93,2.75-1.13-.07-.08-.14-.17-.22-.25-1.26.16-2.33.5-2.68,1.01l-.09-.04-.2.39.17,2.35c.08,0,.16.01.22.02l-.15-2.05c.43.77,2.5,1.19,4.45,1.19,1.74,0,3.56-.33,4.25-.94l-.52,6.99c-3.47,2.5-7.19.42-7.64.15l-.05-.62c-.07.08-.13.17-.21.25l.03.45v.05s.05.03.05.03c.03.02,1.79,1.14,4.07,1.14,1.22,0,2.58-.32,3.91-1.29l.04-.03.55-7.44c.03-.07.04-.14.04-.21,0-.25-.16-.47-.43-.66Z"/><path class="uuid-d53f5fc9-c7f2-4ec0-acb2-31915cb00ea6" d="M42.61,46.27c1.69,0,3.01.29,3.71.65.06-.08.12-.16.17-.24-.85-.45-2.4-.69-3.89-.69-.47,0-.95.02-1.4.07.07.09.15.18.23.26.37-.03.76-.05,1.17-.05Z"/><path class="uuid-d53f5fc9-c7f2-4ec0-acb2-31915cb00ea6" d="M44.6,48.71c.05.02.11.01.16-.01.12-.08.23-.16.35-.24-.25.05-.53.1-.82.14.11.04.2.08.32.11Z"/><path class="uuid-d53f5fc9-c7f2-4ec0-acb2-31915cb00ea6" d="M38.57,53.37c-.06-.08-.11-.13-.11-.13l.1-.06-.02-.33c-.05.03-.13.07-.21.12l.06.79c.09.2.18.43.18.5,0,.05-.05.13-.13.23l.02.3c.07-.08.14-.16.21-.25l-.09-1.18Z"/><path class="uuid-d53f5fc9-c7f2-4ec0-acb2-31915cb00ea6" d="M38.31,49.84c-.07,0-.14-.02-.22-.02l.03.35c.1,0,.17,0,.22,0l-.02-.33Z"/><path class="uuid-d53f5fc9-c7f2-4ec0-acb2-31915cb00ea6" d="M46.56,47.06c.06-.08.11-.15.16-.23-.07-.05-.14-.09-.23-.14-.06.08-.11.16-.17.24.08.04.17.08.23.13Z"/><path class="uuid-d53f5fc9-c7f2-4ec0-acb2-31915cb00ea6" d="M41.44,46.33c-.08-.09-.16-.17-.23-.26-.11.01-.22.03-.33.04.07.09.14.17.22.25.11-.01.23-.02.34-.03Z"/><path class="uuid-d53f5fc9-c7f2-4ec0-acb2-31915cb00ea6" d="M38.46,51.91c-.07,0-.14,0-.22,0l.02.29c.08.01.15.02.23.03l-.02-.32Z"/><path class="uuid-d53f5fc9-c7f2-4ec0-acb2-31915cb00ea6" d="M38.42,51.41v-.14c-.07.03-.14.05-.23.08v.13c.09-.02.16-.05.23-.07Z"/><path class="uuid-d53f5fc9-c7f2-4ec0-acb2-31915cb00ea6" d="M45.31,48.59l-3.28.38-2.93-.51-.45-.38s4.02-1.28,7.87,0"/><polygon class="uuid-d53f5fc9-c7f2-4ec0-acb2-31915cb00ea6" points="40.59 46.43 40.59 47.86 40.88 47.86 40.88 46.11 40.74 46.36 40.59 46.43"/><rect class="uuid-d53f5fc9-c7f2-4ec0-acb2-31915cb00ea6" x="44" y="46.21" width=".28" height="1.64"/><polygon class="uuid-d53f5fc9-c7f2-4ec0-acb2-31915cb00ea6" points="44.69 46.36 44.69 48.08 45.11 48.24 45.11 46.46 44.69 46.36"/><path class="uuid-d53f5fc9-c7f2-4ec0-acb2-31915cb00ea6" d="M34.9,48.97s-4.74,1.95-5.76,3.58c0,0,4.8-3.39,5.76-3.16v-.42Z"/><polygon class="uuid-d53f5fc9-c7f2-4ec0-acb2-31915cb00ea6" points="30.44 51.66 32.59 50.96 29.22 52.9 30.04 51.72 30.44 51.66"/><polygon class="uuid-d53f5fc9-c7f2-4ec0-acb2-31915cb00ea6" points="58.79 56.47 63.01 62.03 63.01 61.54 58.97 55.89 58.79 56.47"/><polygon class="uuid-d53f5fc9-c7f2-4ec0-acb2-31915cb00ea6" points="63.47 52.33 70.63 62.03 71.15 61.84 63.64 52 63.47 52.33"/><path class="uuid-d53f5fc9-c7f2-4ec0-acb2-31915cb00ea6" d="M62.76,71.32s5.47-3.78,7.88-9.29l.52-.19s-2.57,6.27-8.4,9.48Z"/><path class="uuid-d53f5fc9-c7f2-4ec0-acb2-31915cb00ea6" d="M62.76,71.32s3.49-3.5,4.94-4.64c0,0-3.59,4.07-4.94,4.64Z"/><path class="uuid-d53f5fc9-c7f2-4ec0-acb2-31915cb00ea6" d="M55.8,75.77s.39-4.4,1.88-5.72,5.27-6.89,5.33-8.52,4.19-1.86,4.19-1.86c0,0-3.26.62-3.72,1.86s-3.62,7.6-5.34,8.75-2.33,5.49-2.33,5.49Z"/><path class="uuid-d53f5fc9-c7f2-4ec0-acb2-31915cb00ea6" d="M62.6,70s.68,3.18,0,5.77v-5.77Z"/><path class="uuid-2e1c8041-313a-4e07-a0ea-16ee3cf97681" d="M36.72,66.9s6.88-1.8,15.12.82c0,0-4.03-3.51-15.12-.82Z"/><path class="uuid-d53f5fc9-c7f2-4ec0-acb2-31915cb00ea6" d="M42.17,22.51s.4,3.02-.13,4.24,1.2-1.97.13-4.24Z"/></g></svg>