<?xml version="1.0" encoding="UTF-8"?><svg id="uuid-34d219b8-5123-49ba-98d7-3a63c0f1f504" xmlns="http://www.w3.org/2000/svg" xmlns:xlink="http://www.w3.org/1999/xlink" viewBox="0 0 87.53 76.14"><defs><style>.uuid-9fc479b8-15f7-4038-a8eb-4a975f91679c{fill:#603913;}.uuid-9fc479b8-15f7-4038-a8eb-4a975f91679c,.uuid-245fc24c-0fc0-477e-9fcd-52451d5c802d,.uuid-53f249de-3882-4467-a07f-b9fb2981622e,.uuid-8c6f1185-b1eb-410a-814e-76cba2a6b2f0,.uuid-ae139d9d-4ff9-4bf1-b149-ef72aea869ac,.uuid-fc711709-482e-44c4-9721-c247414c91ad,.uuid-0e190bad-d22f-491e-ae4c-051a42ba82c4,.uuid-1db87e70-52e6-41bb-8100-18dbcc525f46,.uuid-21695cde-855f-4912-b674-93136723c0c1,.uuid-63767d46-6f85-44dc-953a-70d583549c98,.uuid-40030b11-db3b-434d-ba70-282fd76de1bf,.uuid-648e4ef5-bc24-4b02-a75b-0d4e72cede0e,.uuid-e4b9f367-3fa5-47d2-b462-287ba8ba064b,.uuid-ad7849f3-e398-4ec5-9002-4e95a18d9701,.uuid-e836a090-d068-4c86-b57e-dbe901606c03,.uuid-a8895881-9736-4d83-8ed1-6351591a6467,.uuid-203c38ed-57a1-4750-a3da-0ababca62873,.uuid-db34dc66-15f3-47f5-9c1e-ab7e3ef3c875,.uuid-bc88b66a-cb22-4e0e-9d3c-43d51599e84a,.uuid-8e5925f3-b396-40cd-a466-11002223e150,.uuid-d727f6ff-b598-4826-b627-2298c9c89b96,.uuid-52019697-b9d6-4c59-8b11-3cc120d4b2f3,.uuid-9ac86180-9525-434d-af4e-a432725b15c7,.uuid-3199ab12-c5e5-4566-adc9-60813ad5fc9f,.uuid-518ac4e6-e716-4f57-993a-3829d3b8f55e,.uuid-2f8daf83-c251-4e9c-b420-033d47c8cec7,.uuid-49d3fa26-a846-4e20-a764-e5062cd4323c,.uuid-fa2fd331-a275-4e26-9d5e-633f40e443f3,.uuid-ef58dd33-7ee3-400a-9a98-a13cb5958dc9,.uuid-9b3a30c9-e1a4-4acd-862e-a88f73fe931b,.uuid-d45be52c-8aa7-4435-a2be-6e16dcc19401,.uuid-665b13fb-7ebd-4ce7-9b4a-4dcc19703ac7,.uuid-52fe490a-dbb0-44a8-9c58-da0d193c9f6d,.uuid-9c77ca5a-73b4-4ad9-852e-d0eac947298e,.uuid-4292583a-12e8-4ca9-abc4-a0bb710263fe,.uuid-80d1bbde-0e59-4f99-825e-ecc576937ea8,.uuid-f5a5beb3-8ed6-4e76-b92b-4ed7bd4ee7e5,.uuid-33813731-e487-4208-bc9c-08751c4e8158,.uuid-0ffa5a09-3b66-4b24-bb60-51de55ebbaa9,.uuid-149413e3-16c4-4562-a4d1-276acfddf8ea,.uuid-e6127b86-e715-4978-8391-5f2d49571194,.uuid-7d56c32f-1742-4cac-b570-868ddeef4f97,.uuid-88f6d286-4017-4b2a-9139-29e48f1e3fb0,.uuid-da94b48f-c2d2-4041-875e-8abb7b2c17b6,.uuid-7ebd4e7d-f90a-4dc5-86b5-626a7aff1e44,.uuid-5ff06ef9-bedd-47d6-9288-fc36337228ce{stroke-width:0px;}.uuid-245fc24c-0fc0-477e-9fcd-52451d5c802d{fill:#662d91;}.uuid-53f249de-3882-4467-a07f-b9fb2981622e{fill:#fffffd;}.uuid-8c6f1185-b1eb-410a-814e-76cba2a6b2f0{fill:#7b7b7b;}.uuid-ae139d9d-4ff9-4bf1-b149-ef72aea869ac{fill:url(#uuid-0445fae9-5e42-4a5e-b014-ca3dda88d3f4);}.uuid-fc711709-482e-44c4-9721-c247414c91ad{fill:#bb1e73;}.uuid-0e190bad-d22f-491e-ae4c-051a42ba82c4{fill:#fdd8c5;}.uuid-1db87e70-52e6-41bb-8100-18dbcc525f46{fill:#39b87c;}.uuid-21695cde-855f-4912-b674-93136723c0c1{fill:#901e2b;}.uuid-63767d46-6f85-44dc-953a-70d583549c98{fill:#10202d;}.uuid-40030b11-db3b-434d-ba70-282fd76de1bf{fill:#056136;}.uuid-648e4ef5-bc24-4b02-a75b-0d4e72cede0e{fill:#8e421f;}.uuid-e4b9f367-3fa5-47d2-b462-287ba8ba064b{fill:#75aadb;}.uuid-ad7849f3-e398-4ec5-9002-4e95a18d9701{fill:#067d40;}.uuid-e836a090-d068-4c86-b57e-dbe901606c03{fill:#6d6e71;}.uuid-a8895881-9736-4d83-8ed1-6351591a6467{fill:#919191;}.uuid-203c38ed-57a1-4750-a3da-0ababca62873{fill:#c8e8fa;}.uuid-db34dc66-15f3-47f5-9c1e-ab7e3ef3c875{fill:#000;}.uuid-bc88b66a-cb22-4e0e-9d3c-43d51599e84a{fill:#377bb5;}.uuid-bc0e414b-9b3a-4de1-91f3-1214ea924649{fill:none;stroke:#58595b;stroke-miterlimit:10;stroke-width:.23px;}.uuid-8e5925f3-b396-40cd-a466-11002223e150{fill:#32214e;}.uuid-d727f6ff-b598-4826-b627-2298c9c89b96{fill:#be982f;}.uuid-52019697-b9d6-4c59-8b11-3cc120d4b2f3{fill:#231f20;}.uuid-9ac86180-9525-434d-af4e-a432725b15c7{fill:#251935;}.uuid-3199ab12-c5e5-4566-adc9-60813ad5fc9f{fill:#d1d3d4;}.uuid-518ac4e6-e716-4f57-993a-3829d3b8f55e{fill:#2b3990;}.uuid-2f8daf83-c251-4e9c-b420-033d47c8cec7{fill:#064624;}.uuid-49d3fa26-a846-4e20-a764-e5062cd4323c{fill:#f9fbfa;}.uuid-fa2fd331-a275-4e26-9d5e-633f40e443f3{fill:#fdfefe;}.uuid-ef58dd33-7ee3-400a-9a98-a13cb5958dc9{fill:#d03894;}.uuid-9b3a30c9-e1a4-4acd-862e-a88f73fe931b{fill:url(#uuid-6886594b-926f-43bc-a4ba-287eeb5617c8);}.uuid-d45be52c-8aa7-4435-a2be-6e16dcc19401{fill:#d3cc89;}.uuid-665b13fb-7ebd-4ce7-9b4a-4dcc19703ac7{fill:#b5b5b6;}.uuid-52fe490a-dbb0-44a8-9c58-da0d193c9f6d{fill:#ede79e;}.uuid-9c77ca5a-73b4-4ad9-852e-d0eac947298e{fill:#27aae1;}.uuid-4292583a-12e8-4ca9-abc4-a0bb710263fe{fill:#0b301b;}.uuid-80d1bbde-0e59-4f99-825e-ecc576937ea8{fill:#077e40;}.uuid-f5a5beb3-8ed6-4e76-b92b-4ed7bd4ee7e5{fill:url(#uuid-a6966887-34cb-47fc-b95a-7a89b5f3f020);}.uuid-33813731-e487-4208-bc9c-08751c4e8158{fill:#fff;}.uuid-0ffa5a09-3b66-4b24-bb60-51de55ebbaa9{fill:#275d88;}.uuid-149413e3-16c4-4562-a4d1-276acfddf8ea{fill:#046737;}.uuid-e6127b86-e715-4978-8391-5f2d49571194{fill:url(#uuid-1342b269-78a9-4eb6-a3ab-fa2549a60f9d);}.uuid-7d56c32f-1742-4cac-b570-868ddeef4f97{fill:#ffcb1c;}.uuid-88f6d286-4017-4b2a-9139-29e48f1e3fb0{fill:#00a360;}.uuid-da94b48f-c2d2-4041-875e-8abb7b2c17b6{fill:#1c75bc;}.uuid-7ebd4e7d-f90a-4dc5-86b5-626a7aff1e44{fill:#f1f2f2;}.uuid-5ff06ef9-bedd-47d6-9288-fc36337228ce{fill:#035c33;}</style><linearGradient id="uuid-6886594b-926f-43bc-a4ba-287eeb5617c8" x1="31.36" y1="29.4" x2="36.74" y2="29.4" gradientUnits="userSpaceOnUse"><stop offset="0" stop-color="#3975bb"/><stop offset="1" stop-color="#39c3e0"/></linearGradient><linearGradient id="uuid-a6966887-34cb-47fc-b95a-7a89b5f3f020" x1="31.36" y1="28.87" x2="36.74" y2="28.87" xlink:href="#uuid-6886594b-926f-43bc-a4ba-287eeb5617c8"/><linearGradient id="uuid-0445fae9-5e42-4a5e-b014-ca3dda88d3f4" x1="31.36" y1="26.67" x2="36.74" y2="26.67" xlink:href="#uuid-6886594b-926f-43bc-a4ba-287eeb5617c8"/><linearGradient id="uuid-1342b269-78a9-4eb6-a3ab-fa2549a60f9d" x1="39.18" y1="27.63" x2="62.25" y2="27.63" xlink:href="#uuid-6886594b-926f-43bc-a4ba-287eeb5617c8"/></defs><circle class="uuid-203c38ed-57a1-4750-a3da-0ababca62873" cx="36.81" cy="34.48" r="33.74"/><path class="uuid-d727f6ff-b598-4826-b627-2298c9c89b96" d="M10.69,29.31v.42s.07,0,.1,0c1.03,0,2.05,0,3.08,0,.25,0,.38.13.38.38,0,.24,0,.49,0,.73-.02.66-.33,1.17-.86,1.55-.39.28-.83.46-1.29.57-.37.09-.75.18-1.14.22-.34.04-.69.04-1.03.02-.85-.06-1.68-.24-2.43-.67-.41-.24-.74-.56-.94-1-.11-.24-.15-.49-.15-.76,0-1.12,0-2.25,0-3.37,0-1.08.8-1.95,1.7-2.13.12-.02.25-.04.37-.04,1.24,0,2.48,0,3.72,0,.35,0,.66-.13.95-.33.46-.32.74-.76.84-1.31.02-.09.02-.18.02-.28,0-.53,0-1.06,0-1.59,0-.15.12-.35.32-.35.51,0,1.03-.01,1.54.01.65.03,1.13.36,1.48.91.25.39.39.82.49,1.27.07.33.14.66.19.99.03.21.04.43.05.65,0,.16.02.33.01.49-.02.47-.09.94-.23,1.4-.15.47-.3.93-.57,1.35-.25.41-.6.7-1.07.82-.15.04-.31.06-.47.06-1.65,0-3.31,0-4.96,0-.04,0-.07,0-.12,0ZM13.08,28.63c.87,0,1.75,0,2.62,0,.47,0,.81-.19,1.05-.6.18-.3.3-.63.41-.96.24-.69.31-1.39.24-2.11-.04-.46-.13-.92-.25-1.37-.09-.35-.2-.69-.41-.99-.25-.36-.59-.55-1.03-.55-.3,0-.6,0-.9,0-.11,0-.11,0-.11.12,0,.38,0,.75,0,1.13-.01.83-.35,1.51-.99,2.03-.48.39-1.03.58-1.65.58-1.15,0-2.3,0-3.45,0-.12,0-.23,0-.35.03-.69.15-1.16.76-1.16,1.49,0,1.1,0,2.19,0,3.29,0,.14.02.28.06.41.1.35.35.59.66.78.31.2.66.32,1.01.41.51.14,1.02.21,1.55.21.5,0,.98-.08,1.46-.2.38-.1.75-.22,1.08-.43.3-.19.54-.44.62-.79.04-.18.04-.37.05-.56,0-.14,0-.14-.13-.14-1.02,0-2.04,0-3.06,0-.24,0-.38-.14-.38-.37,0-.34,0-.68,0-1.02,0-.26.13-.39.39-.39.89,0,1.79,0,2.68,0Z"/><path class="uuid-0ffa5a09-3b66-4b24-bb60-51de55ebbaa9" d="M9.36,20.41c-.63,0-1.26,0-1.89,0-.43,0-.86,0-1.29,0-.24,0-.37-.14-.37-.37,0-.32,0-.65,0-.97.03-.86.46-1.44,1.28-1.72.44-.15.89-.22,1.35-.28.56-.06,1.12-.09,1.68-.06.46.02.91.06,1.37.13.48.08.92.25,1.31.55.44.35.72.79.81,1.35.01.08.02.17.02.25,0,1.16,0,2.33,0,3.49,0,1.03-.73,1.92-1.78,2.1-.14.02-.29.03-.43.03-1.15,0-2.29,0-3.44,0-.93,0-1.72.64-1.91,1.54-.03.13-.04.28-.04.41,0,.5,0,1,0,1.5,0,.29-.19.41-.41.41-.45-.01-.9.01-1.35,0-.43-.02-.82-.18-1.15-.47-.4-.34-.64-.78-.79-1.27-.15-.47-.24-.95-.3-1.43-.05-.33-.07-.67-.05-1.01.04-.71.13-1.42.39-2.1.35-.92,1.03-1.47,2-1.63.17-.03.35-.04.53-.04,1.45,0,2.9,0,4.36,0h.13c0-.14,0-.27,0-.39,0,0,0,0-.01-.01ZM7.22,21.5c-.79,0-1.58,0-2.36,0-.12,0-.24,0-.36.02-.74.11-1.25.52-1.5,1.21-.22.6-.32,1.23-.34,1.87-.03.61.07,1.21.21,1.81.08.33.17.65.35.94.29.47.7.73,1.26.73.25,0,.5,0,.75,0q.13,0,.13-.13c0-.38,0-.77,0-1.15,0-.13,0-.27.03-.4.21-1.26,1.35-2.2,2.58-2.18,1.06.02,2.13,0,3.19,0,.15,0,.29,0,.44-.01.73-.04,1.35-.67,1.35-1.41,0-1.17,0-2.34,0-3.51,0-.21-.05-.41-.16-.59-.29-.5-.75-.77-1.3-.88-.56-.11-1.12-.14-1.69-.15-.59,0-1.17.03-1.75.13-.35.06-.7.13-1.01.3-.29.16-.48.4-.51.73-.03.25-.03.51-.04.76,0,.13,0,.13.13.13,1,0,2,0,3,0,.03,0,.07,0,.1,0,.2.01.34.15.34.35,0,.35,0,.71,0,1.06,0,.05,0,.1-.03.15-.06.14-.18.2-.33.2-.83,0-1.65,0-2.48,0Z"/><path class="uuid-63767d46-6f85-44dc-953a-70d583549c98" d="M9.36,20.41s0,0,.01.01c0,0,0,0-.01-.01Z"/><path class="uuid-7d56c32f-1742-4cac-b570-868ddeef4f97" d="M13.08,28.63c-.89,0-1.79,0-2.68,0-.26,0-.39.13-.39.39,0,.34,0,.68,0,1.02,0,.24.14.37.38.37,1.02,0,2.04,0,3.06,0,.13,0,.14,0,.13.14,0,.19,0,.38-.05.56-.08.35-.32.6-.62.79-.33.21-.7.33-1.08.43-.48.13-.97.2-1.46.2-.52,0-1.04-.07-1.55-.21-.35-.1-.7-.22-1.01-.41-.3-.19-.55-.43-.66-.78-.04-.13-.06-.27-.06-.41,0-1.1,0-2.19,0-3.29,0-.73.48-1.35,1.16-1.49.11-.02.23-.03.35-.03,1.15,0,2.3,0,3.45,0,.62,0,1.17-.19,1.65-.58.64-.53.97-1.21.99-2.03,0-.38,0-.75,0-1.13,0-.11,0-.12.11-.12.3,0,.6,0,.9,0,.44,0,.79.19,1.03.55.21.3.32.64.41.99.12.45.2.91.25,1.37.07.72,0,1.43-.24,2.11-.11.33-.23.66-.41.96-.24.4-.58.6-1.05.6-.87,0-1.75,0-2.62,0ZM12.68,31.41c0-.41-.26-.65-.71-.65-.26,0-.56.28-.57.64,0,.37.33.66.65.65.36-.01.63-.28.63-.65Z"/><path class="uuid-bc88b66a-cb22-4e0e-9d3c-43d51599e84a" d="M7.22,21.5c.83,0,1.65,0,2.48,0,.15,0,.27-.06.33-.2.02-.04.03-.1.03-.15,0-.35,0-.71,0-1.06,0-.2-.13-.34-.34-.35-.03,0-.07,0-.1,0-1,0-2,0-3,0-.13,0-.14,0-.13-.13,0-.25,0-.51.04-.76.04-.33.22-.57.51-.73.32-.17.66-.24,1.01-.3.58-.1,1.16-.14,1.75-.13.57,0,1.13.04,1.69.15.55.11,1.01.38,1.3.88.1.18.16.38.16.59,0,1.17,0,2.34,0,3.51,0,.73-.62,1.37-1.35,1.41-.15,0-.29.01-.44.01-1.06,0-2.13.01-3.19,0-1.23-.02-2.37.92-2.58,2.18-.02.13-.03.27-.03.4,0,.38,0,.77,0,1.15q0,.12-.13.13c-.25,0-.5,0-.75,0-.56,0-.97-.26-1.26-.73-.18-.29-.27-.61-.35-.94-.14-.6-.24-1.2-.21-1.81.03-.64.12-1.27.34-1.87.25-.69.76-1.1,1.5-1.21.12-.02.24-.02.36-.02.79,0,1.58,0,2.36,0ZM8.34,18.8c0-.42-.25-.66-.71-.66-.24,0-.56.27-.57.64,0,.34.3.66.65.65.36,0,.63-.28.63-.64Z"/><path class="uuid-53f249de-3882-4467-a07f-b9fb2981622e" d="M12.68,31.41c0,.36-.27.64-.63.65-.32.01-.65-.29-.65-.65,0-.36.3-.64.57-.64.45,0,.71.23.71.65Z"/><path class="uuid-fa2fd331-a275-4e26-9d5e-633f40e443f3" d="M8.34,18.8c0,.36-.27.63-.63.64-.35,0-.66-.32-.65-.65,0-.38.32-.64.57-.64.46,0,.71.23.71.66Z"/><path class="uuid-5ff06ef9-bedd-47d6-9288-fc36337228ce" d="M27.34,14.24h-3.58c-.3,0-.6,0-.9,0-.24,0-.43-.07-.56-.27-.03-.05-.05-.11-.07-.17,0-.27,0-.53,0-.8.31,0,.62,0,.93,0,.3,0,.6,0,.9,0,.4,0,.81,0,1.21,0,.08,0,.16.01.24,0,.26-.06.39-.25.46-.5,0-.04.03-.07.04-.1-.01-.04-.04-.07-.04-.1,0-.17,0-.34,0-.51,0-.04,0-.09,0-.13,0,0,0-.02,0-.02,0-.8,0-1.6,0-2.39.05-.07.02-.15,0-.22v-.04s.03-.01.03-.02c-.04-.14.06-.29-.03-.43,0-.01,0-.03,0-.04,0,0,0-.02,0-.02.01-.03.02-.06.04-.09,0,.02.01.04.02.05.02-.01.04-.02.03-.02.06.03.1.06.14.09.01-.05.02-.08.02-.12,0,.11.07.12.15.12.28,0,.55,0,.83,0,0,.25,0,.51,0,.76,0,.33,0,.65,0,.98,0,.33,0,.67,0,1,0,.12.04.14.15.14,1.61,0,3.22,0,4.83,0,0,.22,0,.44,0,.66,0,.3,0,.59,0,.89,0,.3,0,.59,0,.89-.07.24-.22.39-.47.44-.27,0-.54,0-.81,0h-3.58Z"/><path class="uuid-1db87e70-52e6-41bb-8100-18dbcc525f46" d="M31.82,2.73c.2.08.32.22.38.42,0,.3,0,.59,0,.89v.89c0,.22,0,.44,0,.67-1.66,0-3.32,0-4.99,0h0c0-.19,0-.37,0-.56,0-.33,0-.65,0-.98,0-.41,0-.83,0-1.24,0-.03-.03-.06-.04-.09.06,0,.12,0,.18,0h3.58c.21,0,.41,0,.62,0,.09,0,.18.01.27.02Z"/><path class="uuid-88f6d286-4017-4b2a-9139-29e48f1e3fb0" d="M27.16,2.72s.04.06.04.09c0,.41,0,.83,0,1.24,0,.33,0,.65,0,.98,0,.19,0,.37,0,.56-.3,0-.6,0-.89,0,0-.08-.02-.14-.02-.2-.01,0-.02,0-.04,0,0,.06-.01.13-.02.2-.09-.01-.17-.03-.26-.04h0s-.02-.08-.02-.12c-.02.02-.03.04-.04.05-.08-.2-.32-.34-.56-.31-.17,0-.34,0-.51,0-.08,0-.17-.03-.22-.04-.01.01-.04.04-.07.08-.03-.07-.04-.09-.04-.11-.03.02-.05.05-.08.06-.09,0-.17.01-.26.01-.11,0-.22,0-.34,0,0-.03-.01-.05-.02-.07-.02.02-.04.05-.06.05-.22,0-.44,0-.66,0-.03,0-.07-.02-.1-.03-.05.08-.25.06-.33-.04-.01.02-.03.04-.04.07,0-.03-.01-.04-.02-.07q-.03.08-.11.04s-.01,0-.02,0c-.1.02-.2.06-.31.06-.93,0-1.87,0-2.8,0,.04,0,.08-.01.12-.01.24,0,.47,0,.71,0,.3,0,.6,0,.9,0h1.14v-1.13c0-.29,0-.59,0-.88.09-.27.27-.46.64-.45.3,0,.6,0,.9,0,.3,0,.6,0,.9,0,.3,0,.6,0,.9,0,.3,0,.6,0,.9,0,.24,0,.48,0,.72,0Z"/><path class="uuid-ad7849f3-e398-4ec5-9002-4e95a18d9701" d="M32.2,11.35c-1.61,0-3.22,0-4.83,0-.11,0-.16-.02-.15-.14,0-.33,0-.67,0-1,0-.33,0-.65,0-.98,0-.25,0-.51,0-.76,0,0,0,0,0,0,.03,0,.06,0,.09,0,1.63,0,3.26,0,4.89,0,0,.3,0,.59,0,.89,0,.3,0,.59,0,.89s0,.59,0,.89c0,.07,0,.15,0,.22Z"/><path class="uuid-ad7849f3-e398-4ec5-9002-4e95a18d9701" d="M25.91,5.48s.02-.03.04-.05c0,.04.02.08.02.12,0,0,0,0,0,.01,0,0,0,0,.01,0,.09.01.17.03.26.04,0-.08.02-.14.02-.2.01,0,.02,0,.04,0,0,.06.01.12.02.2.29,0,.59,0,.89,0,0,0,0,0,0,0,0,.2,0,.39,0,.59,0,.27,0,.54,0,.81,0,.26,0,.52,0,.77,0,.23,0,.47,0,.7,0,0,0,0,0,0-.28,0-.55,0-.83,0-.08,0-.15,0-.15-.12,0,.03-.01.06-.02.12-.05-.03-.09-.05-.14-.09,0,0-.01,0-.03.02,0-.01,0-.03-.02-.05-.01.03-.02.06-.04.09,0-.91,0-1.82,0-2.73,0-.04-.03-.09-.04-.13,0-.04-.02-.07-.02-.11ZM26.21,5.7c-.02.05-.04.1-.07.15h.14c-.02-.05-.05-.1-.07-.15Z"/><path class="uuid-4292583a-12e8-4ca9-abc4-a0bb710263fe" d="M22.24,12.17c0-.13,0-.26,0-.39.04,0,.08-.03.12-.03.88,0,1.75,0,2.63,0,.07,0,.15-.01.22-.04.24-.1.35-.29.35-.54,0-.9,0-1.8,0-2.7.14,0,.28,0,.42,0,0,.01,0,.03,0,.04,0,.15,0,.3,0,.44,0,.01,0,.03,0,.04,0,.07,0,.15,0,.22,0,.8,0,1.6,0,2.39,0,0-.02,0-.03.01,0,0,.02,0,.03.01,0,.04,0,.09,0,.13-.01.01-.03.03-.04.04-.06.07-.1.16-.17.22-.1.1-.22.12-.36.13-.15,0-.31.05-.46.05-.85,0-1.71,0-2.56,0-.05,0-.1-.03-.14-.04Z"/><path class="uuid-2f8daf83-c251-4e9c-b420-033d47c8cec7" d="M22.24,12.17s.1.04.14.04c.85,0,1.71,0,2.56,0,.15,0,.31-.05.46-.05.14,0,.27-.03.36-.13.07-.07.11-.15.17-.22.01-.02.03-.03.04-.04,0,.17,0,.34,0,.51,0,.03.02.06.04.1,0,.02-.03.06-.04.1-.06.25-.19.43-.46.5-.08.02-.16,0-.24,0-.4,0-.81,0-1.21,0-.3,0-.6,0-.9,0-.31,0-.62,0-.93,0,0-.27,0-.55,0-.82Z"/><path class="uuid-2f8daf83-c251-4e9c-b420-033d47c8cec7" d="M25.98,8.48c-.14,0-.28,0-.42,0,0-.9,0-1.8,0-2.71,0-.06-.01-.12-.02-.17.13,0,.27,0,.4,0,.01.04.04.09.04.13,0,.91,0,1.82,0,2.73,0,0,0,.02,0,.02Z"/><path class="uuid-2f8daf83-c251-4e9c-b420-033d47c8cec7" d="M25.98,8.96c0-.15,0-.3,0-.44.09.14-.02.29.03.43,0,0-.02.01-.03.02Z"/><path class="uuid-2f8daf83-c251-4e9c-b420-033d47c8cec7" d="M25.98,9.23c0-.07,0-.15,0-.22.02.07.05.15,0,.22Z"/><path class="uuid-2f8daf83-c251-4e9c-b420-033d47c8cec7" d="M25.98,11.64s-.02,0-.03-.01c0,0,.02,0,.03-.01,0,0,0,.02,0,.02Z"/><path class="uuid-80d1bbde-0e59-4f99-825e-ecc576937ea8" d="M25.53,5.6c0,.06.02.12.02.17,0,.9,0,1.8,0,2.71,0,.9,0,1.8,0,2.7,0,.25-.1.44-.35.54-.07.03-.14.04-.22.04-.88,0-1.75,0-2.63,0-.04,0-.08.02-.12.03-.04,0-.08-.02-.12-.02-.92,0-1.85,0-2.77,0-.02,0-.03,0-.05,0-.07-.04-.15-.07-.21-.12-.16-.13-.21-.3-.2-.5,0-.3,0-.59,0-.89v-.89c0-.3,0-.59,0-.89v-.89c0-.3,0-.59,0-.89,0-.3,0-.59,0-.89,0-.29.1-.5.38-.61.02,0,.05,0,.07-.01.93,0,1.87,0,2.8,0,.1,0,.2-.04.31-.06,0,0,.01,0,.02,0q.07.04.11-.04s.01.04.02.07c.02-.03.03-.05.04-.07.08.1.28.12.33.04.04.01.07.03.1.03.22,0,.44,0,.66,0,.02,0,.04-.04.06-.05,0,.01.01.04.02.07.11,0,.23,0,.34,0,.09,0,.17,0,.26-.01.03,0,.05-.03.08-.06,0,.01.02.04.04.11.04-.04.06-.06.07-.08.06,0,.14.03.22.04.17,0,.34,0,.51,0-.07.01-.13.02-.19.03.2.05.34.19.38.39ZM20.37,10.53c.32,0,.62,0,.91,0,.04,0,.09-.04.11-.07.19-.34.38-.69.57-1.04.09-.17.19-.34.29-.51.06.11.12.22.18.33.22.4.44.81.66,1.21.02.03.05.07.08.07.3,0,.6,0,.92,0-.07-.11-.13-.21-.19-.31-.35-.56-.71-1.13-1.06-1.69-.02-.03-.03-.09,0-.12.34-.56.68-1.11,1.03-1.66.06-.1.13-.21.2-.33-.3,0-.57,0-.84,0-.03,0-.08.03-.1.06-.18.31-.35.63-.53.95-.1.19-.2.37-.3.56-.27-.53-.54-1.05-.8-1.57h-.99s.03.05.04.08c.38.63.76,1.27,1.14,1.9.03.05.04.09,0,.14-.28.43-.56.86-.85,1.29-.15.23-.3.46-.46.71Z"/><path class="uuid-88f6d286-4017-4b2a-9139-29e48f1e3fb0" d="M27.22,8.47c0-.23,0-.47,0-.7,0-.26,0-.52,0-.77,0-.27,0-.54,0-.81,0-.2,0-.39,0-.59,1.66,0,3.32,0,4.99,0,0,.07,0,.15,0,.22v1.77c0,.3,0,.59,0,.89h0c-1.63,0-3.26,0-4.89,0-.03,0-.06,0-.09,0Z"/><path class="uuid-40030b11-db3b-434d-ba70-282fd76de1bf" d="M25.53,5.6c-.04-.2-.18-.34-.38-.39.06-.01.13-.02.19-.03.24-.03.48.11.56.31,0,.04.02.07.02.11-.13,0-.27,0-.4,0Z"/><path class="uuid-149413e3-16c4-4562-a4d1-276acfddf8ea" d="M26.21,5.7c.02.05.04.1.07.15h-.14c.02-.05.04-.1.07-.15Z"/><polygon class="uuid-88f6d286-4017-4b2a-9139-29e48f1e3fb0" points="25.98 5.55 25.97 5.56 25.98 5.55 25.98 5.55"/><path class="uuid-49d3fa26-a846-4e20-a764-e5062cd4323c" d="M20.37,10.53c.16-.25.31-.48.46-.71.28-.43.56-.86.85-1.29.03-.05.03-.08,0-.14-.38-.63-.76-1.27-1.14-1.9-.01-.02-.02-.04-.04-.08h.99c.26.52.53,1.04.8,1.57.1-.19.2-.38.3-.56.17-.32.35-.63.53-.95.02-.03.07-.06.1-.06.27,0,.54,0,.84,0-.07.12-.13.22-.2.33-.34.55-.69,1.11-1.03,1.66-.02.03-.01.09,0,.12.35.57.7,1.13,1.06,1.69.06.1.12.2.19.31-.32,0-.62,0-.92,0-.03,0-.07-.04-.08-.07-.22-.4-.44-.81-.66-1.21-.06-.11-.12-.22-.18-.33-.1.17-.19.34-.29.51-.19.35-.38.69-.57,1.04-.02.03-.07.07-.11.07-.29,0-.59,0-.91,0Z"/><circle class="uuid-e4b9f367-3fa5-47d2-b462-287ba8ba064b" cx="47.89" cy="9.88" r="7.24"/><path class="uuid-33813731-e487-4208-bc9c-08751c4e8158" d="M50.36,12.19h.78v.61h-1.2l-1.99-2.98h-1.06v2.37h1.03v.61h-2.6v-.61h.89v-5.24l-.89-.11v-.58c.34.08.63.13,1,.13.56,0,1.12-.13,1.68-.13,1.08,0,2.08.49,2.08,1.69,0,.93-.56,1.52-1.42,1.77l1.68,2.48ZM46.91,9.23h.57c1.39.03,1.92-.5,1.92-1.21,0-.83-.6-1.16-1.36-1.16-.36,0-.73.03-1.12.08v2.29Z"/><rect class="uuid-a8895881-9736-4d83-8ed1-6351591a6467" x=".39" y="61.53" width="49.94" height="1.99"/><rect class="uuid-8c6f1185-b1eb-410a-814e-76cba2a6b2f0" x="3.66" y="63.36" width="50.49" height="6.28"/><rect class="uuid-3199ab12-c5e5-4566-adc9-60813ad5fc9f" x="24.13" y="20.79" width="35" height="23.44"/><rect class="uuid-33813731-e487-4208-bc9c-08751c4e8158" x="25.43" y="21.68" width="31.87" height="21.46"/><rect class="uuid-7ebd4e7d-f90a-4dc5-86b5-626a7aff1e44" x="26.57" y="23.63" width="26.72" height="17.85" rx=".82" ry=".82"/><rect class="uuid-bc0e414b-9b3a-4de1-91f3-1214ea924649" x="33.76" y="33.16" width="13.78" height="7"/><line class="uuid-bc0e414b-9b3a-4de1-91f3-1214ea924649" x1="33.76" y1="34.87" x2="47.54" y2="34.87"/><line class="uuid-bc0e414b-9b3a-4de1-91f3-1214ea924649" x1="33.76" y1="36.53" x2="47.54" y2="36.53"/><line class="uuid-bc0e414b-9b3a-4de1-91f3-1214ea924649" x1="33.76" y1="38.21" x2="47.54" y2="38.21"/><line class="uuid-bc0e414b-9b3a-4de1-91f3-1214ea924649" x1="44.27" y1="33.23" x2="44.27" y2="40.09"/><rect class="uuid-3199ab12-c5e5-4566-adc9-60813ad5fc9f" x="34.44" y="33.87" width="4.27" height=".24"/><rect class="uuid-3199ab12-c5e5-4566-adc9-60813ad5fc9f" x="34.44" y="35.57" width="4.27" height=".28"/><rect class="uuid-da94b48f-c2d2-4041-875e-8abb7b2c17b6" x="27.85" y="26.82" width="1.03" height="13.45"/><rect class="uuid-da94b48f-c2d2-4041-875e-8abb7b2c17b6" x="29.63" y="30.3" width="1.03" height="9.92"/><rect class="uuid-da94b48f-c2d2-4041-875e-8abb7b2c17b6" x="31.25" y="32.91" width="1.03" height="7.38"/><path class="uuid-9b3a30c9-e1a4-4acd-862e-a88f73fe931b" d="M34.05,30.13c-.93,0-1.68-.75-1.68-1.68,0-.14.02-.28.06-.41l-.93-.39c-.08.25-.13.52-.13.8,0,1.49,1.2,2.69,2.69,2.69.34,0,.66-.07.96-.19l-.45-.91c-.16.05-.33.09-.51.09Z"/><path class="uuid-f5a5beb3-8ed6-4e76-b92b-4ed7bd4ee7e5" d="M36.74,28.46c0-.54-.16-1.03-.43-1.45l-.78.68c.12.23.2.49.2.77,0,.57-.28,1.07-.71,1.37l.45.91c.76-.47,1.27-1.31,1.27-2.28Z"/><path class="uuid-ae139d9d-4ff9-4bf1-b149-ef72aea869ac" d="M34.05,26.78c.46,0,.88.19,1.18.49l.76-.66c-.49-.52-1.18-.84-1.95-.84-1.03,0-1.91.58-2.36,1.42l.93.39c.3-.48.82-.8,1.43-.8Z"/><rect class="uuid-e6127b86-e715-4978-8391-5f2d49571194" x="39.18" y="22.89" width="15.67" height="9.48" rx="1.28" ry="1.28"/><polyline class="uuid-665b13fb-7ebd-4ce7-9b4a-4dcc19703ac7" points=".78 61.52 21.07 49.22 54.35 49.22 58.68 61.4 .39 61.53"/><path class="uuid-0e190bad-d22f-491e-ae4c-051a42ba82c4" d="M48.71,24.88l.15,6.48s-.04,1.48.44,3.13c.37,1.26,1.26,2.72,1.32,3.06.13.78,3.47,4.49,3.73,4.5s4.56-.87,4.56-.87l.35,2.67s-1.7,6.46-.64,6.27c.51-.09,6.24-4.7,6.57-4.13l1.23-3.46v-1.62l-3.23-6.22,1.27-.08.77-.8.64-2.63.36-1.45-.36-1.1-1.13-.55-1.29.47-.97,2.39-.06-.94-1.6-.78-2.28-2.94-.93-2.15-.38-1.27-3.19,1.08h-2.76l-2.57.92Z"/><path class="uuid-0e190bad-d22f-491e-ae4c-051a42ba82c4" d="M59.56,62.91l-3.73,1.93.95,5.43-2.33,1.54-.97-.86-.93-.4-1.28-2.36-.31-3.35-.62,1.32c.87.98,1.08,1.71.45,2.11l-1.75-1.89,1.29-4.45,4.9-2.79-1.28-.16-.32-1.03.42-1.37,1.67-1.89,1.38-.61,4.85.74,2.1,1.49,1.52.62.24.72-1.72.32,1.92.63.9,1.28-.34,3.92-5.89-1.86-1.11.99Z"/><path class="uuid-648e4ef5-bc24-4b02-a75b-0d4e72cede0e" d="M51.54,38.87c-.6-.71-1.62-.52-2.68-.26l-1.64-.93-.69-1.63.2-2.05-1.22.85-1.38.02-.77-.19-.13-.88,1.16.21c.67-.28,1.3-.56,1.47-.98,0,0,1.72-.99.46-2.78-.97-1.38-3.17-2.56-2.94-3.08.56-1.86,1.7-3.35,3.27-4.57l3.32-1.63,4.88-1.83,4.06-.47h2.27l3.2.83,1.45-1.79,2.77-.66,2.18.4.86,1.63.57,5.61-.57,3.72-.99,2.26-1.83.66h-.75l-2.53,3.06.25,1.29,1.47.24-1.14,1.31,1.23.14-1.97,1.61-1.35-3.23v-1.1l1.35-.64.9-3.54-.56-1.6-.7-.77-.99.02-.77.9-.79,2.3-.88-1.8-1.24-.87-1.45-2.14-1.3-2.34-.43-.8-.87.33s-1.32.42-1.47.38-1.39-.1-1.39-.1l-1.44-.25c-1.92.73-3.06,1.73-3.31,3.05l.13,3.89s.16,2.96.46,3.58,2.24,4.77,2.24,4.77v-.13Z"/><path class="uuid-9fc479b8-15f7-4038-a8eb-4a975f91679c" d="M54.12,27.29l1.76-1.33h1.59l.72.18s-3.61.58-4.07,1.15Z"/><path class="uuid-9fc479b8-15f7-4038-a8eb-4a975f91679c" d="M50.45,28.01l-.37-.61-.37-.44-.82.53.02.33s1.31-.2,1.54.19Z"/><polygon class="uuid-7ebd4e7d-f90a-4dc5-86b5-626a7aff1e44" points="52.28 36.9 52.64 37.81 53.7 38.21 56.78 37.33 58.18 36.26 52.28 36.9"/><polygon class="uuid-7ebd4e7d-f90a-4dc5-86b5-626a7aff1e44" points="53.52 31.8 52.97 30.75 53.52 29.63 55.21 28.53 56.69 28.04 58.77 28.53 60.09 28.98 60.84 29.77 60.77 30.85 59.83 31.87 57.28 32.67 55.8 32.67 54.09 32.28 53.52 31.8"/><path class="uuid-7ebd4e7d-f90a-4dc5-86b5-626a7aff1e44" d="M49.71,29.3l1.12.9.72,1.29-1.32,1.25-1.12.58h-1.5l-1.44-.27-.64-.73v-1.06l.81-1.3.9-.15s2.06-.86,2.48-.53Z"/><path class="uuid-9fc479b8-15f7-4038-a8eb-4a975f91679c" d="M57.05,28.39c-.03.21-.46,1.63-.46,1.63l.87,1.08.66-.24s.51-1.67.49-1.86-1.56-.6-1.56-.6Z"/><path class="uuid-9fc479b8-15f7-4038-a8eb-4a975f91679c" d="M49.71,29.52s-.15,1.46,0,1.55.68.91.68.91h.52s.64-.44.64-.44l-.28-.88-.67-.63-.88-.5Z"/><path class="uuid-245fc24c-0fc0-477e-9fcd-52451d5c802d" d="M58.68,45.75s-1.77,1.81-1.9,4.05-.58,4.6-.58,4.6l1.24-.28,1.33.28,1.72-.07,1.04.11,1.6,1.21,1.15.75.28-1.03,1.05-10.31-6.98,5.05-.19-3.52.24-.85Z"/><path class="uuid-8e5925f3-b396-40cd-a466-11002223e150" d="M65.94,39.72l.75,2.07-1.53,6.13-.89,7.94,1.69,1.23-.47.62s4.19.33,4.62.24,4.01-.47,4.01-.47l.39-2.8,2.18,2.59-2.88.84h-8l.86,1.63.25,3.2-.38.57,9.77,2.49,7.83-1.37,2.63-2.22-3.46-8.33-4.05-6.29-1.4-1.94-1.18-2.1-2.61-1.3-1.62-.64h-2.43l-1.19-.32-.72-.64-.5-.87-1.9-.24h.21Z"/><polygon class="uuid-8e5925f3-b396-40cd-a466-11002223e150" points="55.11 59.48 52.64 60.74 52.28 59.48 51.9 57.11 54.5 55.37 54.79 51.46 53.89 47.92 54.79 44.36 57.46 43.07 59.13 42.83 57.09 49.12 56.31 53.2 56.19 54.4 54.42 55.95 53.7 57.69 53.62 58.37 54.42 59.14 55.11 59.48"/><path class="uuid-9ac86180-9525-434d-af4e-a432725b15c7" d="M54.44,73.08s-8.25,2.63-8.39,2.93,9.06.07,9.06.07l-.57-2.69-.1-.31Z"/><polygon class="uuid-e836a090-d068-4c86-b57e-dbe901606c03" points="60.48 61.92 56.91 64.58 56.78 76.43 83 76.43 83.55 65.01 77.14 67.08 67.72 64.35 60.48 61.92"/><polygon class="uuid-3199ab12-c5e5-4566-adc9-60813ad5fc9f" points="28.38 53.03 23.8 57.11 51.9 57.11 54.79 55.73 53.5 53.03 28.38 53.03"/><rect class="uuid-3199ab12-c5e5-4566-adc9-60813ad5fc9f" x="39.18" y="43.09" width="5.99" height="7.64"/><path class="uuid-3199ab12-c5e5-4566-adc9-60813ad5fc9f" d="M30.4,50.78s3.36-3.62,9.72-2.59l6.36-.18s3.9,0,6.03,2.78h-22.1Z"/><line class="uuid-bc0e414b-9b3a-4de1-91f3-1214ea924649" x1="40.65" y1="33.15" x2="40.65" y2="34.86"/><line class="uuid-bc0e414b-9b3a-4de1-91f3-1214ea924649" x1="40.65" y1="34.87" x2="40.65" y2="36.49"/><line class="uuid-bc0e414b-9b3a-4de1-91f3-1214ea924649" x1="40.65" y1="36.51" x2="40.65" y2="38.19"/><line class="uuid-bc0e414b-9b3a-4de1-91f3-1214ea924649" x1="40.65" y1="38.29" x2="40.65" y2="40.21"/><path class="uuid-db34dc66-15f3-47f5-9c1e-ab7e3ef3c875" d="M23.7,44.7v-24.37c.2,0,.38,0,.55,0,8.3,0,16.6,0,24.9-.01.46,0,.96-.09,1.38-.27,2.9-1.25,5.92-1.91,9.07-1.86,1.64.03,3.27.23,4.78,1.3.19-.28.42-.52.53-.81.24-.68.74-1.1,1.34-1.36,1.3-.58,2.64-.53,3.98-.14.84.24,1.13.86,1.36,1.68.45,1.56.48,3.14.51,4.73.01.55.17,1.1.13,1.64-.09,1.08-.24,2.16-.41,3.24-.06.41-.23.8-.36,1.2-.51,1.49-1.64,2.13-3.2,1.78-.63.85-1.29,1.7-1.9,2.58-.22.32-.33.73-.4,1.11-.1.53.08.69.64.62.16-.02.31-.09.46-.11.15-.02.31,0,.56.1-.46.45-.92.91-1.5,1.47h1.16s.05.1.07.14c-.46.61-1.2.91-1.78,1.51.1.26.22.57.33.87,1.35-.22,2.18.18,2.85,1.36.05.09.15.22.24.23.62.09,1.24.16,1.87.21.81.07,1.67-.04,2.42.21,1.79.59,3.31,1.64,4.48,3.15,2.74,3.55,5.06,7.34,6.92,11.43.86,1.87,1.65,3.75,2.14,5.75.05.2-.06.52-.22.67-.35.34-.76.64-1.18.91-.28.18-.4.37-.4.72-.01,3.39-.05,6.78-.08,10.17,0,.44-.05.88,0,1.31.05.45-.18.57-.55.57-.56.01-1.12.02-1.68.02-8.38,0-16.76,0-25.14-.01-3.73,0-7.45,0-11.18,0-.08,0-.17.02-.24,0-.17-.05-.33-.13-.5-.2.13-.13.23-.31.39-.38,2.59-1.21,5.26-2.2,8.05-2.78.19-.71.16-.81-.64-2.12-.44.23-.72-.03-.93-.4-.26-.45-.58-.61-1.15-.61-15.88.02-31.76.02-47.65.02-.21,0-.41-.03-.56-.04.04-.47.09-.85.1-1.24.01-1.42,0-2.83,0-4.25,0-.22,0-.43,0-.73-.79,0-1.52,0-2.25,0-.68,0-.7-.02-.7-.72,0-1.91-.13-1.56,1.38-2.47,6.26-3.76,12.51-7.52,18.76-11.29.4-.24.78-.36,1.28-.36,3.67.04,7.34.03,11.01.02.17,0,.36-.04.52-.11,1.58-.6,3.21-.91,4.89-1.08.25-.02.5-.08.8-.12,0-.86,0-1.68,0-2.49,0-.28-.13-.4-.41-.38-.16,0-.32,0-.48,0-4.65,0-9.3,0-13.95,0-.12,0-.24-.01-.42-.02ZM49.4,32.39v-.04s0,.03,0,.03c-.01,0-.02,0-.03.01,0,0,.02,0,.03,0ZM62.3,22v-.03s-.02.02-.02.02l.28.09c.07.11.13.22.2.33.99,1.39,1.97,2.78,2.96,4.17.01,0,.02,0,.03,0-.01,0-.03,0-.04,0,.02-.11.09-.24.07-.34-.4-1.9-1.37-3.37-3.23-4.13-.08-.03-.17-.06-.25-.09ZM50.07,27.63s.08.03.12.05c-.02-.04-.03-.08-.05-.12-.18-.16-.33-.4-.53-.45-.12-.03-.31.24-.51.41.4.05.69.08.98.11ZM70.7,27.6c.89-.35,1.17-.77,1.13-1.71-.36.56-.74,1.14-1.12,1.72-.05,0-.09,0-.03,0-.05.03-.01,0,.02-.02ZM54.89,26.87c.88-.24,1.76-.47,2.57-.69-.78-.35-1.9-.07-2.56.7-.02.03-.04.05-.05.08.01-.03.03-.06.04-.09ZM70.79,23.58s.09.03.1.02c.7-.64,1.04-2.35.7-3.13-.26.99-.53,2.06-.81,3.13l.02.04-.02-.05ZM48.45,34.22c-.73,1.28,0,4.01,1.22,3.97-.96-1.15-1.44-2.43-1.23-3.92,0-.02,0-.04,0-.06.02-.06.05-.12.07-.19-.02,0-.04,0-.06-.01v.21ZM65.7,37.12c.45-.4.91-.8,1.36-1.2-.19-.04-.33-.02-.48.03-.73.25-1.1-.02-1.08-.79,0-.22.03-.44.05-.66-.04,0-.08,0-.13-.01-.33.77-.85,1.48-.73,2.46.28-.1.48-.19.69-.25.44-.13.51.06.33.42-.08.15-.15.29-.25.48q.39-.16.23-.49ZM61.35,55.23c.19.17.4.31.55.51.65.83,1.03,1.78,1.12,2.84.05.55.29.94.9,1.21.03-.65.04-1.25.1-1.83.07-.71-.19-1.29-.66-1.78-.46-.47-.94-.92-1.43-1.36-.27-.24-.68-.12-.81.2-.43-.51-.96-.21-1.57-.28.55.6.99,1.07,1.43,1.56.2.22.47.43.54.69.12.5.14,1.03.17,1.55.03.53.37.87.69,1.21.09.09.3.14.42.1.08-.03.13-.26.11-.39-.21-1.44-.43-2.88-1.47-4.01-.05-.05-.06-.14-.09-.21ZM58.13,43.16c-.1.08-.24.14-.31.25-.61.93-1.2,1.88-1.8,2.82-.07.11-.14.22-.2.33.26-1.26,1.16-2.17,1.78-3.27-.91.2-1.73.73-2.28,1.42-.93,1.17-.9,2.55-.88,3.93,0,.49.12.97.18,1.46.14-.1.18-.21.21-.31.54-1.98,1.42-3.79,2.63-5.45.26-.36.44-.79.66-1.18.02-.01.04-.03.06-.04-.04,0-.04.01-.05.05ZM48.79,38.24s.04.04.07.05c-.03-.01-.05-.03-.08-.04-1.11-1.44-1.13-3.01-.5-4.58-.75-.17-1.44-.32-2.18-.49-.82.63-1.7,1.21-2.87.62.16.94,1.1,1.2,1.77.93.63-.26,1.23-.62,1.92-.99,0,.15-.02.28-.03.4-.02.75-.19,1.53-.02,2.23.23.94.81,1.71,1.91,1.87ZM53.52,54.59l.02-.02-.03.02c.11-.27,0-.37-.27-.36-.26.01-.52.03-.78.03-8.32,0-16.63,0-24.95,0-.18,0-.36.14-.54.22.02.04.04.08.07.12h26.48ZM61.07,49.35s-.01.01-.01.01c1.06-.74,2.13-1.47,3.19-2.21.32-.23.61-.5.92-.76-.91.44-1.78.92-2.61,1.45-1.1.68-2.18,1.39-3.26,2.1-.28.18-.54.39-.82.59-.07-.36-.19-.71-.21-1.07-.04-.61,0-1.23,0-1.85-.05,0-.11,0-.16,0-.9,2.13-1.59,4.31-1.76,6.62.46-.08.84-.18,1.22-.19.26,0,.52.14.79.17.87.07,1.75.12,2.63.18.8.05,1.51.31,2.08.9.27.27.56.52.79.73.37-2.99.73-5.97,1.1-8.96-1.08.69-2.16,1.37-3.24,2.05-.2.12-.43.19-.64.28ZM60.47,60.81c.09.09.25.17.26.27.05.55.47.71.88.85,1.3.44,2.61.86,3.91,1.28.28.09.56.15.9.24.34-1.17.34-2.3.15-3.42-.08-.5-.34-.97-.57-1.43-.07-.15-.28-.3-.45-.33-.38-.08-.77-.09-1.2-.14,0,.25,0,.44,0,.64,0,.2.02.4.01.6-.03.72-.15.82-.87.78-.06,0-.13-.01-.17.01-.82.43-1.54.04-2.28-.25-.21-.08-.46-.14-.68-.11-.62.09-1.09-.13-1.48-.57-.3-.34-.6-.68-.91-1.03-.07.03-.14.07-.21.1-2.24,1.18-4.47,2.36-6.72,3.52-.28.15-.4.33-.48.61-.37,1.21-.77,2.42-1.13,3.64-.05.18-.06.48.05.59.5.53,1.05,1,1.59,1.5l.13.26c-.22-.06-.47-.06-.64-.18-.35-.26-.66-.58-.98-.88-.4-.38-.85-.75-.54-1.45-.35,0-.61,0-.87,0-7.98,0-15.96,0-23.94-.03-6.51-.02-13.01-.06-19.52-.09-.12,0-.24-.01-.36,0-.43.05-.62-.11-.58-.57.04-.45,0-.91,0-1.36-.1.17-.12.34-.12.51,0,1.52,0,3.03,0,4.55,0,.68,0,.68.7.68,15.58,0,31.17,0,46.75,0,.19,0,.38-.02.62-.03-.15-.35-.28-.64-.41-.92.04-.02.08-.04.12-.06.54.67,1.08,1.34,1.62,2.02.03.04.07.07.1.11-.01-.06-.02-.11-.03-.17-.14-.7-.23-1.43-.88-1.89.07-.07.19-.15.19-.22-.04-.83-.13-1.66-.15-2.48,0-.43.06-.87.35-1.28.19,1.47.5,2.86.51,4.26,0,1.09.57,1.79,1.11,2.66.27-.86.21-1.65.15-2.44h-.01c.41.29.81.56,1.22.84.04-.03.09-.07.13-.1-.15-.42-.24-.89-.48-1.25-.26-.39-.39-.78-.36-1.22.04-.56.07-1.11.15-1.66.11-.82.39-1.43,1.36-1.65,1.37-.33,2.52-1.15,3.59-2.06.37-.32.53-.73.47-1.21h0ZM52.22,35.65c-.37-.14-.76-.25-1.11-.42-.55-.26-.54-.35-.32-.9.27-.67.65-1.33.44-2.1h.04s-.03,0-.03,0c-.59.45-1.17.9-1.81,1.4.62,3.09,2.31,5.72,4.6,7.99.15.15.47.22.69.18,1.37-.22,2.65-.72,3.85-1.39,1.64-.92,2.9-2.25,3.81-3.87.37-.65.52-1.44.78-2.16.05-.14.11-.27.16-.41.99.67,1.63.49,1.97-.61.29-.94.49-1.93.62-2.91.1-.69-.18-.87-.93-.79.52.92.54,1.13.19,1.58-.11-.52-.23-1.07-.35-1.63-.07-.02-.14-.03-.21-.05-.22.21-.45.41-.74.68.94.35.54,1.03.56,1.54.3.11.57.21.88.32-.64.15-1.15.28-1.76.42.21-.36.43-.63.54-.95.12-.32.3-.71-.15-1-.11.17-.2.31-.3.45-.1-.59-.02-1.12.42-1.49.52-.43,1.1-.33,1.68,0-.15-.78-.52-1.12-1.19-1.14-.74-.02-1.31.44-1.53,1.26-.12.43-.2.88-.32,1.31-.06.21-.17.4-.3.7-.09-.56-.07-1.02-.24-1.39-.14-.32-.84-.39-1.23-.23.03.9-.42,1.55-1.18,1.98-1.95,1.09-3.94,1.27-6,.27-.67-.32-1.36-.58-2.02-.85-.26,1.07-.51,2.05-.72,3.03-.03.14.1.36.23.46.29.25.62.46.94.68v.02ZM64.24,24.72s.02.04.04.06c0-.04,0-.04-.05-.05-.8-1.47-1.98-2.62-3.23-3.72.59.27,1.12.61,1.68.88,1.83.9,2.89,2.36,3.34,4.33.38,1.69.82,3.36,1.25,5.07.19-.43.38-.86.57-1.29l-.02.02c.09-.34.24-.68.25-1.02.11-2.59-.5-5.06-1.27-7.5-.05-.17-.2-.34-.34-.45-1.75-1.3-3.7-1.81-5.86-1.44-.96.16-1.91.35-2.86.53-.01-.04-.02-.09-.03-.13,1.39-.34,2.78-.68,4.15-1.02-1.2-.32-2.44-.46-3.78-.23.16.14.29.24.42.36-1.94-.55-3.58.42-5.33.83,1.16.43,2.02,1.1,2.48,2.4-.32-.05-.51-.07-.7-.12-.89-.19-1.78-.42-2.68-.58-1.98-.36-3.86.05-5.45,1.2-1.27.92-2.28,2.16-3.08,3.55-.22.39-.23.7.07,1.01.83.86,1.66,1.71,2.44,2.53.78-.23,1.51-.45,2.24-.66.08-1.45.15-2.91.23-4.39-.53.27-.93.71-1.24,1.22-.35.57-.33,1.14.13,1.68-.63-.33-.83-.76-.64-1.33.12-.35.3-.7.53-.99.81-1,1.93-1.53,3.13-1.88,1.29-.38,2.61-.27,3.92-.24.19,0,.39.12.58.18,0,.05-.02.1-.03.15h-1.8c1.21.21,2.4.21,3.55-.31-.25.2-.51.4-.81.48-.97.27-1.96.36-2.96.12-.18-.04-.41-.09-.57-.02-.67.31-1.31.66-1.97,1-.71.36-1.17.95-1.51,1.64-.09.18-.1.41-.18.74.79-.71,1.18-.65,1.57.17.15.31.21.66.32,1-.5-.35-.85-.89-1.54-.56-.39.19-.45.56-.25,1.31.93-.17,1.63.17,2.12.97.18.29.29.67.55.83.38.23.86.3,1.31.43-.2-1.07.06-1.72.99-2.3.71-.44,1.45-.85,2.21-1.16.44-.18,1.01-.28,1.44-.14,1.05.33,2.14.62,2.98,1.42.07.06.19.07.42.15-.78-.98-1.46-1.86-2.18-2.71-.11-.13-.35-.21-.53-.21-1.08,0-2.15.07-3.14.57-.4.2-.81.37-1.22.55.45-.83,1.14-1.35,1.97-1.67.89-.35,1.74-.09,2.67.34-.14-.3-.22-.47-.3-.65-.52-1.14-1.06-2.27-1.55-3.43-.11-.26-.02-.6-.02-.9.32.02.64.01.96.06.12.02.23.16.45.31-.51-.1-.87-.18-1.28-.26.2,1.89,3.47,7.25,4.67,7.87-.59-.97-1.26-1.99-1.86-3.06-.6-1.09-1.15-2.2-1.22-3.48.1.13.14.28.19.42.67,2.02,1.67,3.87,2.97,5.56.43.55.97.57,1.49.08.11-.11.21-.25.33-.35,1.03-.85,2.38-.49,2.76.79.15.5.19,1.06.14,1.58-.08.79-.29,1.57-.46,2.46.78-.78,1.28-1.59,1.07-2.61-.34-1.62-.59-3.29-1.68-4.64-.35-.43-.7-.9-1.16-1.17-1.48-.89-3.01-1.71-4.52-2.55-.17-.09-.35-.17-.52-.26,1.72.56,3.27,1.45,4.78,2.42.14.09.31.14.47.22ZM59.14,63.87c.07-.03.14-.09.22-.09,1.33-.09,2.66-.17,3.99-.25.33-.02.66,0,1.11,0-.96-.53-5.3-.24-5.79.33.18,0,.33,0,.49,0-.17.03-.34.06-.51.11-.49.12-.97.3-1.13.85-.11.4-.21.81-.24,1.22-.28,2.9-.22,5.81-.07,8.72.02.41.05.82.08,1.26h25.33c.11-3.37.53-6.73.33-10.17-1.66.51-3.22,1-4.78,1.47-.24.07-.5.18-.74.18-1.77.02-3.47-.36-5.15-.9-2.15-.68-4.28-1.4-6.26-2.5-.71-.4-1.46-.6-2.29-.53-1.53.12-3.06.2-4.59.3ZM67.07,46.54s0,0,0,0c.43-1.65.88-3.3,1.28-4.96.05-.22-.07-.54-.2-.75-.48-.75-1.28-.77-2.18-.87.15.18.22.35.3.35.42.01.56.31.62.62.09.44.22.92.13,1.34-.21.96-.53,1.91-.82,2.85-.12.4-.31.77-.42,1.17-.8,3.09-1,6.23-.77,9.41.02.23.04.47.05.63.31.14.6.19.76.36.14.16.15.44.2.65,2.75-.08,5.49-.16,8.22-.24.08-.75.06-1.42.24-2.04.12-.4.06-.63-.22-.87-.93-.78-1.86-1.56-2.78-2.35-.17-.15-.33-.31-.5-.46.03-.04.05-.08.08-.11.22.11.45.21.67.33,1.53.84,2.76,2.01,3.77,3.43.43.61.88,1.21,1.32,1.81,2.03-.98,2.75-1.14,3.35-.73-.89.21-1.81.31-2.54.95.21.04.4,0,.59.01.99.02,1.99-.02,2.97.1.76.1,1.4.52,1.67,1.33h.01c-.85-.68-1.81-1.09-2.91-1.03-1.19.06-2.39.14-3.57.31-2.74.4-5.49.78-8.27.66-.13,0-.27.02-.32.02.2.92.51,1.82.57,2.73.06.89-.12,1.81-.19,2.71.06,0,.11.02.17.03.19-1.1.38-2.2.55-3.2.38,1.05-.25,2.14-.41,3.26.13.05.2.08.28.1,3.39.95,6.82,1.37,10.35,1.12,2.57-.18,4.85-1.01,6.91-2.54.28-.21.38-.39.27-.74-.34-1.02-.56-2.08-.98-3.07-1.34-3.13-2.77-6.23-4.68-9.07-1.24-1.85-2.46-3.74-3.94-5.4-1.36-1.52-3.1-2.58-5.33-2.56-.71,0-1.24.2-1.7.65-.39.39-.73.84-1.04,1.3-.27.39-.48.82-.76,1.29.02-.31.03-.54.04-.77.64-.85,1.09-1.86,2.2-2.47-.58-.06-.98-.11-1.42-.16-.26.89-.51,1.76-.76,2.64-.09.23-.18.47-.27.7-.2.5-.4.99-.6,1.49ZM25.43,43.07h.66c9.9,0,19.8,0,29.69,0,.16,0,.32,0,.48-.01.86-.11,1.02-.34.86-1.28-.34.07-.69.12-1.03.22-1.3.37-2.39.08-3.22-1.02-.41-.54-.83-1.07-1.23-1.62-.54-.72-1.11-.92-2.01-.68-.13.04-.28.03-.42.03-1.52,0-2.88-1.61-2.76-3.24.03-.39.09-.78.13-1.16-.48.23-.93.5-1.41.67-.84.31-1.59.09-2.02-.55-.44-.64-.38-1.7.15-2.29.12-.14.31-.21.52-.36-.16.47-.33.81-.4,1.17-.09.46.16.76.62.74.69-.02,1.3-.28,1.77-.79-.8-1.1-.79-1.42.2-2.85-.75-.68-1.51-1.38-2.29-2.05-.8-.69-.87-.92-.44-1.88.08-.18.18-.36.3-.52.95-1.23,1.8-2.54,3.03-3.53.05-.04.06-.12.09-.19h-21.29v21.17ZM1.77,60.97s.03.09.04.13h.47c16.14,0,32.28,0,48.42-.01.36,0,.72-.17,1.07-.27.31-.1.41-.32.37-.65-.1-.79-.18-1.58-.27-2.43h-28.27q-.33-.95.35-1.52c.89-.74,1.84-1.42,2.65-2.23.81-.81,1.7-1.01,2.82-1,7.7.05,15.4.03,23.1.02.6,0,1.21-.09,1.61.67.07-.3.12-.45.15-.61.25-1.22-.26-2.36-.38-3.54,0-.09-.18-.24-.28-.24-.67-.02-1.34-.01-2.11-.01.55.69,1.25,1.13,1.45,1.98-.48,0-.89,0-1.31,0-7.08-.02-14.16-.04-21.25-.07-.1,0-.29-.05-.29-.09-.01-.12,0-.29.09-.36.47-.4.96-.77,1.45-1.16.09-.07.17-.16.34-.32-.34,0-.56,0-.78,0-3.17,0-6.34,0-9.52.01-.32,0-.67.09-.94.26-6.17,3.7-12.34,7.41-18.51,11.12-.16.1-.32.21-.48.32ZM50.23,61.52H.78v1.76c.27,0,.5,0,.73,0,3.83,0,7.66-.02,11.49-.01,11.97,0,23.94,0,35.91.01.12,0,.24-.01.36,0,.32.03.45-.12.52-.42.11-.45.29-.89.44-1.34ZM24.13,20.79v23.56h.68c9.82,0,19.63,0,29.45.01.67,0,1.06-.28,1.45-.88h-30.68v-21.99c.23,0,.43,0,.62,0,7.08,0,14.17,0,21.25.01.69,0,1.19-.29,1.7-.72h-24.47ZM39.35,45.07v3.33c-1.57.04-3.06-.16-4.53.3-1.43.45-2.82.94-3.93,1.97.02.04.04.08.06.12h21.33c-.8-1.21-2.86-2.36-4.2-2.37-.8,0-1.6,0-2.39.01-.79,0-.78,0-.76-.78.01-.85,0-1.7,0-2.58h-5.58ZM58.62,50.12c.44-.39.76-.7,1.1-.96,1.53-1.18,3.07-2.35,4.62-3.5.78-.57,1.29-1.28,1.43-2.25.08-.61.35-1.26.23-1.82-.27-1.21-.48-2.49-1.41-3.45-.06-.06-.05-.19-.09-.28-.25-.54-.51-1.09-.77-1.63-.05.01-.09.02-.14.04-.06.16-.13.32-.19.48-.69,1.81-1.8,3.32-3.29,4.53-.82.67-.82.65-.41,1.64.42,1.02.82,2.06,1.25,3.12-.19.03-.36.08-.37.06-.36-.7-.7-1.4-1.05-2.1-.66,1.96-.98,3.94-.9,6.12ZM54.63,44.76h-9.31c0,.8.02,1.55,0,2.3-.02.48.14.65.64.67,1.59.05,3.13.34,4.57,1.03.14.07.3.12.45.13.82,0,1.63,0,2.45,0,.26,0,.42-.09.41-.38-.03-1.29.16-2.53.79-3.74ZM57.79,55.61c.85.58,1.47,1.6,2.75,1.23.02,0,.05.03.07.04-.36.05-.72.1-1.18.16.78.83.86,2.08,2.05,2.54.15-.92-.16-1.73-.33-2.55-.05-.27-.23-.53-.41-.75-.3-.37-.67-.69-.97-1.06-.33-.4-.74-.56-1.24-.6-.38-.03-.75-.18-1.24-.3-1.41.48-2.7,1.35-3.41,2.92-.18.4-.33.79,0,1.17.35.42.86.75,1.36.56.83-.3,1.59-.78,2.4-1.19-.42-.49-1.15-.48-1.39-1.1.9.33,1.84.56,2.41,1.47.27.42.69.76,1.07,1.1.12.1.34.09.52.13.04-.06.08-.12.12-.18-.36-.66-.66-1.35-1.1-1.95-.43-.59-.99-1.09-1.49-1.63ZM68.41,25.71c.89-.64,1.76-1.33,2.15-2.4.57-1.59.86-3.23.51-4.92-.06-.27-.28-.6-.52-.71-.9-.41-1.85-.45-2.9-.34,1.08,1.15,1.2,2.43.76,3.78-.18.56-.45,1.1-.67,1.65-.05.13-.08.29-.04.42.22.82.47,1.64.72,2.52ZM54.19,31.42c-.07.3-.12.5-.16.69,1.74.92,4.51.65,5.98-.55,1.05-.86.85-2.11-.49-2.62.15.26.27.46.4.67-.02.03-.04.06-.06.09-.8-.36-1.6-.71-2.38-1.06-.48.6-.58,1.29-.3,1.77.26.44.73.45.99.01.11-.18.17-.39.29-.66,0,.24.02.4,0,.55-.06.48-.5.92-.93.95-.44.04-.91-.32-1.03-.83-.06-.23-.07-.47-.06-.71.01-.35.06-.7.1-1.09-1.06.12-1.41,1.12-2.06,1.71-.04-.04-.09-.08-.13-.12.18-.4.36-.79.57-1.25-1.57.55-2.16,1.63-1.51,2.54.25-.03.48-.06.79-.1ZM54.04,55.04c-.13-.01-.21-.02-.29-.02-8.9,0-17.8,0-26.7,0-.12,0-.25-.02-.36,0-.17.05-.33.14-.49.21.01.05.02.1.04.15h3.91c.04.44.07.81.1,1.18.06,0,.12,0,.18,0,.03-.35.06-.7.1-1.05h4.17c.04.38.07.7.1,1.03.05,0,.1,0,.16,0,.03-.34.05-.68.08-1.02h10.6c.02.31.03.57.05.83h.06c.02-.27.04-.54.06-.79h5.51c0,.29-.02.53.01.76.01.1.15.17.24.26.06-.08.16-.16.18-.25.04-.25.03-.51.05-.8h2.24v-.49ZM47.04,75.97c2.34.2,6.83.12,7.34-.09-.04-.81-.08-1.63-.12-2.49-2.5.8-4.98,1.35-7.21,2.58ZM58.76,43.14c-2.38,3.61-3.95,7.49-3.98,11.95.28-.15.49-.3.73-.38.4-.14.48-.39.5-.8.06-1.07.06-2.17.34-3.19.64-2.33,1.44-4.63,2.17-6.94.07-.22.16-.43.24-.64ZM53.24,53.6c-.02-.06-.04-.12-.05-.18-.23,0-.46,0-.69,0-7.9,0-15.8,0-23.7,0-.16,0-.33-.03-.48.01-.17.06-.32.19-.47.29.02.04.04.08.06.13h.59c7.98,0,15.96,0,23.94,0,.16,0,.33.03.48-.01.12-.03.21-.15.32-.23ZM48.93,33.17c-.11-.8-.21-1.55-.32-2.4-.15.18-.22.32-.32.37-.2.09-.42.13-.63.2.04-.19.04-.41.13-.58.2-.35.46-.68.77-1.12-1.06.07-1.92.33-2.61.97-.5.47-.56,1.25-.16,1.74.13.16.48.17.57.33.32.57.87.54,1.38.58.37.03.74-.05,1.19-.09ZM68.41,26.06c.04.36.06.76.15,1.14.07.3.27.51.65.46.68-.07,1.29-.28,1.69-.87.81-1.18.95-2.52.86-3.91-.78,1.4-1.9,2.43-3.36,3.17ZM67.46,22.39c.75-1.63.39-3.37-.91-4.52-.21-.19-.43-.26-.62-.05-.37.4-.73.82-1.05,1.26-.23.33-.18.61.26.78.7.26,1.29.7,1.7,1.33.24.37.41.79.62,1.2ZM68.6,30.8c.21.21.5.19.81.05,1.42-.66,1.89-1.94,2.23-3.33-.49.22-.93.48-1.4.61-.46.13-.96.14-1.43.2-.07.78-.14,1.57-.21,2.47ZM66.29,58.4c1,1.63.87,3.38.54,5.17.3.08.55.14.81.21.06-.1.1-.15.12-.2.04-.11.07-.23.1-.34.34-1.37.29-2.7-.21-4.03-.33-.87-.3-.88-1.35-.8ZM55.11,21.95c-.57-1.11-1.5-1.85-2.65-1.72-1.08.12-2.1.72-3.15,1.1.02.07.03.14.05.21,1.98-.56,3.85.09,5.76.41ZM49.31,33.1c.13-.02.22-.03.31-.05.79-.17,1.12-.79,1.48-1.43.21-.38.23-.69-.04-.97-.29-.31-.64-.56-.99-.85-.35.88-.01,1.97.65,2.11-.15.16-.32.43-.39.4-.18-.06-.37-.22-.45-.4-.32-.68-.44-1.39-.28-2.13-.65-.11-.75-.03-.69.57.06.61.16,1.21.23,1.8.14-.03.28-.1.32-.06.41.38-.22.6-.14,1.02ZM50.75,38.32c-.6-1.57-1.21-3.17-1.85-4.83-.71,2.09.35,4.69,1.85,4.83ZM54.1,56.06s-.03-.07-.04-.11c-.47.4-.99.77-1.41,1.22-.3.32-.48.82-.13,1.2.38.41.86.75,1.33,1.06.16.1.43.02.65.02-.59-.41-1.31-.76-1.19-1.54.1-.64.52-1.23.79-1.85ZM45.17,56.05c-.67-.3-9.34-.24-9.8,0h9.8ZM68.28,20.45c.27-.97.1-1.85-.5-2.64-.34-.46-.54-.49-1.11-.23.32.45.68.87.95,1.35.27.47.44,1,.66,1.52ZM76.33,56.91c-.48-.64-.9-1.21-1.33-1.78-.04.01-.07.03-.11.04-.06.61-.12,1.22-.19,1.91.57-.06,1.06-.11,1.63-.17ZM50.85,56.12s0-.09,0-.13h-4.62s0,.09,0,.13h4.61ZM63.19,63.06c-.81-.43-3.45-.21-3.86.28,1.27-.09,2.55-.19,3.86-.28ZM57.63,42.61c.37-.03.67-.05.98-.07-.08-1.15-.22-1.26-.98-.83v.9ZM26.16,55.87c.56.34,3.26.29,3.67,0h-3.67ZM34.27,56.06c0-.06,0-.13,0-.19-1.1-.03-2.19-.03-3.29,0,0,.06,0,.13,0,.19h3.29ZM65.61,57.17c-.02-.08-.03-.17-.05-.25-.39-.09-.78-.18-1.17-.27-.04.04-.07.08-.11.12.15.25.27.67.46.71.26.05.58-.19.87-.3ZM52.57,59.14s-.09.05-.13.07c.07.36.13.72.21,1.13.36-.19.63-.33.92-.48-.38-.27-.69-.5-1-.73ZM62.43,62.76c-.83-.45-1.52-.4-2.22-.13v.13h2.22ZM64.53,35.91c.24-.52.44-.97.7-1.54-.85.49-.91.62-.7,1.54ZM25.65,56.59v-.81c-.27.29-.47.5-.72.77.26.01.47.02.72.04ZM65.47,37.01c-.35.1-.54.16-.76.22.07.23.12.4.2.69.2-.32.34-.55.56-.91ZM65.83,37.99s.09.09.14.13c.18-.15.37-.3.55-.46-.05-.06-.1-.11-.15-.17-.18.16-.36.33-.54.49ZM52.26,55.97s0,.06,0,.09h1.01v-.09h-1.01ZM62.42,29.52c.04.06.08.11.11.17.09-.07.18-.15.27-.22-.03-.04-.06-.08-.09-.11-.1.06-.2.11-.3.17ZM52.65,66.97s.03,0,.05,0v-.44s-.03,0-.05,0v.44ZM53.75,31.84c.08-.09.12-.14.17-.18-.07-.07-.11-.12-.19-.03-.06.07,0,.14.02.21ZM62.56,30.47s.07-.02.11-.03c-.01-.07-.02-.14-.05-.19,0-.01-.09.02-.14.03.03.06.06.13.08.19ZM65.55,38.08s-.04-.04-.07-.06c-.03.01-.09.02-.09.04,0,.05,0,.1.01.15.05-.04.1-.09.15-.13Z"/><path class="uuid-db34dc66-15f3-47f5-9c1e-ab7e3ef3c875" d="M67.07,46.54s0,.06,0,.05c0,0,0-.02,0-.05h0Z"/><path class="uuid-db34dc66-15f3-47f5-9c1e-ab7e3ef3c875" d="M82.88,58.52s.03,0,.05,0c-.01,0-.02,0-.03,0h-.01Z"/><path class="uuid-db34dc66-15f3-47f5-9c1e-ab7e3ef3c875" d="M51.18,68.41c-.04-.08-.08-.17-.12-.25,0-.54.03-1.07-.45-1.5-.34-.3-.35-.72-.14-1.15.18-.37.31-.77.58-1.16.04.18.11.37.11.55.02.71,0,1.43.03,2.14.02.43-.1.93.37,1.24-.13.04-.25.09-.38.13ZM50.89,65.46c-.29.35-.46.71.06,1.08-.02-.41-.04-.74-.06-1.08Z"/><path class="uuid-db34dc66-15f3-47f5-9c1e-ab7e3ef3c875" d="M51.53,68.28c.25.12.49.25.74.37-.25-.12-.49-.25-.74-.37Z"/><path class="uuid-db34dc66-15f3-47f5-9c1e-ab7e3ef3c875" d="M67.83,30c-.07-.09-.18-.17-.2-.27-.32-1.81-.62-3.62-.93-5.44,0,0,0,0,0,0,.08.12.2.23.23.36.31,1.78.6,3.57.89,5.35l.02-.02Z"/><path class="uuid-db34dc66-15f3-47f5-9c1e-ab7e3ef3c875" d="M66.43,23.11c-.23-.35-.47-.71-.7-1.06,0,0,0,0,0,0,.23.36.46.72.69,1.08,0,0,.01-.02.01-.02Z"/><path class="uuid-db34dc66-15f3-47f5-9c1e-ab7e3ef3c875" d="M66.42,23.13c.09.39.18.79.27,1.18,0,0,0,0,0,0-.09-.4-.18-.79-.27-1.19v.02Z"/><path class="uuid-db34dc66-15f3-47f5-9c1e-ab7e3ef3c875" d="M65.71,21.72l.02.33h0c0-.11,0-.23,0-.34h-.02Z"/><path class="uuid-db34dc66-15f3-47f5-9c1e-ab7e3ef3c875" d="M65.5,21.64c-.01-.09-.02-.17-.03-.26,0,0-.01,0-.01,0,.01.09.02.18.04.27,0,0,0,0,0,0Z"/><path class="uuid-db34dc66-15f3-47f5-9c1e-ab7e3ef3c875" d="M65.49,21.64c.07.03.15.05.22.08,0,0,.02-.01.02-.01-.08-.02-.16-.05-.23-.07,0,0,0,0,0,0Z"/><path class="uuid-db34dc66-15f3-47f5-9c1e-ab7e3ef3c875" d="M65.47,21.38s-.01-.02-.02-.03c0,0,0,.02,0,.02,0,0,.01,0,.01,0Z"/><path class="uuid-db34dc66-15f3-47f5-9c1e-ab7e3ef3c875" d="M65.18,20.96s0,.05.01.07c0-.02,0-.04,0-.06,0,0-.01-.02-.01-.02Z"/><path class="uuid-db34dc66-15f3-47f5-9c1e-ab7e3ef3c875" d="M65.19,20.97s-.02,0-.03,0c0,0,0-.01.01-.02,0,0,.01.02.01.02Z"/><path class="uuid-db34dc66-15f3-47f5-9c1e-ab7e3ef3c875" d="M58.91,36.2c-.46.31-.83.68-1.28.85-1.21.45-2.43.88-3.68,1.21-.88.23-2.04-.54-2.41-1.47,2.43-.19,4.85-.39,7.37-.59ZM57.58,36.61c-1.71.13-3.32.25-4.94.37-.04.79.21,1.1.94,1.05,1.35-.09,2.58-.62,3.8-1.14.07-.03.11-.15.2-.28ZM58,36.5s-.04-.02-.05.02c.04,0,.04.01.05-.02ZM52.46,37.47l-.03-.02v.03s.03-.01.03-.01Z"/><path class="uuid-db34dc66-15f3-47f5-9c1e-ab7e3ef3c875" d="M55.14,38.98c-.41.2-.79.33-1.2.01.43-.49.7-.5,1.2-.01ZM54.71,38.94s0-.05,0-.07h-.35s0,.06,0,.09c.12,0,.23-.02.35-.02Z"/><path class="uuid-db34dc66-15f3-47f5-9c1e-ab7e3ef3c875" d="M65.03,33.19c-.28.17-.45.35-.6.34-.13-.01-.24-.25-.36-.38.15-.13.28-.32.46-.37.09-.02.25.2.5.41ZM64.57,33.12c-.07-.04-.11-.07-.16-.09-.04.07-.11.13-.02.2.09.07.13-.04.18-.1Z"/><path class="uuid-db34dc66-15f3-47f5-9c1e-ab7e3ef3c875" d="M52.4,35.13c.29-.09.57-.18.86-.27.01.03.02.06.03.09-.27.11-.54.22-.82.33-.03-.05-.05-.1-.08-.16Z"/><path class="uuid-db34dc66-15f3-47f5-9c1e-ab7e3ef3c875" d="M53.84,33.28c-.07.05-.15.1-.22.16q.03-.29.24-.15s-.02,0-.02,0Z"/><path class="uuid-db34dc66-15f3-47f5-9c1e-ab7e3ef3c875" d="M53.86,33.28s-.03.05-.05.08c.02,0,.03,0,.05,0,0-.03-.01-.06-.02-.09h.02Z"/><path class="uuid-db34dc66-15f3-47f5-9c1e-ab7e3ef3c875" d="M52.21,35.63s.02.02.02.03c0,0-.01,0-.02-.01,0,0,0-.02,0-.02Z"/><path class="uuid-db34dc66-15f3-47f5-9c1e-ab7e3ef3c875" d="M54.42,69.13c-.18-.43-.48-.85-.51-1.29-.06-.93.03-1.87.06-2.81.04,0,.08,0,.12,0,.02.06.06.13.06.19-.12,1.33-.17,2.65.27,3.94h.01Z"/><path class="uuid-db34dc66-15f3-47f5-9c1e-ab7e3ef3c875" d="M51.73,62.72c-.13.16-.26.32-.4.48-.02,0-.03,0-.05-.01.1-.18.19-.37.29-.55.05.03.11.06.16.09Z"/><path class="uuid-db34dc66-15f3-47f5-9c1e-ab7e3ef3c875" d="M52.86,61.93c.1-.1.2-.2.29-.3h0c-.1.09-.2.19-.31.29h.01Z"/><path class="uuid-db34dc66-15f3-47f5-9c1e-ab7e3ef3c875" d="M52.84,61.92c-.12.09-.23.17-.35.26,0,0,.01.01.01.01.12-.09.23-.17.35-.26,0,0-.01-.01-.01-.01Z"/><path class="uuid-db34dc66-15f3-47f5-9c1e-ab7e3ef3c875" d="M52.5,62.17c-.04.12-.08.23-.12.35-.06-.07-.12-.14-.18-.21.1-.04.21-.08.31-.12,0,0-.01-.01-.01-.01Z"/><path class="uuid-db34dc66-15f3-47f5-9c1e-ab7e3ef3c875" d="M53.15,61.63c.12,0,.24.02.35.03h0c-.12-.02-.24-.02-.35-.03h0Z"/><path class="uuid-db34dc66-15f3-47f5-9c1e-ab7e3ef3c875" d="M53.86,61.38c-.11,0-.22,0-.33.01h0c.1,0,.21,0,.31,0h.02Z"/><path class="uuid-db34dc66-15f3-47f5-9c1e-ab7e3ef3c875" d="M60.48,60.79s0-.08,0-.02c.01-.05,0,0,0,.03h0Z"/><path class="uuid-db34dc66-15f3-47f5-9c1e-ab7e3ef3c875" d="M54.14,61.1s.04,0,.07,0c0-.01-.01-.02-.02-.03l-.03.02h-.02Z"/><path class="uuid-db34dc66-15f3-47f5-9c1e-ab7e3ef3c875" d="M54.16,61.1s-.02,0-.03.01c0,0,0,0,0,0h.02Z"/><path class="uuid-db34dc66-15f3-47f5-9c1e-ab7e3ef3c875" d="M53.84,61.4s.01,0,.02-.01c0,0-.02.01-.02.01Z"/><path class="uuid-db34dc66-15f3-47f5-9c1e-ab7e3ef3c875" d="M53.54,61.39c-.01.08-.02.17-.03.25h0c.01-.08.02-.16.03-.25h0Z"/><path class="uuid-db34dc66-15f3-47f5-9c1e-ab7e3ef3c875" d="M45.07,49.04c-.16.06-.32.17-.48.17-1.67-.01-3.35-.04-5.02-.07-.12,0-.24-.08-.39-.13.34-.26,5.06-.33,5.82-.12l.07.15Z"/><path class="uuid-db34dc66-15f3-47f5-9c1e-ab7e3ef3c875" d="M61.07,49.35s0,.03,0,.04c0-.01,0-.02,0-.03h.01Z"/><path class="uuid-db34dc66-15f3-47f5-9c1e-ab7e3ef3c875" d="M58.41,57.11s.01-.03.05-.03c0,.04-.01.03-.05.03Z"/><path class="uuid-db34dc66-15f3-47f5-9c1e-ab7e3ef3c875" d="M58.68,31.3c.44-.26.76-.45,1.09-.65.02.02.05.04.07.06-.18.25-.35.5-.53.77-.11-.03-.29-.08-.63-.18Z"/><path class="uuid-db34dc66-15f3-47f5-9c1e-ab7e3ef3c875" d="M46.43,31.01c.05-.05.1-.1.14-.15.03.03.09.09.08.1-.04.05-.09.09-.14.14-.03-.03-.06-.06-.09-.08Z"/><path class="uuid-db34dc66-15f3-47f5-9c1e-ab7e3ef3c875" d="M46.74,31.37c-.04.05-.07.11-.11.16,0,.01-.06-.02-.09-.03.03-.06.06-.13.09-.19.04.02.08.04.11.06Z"/><path class="uuid-db34dc66-15f3-47f5-9c1e-ab7e3ef3c875" d="M46.48,30.56c-.05.09-.05.1-.15.07.06-.08.05-.09.15-.07Z"/><path class="uuid-db34dc66-15f3-47f5-9c1e-ab7e3ef3c875" d="M46.64,31.91s.03-.04.05-.06c-.01.04-.02.04-.06.04,0,0,.01.01.01.01Z"/><path class="uuid-db34dc66-15f3-47f5-9c1e-ab7e3ef3c875" d="M46.46,31.98c.06-.02.12-.04.18-.07,0,0-.01-.01-.01-.01-.05.02-.1.04-.15.07h-.02Z"/><path class="uuid-db34dc66-15f3-47f5-9c1e-ab7e3ef3c875" d="M46.48,31.96s-.01,0-.02.01h.02Z"/><path class="uuid-db34dc66-15f3-47f5-9c1e-ab7e3ef3c875" d="M61.23,55.11s.09.09.14.14c-.05-.05-.09-.09-.14-.14Z"/><path class="uuid-db34dc66-15f3-47f5-9c1e-ab7e3ef3c875" d="M61.11,54.99s.09.09.14.14c-.05-.05-.09-.09-.14-.14Z"/><polygon class="uuid-52019697-b9d6-4c59-8b11-3cc120d4b2f3" points="31.28 49.44 29.84 53.4 13.79 53.4 13.79 50.12 16.32 48.36 31.28 48.36 31.28 49.44"/><polygon class="uuid-9c77ca5a-73b4-4ad9-852e-d0eac947298e" points="16.52 48.7 30.97 48.7 29.84 50.56 29.84 52.04 14.08 51.7 14.08 50.56 16.52 48.7"/><rect class="uuid-da94b48f-c2d2-4041-875e-8abb7b2c17b6" x="14.08" y="50.56" width="15.76" height="2.31"/><polygon class="uuid-518ac4e6-e716-4f57-993a-3829d3b8f55e" points="30.89 48.7 29.76 50.56 29.76 52.86 30.97 49.44 30.89 48.7"/><polygon class="uuid-52019697-b9d6-4c59-8b11-3cc120d4b2f3" points="32.8 46.56 31.37 50.52 15.32 50.52 15.32 47.24 17.85 45.49 32.8 45.49 32.8 46.56"/><polygon class="uuid-ef58dd33-7ee3-400a-9a98-a13cb5958dc9" points="18.05 45.82 32.5 45.82 31.37 47.68 31.37 49.16 15.61 48.82 15.61 47.68 18.05 45.82"/><rect class="uuid-fc711709-482e-44c4-9721-c247414c91ad" x="15.61" y="47.68" width="15.76" height="2.31"/><polygon class="uuid-21695cde-855f-4912-b674-93136723c0c1" points="32.41 45.82 31.28 47.68 31.28 49.98 32.5 46.56 32.41 45.82"/><rect class="uuid-3199ab12-c5e5-4566-adc9-60813ad5fc9f" x="16.29" y="48.33" width="5.36" height="1.12"/><rect class="uuid-3199ab12-c5e5-4566-adc9-60813ad5fc9f" x="14.77" y="51.15" width="5.36" height="1.12"/><rect class="uuid-3199ab12-c5e5-4566-adc9-60813ad5fc9f" x="28.07" y="48.43" width="2.46" height="1.12"/><rect class="uuid-3199ab12-c5e5-4566-adc9-60813ad5fc9f" x="25.97" y="51.15" width="2.46" height="1.12"/><polygon class="uuid-33813731-e487-4208-bc9c-08751c4e8158" points="19.9 46.09 18.97 47.28 16.89 47.28 18.55 46.05 19.9 46.09"/><path class="uuid-52fe490a-dbb0-44a8-9c58-da0d193c9f6d" d="M39.29,47.49h-4.88c.4-2.04.19-2.91,0-3.79h4.88c.44,1.81.62,3.28,0,3.79Z"/><path class="uuid-52019697-b9d6-4c59-8b11-3cc120d4b2f3" d="M39.3,47.5c-1.65.07-3.33.12-4.98.07.32-1.29.41-2.64.02-3.93,1.68-.04,3.37-.08,5.05-.06.2,1.21.83,2.9-.09,3.92h0ZM39.29,47.48c.77-1.08.1-2.57-.11-3.75,0,0,.12.09.12.09-1.63.02-3.25-.02-4.88-.06,0,0,.06-.08.06-.08.3,1.25.24,2.56.02,3.82,0,0-.08-.1-.08-.1,1.63-.04,3.23,0,4.87.07h0Z"/><path class="uuid-d45be52c-8aa7-4435-a2be-6e16dcc19401" d="M48.11,47.71h-4.88c.4-2.04.19-2.91,0-3.79h4.88c.44,1.81.62,3.28,0,3.79Z"/><path class="uuid-52019697-b9d6-4c59-8b11-3cc120d4b2f3" d="M48.12,47.72c-1.65.07-3.33.12-4.98.07.32-1.29.41-2.64.02-3.93,1.68-.04,3.37-.08,5.05-.06.2,1.21.83,2.9-.09,3.92h0ZM48.11,47.7c.77-1.08.1-2.57-.11-3.75,0,0,.12.09.12.09-1.63.02-3.25-.02-4.88-.06l.06-.08c.3,1.25.24,2.56.02,3.82,0,0-.08-.1-.08-.1,1.63-.04,3.23,0,4.87.07h0Z"/><path class="uuid-52fe490a-dbb0-44a8-9c58-da0d193c9f6d" d="M49.46,46.96h-4.88c.4-2.04.19-2.91,0-3.79h4.88c.44,1.81.62,3.28,0,3.79Z"/><path class="uuid-52019697-b9d6-4c59-8b11-3cc120d4b2f3" d="M49.47,46.97c-1.65.07-3.33.12-4.98.07.32-1.29.41-2.64.02-3.93,1.68-.04,3.37-.08,5.05-.06.2,1.21.83,2.9-.09,3.92h0ZM49.46,46.95c.77-1.08.1-2.57-.11-3.75,0,0,.12.09.12.09-1.63.02-3.25-.02-4.88-.06l.06-.08c.3,1.25.24,2.56.02,3.82,0,0-.08-.1-.08-.1,1.63-.04,3.23,0,4.87.07h0Z"/><polygon class="uuid-3199ab12-c5e5-4566-adc9-60813ad5fc9f" points="13.88 54.89 4.46 60.3 20.61 60.55 24.61 54.89 13.88 54.89"/><polygon class="uuid-33813731-e487-4208-bc9c-08751c4e8158" points="13.71 54.44 4.29 59.85 20.44 60.1 24.43 54.44 13.71 54.44"/></svg>