<?xml version="1.0" encoding="UTF-8"?><svg xmlns="http://www.w3.org/2000/svg" viewBox="0 0 87.53 76.14"><defs><style>.uuid-9e3f9ff4-f921-4581-995a-6c4d0f46f8c0{fill:#ecf0ca;}.uuid-9e3f9ff4-f921-4581-995a-6c4d0f46f8c0,.uuid-94017d58-0f68-4b55-93bb-d121bcdc8add,.uuid-5e153f43-4d99-4a49-a4fe-4437be02ecac,.uuid-3ddf8954-c40a-4a1d-8f02-c030d38e4ac4,.uuid-b44420c6-5f69-4ee4-8335-a9b99ba774cf,.uuid-800370c0-985e-4e61-8d3a-b8d3a5909451,.uuid-81c72065-960f-482a-8465-e995c1c7b2b1,.uuid-a88d454b-73c9-4e24-a71e-ff3c39eec0e8,.uuid-3216a37f-0de3-421d-8d28-d63a9435f85c,.uuid-659626f6-8cec-494b-b69b-b9385d2ddf1d,.uuid-d9530e70-0539-4df1-88e5-3654f8dd3d96,.uuid-48922fc1-bd00-4295-8f8b-185cf34dd733,.uuid-32920e23-9fca-4829-aa89-6d5997e0505b,.uuid-dce35825-94c5-4478-b138-e7fb523cb2f6,.uuid-cee63304-310b-42a9-a2bb-6d4f5f802da2,.uuid-59638c73-a1ff-462f-b166-a54427a9fade,.uuid-b21e51a6-d266-4716-a171-783234123682,.uuid-8aa15f54-2425-43aa-83ce-b1d6ab734fa7,.uuid-ccca2f2e-9395-4323-834b-d8e1d6b26e22,.uuid-87e29028-f50c-406e-b186-93ac5892e460,.uuid-6ca8c5ac-792e-4887-8f40-b0ad74e6f4fa,.uuid-31948049-3d18-4a6e-8f64-6bd441db316f,.uuid-d49c9912-d084-4f3a-9ded-2d02c9dfbdbc,.uuid-63111c49-d247-4dad-a984-cb000eb355c0,.uuid-796181ab-89b6-4cdd-82fb-4024471262e2,.uuid-51d1b4bb-2ecc-4bfb-af07-db401bea602f,.uuid-f0a68123-22a2-41fd-aec3-35362fe47386,.uuid-d22ce533-ebfe-4cfb-8289-d58715b55d87,.uuid-7f5f2a69-2ce6-434f-8499-c1368364962c,.uuid-83d7f655-0a60-4560-987e-084c35e9dc3f,.uuid-b878ac94-ed16-4b4a-844f-88154bdc8ba4,.uuid-37682145-efd7-48cc-91ba-7ef2109096e4,.uuid-325268bc-1ba4-425a-875b-ac618467d550,.uuid-7b981a8e-b041-4e91-bcb6-b14313ef5967,.uuid-eb372da3-b4b1-4bb9-9531-dd36686fb1e6,.uuid-fdaa02ef-d4bd-4c1c-88e7-3ea1c4322b6f,.uuid-9c7b2d18-233b-4999-88d3-a02a5cad2cf8,.uuid-2e7b6b28-d463-4a26-85b3-1563798a8510,.uuid-864ef927-8ee3-48a0-b8d5-dbd9f565bdff{stroke-width:0px;}.uuid-94017d58-0f68-4b55-93bb-d121bcdc8add{fill:#808285;}.uuid-5e153f43-4d99-4a49-a4fe-4437be02ecac{fill:#9ecc3d;}.uuid-3ddf8954-c40a-4a1d-8f02-c030d38e4ac4{fill:#f9f6dc;}.uuid-b44420c6-5f69-4ee4-8335-a9b99ba774cf{fill:#939598;}.uuid-800370c0-985e-4e61-8d3a-b8d3a5909451{fill:#6ab9c6;}.uuid-81c72065-960f-482a-8465-e995c1c7b2b1{fill:#b3e1ea;}.uuid-9ac551d4-056a-4e2d-accf-60ac53b1fcd5{stroke:#2bb673;}.uuid-9ac551d4-056a-4e2d-accf-60ac53b1fcd5,.uuid-0b6a7256-190c-4207-9403-360dbe071901,.uuid-8537cbc4-2b3b-42f6-83a8-902ba19b5e12,.uuid-041b137d-a2cf-483c-88ab-2d98ee73a5b5,.uuid-04167ea1-2c05-457b-8383-b1ac70466d72,.uuid-fc38172a-c52a-4b3c-969f-991755316698{stroke-linecap:round;stroke-linejoin:round;}.uuid-9ac551d4-056a-4e2d-accf-60ac53b1fcd5,.uuid-8537cbc4-2b3b-42f6-83a8-902ba19b5e12,.uuid-041b137d-a2cf-483c-88ab-2d98ee73a5b5{stroke-width:.5px;}.uuid-9ac551d4-056a-4e2d-accf-60ac53b1fcd5,.uuid-8537cbc4-2b3b-42f6-83a8-902ba19b5e12,.uuid-041b137d-a2cf-483c-88ab-2d98ee73a5b5,.uuid-04167ea1-2c05-457b-8383-b1ac70466d72,.uuid-fc38172a-c52a-4b3c-969f-991755316698{fill:none;}.uuid-0b6a7256-190c-4207-9403-360dbe071901{stroke:#fff;stroke-width:2px;}.uuid-0b6a7256-190c-4207-9403-360dbe071901,.uuid-7b981a8e-b041-4e91-bcb6-b14313ef5967{fill:#fff;}.uuid-a88d454b-73c9-4e24-a71e-ff3c39eec0e8{fill:#f4f8e5;}.uuid-3216a37f-0de3-421d-8d28-d63a9435f85c{fill:#f9a23e;}.uuid-659626f6-8cec-494b-b69b-b9385d2ddf1d{fill:#fcb130;}.uuid-d9530e70-0539-4df1-88e5-3654f8dd3d96{fill:#f8f0d1;}.uuid-48922fc1-bd00-4295-8f8b-185cf34dd733{fill:#fbfbf7;}.uuid-32920e23-9fca-4829-aa89-6d5997e0505b{fill:#a7a9ac;}.uuid-dce35825-94c5-4478-b138-e7fb523cb2f6{fill:#faa442;}.uuid-cee63304-310b-42a9-a2bb-6d4f5f802da2{fill:#6d6e71;}.uuid-59638c73-a1ff-462f-b166-a54427a9fade{fill:#f0f4f3;}.uuid-b21e51a6-d266-4716-a171-783234123682{fill:#ea5a35;}.uuid-8aa15f54-2425-43aa-83ce-b1d6ab734fa7{fill:#f2f7f1;}.uuid-ccca2f2e-9395-4323-834b-d8e1d6b26e22{fill:#c8e8fa;}.uuid-87e29028-f50c-406e-b186-93ac5892e460{fill:#000;}.uuid-6ca8c5ac-792e-4887-8f40-b0ad74e6f4fa{fill:#f3b51f;}.uuid-31948049-3d18-4a6e-8f64-6bd441db316f{fill:#231f20;}.uuid-d49c9912-d084-4f3a-9ded-2d02c9dfbdbc{fill:#d1d3d4;}.uuid-63111c49-d247-4dad-a984-cb000eb355c0{fill:#fdb71c;}.uuid-796181ab-89b6-4cdd-82fb-4024471262e2{fill:#2b3990;}.uuid-51d1b4bb-2ecc-4bfb-af07-db401bea602f{fill:#f58235;}.uuid-f0a68123-22a2-41fd-aec3-35362fe47386{fill:#e6e7e8;}.uuid-d22ce533-ebfe-4cfb-8289-d58715b55d87{fill:#414042;}.uuid-7f5f2a69-2ce6-434f-8499-c1368364962c{fill:#be1e2d;}.uuid-83d7f655-0a60-4560-987e-084c35e9dc3f{fill:#6fc2d7;}.uuid-8537cbc4-2b3b-42f6-83a8-902ba19b5e12{stroke:#ec008c;}.uuid-041b137d-a2cf-483c-88ab-2d98ee73a5b5{stroke:#27aae1;}.uuid-b878ac94-ed16-4b4a-844f-88154bdc8ba4{fill:#c56d4b;}.uuid-37682145-efd7-48cc-91ba-7ef2109096e4{fill:#59301f;}.uuid-325268bc-1ba4-425a-875b-ac618467d550{fill:#6f788d;}.uuid-eb372da3-b4b1-4bb9-9531-dd36686fb1e6{fill:#00a651;}.uuid-fdaa02ef-d4bd-4c1c-88e7-3ea1c4322b6f{fill:#f9ee4a;}.uuid-04167ea1-2c05-457b-8383-b1ac70466d72{stroke:#231f20;stroke-width:.68px;}.uuid-9c7b2d18-233b-4999-88d3-a02a5cad2cf8{fill:#ad6a3c;}.uuid-fc38172a-c52a-4b3c-969f-991755316698{stroke:#e6e7e8;stroke-width:.25px;}.uuid-2e7b6b28-d463-4a26-85b3-1563798a8510{fill:#f26222;}.uuid-864ef927-8ee3-48a0-b8d5-dbd9f565bdff{fill:#7bbfd4;}</style></defs><g id="uuid-eb5273ed-32d7-44ee-93a0-544851133144"><circle class="uuid-ccca2f2e-9395-4323-834b-d8e1d6b26e22" cx="45.14" cy="35.38" r="33.74"/><rect class="uuid-7b981a8e-b041-4e91-bcb6-b14313ef5967" x="53.62" y="7.06" width="13.43" height="13.43" rx="1.36" ry="1.36"/><g id="uuid-d2035b91-1902-499f-b964-2e4c6e84349b"><path class="uuid-325268bc-1ba4-425a-875b-ac618467d550" d="M54.85,19.3v-10.99c.11.03.14.12.21.16.02.04.04.07.08.09.1.12.2.23.32.33,0,0,0,0,0,0,.01.01.03.03.04.04.01.03.04.04.07.04,0,.03,0,.05.02.06.15.15.3.3.46.46.47.55.99,1.05,1.49,1.56,0,0,.02.02.03.03.01.01.02.02.03.03h0s.03.08.07.09c.42.43.84.87,1.25,1.3.02.02.03.03.05.05,0,0,.02.02.03.02.14.18.3.34.47.49.13.14.26.28.39.42.09.1.25.2.26.31.02.12-.16.2-.25.31-.04.05-.08.09-.12.13-1.5,1.56-2.99,3.12-4.5,4.68-.13.13-.24.29-.4.38Z"/><path class="uuid-5e153f43-4d99-4a49-a4fe-4437be02ecac" d="M60.28,8.27h0s0,0,0,0c.14.15.29.31.43.46.08.1.16.2.27.27,0,0,0,.01,0,.02,0,.04.03.06.07.07h0s.03.06.07.07h0s.03.06.07.08c.02.02.04.05.06.07.15.18.3.36.48.51.05.05.09.09.14.14.02.02.03.03.05.05.03.03.06.06.08.09.18.22.37.42.57.62.01.04.04.06.07.07.06.17-.08.11-.14.11-1.5,0-3,0-4.5,0-.18,0-.34-.01-.47-.16-.01-.04-.04-.06-.08-.06-.1-.12-.2-.24-.32-.33-.06-.09-.13-.16-.22-.22-.11-.13-.22-.26-.36-.36-.02-.05-.06-.08-.11-.11-.06-.09-.13-.16-.22-.22-.01-.01-.03-.02-.04-.04-.05-.09-.12-.14-.19-.2h0c-.03-.06-.07-.1-.12-.13h0c-.15-.18-.33-.35-.5-.51-.06-.11-.2-.17-.26-.32h5.14Z"/><path class="uuid-59638c73-a1ff-462f-b166-a54427a9fade" d="M54.85,19.3c.16-.1.27-.25.4-.38,1.5-1.56,3-3.12,4.5-4.68.04-.04.08-.09.12-.13.09-.1.27-.19.25-.31-.01-.11-.17-.21-.26-.31-.13-.14-.26-.28-.39-.42,0,0,.01-.01.02-.02.09.05.16.14.28.15.01.01.03.03.04.04,0,.03.02.05.05.06.01,0,.02,0,.02.02,0,0,.02.02.03.03,0,0,.01.01.02.02,0,.03.02.04.04.04,0,0,.02.02.03.03.03.13.08.24.25.23.02,0,.05,0,.07,0,0,.05.03.07.08.07,0,.04-.02.09.04.11.02.02.04.04.07.07,0,.11.06.18.18.18.01.01.02.02.04.04,0,.08.03.11.11.11h0s0,.09.04.12c.24.15.34.42.58.57,0,.15.09.15.2.14.03,0,.04.02.04.04-.07.04-.07.09-.01.14.06.05.06.11.06.18-.19-.19-.39-.38-.57-.57-.27-.28-.53-.56-.79-.84-.07-.07-.12-.07-.18,0-.07.09-.15.17-.23.26-.54.55-1.07,1.1-1.61,1.66-.77.8-1.53,1.6-2.3,2.4-.35.36-.7.73-1.05,1.09-.03.04-.12.06-.05.14,0,0,0,.02,0,.03,0,.07-.06.06-.1.09-.05.03-.12.1-.17.02-.03-.06.05-.09.11-.12.12-.07.1-.17.05-.28Z"/><path class="uuid-8aa15f54-2425-43aa-83ce-b1d6ab734fa7" d="M62.02,10.11s-.06-.06-.08-.09c0-.03-.02-.04-.05-.05-.05-.05-.09-.09-.14-.14.04-.2-.16-.24-.24-.36-.04-.05-.1-.19-.24-.15-.02-.02-.04-.05-.06-.07,0-.05-.02-.08-.07-.08,0,0,0,0,0,0,0-.05-.02-.07-.07-.07,0,0,0,0,0,0,0-.05-.02-.07-.07-.07,0,0-.01,0,0-.02,0-.18-.13-.23-.27-.27-.14-.15-.29-.31-.43-.46.08,0,.16,0,.24,0,.02.05.06.08.1.11.79.83,1.58,1.65,2.37,2.48.45.47.91.95,1.36,1.42.38.4.77.8,1.15,1.19.02.02.05.05.07.07.03.03.05.04.08,0,.01,0,.02,0,.03,0,.09.11-.05.25.04.36-.05,0-.1,0-.11.07-.06.06-.12.12-.18.18-.06,0-.13,0-.18-.04.06-.06.12-.12.18-.18.05,0,.07-.02.07-.07h0c.1-.05.1-.1,0-.15-.02-.02-.05-.05-.07-.07,0-.09-.06-.13-.14-.15-.13-.13-.27-.27-.4-.4-.02-.1-.08-.16-.18-.18-.07-.07-.14-.15-.22-.22,0-.05-.03-.07-.07-.07-.04-.04-.07-.07-.11-.11-.02-.1-.08-.16-.18-.18-.13-.13-.27-.27-.4-.4-.02-.1-.08-.16-.18-.18h0s-.02-.07-.07-.07c-.01-.01-.03-.02-.04-.04,0-.04-.02-.07-.07-.07-.01-.01-.03-.03-.04-.04,0-.04-.03-.07-.07-.07-.06-.06-.12-.12-.18-.18-.09-.15-.13-.15-.22,0-.01.01-.03.02-.04.04-.07,0-.1.04-.11.11-.05.05-.1.09-.15.14,0-.01,0-.02,0-.04,0-.06.01-.1.06-.14.08-.05.02-.08-.03-.11,0-.02,0-.04,0-.07.01-.01.03-.03.04-.04.09-.02.06-.09.06-.15.06-.11.09-.2-.07-.25-.03-.02-.06-.03-.07-.07-.03-.14-.42-.57-.55-.61,0,0-.01,0-.02,0Z"/><path class="uuid-864ef927-8ee3-48a0-b8d5-dbd9f565bdff" d="M65.6,13.55s-.05-.05-.07-.07c.06-.05.04-.12.04-.19,0-1.6,0-3.19,0-4.79,0-.16-.04-.2-.2-.2-1.39,0-2.79,0-4.18,0-.06,0-.13,0-.18.02-.1.07-.17.09-.26,0-.04-.04-.1-.01-.11.06-.04-.03-.08-.06-.1-.11.01,0,.02,0,.03,0,.11,0,.22,0,.33,0,1.52,0,3.04,0,4.56,0,.07,0,.15,0,.22,0,.01.07.03.14.03.21,0,1.69,0,3.38,0,5.07-.01,0-.02,0-.03,0,0-.02-.02-.05-.03-.06-.04,0-.04.03-.05.06Z"/><path class="uuid-59638c73-a1ff-462f-b166-a54427a9fade" d="M65.67,19.33c-.01.08.19.2-.03.25,0-.01,0-.02,0-.03,0-.04-.02-.05-.06-.05,0,0,0-.01-.01-.02,0-.03-.01-.04-.04-.05,0,0,0,0,0,0,0-.01,0-.02,0-.04-.52-.55-1.05-1.11-1.57-1.66-.37-.39-.75-.76-1.1-1.16.07.01.14.02.22.04.04.11.1.2.23.21h0s0,0,0,0c-.01.08.03.11.1.12h0s.02.02.04.04h0s.02.02.04.04h0s.02.02.04.04c.07.05.14.11.18.19,0,.01.02.02.03.03.03.02.05.05.08.07.01.01.02.02.03.03h0c0,.12.06.17.17.18h0c0,.1.05.14.14.14.02.02.04.04.05.06-.02.12.02.17.14.15h0s.02.02.03.04c.05.02.08.06.11.11,0,.05.03.07.07.07h0c-.01.11.03.16.14.15h0c.01.13.08.2.21.22,0,0,.02.01.02.02,0,.1.05.15.14.15h0s.03.02.04.04h0c0,.07.04.11.11.11.12.1.23.21.32.33.01.01.02.02.03.03h0c0,.08.02.14.11.14Z"/><path class="uuid-8aa15f54-2425-43aa-83ce-b1d6ab734fa7" d="M60.28,8.27h-5.14c.06.15.19.21.26.32h0c-.09.03-.15-.11-.25-.03-.04-.02-.06-.05-.08-.09,0-.02.02-.05.01-.07-.07-.26.12-.2.26-.2,1.58,0,3.17,0,4.75,0,.07,0,.17-.05.19.07Z"/><path class="uuid-800370c0-985e-4e61-8d3a-b8d3a5909451" d="M65.58,19.5s.05.02.06.05c-.05,0-.1,0-.15,0-.06,0-.11,0-.17,0-.05,0-.1,0-.15,0-2.72,0-5.44,0-8.15,0-.54,0-1.07,0-1.61,0-.05,0-.1,0-.15,0-.07,0-.14,0-.22,0,0,0,0-.02,0-.02.07-.06.15-.03.22-.03,3.35,0,6.7,0,10.05,0,.09,0,.18,0,.27-.01Z"/><path class="uuid-3ddf8954-c40a-4a1d-8f02-c030d38e4ac4" d="M65.67,19.33c-.09,0-.11-.06-.11-.14.12.11.15.05.15-.08,0-1.67,0-3.33,0-5,0-.05.03-.13-.07-.13,0-.07.06-.07.11-.07,0,1.74,0,3.49,0,5.23,0,.07.05.16-.07.19Z"/><path class="uuid-8aa15f54-2425-43aa-83ce-b1d6ab734fa7" d="M60.9,8.26c-.11,0-.22,0-.33,0,.11-.15.21-.15.33,0Z"/><path class="uuid-8aa15f54-2425-43aa-83ce-b1d6ab734fa7" d="M65.67,8.27c-.07,0-.15,0-.22,0,.07-.1.15-.11.22,0Z"/><path class="uuid-59638c73-a1ff-462f-b166-a54427a9fade" d="M65.6,19.58s0,.06-.05.06c-.05,0-.06-.03-.06-.06.04,0,.07,0,.11,0Z"/><path class="uuid-81c72065-960f-482a-8465-e995c1c7b2b1" d="M65.6,19.58s-.07,0-.11,0c0,0,0-.02,0-.03.05,0,.1,0,.15,0,0,.01,0,.02,0,.03-.01,0-.02,0-.04,0Z"/><path class="uuid-81c72065-960f-482a-8465-e995c1c7b2b1" d="M65.16,19.56c.05,0,.1,0,.15,0-.05.04-.1.04-.15,0Z"/><path class="uuid-81c72065-960f-482a-8465-e995c1c7b2b1" d="M55.25,19.56c.05,0,.1,0,.15,0-.05.04-.1.04-.15,0Z"/><path class="uuid-8aa15f54-2425-43aa-83ce-b1d6ab734fa7" d="M66.02,13.81s-.02.01-.03.01c0,0,0-.02-.01-.03.01,0,.02-.01.03-.01,0,0,0,.02.01.03Z"/><path class="uuid-81c72065-960f-482a-8465-e995c1c7b2b1" d="M54.96,19.59s0-.02,0-.03c.03,0,.05,0,.08-.01,0,0,0,.02,0,.02-.02,0-.05.02-.07.02Z"/><path class="uuid-d9530e70-0539-4df1-88e5-3654f8dd3d96" d="M58.93,12.5c-.42-.43-.84-.87-1.25-1.3,0-.05-.02-.07-.07-.08,0,0,0-.01,0-.01.01-.04.04-.05.08-.06.08,0,.17,0,.25,0,1.31,0,2.61,0,3.92,0,.07,0,.15-.03.21.03-.04,0-.08.02-.12.02-1.32,0-2.64,0-3.96,0-.07,0-.14,0-.25.06.23.22.45.41.66.63.25.26.53.49.75.78-.04,0-.09,0-.13,0,0,0-.02-.02-.03-.02,0-.03-.02-.04-.05-.05Z"/><path class="uuid-7b981a8e-b041-4e91-bcb6-b14313ef5967" d="M57.68,11.05s-.07.02-.08.06c-.01-.01-.02-.02-.03-.03,0,0-.02-.02-.03-.03-.5-.52-1.02-1.02-1.49-1.56.01,0,.02-.02.03-.03.05,0,.1-.01.14-.04.01.01.03.02.04.04,0,.15.08.21.22.22.05.02.09.06.11.11-.02.09.05.19.08.2.11.04.11.26.28.16.08.06.16.13.22.22.03.16.18.31.32.33.04,0,.06.03.08.06-.04.13.1.14.14.22-.03.02-.04.04-.04.07Z"/><path class="uuid-8aa15f54-2425-43aa-83ce-b1d6ab734fa7" d="M55.4,8.59c.18.16.35.32.5.51-.11.01-.19-.11-.31-.07-.03-.01-.03-.04-.02-.06,0-.05-.01-.08-.07-.09h-.04s0,0,0,0c.02-.11-.08-.19-.07-.29h0Z"/><path class="uuid-59638c73-a1ff-462f-b166-a54427a9fade" d="M59,12.57s.09,0,.13,0c.01,0,.02,0,.02.02,0,0,.02.02.03.03h0s.02.03.03.04h0s.02.06.06.06c0,0,.02,0,.02.01.01.01.02.02.03.03h0s.02.07.07.07c.01.01.03.03.04.04.01.06.03.11.04.17,0,0-.01.01-.02.02-.17-.15-.33-.31-.47-.49Z"/><path class="uuid-7b981a8e-b041-4e91-bcb6-b14313ef5967" d="M55.6,9.03c.12-.04.2.08.31.07,0,0,0,0,0,0,0,.08-.01.18.12.12,0,0,0,0,0,0-.06.1.05.15.05.23-.01,0-.02.02-.03.03-.15-.15-.3-.3-.46-.46Z"/><path class="uuid-59638c73-a1ff-462f-b166-a54427a9fade" d="M55.39,8.6c0,.1.1.18.07.29-.12-.1-.22-.21-.32-.33.1-.08.16.06.25.04Z"/><path class="uuid-7b981a8e-b041-4e91-bcb6-b14313ef5967" d="M55.5,8.88c.05,0,.07.04.07.09-.03,0-.06,0-.07-.04,0-.01,0-.03,0-.04Z"/><path class="uuid-48922fc1-bd00-4295-8f8b-185cf34dd733" d="M57.61,11.12s.07.03.07.08c-.04-.01-.05-.04-.07-.08Z"/><path class="uuid-59638c73-a1ff-462f-b166-a54427a9fade" d="M58.93,12.5s.04.02.05.05c-.02-.02-.03-.03-.05-.05Z"/><path class="uuid-59638c73-a1ff-462f-b166-a54427a9fade" d="M55.5,8.88s0,.03,0,.04c-.01-.01-.03-.03-.04-.04.01,0,.03,0,.04,0Z"/><path class="uuid-48922fc1-bd00-4295-8f8b-185cf34dd733" d="M57.54,11.05s.02.02.03.03c0,0-.02-.02-.03-.03Z"/><path class="uuid-a88d454b-73c9-4e24-a71e-ff3c39eec0e8" d="M57.71,10.98c-.04-.08-.18-.09-.14-.22.12.15.29.16.47.16,1.5,0,3,0,4.5,0,.06,0,.2.06.14-.11.15.05.12.15.07.25-.2.02-.41-.04-.61.03-.02,0-.05,0-.07,0-.06-.06-.14-.03-.21-.03-1.31,0-2.61,0-3.92,0-.04-.13-.14-.05-.22-.07Z"/><path class="uuid-a88d454b-73c9-4e24-a71e-ff3c39eec0e8" d="M61.28,9.32c.13-.04.2.09.24.15.08.12.29.16.24.36-.18-.15-.33-.33-.48-.51Z"/><path class="uuid-a88d454b-73c9-4e24-a71e-ff3c39eec0e8" d="M62.02,10.11s.01,0,.02,0c.13.04.53.48.55.61-.21-.19-.4-.4-.57-.62Z"/><path class="uuid-8aa15f54-2425-43aa-83ce-b1d6ab734fa7" d="M56.95,10.15c-.17.1-.17-.12-.28-.16-.04-.01-.1-.12-.08-.2.14.1.25.23.36.36Z"/><path class="uuid-8aa15f54-2425-43aa-83ce-b1d6ab734fa7" d="M57.49,10.69c-.15-.02-.29-.16-.32-.33.13.09.22.21.32.33Z"/><path class="uuid-a88d454b-73c9-4e24-a71e-ff3c39eec0e8" d="M60.73,8.74c.13.05.27.1.27.27-.11-.07-.19-.17-.27-.27Z"/><path class="uuid-8aa15f54-2425-43aa-83ce-b1d6ab734fa7" d="M56.08,9.46c0-.08-.12-.14-.05-.23.08.05.15.11.19.2-.04.03-.09.04-.14.04Z"/><path class="uuid-8aa15f54-2425-43aa-83ce-b1d6ab734fa7" d="M56.48,9.68c-.13,0-.23-.06-.22-.22.09.05.16.13.22.22Z"/><path class="uuid-8aa15f54-2425-43aa-83ce-b1d6ab734fa7" d="M56.03,9.22c-.14.05-.12-.04-.12-.12.06.03.1.07.12.12Z"/><path class="uuid-a88d454b-73c9-4e24-a71e-ff3c39eec0e8" d="M61.15,9.17c.05,0,.07.03.07.08-.04-.01-.06-.04-.07-.08Z"/><path class="uuid-a88d454b-73c9-4e24-a71e-ff3c39eec0e8" d="M61.08,9.1s.07.03.07.07c-.04-.01-.06-.03-.07-.07Z"/><path class="uuid-a88d454b-73c9-4e24-a71e-ff3c39eec0e8" d="M61.01,9.03s.07.03.07.07c-.04,0-.06-.03-.07-.07Z"/><path class="uuid-a88d454b-73c9-4e24-a71e-ff3c39eec0e8" d="M61.9,9.97s.04.02.05.05c-.02-.02-.03-.03-.05-.05Z"/><path class="uuid-83d7f655-0a60-4560-987e-084c35e9dc3f" d="M55.04,19.55s-.05,0-.08.01c-.07-.08.01-.11.05-.14.35-.37.7-.73,1.05-1.09.77-.8,1.53-1.6,2.3-2.4.53-.55,1.07-1.1,1.61-1.66.08-.08.15-.17.23-.26.06-.07.11-.08.18,0,.26.28.52.56.79.84.19.19.38.38.57.57.01.04.04.06.07.08.02.05.06.09.11.11h0c.1.14.23.26.36.37.02.02.05.05.07.07.03.09.1.15.18.19.03.03.06.07.08.1.04.07.1.13.17.18.01.01.02.03.04.04.01.01.02.02.03.04h0c.35.4.73.78,1.1,1.16.53.55,1.05,1.1,1.57,1.66-.03.01-.03.03,0,.04,0,0,0,0,0,0,.01.02.03.03.04.05,0,0,0,.01.01.02-.09,0-.18.01-.27.01-3.35,0-6.7,0-10.05,0-.07,0-.16-.03-.22.03Z"/><path class="uuid-5e153f43-4d99-4a49-a4fe-4437be02ecac" d="M62.6,11.59s.1-.09.15-.14c.05-.02.09-.05.11-.11.01-.01.03-.02.04-.04.07-.05.15-.05.22,0,.06.06.12.12.18.18,0,.04.03.06.07.07.01.01.03.03.04.04,0,.04.03.07.07.07.01.01.03.02.04.04,0,.04.03.06.07.07,0,0,0,0,0,0,.03.09.09.15.18.18.13.13.27.27.4.4.03.09.09.15.18.18.04.04.07.07.11.11,0,.04.03.06.07.07.07.07.14.15.22.22.03.09.09.15.18.18.13.13.27.27.4.4.02.07.07.12.14.15.02.02.05.05.07.07.02.05.02.1,0,.15,0,0,0,0,0,0-.04,0-.07.03-.07.07-.06.06-.12.12-.18.18-.13.09-.23.21-.33.32h0s-.05.05-.07.08c-.07.02-.12.08-.15.15-.33.33-.68.64-.99,1h0s-.01,0-.01,0c-.07.03-.12.08-.14.14h.01s-.01,0-.01,0c-.06.02-.1.07-.13.13-.11.08-.21.18-.29.29-.12.11-.24.14-.36,0h0c-.05-.09-.13-.16-.22-.21l-.04-.04c-.03-.07-.08-.12-.15-.14h0c-.02-.05-.05-.09-.11-.11-.05-.07-.11-.13-.18-.18-.01-.06-.05-.09-.11-.11h0c-.07-.12-.17-.21-.29-.29l-.04-.04s-.02-.04-.04-.04c-.03-.03-.06-.07-.1-.1-.22-.26-.46-.5-.72-.72,0,0,0,0,0,0-.02-.05-.05-.09-.11-.11-.01-.01-.02-.02-.04-.04-.04-.08-.1-.14-.18-.18-.02-.02-.04-.04-.07-.07.01-.04.02-.08.03-.11.02-.03.05-.05.07-.08.01-.01.03-.02.04-.03.06-.01.09-.05.11-.11.06-.06.12-.12.18-.18.11-.06.2-.14.25-.25.01-.01.03-.03.04-.04.04,0,.07-.03.07-.07.06-.06.12-.12.18-.18.1-.05.17-.11.22-.21.01-.01.03-.02.04-.04.09-.03.13-.11.18-.18h0c.27-.24.53-.48.76-.76Z"/><path class="uuid-6ca8c5ac-792e-4887-8f40-b0ad74e6f4fa" d="M62.05,11.09s.05,0,.07,0c.15,0,.3,0,.45,0,.07,0,.14,0,.1.1-.01.01-.03.03-.04.04-.03,0-.05.03-.04.06-.05.04-.1.09-.15.13-.11.08-.21.18-.28.3,0,0,0,0,0,0-.01.01-.02.02-.03.04,0,0,0,0,0,0-.06.03-.11.08-.14.14-.06.04-.11.09-.15.15-.01.01-.02.02-.03.03h0c-.14.12-.26.25-.36.4h0s-.02.02-.03.04c-.12.1-.23.21-.32.33-.14.11-.27.23-.37.39h0s-.03.02-.04.04c-.01.01-.02.02-.03.04l-.03.04s-.05.05-.07.07c-.01.01-.02.02-.03.04h0c-.07.05-.13.11-.18.18-.02,0-.05,0-.07,0-.07-.09-.15-.17-.25-.23,0,0-.02-.02-.03-.03-.01-.01-.03-.03-.04-.04,0-.01,0-.02-.02-.02,0,0-.02-.02-.03-.03,0,0-.01-.01-.02-.02,0-.03-.02-.05-.05-.06-.01-.01-.03-.03-.04-.04-.09-.13-.2-.23-.32-.32-.01-.01-.03-.03-.04-.04,0-.04-.03-.06-.07-.07,0,0,0,0,0,0,0-.02-.01-.03-.03-.03,0,0-.01-.01-.02-.01-.01-.03-.02-.05-.06-.06,0,0,0,0,0,0,0,0-.02-.02-.03-.03,0,0,0,0,0,0,0,0-.02-.02-.03-.03,0,0-.01-.02-.02-.02-.23-.28-.5-.52-.75-.78-.21-.21-.43-.41-.66-.63.11-.07.18-.06.25-.06,1.32,0,2.64,0,3.96,0,.04,0,.08-.01.12-.02Z"/><path class="uuid-48922fc1-bd00-4295-8f8b-185cf34dd733" d="M62.12,15.54c.07.05.13.11.18.18,0,.07.04.1.11.11,0,0,0,0,0,0,0,.1,0,.2.15.14.01.01.02.02.04.04,0,.15.12.17.22.21,0,0,0,0,0,0,.01.09.04.18.15.18.12,0,.18-.07.21-.18.08-.11.18-.21.29-.29.11.03.13-.04.13-.13h.01s-.01,0-.01,0c.1,0,.15-.04.14-.14h.01s0,0,0,0c.09.02.13.07.12.16h0c-.08,0-.12.03-.11.11l-.04.04s-.02.03-.03.04l-.03.04s-.03.03-.04.04c-.02.02-.04.05-.07.07-.09-.01-.13.02-.11.11-.03.06-.08.11-.13.14-.04,0-.05.03-.05.06h0c-.1,0-.16.05-.17.15-.07-.01-.14-.02-.22-.04,0,0,0,0,0,0-.01-.01-.02-.02-.03-.04-.01-.01-.02-.03-.04-.04,0-.11-.06-.18-.17-.18-.03-.03-.06-.07-.08-.1-.01-.11-.04-.2-.18-.19-.02-.02-.05-.05-.07-.07-.03-.21-.16-.35-.36-.37,0,0,0,0,0,0,0-.08-.03-.11-.11-.11-.04-.01-.06-.04-.07-.08,0-.07,0-.13-.06-.18-.06-.05-.06-.1.01-.14.01.01.03.02.04.04.06.13.09.3.29.29,0,0,0,0,0,0,0,.07.04.1.11.11Z"/><path class="uuid-9e3f9ff4-f921-4581-995a-6c4d0f46f8c0" d="M60.82,14.24c.26.22.5.46.72.72-.04-.01-.07-.03-.11-.04-.24-.15-.34-.42-.58-.57-.04-.02-.04-.07-.04-.12Z"/><path class="uuid-d9530e70-0539-4df1-88e5-3654f8dd3d96" d="M60.32,13.66c.05-.07.11-.13.18-.18,0,.06,0,.12.03.17-.02.03-.05.05-.07.08-.02,0-.05,0-.07,0-.04,0-.08-.02-.08-.07Z"/><path class="uuid-d9530e70-0539-4df1-88e5-3654f8dd3d96" d="M59.45,12.87c.12.09.23.19.32.32-.12,0-.18-.1-.28-.15-.01-.06-.03-.11-.04-.17Z"/><path class="uuid-d9530e70-0539-4df1-88e5-3654f8dd3d96" d="M60,13.43c.1.06.17.14.25.23-.17.01-.21-.1-.25-.23Z"/><path class="uuid-9e3f9ff4-f921-4581-995a-6c4d0f46f8c0" d="M60.5,13.91c.08.04.14.1.18.18-.11,0-.17-.07-.18-.18Z"/><path class="uuid-48922fc1-bd00-4295-8f8b-185cf34dd733" d="M61.44,14.92s.07.03.11.04c.03.03.06.07.1.1-.11.01-.21.01-.2-.14Z"/><path class="uuid-9e3f9ff4-f921-4581-995a-6c4d0f46f8c0" d="M60.71,14.13c.06.01.09.06.11.11-.08,0-.11-.03-.11-.11Z"/><path class="uuid-9e3f9ff4-f921-4581-995a-6c4d0f46f8c0" d="M60.39,13.73s.05,0,.07,0c-.01.04-.02.08-.03.11-.06-.02-.04-.07-.04-.11Z"/><path class="uuid-d9530e70-0539-4df1-88e5-3654f8dd3d96" d="M59.81,13.23s.05.03.05.06c-.04,0-.05-.02-.05-.06Z"/><path class="uuid-d9530e70-0539-4df1-88e5-3654f8dd3d96" d="M59.93,13.35s.03.03.04.04c-.03,0-.04-.02-.04-.04Z"/><path class="uuid-d9530e70-0539-4df1-88e5-3654f8dd3d96" d="M59.88,13.3s.02.02.03.03c0,0-.02-.02-.03-.03Z"/><path class="uuid-83d7f655-0a60-4560-987e-084c35e9dc3f" d="M60.64,8.38c0-.07.07-.1.11-.06.09.1.16.07.26,0,.04-.03.12-.02.18-.02,1.39,0,2.79,0,4.18,0,.16,0,.2.04.2.2,0,1.6,0,3.19,0,4.79,0,.06.02.13-.04.19-.38-.4-.77-.79-1.15-1.19-.46-.47-.91-.94-1.36-1.42-.79-.83-1.58-1.65-2.37-2.48Z"/><path class="uuid-6ca8c5ac-792e-4887-8f40-b0ad74e6f4fa" d="M63.72,15.97s.03-.02.04-.04c.05-.02.09-.06.11-.11,0,0,0,0,0,0,.55-.54,1.08-1.1,1.59-1.66.06-.06.12-.12.18-.18.1,0,.07.08.07.13,0,1.67,0,3.33,0,5,0,.13-.03.19-.15.08,0,0,0,0,0,0,0-.02,0-.03-.03-.03-.09-.12-.21-.23-.32-.33-.01-.06-.05-.09-.11-.11,0,0,0,0,0,0-.01-.01-.03-.02-.04-.04,0,0,0,0,0,0-.02-.08-.08-.12-.14-.15,0-.01,0-.02-.02-.02-.06-.08-.12-.16-.21-.21,0,0,0,0,0,0-.03-.06-.08-.11-.14-.15,0,0,0,0,0,0-.01-.03-.04-.06-.07-.07-.02-.05-.06-.09-.11-.11-.01-.01-.02-.03-.03-.04,0,0,0,0,0,0-.02-.07-.08-.12-.14-.15-.02-.02-.04-.04-.05-.06-.03-.07-.08-.1-.14-.14,0,0,0,0,0,0-.04-.08-.1-.13-.17-.18,0,0,0,0,0,0-.01-.01-.02-.02-.03-.03-.03-.02-.05-.05-.08-.07,0-.01-.02-.02-.03-.03-.04-.08-.1-.14-.18-.19-.01-.01-.02-.03-.04-.04,0,0,0,0,0,0-.01-.01-.02-.02-.04-.04,0,0,0,0,0,0-.01-.01-.02-.02-.04-.04,0,0,0,0,0,0-.01-.06-.05-.1-.1-.12h0s0,0,0,0c-.08-.11-.22-.21-.05-.36,0,0,0,0,0,0,.03,0,.05-.03.05-.06.06-.04.1-.08.13-.14.05-.03.09-.06.11-.11.02-.02.04-.05.07-.07.01-.01.03-.03.04-.04.01-.01.02-.02.03-.04.01-.01.02-.03.03-.04Z"/><path class="uuid-3ddf8954-c40a-4a1d-8f02-c030d38e4ac4" d="M65.46,14.16c-.52.57-1.05,1.12-1.59,1.66,0-.09-.04-.14-.12-.16.3-.36.65-.67.99-1,.09,0,.14-.06.15-.15.02-.03.05-.05.07-.08,0,0,0,0,0,0,.11-.11.21-.23.33-.32.06.04.12.04.18.04Z"/><path class="uuid-9e3f9ff4-f921-4581-995a-6c4d0f46f8c0" d="M62.6,11.59c-.23.28-.49.53-.76.76.03-.14.14-.22.24-.32.15-.14.34-.25.38-.47.05,0,.09,0,.14,0,0,.01,0,.02,0,.04Z"/><path class="uuid-48922fc1-bd00-4295-8f8b-185cf34dd733" d="M62.6,11.55s-.09,0-.14,0h0s0-.08,0-.12c.05-.04.1-.09.15-.13.01,0,.03,0,.04,0,.05.03.1.06.03.11-.05.03-.06.08-.06.14Z"/><path class="uuid-d9530e70-0539-4df1-88e5-3654f8dd3d96" d="M62.68,11.2c.04-.11-.03-.1-.1-.1-.15,0-.3,0-.45,0,.2-.07.41-.02.61-.03,0,.06.03.13-.06.15Z"/><path class="uuid-9e3f9ff4-f921-4581-995a-6c4d0f46f8c0" d="M63.1,11.3c-.07-.05-.15-.05-.22,0,.09-.15.13-.15.22,0Z"/><path class="uuid-9e3f9ff4-f921-4581-995a-6c4d0f46f8c0" d="M64.34,12.53c-.09-.03-.15-.09-.18-.18.1.02.16.08.18.18Z"/><path class="uuid-9e3f9ff4-f921-4581-995a-6c4d0f46f8c0" d="M63.76,11.96c-.09-.03-.15-.09-.18-.18.1.02.16.08.18.18Z"/><path class="uuid-9e3f9ff4-f921-4581-995a-6c4d0f46f8c0" d="M64.91,13.11c-.09-.03-.15-.09-.18-.18.1.02.16.08.18.18Z"/><path class="uuid-9e3f9ff4-f921-4581-995a-6c4d0f46f8c0" d="M65.46,13.66c-.07-.02-.12-.08-.14-.15.08.01.13.06.14.15Z"/><path class="uuid-9e3f9ff4-f921-4581-995a-6c4d0f46f8c0" d="M65.53,13.87s.02-.1,0-.15c.1.05.1.1,0,.15Z"/><path class="uuid-9e3f9ff4-f921-4581-995a-6c4d0f46f8c0" d="M62.85,11.34c-.01.06-.05.09-.11.11,0-.07.04-.1.11-.11Z"/><path class="uuid-83d7f655-0a60-4560-987e-084c35e9dc3f" d="M65.6,13.55s0-.07.05-.06c.01,0,.02.04.03.06-.03.04-.05.03-.08,0Z"/><path class="uuid-9e3f9ff4-f921-4581-995a-6c4d0f46f8c0" d="M64.52,12.71s-.06-.03-.07-.07c.05,0,.07.02.07.07Z"/><path class="uuid-9e3f9ff4-f921-4581-995a-6c4d0f46f8c0" d="M65.46,13.94s.04-.06.07-.07c0,.05-.03.07-.07.07Z"/><path class="uuid-9e3f9ff4-f921-4581-995a-6c4d0f46f8c0" d="M63.47,11.67s-.06-.03-.07-.07c.04,0,.07.03.07.07Z"/><path class="uuid-9e3f9ff4-f921-4581-995a-6c4d0f46f8c0" d="M63.57,11.78s-.06-.03-.07-.07c.05,0,.07.03.07.07Z"/><path class="uuid-9e3f9ff4-f921-4581-995a-6c4d0f46f8c0" d="M63.36,11.55s-.07-.03-.07-.07c.04,0,.07.02.07.07Z"/><path class="uuid-d9530e70-0539-4df1-88e5-3654f8dd3d96" d="M62.63,11.31s-.03,0-.04,0c0-.03.01-.06.04-.06,0,.02,0,.04,0,.07Z"/><path class="uuid-3ddf8954-c40a-4a1d-8f02-c030d38e4ac4" d="M63.24,16.47c-.17.15-.03.25.05.36-.13-.01-.19-.1-.23-.21.01-.1.08-.14.17-.15Z"/><path class="uuid-3ddf8954-c40a-4a1d-8f02-c030d38e4ac4" d="M64.69,18.29c.09.06.15.13.21.21-.13-.01-.2-.09-.21-.21Z"/><path class="uuid-3ddf8954-c40a-4a1d-8f02-c030d38e4ac4" d="M64.19,17.77c.06.04.12.08.14.15-.12.02-.16-.04-.14-.15Z"/><path class="uuid-3ddf8954-c40a-4a1d-8f02-c030d38e4ac4" d="M63.83,17.38c.07.05.13.1.17.18-.11,0-.17-.07-.17-.18Z"/><path class="uuid-3ddf8954-c40a-4a1d-8f02-c030d38e4ac4" d="M64.55,18.14c.06.03.11.08.14.15-.11.01-.16-.04-.14-.15Z"/><path class="uuid-3ddf8954-c40a-4a1d-8f02-c030d38e4ac4" d="M64.92,18.52c.06.04.12.08.14.15-.09,0-.14-.06-.14-.15Z"/><path class="uuid-3ddf8954-c40a-4a1d-8f02-c030d38e4ac4" d="M64,17.57c.06.03.11.07.14.14-.09,0-.14-.05-.14-.14Z"/><path class="uuid-3ddf8954-c40a-4a1d-8f02-c030d38e4ac4" d="M63.29,16.83c.05.02.09.06.1.12-.07,0-.11-.04-.1-.12Z"/><path class="uuid-3ddf8954-c40a-4a1d-8f02-c030d38e4ac4" d="M65.1,18.71c.06.02.09.05.11.11-.07,0-.11-.04-.11-.11Z"/><path class="uuid-3ddf8954-c40a-4a1d-8f02-c030d38e4ac4" d="M64.48,18.07s.06.04.07.07c-.05,0-.07-.02-.07-.07Z"/><path class="uuid-3ddf8954-c40a-4a1d-8f02-c030d38e4ac4" d="M63.43,16.98s.02.02.04.04c-.01-.01-.02-.02-.04-.04Z"/><path class="uuid-3ddf8954-c40a-4a1d-8f02-c030d38e4ac4" d="M63.47,17.01s.02.03.04.04c-.01-.01-.02-.03-.04-.04Z"/><path class="uuid-3ddf8954-c40a-4a1d-8f02-c030d38e4ac4" d="M63.68,17.24s.02.02.03.03c0-.01-.02-.02-.03-.03Z"/><path class="uuid-3ddf8954-c40a-4a1d-8f02-c030d38e4ac4" d="M63.79,17.35s.02.02.03.03c-.01-.01-.02-.02-.03-.03Z"/><path class="uuid-3ddf8954-c40a-4a1d-8f02-c030d38e4ac4" d="M63.39,16.94s.02.02.04.04c-.01-.01-.02-.02-.04-.04Z"/><path class="uuid-3ddf8954-c40a-4a1d-8f02-c030d38e4ac4" d="M64.34,17.92s.02.03.03.04c-.01-.01-.02-.03-.03-.04Z"/><path class="uuid-3ddf8954-c40a-4a1d-8f02-c030d38e4ac4" d="M65.06,18.68s.03.02.04.04c-.01-.01-.03-.02-.04-.04Z"/><path class="uuid-3ddf8954-c40a-4a1d-8f02-c030d38e4ac4" d="M65.53,19.15s.03.01.03.03c-.01-.01-.02-.02-.03-.03Z"/><path class="uuid-800370c0-985e-4e61-8d3a-b8d3a5909451" d="M65.53,19.44s-.03-.02,0-.04c0,.01,0,.02,0,.04Z"/><path class="uuid-800370c0-985e-4e61-8d3a-b8d3a5909451" d="M65.57,19.48s-.03-.03-.04-.05c.03,0,.04.02.04.05Z"/><path class="uuid-48922fc1-bd00-4295-8f8b-185cf34dd733" d="M57.71,10.98c.07.03.18-.06.22.07-.08,0-.17,0-.25,0,0-.03,0-.06.04-.07Z"/><path class="uuid-d9530e70-0539-4df1-88e5-3654f8dd3d96" d="M59.34,12.76s.06.03.07.07c-.04,0-.06-.03-.07-.07Z"/><path class="uuid-d9530e70-0539-4df1-88e5-3654f8dd3d96" d="M59.23,12.65s.05.03.06.06c-.04,0-.05-.02-.06-.06Z"/><path class="uuid-d9530e70-0539-4df1-88e5-3654f8dd3d96" d="M59.16,12.58s.02.02.03.03c0,0-.02-.02-.03-.03Z"/><path class="uuid-d9530e70-0539-4df1-88e5-3654f8dd3d96" d="M59.19,12.62s.02.02.03.03c0,0-.02-.02-.03-.03Z"/><path class="uuid-d9530e70-0539-4df1-88e5-3654f8dd3d96" d="M59.3,12.72s.03.01.03.03c-.01-.01-.02-.02-.03-.03Z"/><path class="uuid-59638c73-a1ff-462f-b166-a54427a9fade" d="M61.91,15.61c.2.02.33.15.36.37-.13-.11-.25-.23-.36-.37Z"/><path class="uuid-59638c73-a1ff-462f-b166-a54427a9fade" d="M62.34,16.04c.14-.01.17.08.18.19-.08-.04-.15-.1-.18-.19Z"/><path class="uuid-59638c73-a1ff-462f-b166-a54427a9fade" d="M62.61,16.33c.12,0,.17.06.17.18-.07-.04-.13-.1-.17-.18Z"/><path class="uuid-59638c73-a1ff-462f-b166-a54427a9fade" d="M61.8,15.5c.08,0,.11.03.11.11-.05-.02-.08-.06-.11-.11Z"/><path class="uuid-59638c73-a1ff-462f-b166-a54427a9fade" d="M62.82,16.55s.02.02.03.04c-.01-.01-.02-.02-.03-.04Z"/><path class="uuid-48922fc1-bd00-4295-8f8b-185cf34dd733" d="M62.46,11.56c-.04.23-.23.33-.38.47-.1.09-.21.17-.24.32,0,0,0,0,0,0-.13,0-.16.08-.18.18-.01.01-.03.02-.04.04-.11.03-.18.11-.22.21-.06.06-.12.12-.18.18-.05,0-.07.03-.07.07-.01.01-.03.03-.04.04-.12.05-.2.13-.25.25-.06.06-.12.12-.18.18-.07,0-.1.04-.11.11-.01.01-.03.02-.04.03-.04-.05-.04-.11-.03-.17,0,0,0,0,0,0,.01-.01.02-.02.03-.04.02-.02.05-.05.07-.07.01-.01.02-.03.03-.04.01-.01.02-.02.03-.04.01-.01.03-.02.04-.04,0,0,0,0,0,0,.17-.08.31-.2.37-.39.1-.12.2-.24.32-.33.01-.01.02-.02.03-.04,0,0,0,0,0,0,.04,0,.08,0,.12,0,0-.18.24-.22.24-.4,0,0,0,0,0,0,.01-.01.02-.02.03-.03.04-.06.09-.11.15-.15.1,0,.15-.04.14-.14,0,0,0,0,0,0,.01-.01.02-.02.03-.04,0,0,0,0,0,0,.14.01.15-.19.29-.18h0Z"/><path class="uuid-9e3f9ff4-f921-4581-995a-6c4d0f46f8c0" d="M62.02,15.43c-.2,0-.23-.15-.29-.29.12.07.22.16.29.29Z"/><path class="uuid-9e3f9ff4-f921-4581-995a-6c4d0f46f8c0" d="M63.18,16.23c-.03.1-.09.18-.21.18-.11,0-.14-.09-.15-.18.12.14.24.12.36,0Z"/><path class="uuid-9e3f9ff4-f921-4581-995a-6c4d0f46f8c0" d="M60.86,13.33c.05-.12.13-.2.25-.25-.05.11-.14.19-.25.25Z"/><path class="uuid-9e3f9ff4-f921-4581-995a-6c4d0f46f8c0" d="M62.82,16.22c-.1-.05-.23-.06-.22-.21.09.05.17.12.22.21Z"/><path class="uuid-9e3f9ff4-f921-4581-995a-6c4d0f46f8c0" d="M61.4,12.78c.04-.11.11-.18.22-.21-.04.1-.12.17-.22.21Z"/><path class="uuid-9e3f9ff4-f921-4581-995a-6c4d0f46f8c0" d="M61.66,12.53c.02-.1.05-.19.18-.18-.05.07-.09.15-.18.18Z"/><path class="uuid-9e3f9ff4-f921-4581-995a-6c4d0f46f8c0" d="M62.56,15.97c-.15.05-.15-.04-.15-.14.07.03.12.08.15.14Z"/><path class="uuid-9e3f9ff4-f921-4581-995a-6c4d0f46f8c0" d="M64.88,14.52c0,.09-.06.14-.15.15.03-.07.07-.12.15-.15Z"/><path class="uuid-3ddf8954-c40a-4a1d-8f02-c030d38e4ac4" d="M63.6,15.81c0,.09-.02.16-.13.13.03-.06.07-.1.13-.13Z"/><path class="uuid-3ddf8954-c40a-4a1d-8f02-c030d38e4ac4" d="M63.74,15.67c0,.1-.04.15-.14.14.03-.07.07-.12.14-.14Z"/><path class="uuid-9e3f9ff4-f921-4581-995a-6c4d0f46f8c0" d="M62.42,15.82c-.07,0-.1-.04-.11-.11.06.01.09.05.11.11Z"/><path class="uuid-9e3f9ff4-f921-4581-995a-6c4d0f46f8c0" d="M60.57,13.62c0-.07.04-.1.11-.11-.01.06-.05.09-.11.11Z"/><path class="uuid-9e3f9ff4-f921-4581-995a-6c4d0f46f8c0" d="M62.12,15.54c-.07,0-.1-.04-.11-.11.06.02.09.05.11.11Z"/><path class="uuid-9e3f9ff4-f921-4581-995a-6c4d0f46f8c0" d="M61.15,13.04s.03-.07.07-.07c0,.04-.03.07-.07.07Z"/><path class="uuid-9e3f9ff4-f921-4581-995a-6c4d0f46f8c0" d="M64.94,14.45s0,0,0,0,0,0,0,0Z"/><path class="uuid-d9530e70-0539-4df1-88e5-3654f8dd3d96" d="M61.8,12.11c0,.18-.23.22-.24.4-.04,0-.08,0-.12,0,.1-.15.23-.28.36-.39Z"/><path class="uuid-d9530e70-0539-4df1-88e5-3654f8dd3d96" d="M61.08,12.87c-.06.19-.2.3-.37.39.1-.15.23-.28.37-.39Z"/><path class="uuid-d9530e70-0539-4df1-88e5-3654f8dd3d96" d="M62.45,11.56c-.14,0-.14.2-.29.18.07-.12.17-.22.28-.3,0,.04,0,.08,0,.12Z"/><path class="uuid-d9530e70-0539-4df1-88e5-3654f8dd3d96" d="M62.13,11.78c0,.1-.04.15-.14.14.03-.06.08-.11.14-.14Z"/><path class="uuid-d9530e70-0539-4df1-88e5-3654f8dd3d96" d="M62.16,11.74s-.02.02-.03.04c.01-.01.02-.02.03-.04Z"/><path class="uuid-d9530e70-0539-4df1-88e5-3654f8dd3d96" d="M61.84,12.07s-.02.02-.03.03c.01-.01.02-.02.03-.03Z"/><path class="uuid-d9530e70-0539-4df1-88e5-3654f8dd3d96" d="M61.44,12.5s-.02.02-.03.04c.01-.01.02-.02.03-.04Z"/><path class="uuid-d9530e70-0539-4df1-88e5-3654f8dd3d96" d="M60.71,13.26s-.03.02-.04.04c.01-.01.03-.02.04-.04Z"/><path class="uuid-d9530e70-0539-4df1-88e5-3654f8dd3d96" d="M60.64,13.33s-.02.03-.03.04c.01-.01.02-.03.03-.04Z"/><path class="uuid-d9530e70-0539-4df1-88e5-3654f8dd3d96" d="M60.54,13.44s-.02.02-.03.04c.01-.01.02-.02.03-.04Z"/><path class="uuid-3ddf8954-c40a-4a1d-8f02-c030d38e4ac4" d="M63.55,16.15c-.02.05-.07.09-.11.11-.01-.09.03-.13.11-.11Z"/><path class="uuid-3ddf8954-c40a-4a1d-8f02-c030d38e4ac4" d="M63.86,15.82s-.06.09-.11.11c0-.08.03-.12.11-.11Z"/><path class="uuid-3ddf8954-c40a-4a1d-8f02-c030d38e4ac4" d="M63.3,16.41s-.02.05-.05.06c0-.03.02-.06.05-.06Z"/><path class="uuid-3ddf8954-c40a-4a1d-8f02-c030d38e4ac4" d="M63.65,16.04s-.03.03-.04.04c.01-.01.03-.03.04-.04Z"/><path class="uuid-3ddf8954-c40a-4a1d-8f02-c030d38e4ac4" d="M63.72,15.97s-.02.03-.03.04c.01-.01.02-.03.03-.04Z"/></g><path class="uuid-0b6a7256-190c-4207-9403-360dbe071901" d="M42.17,11.03c-.22-.68-.44-1.37-.67-2.05-.02-.05-.03-.11-.06-.16h0s-.02-.08-.03-.12c-.37-1.14-.74-2.28-1.11-3.43-.1-.31-.2-.62-.3-.93-.04-.11-.12-.17-.24-.17-.11,0-.2.06-.24.17,0,.01,0,.03-.01.04-.39,1.2-.78,2.39-1.16,3.59-.09.28-.18.56-.27.84h0s0,0,0,0c-.02,0-.04,0-.05,0-1.56,0-3.13,0-4.69,0-.02,0-.04,0-.05,0,0,0-.01,0-.02-.01,0-.02,0-.04-.01-.05-.47-1.44-.93-2.87-1.4-4.31-.01-.04-.02-.08-.04-.12-.04-.09-.12-.14-.22-.14-.1,0-.18.04-.23.14-.01.03-.02.05-.03.08-.47,1.45-.94,2.9-1.41,4.35,0,.02-.02.04-.02.07,0,0,0,0,0,0,0,.01-.01.02-.01.03-.17.51-.33,1.02-.5,1.53-.07.22-.14.45-.22.67-.03.08-.04.16-.02.24.02.15.1.26.22.35.66.47,1.31.95,1.96,1.43,1.42,1.03,2.84,2.07,4.26,3.1.02.01.03.03.05.03h0s.01,0,.01.01c0,0,.01.01.02.01h0s0,0,0,0h.02s0,0,0-.01c0,0,0,0,.01-.01.02,0,.04-.02.05-.03.6-.44,1.2-.87,1.81-1.31,1.29-.94,2.58-1.87,3.87-2.81.2-.14.39-.28.59-.43.11-.08.19-.19.2-.34,0,0,0-.01,0-.02v-.1s-.02-.1-.03-.14Z"/><g id="uuid-55ebbd51-4a75-4a15-be35-433a33efce14"><path class="uuid-659626f6-8cec-494b-b69b-b9385d2ddf1d" d="M42.18,11.27s0,.01,0,.02c-.01.14-.09.25-.2.34-.19.14-.39.29-.59.43-1.29.94-2.58,1.87-3.87,2.81-.6.44-1.2.87-1.81,1.31-.02.01-.03.03-.05.03,0,0,0-.01,0-.02.02,0,.03-.03.05-.05.1-.12.19-.25.29-.37.11-.14.22-.29.33-.43.08-.1.16-.21.24-.31.1-.13.2-.26.3-.39.09-.12.18-.23.27-.35.1-.13.2-.26.3-.39.08-.1.16-.21.24-.31.1-.13.2-.25.3-.38.11-.14.21-.28.32-.41.11-.14.22-.28.34-.43.11-.14.21-.28.32-.41.12-.16.25-.32.38-.48.12-.15.23-.29.34-.44.14-.18.29-.37.43-.55.14-.18.28-.36.42-.54.17-.22.34-.43.5-.65.11-.15.23-.29.34-.44,0,0,.01-.02.01-.03,0,0,.01,0,.02,0,.03.05.04.11.06.16.22.68.44,1.37.67,2.05.02.05.02.1.03.14v.1Z"/><path class="uuid-51d1b4bb-2ecc-4bfb-af07-db401bea602f" d="M35.65,16.21s0,0,0,.01h-.02s0,0,0,0c0,0,.01,0,.02,0Z"/><path class="uuid-b21e51a6-d266-4716-a171-783234123682" d="M35.65,16.21s-.01,0-.02,0c0,0,0,0,0,0,0-.02,0-.04-.01-.06-.04-.12-.08-.24-.12-.36-.1-.3-.2-.6-.29-.9-.04-.14-.09-.27-.13-.41-.09-.29-.19-.57-.28-.86-.05-.14-.09-.28-.14-.42-.1-.3-.2-.6-.29-.9-.04-.14-.09-.27-.13-.41-.09-.29-.19-.57-.28-.86-.05-.14-.09-.28-.14-.42-.1-.3-.19-.6-.29-.9-.08-.25-.16-.5-.24-.74-.02-.05-.04-.11-.05-.17.02,0,.04,0,.05,0,1.56,0,3.13,0,4.69,0,.02,0,.04,0,.05,0-.03.11-.07.22-.1.33-.04.14-.09.28-.13.41-.1.3-.19.6-.29.9-.04.14-.09.27-.13.41-.09.29-.19.58-.28.87-.04.14-.09.27-.13.41-.1.3-.19.6-.29.9-.04.14-.09.27-.13.41-.09.29-.19.58-.28.87-.04.14-.09.27-.13.41-.1.3-.19.6-.29.9-.06.17-.11.34-.17.52,0,.01-.02.03,0,.04,0,0,0,.01,0,.02,0,0,0,0-.01.01Z"/><path class="uuid-51d1b4bb-2ecc-4bfb-af07-db401bea602f" d="M33.24,8.81c0,.06.03.11.05.17.08.25.16.5.24.74.1.3.2.6.29.9.05.14.09.28.14.42.09.29.19.57.28.86.04.14.09.27.13.41.1.3.2.6.29.9.05.14.09.28.14.42.09.29.19.57.28.86.04.14.09.27.13.41.1.3.2.6.29.9.04.12.08.24.12.36,0,.02.02.04.01.06,0,0-.02,0-.02-.01,0,0,0-.01-.01-.01,0,0,0,0,0,0,0-.02-.01-.04-.03-.05-.08-.1-.16-.2-.24-.3-.16-.21-.33-.42-.49-.63-.14-.18-.28-.36-.42-.54-.14-.18-.28-.36-.42-.54-.17-.21-.34-.43-.5-.65-.14-.18-.28-.36-.42-.54-.13-.17-.27-.34-.4-.52-.17-.21-.33-.42-.5-.63-.13-.16-.25-.33-.38-.49-.14-.18-.28-.35-.41-.53-.1-.13-.2-.26-.3-.39-.08-.1-.16-.2-.23-.3-.1-.13-.2-.26-.3-.38-.09-.12-.18-.24-.28-.36-.1-.13-.2-.26-.31-.39-.03-.04-.06-.09-.1-.12,0,0,0,0,0,0,.57,0,1.14,0,1.71,0,.53,0,1.06,0,1.59,0,.02,0,.05,0,.07-.01,0,0,.01,0,.02.01Z"/><path class="uuid-51d1b4bb-2ecc-4bfb-af07-db401bea602f" d="M35.67,16.18s0-.03,0-.04c.06-.17.11-.34.17-.52.1-.3.19-.6.29-.9.04-.14.09-.27.13-.41.09-.29.19-.58.28-.87.04-.14.09-.27.13-.41.1-.3.19-.6.29-.9.04-.14.09-.27.13-.41.09-.29.19-.58.28-.87.04-.14.09-.27.13-.41.1-.3.19-.6.29-.9.04-.14.09-.28.13-.41.04-.11.07-.22.1-.33,0,0,0,0,0,0,0,0,0,0,0,0,.03,0,.05,0,.08,0,.68,0,1.36,0,2.03,0,.39,0,.79,0,1.18,0,.02,0,.04,0,.06,0,0,.01,0,.02-.01.03-.11.15-.23.29-.34.44-.17.22-.34.43-.5.65-.14.18-.28.36-.42.54-.14.18-.29.37-.43.55-.11.15-.23.29-.34.44-.13.16-.25.32-.38.48-.11.14-.21.28-.32.41-.11.14-.22.28-.34.43-.11.14-.21.28-.32.41-.1.13-.2.25-.3.38-.08.1-.16.21-.24.31-.1.13-.2.26-.3.39-.09.12-.18.23-.27.35-.1.13-.2.26-.3.39-.08.1-.16.21-.24.31-.11.14-.22.29-.33.43-.1.12-.19.25-.29.37-.01.02-.02.04-.05.05Z"/><path class="uuid-659626f6-8cec-494b-b69b-b9385d2ddf1d" d="M29.85,8.82s.07.08.1.12c.1.13.2.26.31.39.09.12.18.24.28.36.1.13.2.26.3.38.08.1.16.2.23.3.1.13.2.26.3.39.14.18.28.35.41.53.13.16.25.33.38.49.17.21.33.42.5.63.13.17.27.34.4.52.14.18.28.36.42.54.17.22.34.43.5.65.14.18.28.36.42.54.14.18.28.36.42.54.16.21.33.42.49.63.08.1.16.2.24.3.01.01.03.03.03.05-.02,0-.03-.02-.05-.03-1.42-1.03-2.84-2.06-4.26-3.1-.65-.48-1.31-.95-1.96-1.43-.12-.09-.2-.2-.22-.35-.01-.08,0-.16.02-.24.07-.22.14-.45.22-.67.17-.51.33-1.02.5-1.53,0-.01,0-.02.01-.03Z"/><path class="uuid-b21e51a6-d266-4716-a171-783234123682" d="M41.41,8.82s-.04,0-.06,0c-.39,0-.79,0-1.18,0-.68,0-1.36,0-2.03,0-.03,0-.05,0-.08,0,.09-.28.18-.56.27-.84.39-1.2.78-2.39,1.16-3.59,0-.01,0-.03.01-.04.04-.11.13-.17.24-.17.11,0,.2.06.24.17.1.31.2.62.3.93.37,1.14.74,2.28,1.11,3.43.01.04.03.08.03.12,0,0-.01,0-.02,0Z"/><path class="uuid-b21e51a6-d266-4716-a171-783234123682" d="M33.22,8.8s-.04.01-.07.01c-.53,0-1.06,0-1.59,0-.57,0-1.14,0-1.71,0,0-.02,0-.05.02-.07.47-1.45.94-2.9,1.41-4.35,0-.03.02-.06.03-.08.05-.09.13-.14.23-.14.1,0,.18.05.22.14.02.04.03.08.04.12.47,1.44.93,2.87,1.4,4.31,0,.02,0,.03.01.05Z"/><path class="uuid-659626f6-8cec-494b-b69b-b9385d2ddf1d" d="M35.6,16.19s.01,0,.01.01c0,0-.01,0-.01-.01Z"/></g></g><g id="uuid-526ad586-e89f-489f-b7f0-4f5bb8397965"><rect class="uuid-d22ce533-ebfe-4cfb-8289-d58715b55d87" x="26.36" y="24.34" width="31.58" height="20.51"/><path class="uuid-31948049-3d18-4a6e-8f64-6bd441db316f" d="M58.28,45.19H26.02v-21.19h32.27v21.19ZM26.7,44.51h30.9v-19.82h-30.9v19.82Z"/><rect class="uuid-d49c9912-d084-4f3a-9ded-2d02c9dfbdbc" x="30.4" y="25.82" width="26.32" height="14.83" rx="1.58" ry="1.58"/><rect class="uuid-b44420c6-5f69-4ee4-8335-a9b99ba774cf" x="27.33" y="34.69" width="10.82" height="8.46" rx=".77" ry=".77"/><path class="uuid-7b981a8e-b041-4e91-bcb6-b14313ef5967" d="M33.62,32.01s1.56-3.86,1.25-4.4-1.55-.34-1.55-.34l-1.46,3.35s.44,1.77,1.76,1.39Z"/><path class="uuid-31948049-3d18-4a6e-8f64-6bd441db316f" d="M33.62,32.01c.36-1.26.8-2.49,1.04-3.76.04-.24.07-.52,0-.58-.24-.24-.84-.24-1.3-.17l.17-.13c-.46.96-1.1,2.63-1.52,3.22.17.75.71,1.63,1.61,1.43h0ZM33.62,32.01c-.94.38-1.69-.58-1.92-1.4.45-1.2.96-2.37,1.46-3.55.65-.07,1.67-.21,1.94.59-.05,1.54-.87,2.97-1.49,4.35h0Z"/><path class="uuid-b878ac94-ed16-4b4a-844f-88154bdc8ba4" d="M37.4,24.5s-2.36,2.32-2.57,2.79-.16,1.8-.16,1.8c-.09.06-1.71,1.09-1.89,1.8-.19.78-.25,1.13-.26,1.36l-.29,5.75,6.15,3,7.29-3.16-3.73-14.7-4.54,1.36Z"/><path class="uuid-37682145-efd7-48cc-91ba-7ef2109096e4" d="M37.87,23.47c.67,2.42-.82,3.24-.82,7.99.97-3.57,2.43-2.24,2.37-.4,1.3.81.35,2.53.03,3.92-.01,1.99,1.52,2.11,3.66,1.67v-7.89s-5.23-5.29-5.23-5.29Z"/><polygon class="uuid-b44420c6-5f69-4ee4-8335-a9b99ba774cf" points="4.43 63.86 4.43 61.72 22.74 49.93 64.05 52.08 79.54 61.72 79.54 63.86 77.18 63.86 77.18 69.88 6.29 69.88 6.29 63.86 4.43 63.86"/><path class="uuid-31948049-3d18-4a6e-8f64-6bd441db316f" d="M79.24,61.72l-17.53-11.76-.06-.04H22.74l-18.44,11.6.12.19v2.13h1.87v6.02h70.88v-6.02h2.37v-2.13h-.31ZM22.87,50.38h38.64l16.91,11.34H4.85l18.02-11.34ZM76.5,69.2H6.97v-3.75h69.52v3.75ZM79.09,63.4H4.88v-1.23h74.21v1.23Z"/><polygon class="uuid-d22ce533-ebfe-4cfb-8289-d58715b55d87" points="64.28 39.89 64.52 28.36 80.95 25.63 80.95 43.23 64.28 39.89"/><path class="uuid-31948049-3d18-4a6e-8f64-6bd441db316f" d="M80.37,25.85l.34,17.11-16.21-3.25.24-11.16,15.97-2.65M80.72,25.14l-16.42,3.03-.25,11.91,17.13,3.44-.23-17.88-.23-.49Z"/><polygon class="uuid-31948049-3d18-4a6e-8f64-6bd441db316f" points="71.73 54.66 57.16 45.38 64.3 39.92 81.17 43.51 71.73 54.66"/><path class="uuid-31948049-3d18-4a6e-8f64-6bd441db316f" d="M37.42,24.36c-.79.84-1.6,1.7-2.32,2.61-.15.18-.19.35-.22.58-.06.48-.05.98-.02,1.47,0,0-.09.06-.09.06-1.05.68-1.94,1.37-2,2.69-.15,2.01-.23,4.07-.4,6.08,0,0-.07-.12-.07-.12,1.9,1.03,4.39,2.16,6.05,3.04,0,0,7.25-3.26,7.25-3.26l-.12.24c-.64-2.45-1.29-4.89-1.89-7.34-.63-2.45-1.18-4.91-1.77-7.37l.17.1c-1.51.43-3.03.84-4.57,1.24h0ZM37.4,24.32c1.53-.51,3.08-1.03,4.65-1.51,0,0,.04.14.04.14,1.35,4.87,2.6,9.77,3.79,14.68,0,0,.04.17.04.17l-.16.07-7.34,3.06c-2.09-.96-4.19-2.07-6.32-3.01.08-2.08.08-4.15.27-6.23.08-1.41,1.12-2.24,2.22-2.91,0,0-.08.15-.08.15,0-.48,0-.95.09-1.43.03-.23.13-.52.3-.7.77-.9,1.64-1.68,2.5-2.49h0Z"/><path class="uuid-b878ac94-ed16-4b4a-844f-88154bdc8ba4" d="M29.88,41.86l-.12-3.7c.07-.67.46-1.22,1.07-1.69,1.67.29,3.57.88,4.32.75,1.83-.25,2.31-1.48,3.69-2.15l2.38-.51c-.5.69-.09,1.03,1.2,1.04l-2.47,5.03-4.24,1.36-5.83-.12Z"/><path class="uuid-31948049-3d18-4a6e-8f64-6bd441db316f" d="M42.51,35.23c-.31-.08-.65-.11-.99-.04-.12.03-.25.08-.38.14.09-.17.17-.33.24-.5.03-.12-.04-.24-.16-.27-.31-.08-.65-.11-.99-.04-.27.07-.61.22-.79.46-.09-.09-.23-.16-.44-.16-1.1.14-1.68,1.1-2.3,1.88-.55.14-1.13.52-1.55.53-1.47.03-2.87-.75-4.32-.75-.89.36-1.37,1.4-1.2,2.37.22,1.68.08,3.48.17,5.19.31-1.65.44-3.55.21-5.3-.15-.67.19-1.74.89-2.06.23-.09.54,0,.81.05,1.31.18,2.59.95,3.93.71.34-.17,1.15-.3,1.34-.45.49-.57,1.39-1.83,2.15-1.64-.34.86-.85,1.76-1.24,2.63-.74.39-1.67.71-2.28,1.17.84-.32,1.76-.55,2.55-.96.35-.65.71-1.29,1.06-1.94.05-.08.09-.15.13-.21.07-.12.25-.43.31-.55.02-.05.05-.1.07-.16.29-.29.68-.38,1.1-.35-.22.52-.43,1.04-.61,1.58-.04.15-.11.33-.18.52-.24.48-.46.95-.64,1.43-.5.33-.9.76-1.2,1.29.42-.02,1.3-.87,1.54-1.29.03-.2.08-.39.14-.58.29-.46.59-.96.76-1.23.07-.12.25-.43.31-.55.02-.05.05-.1.07-.16.29-.29.68-.38,1.1-.35-.22.52-.43,1.04-.61,1.58-.16.55-.59,1.51-.67,1.84-.57.34-1,.82-1.33,1.39-.43-.24-1.26-.25-2.16-.15-.05-.03-.1-.07-.15-.08-.7-.32-1.5-.27-2.24-.18-.14-.27-.22-.56-.32-.84-.11-.11-.43-.06-.63-.06-.08-.25-.18-.49-.3-.72-.04.22.09.59.15.84.01.04.04.06.08.07.11,0,.48.02.58,0,.16.26.27.56.41.81.61.07,1.41.02,2.05.23-1.32.18-2.71.53-3.29.68l-2.41-1.54,2.11,1.71-.44,1.45,7.17-.39s.53-.69-.45-1.68c-.04-.04-.1-.08-.16-.11.43-.05,1.28-.87,1.51-1.28.22-1.33,1.1-2.46,1.64-3.67.03-.12-.04-.24-.16-.27Z"/><path class="uuid-7f5f2a69-2ce6-434f-8499-c1368364962c" d="M29.44,40.82s3.7-1.04,4.02.62.84,2.6.84,2.6l-5.6,1.45s-.74-3.13-.25-3.45.99-1.22.99-1.22Z"/><path class="uuid-31948049-3d18-4a6e-8f64-6bd441db316f" d="M29.43,40.8c1.22-.42,3.77-1.1,4.23.64.14.87.31,1.77.71,2.56.02.04,0,.09-.04.1-1.86.51-3.69,1.15-5.56,1.62-.13.04-.26-.04-.29-.18-.21-1.06-.48-2.15-.31-3.24.03-.12.06-.25.2-.37.44-.29.75-.69,1.07-1.13h0ZM29.45,40.84c-.21.46-.5.99-.93,1.33-.21,1.06.23,2.21.4,3.27,0,0-.29-.18-.29-.18,1.86-.5,3.77-.83,5.64-1.29,0,0-.04.1-.04.1-.41-.82-.73-1.67-.96-2.56-.07-.26-.2-.44-.42-.57-1-.49-2.32-.22-3.41-.1h0Z"/><path class="uuid-87e29028-f50c-406e-b186-93ac5892e460" d="M30.11,24.57c-.03-.05-.07-.15-.11-.23,0,.04.04.12.11.23Z"/><path class="uuid-87e29028-f50c-406e-b186-93ac5892e460" d="M54.45,28.27c.14-.07.36.08.38-.16.11-.13-.49-.65-.25-.99-.1.08-.2.16-.3,0-.06-.23.32-.72-.06-.89.02-.04.05-.05.07-.06-.1-.15-.32-.66-.53-.68.29-.21.08-.49-.13-.69-.21-.21-.42-.36-.15-.52-.11-.17-.23-.32-.35-.47l.06-.02c-.18-.33-.38-.34-.58-.35-.02-.09.07-.08.1-.1-.23-.5-.3-.53-.83-.65l.12-.17c-.16,0-.3-.79-.85-.98.02-.01.06-.04.11-.03-.57-.22-.75-1.38-1.39-.91-.15-.02-.28-.05-.44-.07.41.33-.24.23-.13.45-.18-.05-.33-.45-.09-.36l.02.05c.14-.14.01-.26-.14-.36-.15-.09-.32-.16-.26-.28-.96-.38-1.84-.77-2.74-.97l.05.32-.31-.07c-.07-.08-.07-.25.15-.2-.09-.19-.4.08-.41.14-.41-.19.23-.32.1-.35h-.19s.04.03.04.03c-.17.1-.2.23-.46.17-.16-.09-.06-.2-.12-.22,0-.02-.02-.03-.1-.02l-.39-.08.12.26c-.19.09-.37-.06-.22.23-.21-.46-1.44-.32-1.59-.46-.26.15-.5.13-.8.09.07.06.09.33-.15.28.03-.14.02-.22,0-.28-.01-.06-.06-.09-.15-.12-.16-.06-.36-.12-.46-.32.18.27-.81.02-.5.42-.23-.05,0-.21-.19-.34-.54.21-1.3-.05-2,.31.02.07.17.13.07.29-.16-.07-.33-.11-.51-.16-.12.1.08.42-.28.35.07.03.16.08.09.15-.17.06-.32.14-.47.24h0s-.48,0-.48,0l-.09.54-.43-.09v.39l.21.3c-.03.08-.06.15-.09.23l-.4.32.25.4c-.11.72-.11,1.46.03,2.21.06.04.1.08.17.12.06-.05.11-.12.17-.19l.19.45s.05.04.08.06l3.03,3.09c-1.2-1.18-2.73-2.44-2.73-2.44l2.55,2.6.06.27c-1.16-1.11-2.51-2.22-2.51-2.22l3.48,3.56s0,0,0,.01c-1.23-1.28-3.18-2.89-3.18-2.89l3.14,3.21s0,.06,0,.09c-.6-.53-1.06-.9-1.06-.9l1.04,1.06c0,.07-.01.14-.02.21,0-.01,0-.02,0-.03h0s0,.02,0,.03l-.49-.27.54,1.12-.64-.54.1.47.61.51s0,.06.01.09l-.62-.52.1.47.58.48c.01.08.03.17.04.26l-.72-.61.1.47.69.58c.02.09.03.17.05.26l-.74-.63.1.47.75.62c.4,1.65,1.13,3.24,2.47,4l-.02-.14c.22-.03.42-.12.67-.25l-.05-.18c.1-.1.28-.09.34-.05.04.05.27.13.46.13-.03.07-.13.05-.19,0,.45.45.99-.28,1.41.02.11-.07.18-.05.26,0,0,0-.02,0-.03.01.01,0,.03,0,.04,0,.05.03.1.07.15.09-.05-.04-.09-.08-.13-.09.08,0,.21-.04.33-.09l.07.2s.02,0,.03,0c.13.06.09-.1.01-.25.06-.04.11-.08.15-.13.13.32.31-.14.48.18.06-.17.61-.23.6-.58.01.04.05.06-.01.07.14.01.29.02.38-.11l.12.23c.07-.13.14-.27.2-.41.22.1.32.16.2.4.34-.41.32-.23.56-.63l.04.16c.13-.06.23-.35.36-.26.43.16,1.34-.68,2.08-1.07-.46-.21.43-.15.14-.39h.02c.09.06.15.09.19.19,0-.02,0-.03.01-.04,0-.01.02-.02.03-.03.26-.2.48-.24.47-.6.12.04.06.18.14.2,0-.04.02-.17.1-.17.08,0,.03.11.02.2.3-.38.03-.63-.22-.85.25-.08.29-.2.18-.43.13,0,.29-.07.19.19.11-.1.56-.78.3-.89.08-.02.08-.19.06-.24.1-.31.13-.35.16-.65l-.06.07c-.29-.17-.03-.25-.03-.5h.03c.3-.51-.08-.23.24-.75h-.2c-.42-.07.29-.44.13-.77l-.12.11c-.14-.17.6-.46.65-.65.04-.04.06.06.09.12.25-.47-.26-.06-.32-.4ZM37.05,24.53c.3.23.61.48.94.75.52.42,1,.84,1.43,1.29.23.23.44.46.62.68-1.08-1.11-2.63-2.42-3-2.72ZM40.59,28.16l.05.05s0,0,0,0c-.02-.02-.03-.04-.05-.06ZM40.9,29.03c-.06-.06-.12-.13-.18-.2l.19.16s0,.03,0,.04Z"/><path class="uuid-87e29028-f50c-406e-b186-93ac5892e460" d="M39.41,31.06s.02.08.03.11c0-.02,0-.03.01-.05-.02-.02-.02-.04-.04-.06Z"/><path class="uuid-87e29028-f50c-406e-b186-93ac5892e460" d="M39.44,30.81s0,.03,0,.05c.31.81.06,1.66-.09,2.49.45-.72.71-1.85.09-2.54Z"/><path class="uuid-87e29028-f50c-406e-b186-93ac5892e460" d="M39.44,30.81c0-.1.03-.2.04-.3,0-.37-.08-.77-.36-1.06-.22-.2-.53-.34-.81-.28-.03,0-.05.02-.08.03-.04.02-.09.02-.13.05,0,.01,0,.03,0,.04-.39.35-.79,1.36-.81,1.67.24-.18.54-.46.85-.55-.02.26-.05.53-.11.79v-.17s-.35.54-.35.54l-.46.49-.09,1.01c-.3.35-.65.64-1.07.83-.14,1.36,1.07,1.52,1.81.67.91-1.04,1.44-2.34,1.55-3.7-.01-.04-.02-.07-.04-.11.02.02.03.04.05.06ZM38.68,32.51c-.28.64-.64,1.26-1.1,1.75-.44.5-1.08.53-1.07-.12,1.28-.76,1.89-2.31,1.8-3.76,0-.08-.01-.16-.02-.24-.03-.25-.08-.5-.15-.74.05-.06.1-.13.15-.17.03,0,.07,0,.1,0,.05,0,.09.01.13.02,1.23.19.58,2.45.16,3.27Z"/><line class="uuid-04167ea1-2c05-457b-8383-b1ac70466d72" x1="33.45" y1="27.49" x2="37.85" y2="30.03"/><path class="uuid-31948049-3d18-4a6e-8f64-6bd441db316f" d="M40.05,33.51s-.06,0-.09-.01c-.18-.05-.28-.24-.23-.42.29-1.02-.07-1.58-.46-1.99-.13-.14-.12-.35.01-.48.14-.13.35-.12.48.01.45.48,1.01,1.27.62,2.65-.04.15-.18.25-.33.25Z"/><polygon class="uuid-31948049-3d18-4a6e-8f64-6bd441db316f" points="37.39 35.52 36.25 36.68 34.42 36.98 36 37.32 37.39 35.52"/><path class="uuid-31948049-3d18-4a6e-8f64-6bd441db316f" d="M23.9,75.59s5.12-3.63,12.24-1.79c7.12,1.84,7.58,2.47,7.58,2.47l-20.91-.04,1.09-.64Z"/><path class="uuid-7f5f2a69-2ce6-434f-8499-c1368364962c" d="M27.43,48.39l-.45,2.11-1.11.81.2,2.53-.73.96s-.99,3.57,0,4.68,2.38,2.41,2.81,2.41,4.03-1.04,4.18-1.27,1.18-1.06,1.18-1.06l-3.88-9.92-2.2-1.26Z"/><path class="uuid-31948049-3d18-4a6e-8f64-6bd441db316f" d="M27.45,48.43c-.17.83-.04,1.62-.33,2.26,0,0-1.07.87-1.07.87l.13-.28c.05.91.38,1.91.2,2.79-.24.32-.47.66-.72.98,0,0,.07-.14.07-.14-.29,1.59-1.19,3.63.16,4.93.6.66,1.25,1.31,2,1.78.27.19.46.06.74,0,1.07-.28,2.61-.93,3.39-1.2.36-.45.8-.81,1.22-1.18,0,0-.13.49-.13.49-.68-1.64-1.38-3.27-1.98-4.94-.61-1.67-1.2-3.34-1.74-5.04,0,0,.11.13.11.13-.65-.42-1.29-.93-2.05-1.44h0ZM27.41,48.35c.7.38,1.68.65,2.44,1.19.76,1.62,1.47,3.26,2.16,4.91.69,1.64,1.29,3.31,1.91,4.98.18.43-.54.75-.83,1.03-.08.08-.37.31-.44.39-.2.21-.27.19-.36.24-1.35.47-2.66.75-4.05.98-.21.03-.4-.09-.52-.17-.77-.53-1.39-1.2-2.06-1.84-.46-.39-.91-.99-.97-1.63-.18-1.31-.08-2.63.32-3.85.24-.33.5-.64.75-.97,0,0-.08.27-.08.27-.06-.86-.1-1.71-.12-2.57,0-.1.05-.19.13-.24l1.16-.75-.09.14c.2-.76.47-1.48.66-2.1h0Z"/><path class="uuid-31948049-3d18-4a6e-8f64-6bd441db316f" d="M26.07,53.84c.61,1.55,1.08,3.11,1.95,4.51.29.45.65.86,1.19,1.05-2.18-.3-2.98-3.71-3.14-5.56h0Z"/><path class="uuid-31948049-3d18-4a6e-8f64-6bd441db316f" d="M26.98,50.5c.76,2.33,1.24,4.7,2.4,6.84.4.65.89,1.32,1.73,1.49-3.2-.03-4.15-5.83-4.12-8.32h0Z"/><path class="uuid-7f5f2a69-2ce6-434f-8499-c1368364962c" d="M41.44,40.94c-.98-.34-2.52-.33-4.56,0-.3-.15-.54.04-.71.51-1.04-.04-2.3-.04-3.75,0,0,0-4.36,1.83-4.72,3.87s-.5,3.67.52,5.61c1.67,2.35,6.62,9.23,5.78,11.44.53,2.61-1.37,3.5-1.37,3.5.59.28.99.82,1.16,1.68-1.01.55-1.95,1.32-2.84,2.34-.06.81.28,1.48,1.52,1.82-1.5.04-2.5.6-3.05,1.61,0,0,5.47,2.83,7.37,2.83s21.44-.11,22.53-1.28,3.19-12.62,3.19-12.62c0,0,4.16,1.52,4.96,1.38s3.06-4.38,3.06-4.38c-1.19-3.58-2.58-7.4-4.76-12.17l-.59-1.53c-.55-1.69-1.01-3.55-2.56-3.42l-1.7-1.39c-1.81-.25-1.98,0-1.98,0l-.92-.28c-.92-.03-3.47-1.22-3.63-.19l-12.96.65Z"/><path class="uuid-31948049-3d18-4a6e-8f64-6bd441db316f" d="M41.44,40.97c-1.51-.45-3.09-.11-4.61.08-.25-.14-.44.15-.54.45-.02.05-.07.09-.12.09-1.16-.05-2.77.05-3.68.04-.9.4-1.79.88-2.6,1.44-.79.56-1.61,1.22-1.92,2.08-.42,1.86-.52,3.96.48,5.68,1.8,2.5,3.86,5.35,5.2,8.3.42,1.07.96,2.14.62,3.36,0,0,.01-.16.01-.16.32,1.43-.16,3.1-1.54,3.8,0,0,0-.48,0-.48.73.33,1.15,1.12,1.28,1.87.02.11-.03.21-.12.26-1.06.56-2,1.35-2.8,2.26l.05-.12c-.12.88.57,1.43,1.37,1.62.22.04.16.38-.05.37-1.15,0-2.35.43-2.91,1.5,0,0-.07-.22-.07-.22,2.41,1.13,4.86,2.65,7.54,2.87,6.34-.1,12.74-.16,19.05-.75,1.01-.17,2.28-.12,3.1-.66.33-.54.51-1.21.7-1.82.96-3.48,1.63-7.07,2.3-10.63.03-.18.21-.3.38-.26,1.56.49,3.24,1.24,4.85,1.35,1.17-1.08,1.97-2.81,2.79-4.2,0,0-.02.28-.02.28-1.01-3.06-2.11-6.08-3.37-9.04-.6-1.31-1.39-3.14-1.88-4.48-.49-1.23-.69-3.44-2.3-3.44-.08,0-.15-.02-.21-.06l-1.69-1.41.14.06c-.48-.07-.97-.14-1.45-.13-.1,0-.21.02-.31.04,0-.01-.08.06.02-.04,0,0-.28.1-.28.1l-.91-.29h.06c-.38-.02-.69-.11-1.01-.2-.55-.11-1.31-.42-1.85-.42-.31-.02-.55.04-.56.24,0,.1-.09.17-.19.17-3.23.15-9.74.38-12.98.48h0ZM41.45,40.9c3.23-.22,9.72-.64,12.95-.82,0,0-.19.17-.19.17.28-1.17,2.17-.33,2.93-.2.33.09.66.16.96.19,0,0,.92.27.92.27l-.28.1c.16-.16.17-.12.24-.16.65-.16,1.33-.04,1.98.02.05,0,.1.03.14.06,0,0,1.71,1.38,1.71,1.38,0,0-.21-.06-.21-.06.96-.13,1.78.69,2.12,1.49,1.9,5.39,4.76,10.57,6.13,16.09-.96,1.59-1.63,3.28-3.11,4.48-.41.16-.63.05-.86.03-1.54-.31-3-.86-4.47-1.38,0,0,.43-.25.43-.25-.69,3.58-1.4,7.15-2.44,10.66-.3.74-.42,1.82-1.16,2.25-2.78.77-5.7.63-8.55.82-4.51.17-9.12.2-13.64.21-2.76-.18-5.22-1.68-7.69-2.79-.08-.04-.11-.14-.07-.21.58-1.18,1.94-1.72,3.19-1.73,0,0-.05.37-.05.37-.44-.12-.89-.29-1.24-.65-.37-.37-.56-1.02-.39-1.49.81-.95,1.77-1.8,2.88-2.42l-.12.26c-.13-.65-.47-1.24-1.03-1.48-.13-.06-.19-.21-.14-.35.03-.06.08-.11.14-.14,1.11-.61,1.48-2.02,1.2-3.2.26-.99-.19-2.13-.61-3.07-1.38-2.95-3.25-5.64-5.11-8.31-1.02-1.86-.92-4.04-.43-6.06.41-1.05,1.29-1.69,2.11-2.27.87-.57,1.78-1.08,2.75-1.46,1.25-.03,2.51-.04,3.76.04l-.13.09c.1-.35.47-.81.88-.57,1.15-.2,3.15-.41,4.52.06h0Z"/><path class="uuid-7f5f2a69-2ce6-434f-8499-c1368364962c" d="M37.68,40.79c0-.66,1.89-1.02,1.89-1.02,0,0-.01-1.65,1.09-1.9s11.15-2.79,12.32-2.79,4.39,5.68,4.39,5.68c-.58,2.41-5.16,3.45-6.85,4.9,0,0-2.19-1.4-2.99-1.4h-2.55s-2.51-2.74-2.28-2.09c-1.88-1.31-5.02-.72-5.02-1.38Z"/><path class="uuid-31948049-3d18-4a6e-8f64-6bd441db316f" d="M37.64,40.79c.2-.76,1.27-.87,1.92-1.09,0,0-.05.06-.05.06-.03-1.02.41-2.03,1.53-2.17,3.56-1.07,7.18-1.92,10.86-2.51.41-.03,1.06-.27,1.44-.02,1.16.84,1.87,2.1,2.69,3.24.5.82,1.2,1.61,1.54,2.5-.98,2.95-4.68,3.35-6.82,5.12-.12.1-.29.11-.42.03-.9-.52-1.82-1.16-2.79-1.36-.84,0-1.74,0-2.58-.03-.54-.26-.85-.92-1.31-1.32-.24-.27-.69-.77-.97-.98,0-.03-.07.02.11-.03.13-.12.07-.13.08-.16h0s0,.11,0,.11c0,.1-.09.17-.19.17-.73-.48-1.58-.82-2.49-.96-.65-.12-1.32-.14-1.98-.25-.2-.06-.5-.07-.56-.36h0ZM37.71,40.79c.04.19.31.23.51.27.66.09,1.32.1,1.99.18.89.09,1.79.28,2.6.77l-.3.22c-.02-.11-.09-.18.09-.33.24-.07.24.02.29.02.2.12.36.26.53.4.61.53,1.23,1.15,1.79,1.73,0,0-.23-.1-.23-.1.71-.02,1.49-.03,2.2-.03.24-.01.61,0,.83.08,1,.33,1.83.83,2.71,1.37,0,0-.43.03-.43.03,2.13-1.76,5.67-1.99,6.88-4.67-.85-1.12-2.23-4.3-3.94-5.42-.09-.06-.17-.06-.27-.08-1.26.16-2.47.54-3.7.84-2.69.72-5.4,1.36-8.13,1.89-.46.08-.85.15-1.11.55-.24.36-.35.82-.38,1.27-.17.17-.79.17-1.13.36-.31.14-.74.3-.79.67h0Z"/><path class="uuid-31948049-3d18-4a6e-8f64-6bd441db316f" d="M40.88,40.38c3.64-2,7.83.25,11.65-.02.31-.03.95-.07,1.04-.35,0-.13.01-.27.03-.4.03-.12,0-.26.04-.16-.05-.04-.49-.07-.6-.08-2.85.06-6.08.97-8.73-.57,2.81,1.31,5.82.22,8.76.16.31.04.52-.03.84.16.2.18.13.36.12.54-.02.29-.02.68-.29.82-.35.25-.78.28-1.18.32-2.03.06-3.99-.35-5.91-.74-1.89-.34-3.97-.53-5.77.31h0Z"/><path class="uuid-31948049-3d18-4a6e-8f64-6bd441db316f" d="M56.46,40.75c-3,2.36-6.8,3.88-10.54,3.5,3.63-.89,6.99-2.25,10.54-3.5h0Z"/><path class="uuid-31948049-3d18-4a6e-8f64-6bd441db316f" d="M62.63,42.14c.55,1.71,1.01,3.69.36,5.41.02-1.79-.43-3.61-.36-5.41h0Z"/><path class="uuid-31948049-3d18-4a6e-8f64-6bd441db316f" d="M65.23,45.57c.33,1.64-.06,3.19-.65,4.68-.34,1.56-.32,3.19-1,4.68-.44.92-1.11,2.14-2.14,2.47.51-.93.91-1.85,1.24-2.84.48-1.43,1.32-2.86,1.61-4.37.06-1.59.16-3.13.85-4.63.02-.04.08-.04.09,0h0Z"/><path class="uuid-31948049-3d18-4a6e-8f64-6bd441db316f" d="M66.09,47.55c-.22,2.84-1.34,9.87-4.85,10.17,3.06-.73,4.02-7.46,4.85-10.17h0Z"/><path class="uuid-31948049-3d18-4a6e-8f64-6bd441db316f" d="M40.63,44.48c-1.68-.61-3.53-1.47-4.49-3.04,1.4,1.12,3.11,1.88,4.49,3.04h0Z"/><path class="uuid-31948049-3d18-4a6e-8f64-6bd441db316f" d="M35.91,45.46c-.14.27-.5.27-.76.23-1.33-.32-2.43-1.48-2.81-2.78-.15-.53-.15-1.11.07-1.61-.07,1.6.97,2.88,2.15,3.8.38.25.91.66,1.35.35h0Z"/><path class="uuid-31948049-3d18-4a6e-8f64-6bd441db316f" d="M32.95,71.87c1.66.14,3.27.41,4.91.26.53-.06,1.06-.2,1.47-.6-1.24,1.82-4.65,1.02-6.38.34h0Z"/><path class="uuid-31948049-3d18-4a6e-8f64-6bd441db316f" d="M33.94,60.67c.64,1.54,1.14,3.09,2.04,4.48.3.44.67.85,1.21,1.02-2.19-.26-3.06-3.65-3.25-5.5h0Z"/><path class="uuid-31948049-3d18-4a6e-8f64-6bd441db316f" d="M33.68,76.23l6.5-27.33,1.58-1.56s16.59-3.44,19.75,1.56c3.17,5,.5,26.75.5,26.75l-28.34.58Z"/><path class="uuid-796181ab-89b6-4cdd-82fb-4024471262e2" d="M36.79,76.23l6.5-27.33,1.58-1.56s16.59-3.44,19.75,1.56.5,26.75.5,26.75l-28.34.58Z"/><path class="uuid-31948049-3d18-4a6e-8f64-6bd441db316f" d="M36.75,76.26c1.35-6.38,3.03-14.16,4.5-20.53.57-2.34,1.12-4.69,1.72-7.01,0,0,.07-.07.07-.07,0,0,1.61-1.53,1.61-1.53,3.91-.83,8.02-1.11,12.04-1.06,9.17.18,9.37,3.72,9.83,11.78.17,6.11-.25,12.21-.97,18.28-8.14.21-20.57.14-28.8.14h0ZM36.82,76.2c8-.36,20.39-.87,28.29-1.03,0,0-.46.42-.46.42.76-7.8,1.72-15.8.73-23.61-.27-1.92-.98-3.85-2.94-4.59-5.57-2.03-11.83-.8-17.5.26,0,0,.16-.08.16-.08l-1.55,1.59s.1-.17.1-.17c-.49,2.26-1.03,4.51-1.56,6.76-1.5,6.09-3.65,14.39-5.25,20.46h0Z"/><polygon class="uuid-d22ce533-ebfe-4cfb-8289-d58715b55d87" points="25.16 46.39 8.45 50.95 8.45 11.4 25.16 15.9 25.16 46.39"/><path class="uuid-31948049-3d18-4a6e-8f64-6bd441db316f" d="M8.11,51.39V10.96l17.4,4.68v31.02l-17.4,4.74ZM8.79,11.85v38.66l16.04-4.37v-29.97l-16.04-4.31Z"/><path class="uuid-31948049-3d18-4a6e-8f64-6bd441db316f" d="M23.71,55c.6-.47.92-1.08.91-1.8,0-.59-.26-1.16-.72-1.64-.28-.29-.6-.52-.96-.7.06-.02.11-.04.17-.07.13-.07.23-.17.31-.24.04-.04.08-.08.12-.11.23-.16.21-.43.2-.51,0-.04-.01-.09-.02-.12.18-.11.35-.27.48-.48l.03-.04s.03-.05.04-.08c.11-.23.11-.47.01-.68-.1-.21-.29-.36-.53-.43-.2-.05-.41-.04-.62.04-.1-.24-.23-.44-.39-.62-.77-.83-1.78-1.13-2.9-.85-.94.23-1.6.82-1.91,1.7-.11.3-.16.6-.16.9-.26-.15-.55-.2-.82-.13-.3.07-.55.28-.7.58-.3.6-.68,1.4-.9,2.27-.11.44-.21,1.01-.03,1.62.2.67.5,1.13.94,1.47.08.06.18.1.26.16-.18.09-.28.19-.28.3,0,.46,1.89.83,4.22.83s4.22-.37,4.22-.83c0-.2-.36-.39-.97-.53ZM21.86,49.04h0s0,0,0,0c0,0,0,0,0,0Z"/><polygon class="uuid-2e7b6b28-d463-4a26-85b3-1563798a8510" points="23.04 49.93 23.04 49.93 23.04 49.93 23.04 49.93"/><path class="uuid-2e7b6b28-d463-4a26-85b3-1563798a8510" d="M23.27,49.9c-.07-.16-.23-.25-.41-.23.04.06.12.09.13.17h0s.07.05.05.1c.04,0,.06.06.11.04,0-.01.02-.01.03,0,0,0-.01,0-.02.01-.07.07-.17.06-.26.07-.18.02-.35-.03-.52-.06-.11-.04-.21-.03-.32.02-.2.09-.4.13-.61.08-.1-.02-.19-.08-.29-.12.01.06.04.1.07.12,0,0,.02.02.02.03,0,0,0,0,0,0,.03.06.08.09.14.11.16.07.33.08.5.08.29.06.58.11.88.1.1,0,.2-.03.29-.13-.42.03-.79-.17-1.21-.14.14-.07.26-.05.38-.03.17.02.34.05.51.08.02,0,.03,0,.05,0,.01-.02.02-.01.02,0,.12.01.23,0,.34-.05.11-.05.15-.16.11-.25Z"/><path class="uuid-3216a37f-0de3-421d-8d28-d63a9435f85c" d="M22.33,49.17s.03-.03.05-.02c-.01.02-.03.02-.05.02Z"/><path class="uuid-3216a37f-0de3-421d-8d28-d63a9435f85c" d="M22.79,50.2s.02-.01.02,0c0,0-.02,0-.02,0Z"/><path class="uuid-dce35825-94c5-4478-b138-e7fb523cb2f6" d="M21.23,50.1s.02.02.02.03c0,0-.02-.02-.02-.03Z"/><path class="uuid-fdaa02ef-d4bd-4c1c-88e7-3ea1c4322b6f" d="M18.69,50.76s-.02-.02-.04-.03c.01,0,.02.02.04.03Z"/><polygon class="uuid-9c7b2d18-233b-4999-88d3-a02a5cad2cf8" points="19.55 51.12 19.56 51.13 19.55 51.12 19.55 51.12"/><polygon class="uuid-9c7b2d18-233b-4999-88d3-a02a5cad2cf8" points="19.55 51.12 19.55 51.12 19.55 51.12 19.55 51.12"/><path class="uuid-31948049-3d18-4a6e-8f64-6bd441db316f" d="M23.68,51.81c-.34-.35-.73-.6-1.19-.76-.14-.05-.29-.11-.38-.25.12-.06.23-.13.32-.22.05-.05.11-.07.19-.05.12.03.24,0,.35-.05.15-.08.25-.23.39-.33.06-.04.06-.12.05-.19,0-.12-.08-.21-.16-.3.03,0,.04-.01.05-.02.28-.13.53-.29.67-.59.13-.27,0-.53-.28-.61-.14-.04-.27-.02-.4.04-.11.05-.21.1-.33.16-.09-.33-.22-.63-.45-.87-.7-.75-1.56-.99-2.55-.74-.8.2-1.38.69-1.66,1.47-.23.64-.17,1.28.19,1.87.01.02.02.03.03.05,0,.01.02.02,0,.03,0,0-.01-.01-.02-.02-.01-.01-.02-.02-.04-.03-.06-.07-.12-.13-.18-.2-.18-.21-.37-.41-.6-.57-.4-.28-.86-.18-1.08.26-.36.7-.68,1.43-.87,2.2-.12.47-.17.95-.03,1.43.15.5.38.96.81,1.28.37.28.79.45,1.24.56.59.13,1.18.15,1.78.16.37,0,.74.04,1.11,0,.36-.04.72-.07,1.08-.13.52-.08,1.03-.19,1.49-.46.66-.38,1.09-.94,1.08-1.73,0-.53-.24-1-.62-1.39ZM23.16,54.64c-.54.34-1.13.52-1.76.61-.98.14-1.97.14-2.95.05-.43-.04-.86-.13-1.27-.28-.75-.28-1.15-.85-1.33-1.6-.14-.56-.03-1.1.11-1.65.18-.69.5-1.31.84-1.92.12-.22.35-.29.61-.22.17.05.31.16.43.29.26.27.51.55.78.8h0s.02.02.03.02h0s.02.02.04.02c.22.16.47.28.73.35.04.01.08.02.13.01-.09-.08-.2-.12-.29-.18-.43-.27-.73-.63-.89-1.1-.02-.05-.04-.11-.03-.16-.1-.33-.08-.66.01-.98.23-.81,1.11-1.52,1.95-1.62,1-.12,2,.4,2.4,1.2.06.12.11.24.14.36.03.07-.03.05-.06.05-.08.01-.16-.02-.24-.03l-.21-.04c-.08.03-.14.07-.2.13h0s0,0,0,0c-.05.05-.1.1-.13.16-.02.03-.04.06-.06.08h0s0,0,0,0l-.15.13s-.06.03-.09.05c-.13.06-.26.12-.38.18-.19.1-.32.25-.29.48.03.22.13.4.35.48.19.08.4.09.61.11.12.01.25.03.4.04-.17.2-.38.3-.59.42.01.02.04.02.05.01.15-.11.24-.03.33.08.09.1.23.13.34.21.81.28,1.29.87,1.55,1.66.11.35.02.67-.13.99-.17.35-.44.6-.76.8Z"/><path class="uuid-31948049-3d18-4a6e-8f64-6bd441db316f" d="M19.85,51.98c-.18-.27-.41-.47-.75-.5-.19-.02-.37.01-.54.08-.31.12-.63.16-.96.19-.23.02-.35-.12-.2-.11-.12-.13-.24-.24-.38-.34-.12-.08-.25-.1-.37,0-.45.33-.48.68-.13,1.09.06.07.15.13.22.19,0,0,0,0,0,0,.01.02.03.03.06.04.13.1.27.17.43.22.31.11.6.26.84.5.04.04.07.09.11.13l-.02.02c-.24-.23-.53-.39-.84-.49-.31-.1-.58-.27-.83-.49-.03.1-.01.18.02.26.15.28.4.45.67.59,0,0,0,0,0,0,0,.01.02.03.03.04-.16-.01-.27-.12-.41-.19,0,.06.04.1.06.15,0,.01,0,.03.03.03h-.01s0,.01,0,.01c.2.4.52.66.93.82.48.18.96.16,1.42-.05,0,0,0,0,0,0,.02,0,.04-.02.06-.03.15-.04.27-.14.42-.2-.16.2-.55.4-.86.45-.24.04-.48.05-.72.03-.02,0-.03,0-.05,0,0,0-.01,0-.02,0-.58-.15-1.05-.45-1.32-1-.1-.2-.15-.41-.3-.58-.05-.06-.08-.16-.06-.24.03-.1,0-.16-.06-.24-.22-.37-.23-.79.27-1.11.31-.13.44-.1.67.14.05.05.1.1.14.15.11.16.26.18.44.15.15-.03.31-.08.45-.14.31-.12.63-.19.96-.1.26.06.46.21.58.46.02.04.06.08.02.13Z"/><path class="uuid-63111c49-d247-4dad-a984-cb000eb355c0" d="M24.05,52.85c-.26-.79-.74-1.38-1.55-1.66-.11-.07-.25-.11-.34-.21-.1-.11-.19-.19-.33-.08,0,0-.04,0-.05-.01.2-.12.42-.21.59-.42-.15-.02-.27-.03-.4-.04-.21-.02-.41-.03-.61-.11-.22-.09-.33-.26-.35-.48-.03-.23.09-.38.29-.48.13-.07.25-.13.38-.18.13-.06.23-.14.31-.26.08-.14.2-.24.34-.3.06-.02.1.02.14.04.1-.03.2.03.3.02.03,0,.09.03.06-.05-.04-.13-.09-.24-.14-.36-.4-.8-1.39-1.32-2.4-1.2-.83.1-1.72.81-1.95,1.62-.09.32-.11.65-.01.98-.01.06.01.11.03.16.16.48.47.84.89,1.1.1.06.21.1.29.18-.04,0-.08,0-.13-.01-.27-.07-.51-.19-.73-.35-.01,0-.02-.02-.04-.03h0s-.02-.01-.03-.02c0,0,0,0,0,0-.28-.25-.53-.53-.78-.8-.12-.13-.26-.23-.43-.29-.26-.08-.49,0-.61.22-.34.61-.67,1.23-.84,1.92-.14.54-.24,1.09-.11,1.65.18.75.58,1.32,1.33,1.6.41.15.83.24,1.27.28.99.09,1.97.09,2.95-.05.62-.09,1.22-.26,1.76-.61.32-.2.6-.45.76-.8.15-.31.25-.64.13-.99Z"/><path class="uuid-fdaa02ef-d4bd-4c1c-88e7-3ea1c4322b6f" d="M18.66,50.73s-.02-.02-.03-.03c0,0,.02.02.03.03Z"/><path class="uuid-fdaa02ef-d4bd-4c1c-88e7-3ea1c4322b6f" d="M16.6,53.14s-.04-.02-.06-.04c.03-.01.05,0,.06.04Z"/><path class="uuid-fdaa02ef-d4bd-4c1c-88e7-3ea1c4322b6f" d="M19.08,54.66s-.04.02-.06.03c.01-.03.04-.03.06-.03Z"/><path class="uuid-fdaa02ef-d4bd-4c1c-88e7-3ea1c4322b6f" d="M16.67,53.91s-.03-.01-.03-.03c.02,0,.03.01.03.03Z"/><path class="uuid-9c7b2d18-233b-4999-88d3-a02a5cad2cf8" d="M23.15,49.97s.02-.01.03,0c0,0-.01,0-.02.01,0,0,0,0-.01-.01Z"/><path class="uuid-2e7b6b28-d463-4a26-85b3-1563798a8510" d="M23.48,48.59c-.16,0-.3.05-.42.13h0c-.25.06-.43.02-.61-.02,0,0,0,0,0,0-.05-.02-.16,0-.18,0-.13.08-.22.2-.3.33-.08.13-.19.22-.33.28-.1.04-.19.09-.29.13-.1.05-.19.12-.24.21-.02.04-.03.08-.03.11h0s-.02.23.15.39,1.32.29,1.32.29c.12,0,.23,0,.33-.02,0,0,.38-.21.38-.37,0-.17-.11-.36-.43-.36.1.16.15.31.03.43-.51.03-.72-.06-.91-.15h0s.1-.05.14-.07c.24-.14.46-.31.66-.52.11-.12.22-.24.35-.34.15-.12.3-.22.5-.24.05,0,.09-.01.13.04-.03,0-.05,0-.07,0-.07-.03-.13.02-.19.04-.31.15-.53.4-.75.66.03.03.06.04.09.03.42.04.76-.13.99-.47.2-.29.05-.52-.3-.52Z"/><ellipse class="uuid-31948049-3d18-4a6e-8f64-6bd441db316f" cx="21" cy="47.79" rx=".39" ry=".69" transform="translate(-19.47 14.81) rotate(-27.1)"/><ellipse class="uuid-31948049-3d18-4a6e-8f64-6bd441db316f" cx="22.22" cy="47.38" rx=".25" ry=".53" transform="translate(-14.16 9.76) rotate(-18.92)"/><polygon class="uuid-94017d58-0f68-4b55-93bb-d121bcdc8add" points="14.91 47.81 9.46 49.31 9.46 12.44 14.74 13.84 14.91 47.81"/><line class="uuid-9ac551d4-056a-4e2d-accf-60ac53b1fcd5" x1="16.15" y1="14.47" x2="23.84" y2="16.57"/><line class="uuid-8537cbc4-2b3b-42f6-83a8-902ba19b5e12" x1="18.18" y1="16.89" x2="23.83" y2="18.07"/><line class="uuid-041b137d-a2cf-483c-88ab-2d98ee73a5b5" x1="19.46" y1="18.85" x2="23.79" y2="19.62"/><line class="uuid-9ac551d4-056a-4e2d-accf-60ac53b1fcd5" x1="16.18" y1="20.09" x2="23.83" y2="21.22"/><line class="uuid-8537cbc4-2b3b-42f6-83a8-902ba19b5e12" x1="18.29" y1="22.06" x2="23.93" y2="22.67"/><line class="uuid-041b137d-a2cf-483c-88ab-2d98ee73a5b5" x1="19.52" y1="23.86" x2="23.83" y2="24.26"/><line class="uuid-9ac551d4-056a-4e2d-accf-60ac53b1fcd5" x1="16.05" y1="25.31" x2="23.79" y2="25.83"/><line class="uuid-8537cbc4-2b3b-42f6-83a8-902ba19b5e12" x1="18.16" y1="27.02" x2="23.88" y2="27.33"/><line class="uuid-041b137d-a2cf-483c-88ab-2d98ee73a5b5" x1="19.82" y1="28.64" x2="23.78" y2="28.77"/><path class="uuid-31948049-3d18-4a6e-8f64-6bd441db316f" d="M18.23,36.22l-7.4.33c-.28.01-.51-.21-.51-.49v-5.86c0-.27.22-.49.49-.49l7.4.13c.27,0,.48.22.48.49v5.41c0,.26-.2.47-.46.49Z"/><line class="uuid-fc38172a-c52a-4b3c-969f-991755316698" x1="11.06" y1="31.25" x2="17.61" y2="31.29"/><line class="uuid-fc38172a-c52a-4b3c-969f-991755316698" x1="11.06" y1="32.13" x2="16.25" y2="32.11"/><line class="uuid-fc38172a-c52a-4b3c-969f-991755316698" x1="11.06" y1="33.05" x2="15.59" y2="32.95"/><circle class="uuid-f0a68123-22a2-41fd-aec3-35362fe47386" cx="11.06" cy="30.17" r=".14"/><circle class="uuid-f0a68123-22a2-41fd-aec3-35362fe47386" cx="11.61" cy="30.17" r=".14"/><circle class="uuid-f0a68123-22a2-41fd-aec3-35362fe47386" cx="12.16" cy="30.17" r=".14"/><line class="uuid-fc38172a-c52a-4b3c-969f-991755316698" x1="10.02" y1="13.7" x2="14.28" y2="14.67"/><line class="uuid-fc38172a-c52a-4b3c-969f-991755316698" x1="10" y1="14.57" x2="14.2" y2="15.45"/><line class="uuid-fc38172a-c52a-4b3c-969f-991755316698" x1="10.05" y1="15.52" x2="13.98" y2="16.32"/><line class="uuid-fc38172a-c52a-4b3c-969f-991755316698" x1="10.06" y1="16.47" x2="14.33" y2="17.29"/><line class="uuid-fc38172a-c52a-4b3c-969f-991755316698" x1="10.04" y1="17.35" x2="14.03" y2="18.08"/><line class="uuid-fc38172a-c52a-4b3c-969f-991755316698" x1="10.09" y1="18.29" x2="13.94" y2="18.94"/><path class="uuid-31948049-3d18-4a6e-8f64-6bd441db316f" d="M23.76,42.61l-7.76,1.24c-.18.03-.35-.11-.35-.3v-6.1c0-.16.13-.3.3-.3l7.76-.19c.17,0,.31.13.31.3v5.06c0,.15-.11.28-.26.3Z"/><line class="uuid-fc38172a-c52a-4b3c-969f-991755316698" x1="16.52" y1="38.58" x2="22.96" y2="38.23"/><line class="uuid-fc38172a-c52a-4b3c-969f-991755316698" x1="16.52" y1="39.51" x2="21.64" y2="39.14"/><line class="uuid-fc38172a-c52a-4b3c-969f-991755316698" x1="16.58" y1="40.44" x2="20.91" y2="40.04"/><circle class="uuid-f0a68123-22a2-41fd-aec3-35362fe47386" cx="16.38" cy="37.57" r=".14"/><circle class="uuid-f0a68123-22a2-41fd-aec3-35362fe47386" cx="16.94" cy="37.54" r=".14"/><circle class="uuid-f0a68123-22a2-41fd-aec3-35362fe47386" cx="17.48" cy="37.51" r=".14"/><polygon class="uuid-cee63304-310b-42a9-a2bb-6d4f5f802da2" points="68.75 39.9 64.92 39.14 65.04 28 68.59 27.51 68.75 39.9"/><ellipse class="uuid-eb372da3-b4b1-4bb9-9531-dd36686fb1e6" cx="70.43" cy="28.88" rx="1.05" ry="1.26"/><line class="uuid-9ac551d4-056a-4e2d-accf-60ac53b1fcd5" x1="72.29" y1="29.3" x2="78.88" y2="28.59"/><line class="uuid-9ac551d4-056a-4e2d-accf-60ac53b1fcd5" x1="72.33" y1="31.02" x2="79.14" y2="30.58"/><line class="uuid-9ac551d4-056a-4e2d-accf-60ac53b1fcd5" x1="72.4" y1="32.75" x2="79.24" y2="32.47"/><line class="uuid-9ac551d4-056a-4e2d-accf-60ac53b1fcd5" x1="72.4" y1="34.48" x2="79.24" y2="34.56"/><line class="uuid-9ac551d4-056a-4e2d-accf-60ac53b1fcd5" x1="72.31" y1="36.32" x2="79.33" y2="36.81"/><ellipse class="uuid-eb372da3-b4b1-4bb9-9531-dd36686fb1e6" cx="73.14" cy="27.74" rx=".52" ry=".63"/><ellipse class="uuid-eb372da3-b4b1-4bb9-9531-dd36686fb1e6" cx="74.7" cy="27.51" rx=".52" ry=".63"/><ellipse class="uuid-eb372da3-b4b1-4bb9-9531-dd36686fb1e6" cx="76.26" cy="27.29" rx=".52" ry=".63"/><path class="uuid-32920e23-9fca-4829-aa89-6d5997e0505b" d="M67.79,31.09l-1.82.13c-.25.02-.47-.18-.47-.44v-1.95c-.01-.23.16-.42.38-.44l1.83-.19c.26-.03.49.18.49.44v2.02c0,.23-.18.42-.41.44Z"/><path class="uuid-32920e23-9fca-4829-aa89-6d5997e0505b" d="M67.68,34.65l-1.77-.17c-.24-.02-.42-.22-.42-.47v-1.9c0-.24.19-.45.43-.47l1.77-.13c.27-.02.5.19.5.47v2.2c0,.28-.24.49-.51.47Z"/><path class="uuid-32920e23-9fca-4829-aa89-6d5997e0505b" d="M67.81,38.34l-2.09-.45c-.14-.03-.24-.16-.24-.3v-2.37c0-.19.16-.33.35-.31l2.09.24c.16.02.28.15.28.31v2.58c0,.2-.18.34-.38.3Z"/><path class="uuid-32920e23-9fca-4829-aa89-6d5997e0505b" d="M71.23,36.52l-1.52-.15c-.19-.02-.34-.18-.34-.37v-4.65c0-.19.15-.35.34-.37l1.52-.15c.22-.02.41.15.41.37v4.94c0,.22-.19.39-.41.37Z"/><ellipse class="uuid-eb372da3-b4b1-4bb9-9531-dd36686fb1e6" cx="69.95" cy="37.96" rx=".68" ry=".82"/><line class="uuid-9ac551d4-056a-4e2d-accf-60ac53b1fcd5" x1="71.35" y1="38.1" x2="79.34" y2="38.91"/></g></svg>