<?xml version="1.0" encoding="UTF-8"?><svg id="uuid-d1617e73-e7ee-4f99-a013-4fbba247fbab" xmlns="http://www.w3.org/2000/svg" viewBox="0 0 100 100"><defs><style>.uuid-cd1c46f6-e011-410d-9148-bb452ae1597a{fill:#24b574;}.uuid-cd1c46f6-e011-410d-9148-bb452ae1597a,.uuid-4090ffbf-7c60-4210-ae89-e75d30c08770,.uuid-50bee0f6-6a5a-4a14-912b-560cfcffdfae,.uuid-19e1755d-55e2-4a29-8e4a-1647967ed03c,.uuid-8abc649d-8e1a-4841-bfeb-9cf53e34d6cb,.uuid-32ff6ba7-4c93-4db3-af37-5682ae165b2a,.uuid-f6d3cbe0-520c-493b-ae08-5a4235cbfd86,.uuid-1c4f3307-601a-4d02-8cf6-34364c44ac51,.uuid-a5d4f1ac-f458-43a5-88d3-45e78fd63abd,.uuid-bedace73-a515-4fc7-a558-cdc8d856f11c,.uuid-311dd0c2-112e-495a-ba58-0b3ae15e28c8{stroke-width:0px;}.uuid-4090ffbf-7c60-4210-ae89-e75d30c08770{fill:#b3705e;}.uuid-50bee0f6-6a5a-4a14-912b-560cfcffdfae{fill:#1a1a1a;}.uuid-19e1755d-55e2-4a29-8e4a-1647967ed03c{fill:#bcbec0;}.uuid-8abc649d-8e1a-4841-bfeb-9cf53e34d6cb{fill:#231f20;}.uuid-32ff6ba7-4c93-4db3-af37-5682ae165b2a{fill:#8b5e3c;}.uuid-f6d3cbe0-520c-493b-ae08-5a4235cbfd86{fill:#fccfb6;}.uuid-1c4f3307-601a-4d02-8cf6-34364c44ac51{fill:#414042;}.uuid-a5d4f1ac-f458-43a5-88d3-45e78fd63abd{fill:#eef2f2;}.uuid-bedace73-a515-4fc7-a558-cdc8d856f11c{fill:#fff;}.uuid-311dd0c2-112e-495a-ba58-0b3ae15e28c8{fill:#00aeef;}</style></defs><rect class="uuid-311dd0c2-112e-495a-ba58-0b3ae15e28c8" y="0" width="100" height="100"/><path class="uuid-4090ffbf-7c60-4210-ae89-e75d30c08770" d="M44.48,79.45l2.2,2.58,7.86-1.8-.91-6.1c-1.24,3.56-4.31,5.33-9.15,5.31Z"/><path class="uuid-cd1c46f6-e011-410d-9148-bb452ae1597a" d="M24.55,134.35c-.21,2.03-.25,4.19-.17,6.44l3.98.62-1.44-6.51,20.54-49.99c-.02-1.14.07-2.26.28-3.37-12.19,18.82-19.31,31.88-23.19,52.81Z"/><path class="uuid-cd1c46f6-e011-410d-9148-bb452ae1597a" d="M30.74,129.49l26.93,4.22c1.15-7.02.47-19.5.29-30.49l-.5-3.52c-2.35,2.18-4.85,3.73-7.62,4.16-4.33-4.48-6.22-8.55-6.28-12.29l-13.79,33.55.97,4.37Z"/><path class="uuid-50bee0f6-6a5a-4a14-912b-560cfcffdfae" d="M44.33,89.71l6.17-5.62-4.57-3.31-10.43,3.4,1.1,3.53-24.37,6.42-.31,32.41,16.17,2.53c-.05-1.51-.03-2.96.11-4.32,2.45-13.2,6.82-21.74,14.13-33.2l1.29-1.18c-.04.4-.05.8-.05,1.2l.76-1.86Z"/><path class="uuid-19e1755d-55e2-4a29-8e4a-1647967ed03c" d="M44.3,89.69l6.09-5.72s.01.24.01.24l-4.6-3.27s.19.03.19.03c0,0-10.42,3.45-10.42,3.45l.17-.33s1.11,3.52,1.11,3.52l.09.28c-4.16,1.09-8.32,2.19-12.49,3.23,0,0-12.22,3.11-12.22,3.11.17,4.72-.1,10.89-.03,16.09,0,0-.04,16.2-.04,16.2,0,0-.22-.26-.22-.26,0,0,16.18,2.47,16.18,2.47,0,0-.38.34-.38.34-.3-4.53,1.05-8.94,2.26-13.26,2.61-8.76,7.24-16.74,12.22-24.34,0,0,0-.01,0-.01h0s1.31-1.17,1.31-1.17c0,0,.14-.13.14-.13v.19s-.07,1.2-.07,1.2l-.12-.02s.79-1.85.79-1.85h0ZM44.36,89.73c-.11.26-.77,1.99-.86,2.18.03-.28.02-1.27.04-1.55,0,0,.13.07.13.07,0,0-1.34,1.27-1.26,1.18-3.18,5.15-6.28,10.37-8.69,15.91-2.41,5.54-4.11,11.36-5.2,17.3-.14,1.39-.15,3.14-.1,4.66,0,0-.4-.06-.4-.06l-16.16-2.6s-.23-.04-.23-.04c0,0,0-.23,0-.23s.27-16.2.27-16.2c.08-5.4.18-10.8.19-16.2v-.09s.09-.02.09-.02c7.19-1.94,17.23-4.74,24.33-6.58,0,0-.2.36-.2.36l-1.08-3.53s-.08-.25-.08-.25l.25-.08,10.45-3.34s.1-.03.1-.03l.08.06,4.54,3.35s.16.12.16.12l-.14.13-6.25,5.52h0Z"/><polygon class="uuid-4090ffbf-7c60-4210-ae89-e75d30c08770" points="51.05 82.79 37.56 93.22 49.18 105.85 55.04 90.73 51.05 82.79"/><path class="uuid-f6d3cbe0-520c-493b-ae08-5a4235cbfd86" d="M41.6,71.89s7.36,17.54,7.17,20.99c-.19,3.46-.95,12.75-.95,12.75,7.77-1.96,15.14-10.46,20.75-20.63l-9.5-26.72-17.47,13.6Z"/><path class="uuid-8abc649d-8e1a-4841-bfeb-9cf53e34d6cb" d="M66.9,50.9l-7.78,8.1c-3.56,13.56,2.94,23.35,16.71,30.42-11.25,7.43-.82,17.27,8.27,26.96l16.18-24.49c6.78-31.77-6.29-42.02-33.37-40.99Z"/><ellipse class="uuid-8abc649d-8e1a-4841-bfeb-9cf53e34d6cb" cx="90.7" cy="102.78" rx="15.67" ry="12.4" transform="translate(-27.97 171.39) rotate(-78.61)"/><polygon class="uuid-1c4f3307-601a-4d02-8cf6-34364c44ac51" points="39.11 96.73 46.75 86.08 38.15 89.48 33.8 95.9 39.11 96.73"/><path class="uuid-4090ffbf-7c60-4210-ae89-e75d30c08770" d="M60.05,58.75c-1.86,9.16-5.84,17.3-14.48,23.18l-4.11-9.12,19.33-13.22-.73-.85Z"/><ellipse class="uuid-8abc649d-8e1a-4841-bfeb-9cf53e34d6cb" cx="21.84" cy="36.31" rx="15.58" ry="8.44" transform="translate(-14.89 57.44) rotate(-88.88)"/><ellipse class="uuid-8abc649d-8e1a-4841-bfeb-9cf53e34d6cb" cx="50.72" cy="35.56" rx="27.54" ry="31.54" transform="translate(14.18 85.58) rotate(-88.88)"/><path class="uuid-f6d3cbe0-520c-493b-ae08-5a4235cbfd86" d="M69.67,39.15c-1.38-.5-2.94-.08-4.37.98l.43-2.11.53-21.18-40.43-3.37c-11.3,20.15-16.45,49.18,7.32,63.41,18.85-2.42,23.66-7.15,28.72-19.77l.47-2.34c.4.4.86.71,1.38.9,2.86,1.03,6.52-1.83,8.16-6.4,1.64-4.56.65-9.1-2.21-10.13Z"/><path class="uuid-32ff6ba7-4c93-4db3-af37-5682ae165b2a" d="M69.65,39.21c-1.57-.56-3.25.16-4.49,1.14,0,0,.05-.24.05-.24l.41-2.11c0,.08.08-5.29.08-5.28.03-3.41.08-12.38.11-15.89,0,0,.41.45.41.45-3.37-.22-6.74-.49-10.12-.74-10.11-.77-20.21-1.81-30.3-2.79,0,0,.27-.14.27-.14-2.93,5.13-5.36,10.58-6.99,16.27-5.28,17.44-2.48,36.72,14.41,46.44,0,0-.42-.09-.42-.09,3.07-.44,6.13-.91,9.12-1.63,10.66-2.38,15.4-8.08,19.24-17.58.14-.58.56-2.55.69-3.08,0,0,.5.55.5.55,1.32,1.51,3.6,1.22,5.12.11,4.29-2.68,7.4-12.62,1.9-15.39h0ZM69.69,39.09c5.71,2.75,2.65,13.04-1.63,15.97-1.67,1.34-4.41,1.7-6-.01,0,0,.67-.2.67-.2,0,0-.43,2.35-.43,2.35-2.14,5.89-5.29,12-10.93,15.25-5.54,3.2-11.91,4.23-18.14,5.08,0,0-.23.03-.23.03l-.19-.12c-17.41-10.3-19.72-29.74-14.14-47.69,1.73-5.69,4.04-11.2,6.9-16.42l.09-.16s.18.01.18.01c10.12.71,20.24,1.35,30.35,2.26,3.51.33,7.02.62,10.52.99,0,0-.02.41-.02.41-.27,6.03-.67,15.21-.87,21.17.01.01-.45,2.11-.44,2.12,0,0-.15-.09-.15-.09,1.25-.92,2.92-1.53,4.45-.97h0Z"/><polygon class="uuid-8abc649d-8e1a-4841-bfeb-9cf53e34d6cb" points="56.97 33.86 62.05 46.51 68.91 33.29 56.97 33.86"/><path class="uuid-8abc649d-8e1a-4841-bfeb-9cf53e34d6cb" d="M71.98,27.6c-1.44,9.21-10.98,10.24-23.55,8.28-12.57-1.97-21.6-11.03-20.15-20.24,1.44-9.21,13.33-14.21,25.52-10.54,17.64,5.31,19.63,13.3,18.19,22.5Z"/><path class="uuid-8abc649d-8e1a-4841-bfeb-9cf53e34d6cb" d="M27.63,49.32l-.56-1.26c4.49-2.01,8.81-1.92,12.85.28l-.66,1.21c-3.69-2.01-7.5-2.08-11.63-.23Z"/><path class="uuid-50bee0f6-6a5a-4a14-912b-560cfcffdfae" d="M71.95,85.53l-2.16-8.29-.51.34c-4.49,1.55-9.04,4.79-13.64,9.26l1.82,12.84.5,3.52c.18,10.99.86,23.47-.29,30.49l6.67,1.04,11.63,1.82,2.79.44,21.89,3.43c2.49-15.33,2.97-31.69,3.38-48.66,0,0-16.48-6.07-32.08-6.24Z"/><path class="uuid-19e1755d-55e2-4a29-8e4a-1647967ed03c" d="M71.93,85.56l-2.27-8.28s.2.08.2.08l-.5.35s-.02.01-.03.02c-5.2,1.89-9.6,5.46-13.53,9.29,0,0,.06-.19.06-.19.73,4.85,1.71,11.61,2.37,16.39.12,5.32.38,17.73.21,22.89-.09,2.54-.24,5.09-.64,7.62,0,0-.11-.15-.11-.15,12.43,2.08,30.37,4.62,43,6.59,0,0-.31.22-.31.22,1.27-8.02,2.01-16.13,2.47-24.24.48-8.12.63-16.25.9-24.38,0,0,.18.27.18.27-10.29-3.6-21.07-6.07-32-6.48h0ZM71.96,85.51c10.95.1,21.79,2.54,32.15,6.01,0,0,.18.06.18.06,0,0,0,.2,0,.2-.12,8.14-.39,16.27-.85,24.4-.49,8.13-1.2,16.26-2.53,24.29,0,0-.05.27-.05.27l-.26-.04c-12.73-2.11-30.51-4.96-43.08-6.89,1.22-8.78.28-21.63.16-30.59-.71-4.56-1.58-11.58-2.26-16.34,0,0-.02-.11-.02-.11l.08-.08c2-1.92,4.11-3.75,6.39-5.35,2.22-1.57,4.87-3.06,7.33-3.87,0,0,.51-.34.51-.34l.16-.1s.04.18.04.18l2.05,8.3h0Z"/><path class="uuid-bedace73-a515-4fc7-a558-cdc8d856f11c" d="M44.83,61.9l-17.38,1.38s3.45,5.07,6.95,5.62,10.43-7,10.43-7Z"/><path class="uuid-32ff6ba7-4c93-4db3-af37-5682ae165b2a" d="M44.77,61.93c-3.28.43-6.15.89-8.93,1.18-2.78.24-5.57.01-8.38.4,0,0,.17-.36.17-.36,1.8,2.09,5.36,6.01,8.34,4.8,2.97-1.22,5.7-3.64,8.26-5.66,0,0,.27-.22.27-.22.1-.06.16-.18.26-.14h0ZM44.89,61.87c-1.56,2.31-3.61,4.35-5.87,6.03-5.1,4.09-8.97-.19-11.76-4.49,0,0-.23-.35-.23-.35,3.13-.05,6.26-.76,9.41-.99,3.02-.17,5.94-.17,8.45-.2h0Z"/><ellipse class="uuid-a5d4f1ac-f458-43a5-88d3-45e78fd63abd" cx="21.47" cy="46.02" rx="8.78" ry="9.98" transform="translate(-2.99 1.51) rotate(-3.78)"/><path class="uuid-8abc649d-8e1a-4841-bfeb-9cf53e34d6cb" d="M30.26,45.44c.69,6.48-5.13,13.15-11.81,10.1-8.61-3.92-7.82-18.85,2.34-19.83,5.37-.41,9.3,4.79,9.48,9.74h0ZM30.19,45.44c-.44-7.93-10.13-12.59-15.29-5.62-4.57,5.87-.94,16.48,7.21,15.87,4.95-.38,8.47-5.43,8.09-10.25h0Z"/><ellipse class="uuid-a5d4f1ac-f458-43a5-88d3-45e78fd63abd" cx="45.86" cy="46.57" rx="11.26" ry="10.41" transform="translate(-2.97 3.12) rotate(-3.78)"/><path class="uuid-8abc649d-8e1a-4841-bfeb-9cf53e34d6cb" d="M57.13,45.83c.58,9.82-11.32,14.8-18.64,8.83-4.83-3.58-5.53-11.03-1.15-15.29,6.49-6.84,19.12-3.33,19.78,6.45h0ZM57.06,45.83c-.69-9.15-13.28-12.25-19.25-6-4.23,3.94-3.95,11.22.83,14.64,6.75,5.39,18.98.47,18.42-8.64h0Z"/><path class="uuid-8abc649d-8e1a-4841-bfeb-9cf53e34d6cb" d="M28.78,46.77c-1.04-7.83-5.55-9.13-13.88-3.25,1.46-2.29,9.68-3.51,13.88,3.25Z"/><path class="uuid-8abc649d-8e1a-4841-bfeb-9cf53e34d6cb" d="M39.4,47.31c2.52-7.51,7.71-7.92,15.85-.54-1.21-2.53-10.03-5.32-15.85.54Z"/><ellipse class="uuid-8abc649d-8e1a-4841-bfeb-9cf53e34d6cb" cx="47.84" cy="46.44" rx="3.67" ry="2.12" transform="translate(-5.45 86.52) rotate(-81.1)"/><ellipse class="uuid-8abc649d-8e1a-4841-bfeb-9cf53e34d6cb" cx="24.91" cy="44.49" rx="3.75" ry="1.78" transform="translate(-22.9 62.22) rotate(-81.1)"/><path class="uuid-8abc649d-8e1a-4841-bfeb-9cf53e34d6cb" d="M40.67,21.25c-1.43,9.16-9.73,15.47-18.52,14.09s-14.76-9.92-13.33-19.08c1.43-9.16,28.83-13.6,37.62-12.22s-4.34,8.05-5.77,17.21Z"/><path class="uuid-32ff6ba7-4c93-4db3-af37-5682ae165b2a" d="M30.87,47.49s-3.17,6.99-3.8,7.88,3.29,2.8,3.29,2.8c-1.55-1.55-.44-6.21.5-10.68Z"/><path class="uuid-8abc649d-8e1a-4841-bfeb-9cf53e34d6cb" d="M18.21,41.45l2.34,6.64c-1.39-2.87-1.74-5.18,0-6.36l-2.34-.28Z"/></svg>