<?xml version="1.0" encoding="UTF-8"?>
<svg id="Layer_1" data-name="Layer 1" xmlns="http://www.w3.org/2000/svg" xmlns:xlink="http://www.w3.org/1999/xlink" version="1.1" viewBox="0 0 675 527">
  <defs>
    <style>
      .cls-1 {
        stroke-width: .3px;
      }

      .cls-1, .cls-2, .cls-3 {
        stroke: #1c75bc;
        stroke-miterlimit: 10;
      }

      .cls-1, .cls-2, .cls-3, .cls-4 {
        fill: #fff;
      }

      .cls-5 {
        fill: url(#linear-gradient);
      }

      .cls-5, .cls-6, .cls-7, .cls-8, .cls-9, .cls-10, .cls-11, .cls-12, .cls-13, .cls-14, .cls-15, .cls-4, .cls-16 {
        stroke-width: 0px;
      }

      .cls-6 {
        fill: url(#linear-gradient-11);
      }

      .cls-7 {
        fill: url(#linear-gradient-10);
      }

      .cls-8 {
        fill: url(#linear-gradient-4);
      }

      .cls-9 {
        fill: url(#linear-gradient-2);
      }

      .cls-10 {
        fill: url(#linear-gradient-3);
      }

      .cls-11 {
        fill: url(#linear-gradient-8);
      }

      .cls-12 {
        fill: url(#linear-gradient-9);
      }

      .cls-13 {
        fill: url(#linear-gradient-7);
      }

      .cls-14 {
        fill: url(#linear-gradient-5);
      }

      .cls-15 {
        fill: url(#linear-gradient-6);
      }

      .cls-2 {
        stroke-width: .4px;
      }

      .cls-3 {
        stroke-width: .4px;
      }

      .cls-16 {
        fill: #1c75bc;
      }
    </style>
    <linearGradient id="linear-gradient" x1="484" y1="236.4" x2="502.1" y2="236.4" gradientUnits="userSpaceOnUse">
      <stop offset="0" stop-color="#3975bb"/>
      <stop offset="1" stop-color="#39c3e0"/>
    </linearGradient>
    <linearGradient id="linear-gradient-2" x1="549" y1="141.8" x2="575.4" y2="141.8" xlink:href="#linear-gradient"/>
    <linearGradient id="linear-gradient-3" x1="138.5" y1="-66.2" x2="154.5" y2="-66.2" gradientTransform="translate(-2131.7 1343.6) scale(15.9 15.4)" xlink:href="#linear-gradient"/>
    <linearGradient id="linear-gradient-4" x1="115.9" y1="-125.7" x2="130.4" y2="-125.7" gradientTransform="translate(-1320.7 1122.6) scale(12.3 6.6)" xlink:href="#linear-gradient"/>
    <linearGradient id="linear-gradient-5" x1="116.7" y1="-121.4" x2="130.1" y2="-121.4" gradientTransform="translate(-1436.9 1093.9) scale(13.2 6.1)" xlink:href="#linear-gradient"/>
    <linearGradient id="linear-gradient-6" x1="111.8" y1="-92.8" x2="126.1" y2="-92.8" gradientTransform="translate(-556.1 1513.5) scale(6.3 12.8)" xlink:href="#linear-gradient"/>
    <linearGradient id="linear-gradient-7" x1="249.8" y1="70" x2="273.6" y2="70" xlink:href="#linear-gradient"/>
    <linearGradient id="linear-gradient-8" x1="418.9" y1="57.9" x2="443" y2="57.9" xlink:href="#linear-gradient"/>
    <linearGradient id="linear-gradient-9" x1="337.3" y1="167.6" x2="364.6" y2="167.6" xlink:href="#linear-gradient"/>
    <linearGradient id="linear-gradient-10" x1="388.6" y1="327.4" x2="418.6" y2="327.4" xlink:href="#linear-gradient"/>
    <linearGradient id="linear-gradient-11" x1="399.1" y1="338.2" x2="430.1" y2="338.2" gradientUnits="userSpaceOnUse">
      <stop offset="0" stop-color="#39c3e0"/>
      <stop offset="1" stop-color="#3975bb"/>
    </linearGradient>
  </defs>
  <path class="cls-4" d="M373.7,394c-7.1-16-23.6-27.3-42.8-27.3s-3.6.1-5.4.3c-8-29.4-35.8-51-68.8-51s-56.3,18.3-66.5,44.1c-28.3,4.7-49.8,28.4-49.8,57s25.4,56.4,57.3,57.7v.2h162.7c.8,0,1.6.1,2.5.1,23.7,0,42.9-18.5,42.9-41.3s-13.6-35.2-31.9-39.9Z"/>
  <path class="cls-4" d="M504.3,347.5c-7.1-16-23.6-27.3-42.8-27.3s-3.6.1-5.4.3c-8-29.4-35.8-51-68.8-51s-56.3,18.3-66.5,44.1c-28.3,4.7-49.8,28.4-49.8,57s25.4,56.4,57.3,57.7v.2h162.7c.8,0,1.6.1,2.5.1,23.7,0,42.9-18.5,42.9-41.3s-13.6-35.2-31.9-39.9Z"/>
  <path class="cls-4" d="M543.3,222.6c-12.6-28.5-41.9-48.4-76.1-48.4s-6.5.2-9.6.6c-14.3-52.2-63.6-90.7-122.3-90.7s-100,32.6-118.2,78.4c-50.3,8.3-88.5,50.4-88.5,101.2s45.1,100.1,101.7,102.6v.4h289.1c1.5,0,2.9.2,4.4.2,42.1,0,76.2-32.8,76.2-73.4s-24.1-62.6-56.7-70.9Z"/>
  <path class="cls-2" d="M314.5,87c-3.4-7.9-11.2-13.4-20.3-13.4s-1.7,0-2.6.2c-3.8-14.4-16.9-25.1-32.6-25.1s-26.6,9-31.5,21.7c-13.4,2.3-23.6,13.9-23.6,28s12,27.7,27.1,28.4h0c0,0,77,0,77,0,.4,0,.8,0,1.2,0,11.2,0,20.3-9.1,20.3-20.3s-6.4-17.3-15.1-19.6Z"/>
  <g>
    <path class="cls-16" d="M226.5,92.6h-2.4v4.2h-1.4v-10.4h3.5c1.2,0,2.1.3,2.7.8.6.5.9,1.3.9,2.3s-.2,1.2-.5,1.7-.8.8-1.5,1.1l2.5,4.4h0c0,0-1.5,0-1.5,0l-2.3-4.2ZM224,91.5h2.1c.7,0,1.2-.2,1.6-.5.4-.4.6-.8.6-1.4s-.2-1.1-.6-1.5c-.4-.3-.9-.5-1.7-.5h-2.1v4Z"/>
    <path class="cls-16" d="M234.7,97c-1.1,0-1.9-.3-2.6-1-.7-.7-1-1.6-1-2.8v-.2c0-.8.1-1.5.4-2.1.3-.6.7-1.1,1.2-1.4.5-.3,1.1-.5,1.7-.5,1,0,1.8.3,2.4,1,.6.7.8,1.6.8,2.9v.6h-5.3c0,.8.2,1.4.7,1.9.4.5,1,.7,1.6.7s.9,0,1.2-.3.6-.4.9-.8l.8.6c-.6,1-1.6,1.5-2.9,1.5ZM234.5,90c-.5,0-1,.2-1.3.6-.4.4-.6.9-.7,1.6h3.9c0-.8-.2-1.3-.5-1.7s-.8-.6-1.3-.6Z"/>
    <path class="cls-16" d="M245.8,93c0,1.2-.3,2.1-.8,2.9-.5.7-1.3,1.1-2.2,1.1s-1.7-.3-2.2-.9v3.7h-1.3v-10.7h1.2v.9c.6-.7,1.4-1,2.3-1s1.7.4,2.2,1.1.8,1.7.8,2.9h0ZM244.4,92.9c0-.9-.2-1.6-.6-2.1-.4-.5-.9-.8-1.5-.8s-1.4.4-1.8,1.1v3.7c.4.7,1,1.1,1.8,1.1s1.1-.3,1.5-.8.6-1.3.6-2.2Z"/>
    <path class="cls-16" d="M251.2,90.2c-.2,0-.4,0-.7,0-.9,0-1.5.4-1.8,1.1v5.5h-1.3v-7.8h1.3v.9c.5-.7,1.1-1,1.9-1s.5,0,.6.1v1.2Z"/>
    <path class="cls-16" d="M251.9,92.9c0-.8.1-1.4.4-2,.3-.6.7-1.1,1.2-1.4s1.1-.5,1.8-.5c1.1,0,1.9.4,2.6,1.1.7.7,1,1.7,1,2.9h0c0,.8-.1,1.5-.4,2.1-.3.6-.7,1.1-1.2,1.4-.5.3-1.2.5-1.9.5-1.1,0-1.9-.4-2.6-1.1-.7-.7-1-1.7-1-2.9h0ZM253.3,93c0,.9.2,1.5.6,2.1s.9.8,1.6.8,1.2-.3,1.6-.8.6-1.3.6-2.2-.2-1.5-.6-2.1c-.4-.5-.9-.8-1.6-.8s-1.2.3-1.6.8c-.4.5-.6,1.3-.6,2.2Z"/>
    <path class="cls-16" d="M260.3,92.9c0-1.2.3-2.1.8-2.9s1.3-1.1,2.2-1.1,1.6.3,2.2.9v-4h1.3v11h-1.2v-.8c-.6.6-1.3,1-2.3,1s-1.6-.4-2.2-1.1c-.6-.7-.8-1.7-.8-2.9h0ZM261.6,93c0,.9.2,1.6.5,2.1s.9.7,1.5.7,1.5-.4,1.8-1.1v-3.6c-.4-.7-1-1.1-1.8-1.1s-1.2.3-1.5.8c-.4.5-.5,1.2-.5,2.2Z"/>
    <path class="cls-16" d="M273.7,96c-.5.6-1.3.9-2.3.9s-1.5-.2-1.9-.7-.7-1.2-.7-2.1v-5h1.3v5c0,1.2.5,1.8,1.4,1.8s1.7-.4,2-1.1v-5.6h1.3v7.8h-1.3v-.8Z"/>
    <path class="cls-16" d="M280.1,95.9c.5,0,.9-.1,1.2-.4s.5-.6.6-1.1h1.3c0,.4-.2.9-.5,1.3-.3.4-.7.7-1.1,1-.5.2-1,.4-1.5.4-1.1,0-1.9-.4-2.5-1.1-.6-.7-.9-1.7-.9-2.9v-.2c0-.8.1-1.4.4-2,.3-.6.7-1,1.2-1.4.5-.3,1.1-.5,1.8-.5s1.6.3,2.2.8c.6.5.9,1.2.9,2h-1.3c0-.5-.2-.9-.6-1.2-.3-.3-.8-.5-1.3-.5s-1.2.2-1.6.7-.6,1.2-.6,2.1v.3c0,.9.2,1.6.6,2.1s.9.7,1.6.7Z"/>
    <path class="cls-16" d="M284.7,87c0-.2,0-.4.2-.5s.3-.2.6-.2.5,0,.6.2c.1.1.2.3.2.5s0,.4-.2.5c-.1.1-.3.2-.6.2s-.5,0-.6-.2c-.1-.1-.2-.3-.2-.5ZM286.1,96.8h-1.3v-7.8h1.3v7.8Z"/>
    <path class="cls-16" d="M294.8,93c0,1.2-.3,2.1-.8,2.9-.5.7-1.3,1.1-2.2,1.1s-1.7-.3-2.3-1v.9h-1.3v-11h1.3v4.1c.5-.7,1.3-1,2.2-1s1.7.4,2.2,1.1c.5.7.8,1.7.8,2.9h0ZM293.5,92.9c0-.9-.2-1.6-.5-2.1-.3-.5-.8-.7-1.5-.7s-1.5.4-1.9,1.2v3.4c.4.8,1,1.2,1.9,1.2s1.1-.2,1.5-.7c.4-.5.5-1.2.5-2.2Z"/>
    <path class="cls-16" d="M297.9,96.8h-1.3v-11h1.3v11Z"/>
    <path class="cls-16" d="M303.3,97c-1.1,0-1.9-.3-2.6-1-.7-.7-1-1.6-1-2.8v-.2c0-.8.1-1.5.4-2.1.3-.6.7-1.1,1.2-1.4.5-.3,1.1-.5,1.7-.5,1,0,1.8.3,2.3,1,.6.7.8,1.6.8,2.9v.6h-5.3c0,.8.2,1.4.7,1.9.4.5,1,.7,1.6.7s.9,0,1.2-.3.6-.4.9-.8l.8.6c-.6,1-1.6,1.5-2.9,1.5ZM303.1,90c-.5,0-1,.2-1.3.6-.4.4-.6.9-.7,1.6h3.9c0-.8-.2-1.3-.5-1.7s-.8-.6-1.3-.6Z"/>
    <path class="cls-16" d="M241.6,111.7h-4.4l-1,2.7h-1.4l4-10.4h1.2l4,10.4h-1.4l-1-2.7ZM237.6,110.6h3.5l-1.8-4.9-1.8,4.9Z"/>
    <path class="cls-16" d="M246.4,106.7v1c.6-.7,1.4-1.1,2.4-1.1,1.6,0,2.5.9,2.5,2.8v5.1h-1.3v-5.1c0-.6-.1-1-.4-1.2-.3-.3-.6-.4-1.2-.4s-.8.1-1.1.3c-.3.2-.6.5-.8.9v5.5h-1.3v-7.8h1.3Z"/>
    <path class="cls-16" d="M258,114.4c0-.2-.1-.4-.2-.8-.6.6-1.4,1-2.2,1s-1.4-.2-1.9-.6c-.5-.4-.7-1-.7-1.6s.3-1.4.9-1.9c.6-.4,1.5-.7,2.6-.7h1.3v-.6c0-.5-.1-.8-.4-1.1-.3-.3-.7-.4-1.2-.4s-.9.1-1.2.4-.5.5-.5.9h-1.3c0-.4.1-.8.4-1.1.3-.4.6-.6,1.1-.9.5-.2,1-.3,1.6-.3.9,0,1.6.2,2.1.7.5.4.8,1.1.8,1.8v3.6c0,.7,0,1.3.3,1.7h0c0,.1-1.4.1-1.4.1ZM255.8,113.4c.4,0,.8-.1,1.2-.3s.6-.5.8-.8v-1.6h-1c-1.6,0-2.4.5-2.4,1.4s.1.7.4,1c.3.2.6.4,1.1.4Z"/>
    <path class="cls-16" d="M262.7,114.4h-1.3v-11h1.3v11Z"/>
    <path class="cls-16" d="M267.3,112.5l1.8-5.8h1.4l-3.1,8.9c-.5,1.3-1.2,1.9-2.3,1.9h-.3s-.5-.1-.5-.1v-1.1h.4c.4,0,.8,0,1-.2.3-.2.5-.5.6-1l.3-.8-2.8-7.7h1.4l1.9,5.8Z"/>
    <path class="cls-16" d="M276.3,112.4c0-.4-.1-.6-.4-.8-.3-.2-.7-.4-1.4-.5-.7-.1-1.2-.3-1.6-.5-.4-.2-.7-.4-.9-.7-.2-.3-.3-.6-.3-1,0-.6.3-1.2.8-1.6.5-.4,1.2-.7,2.1-.7s1.6.2,2.1.7c.5.5.8,1,.8,1.7h-1.3c0-.4-.2-.7-.5-.9s-.7-.4-1.2-.4-.9.1-1.1.3c-.3.2-.4.5-.4.8s.1.6.4.7c.3.2.7.3,1.4.5s1.2.3,1.6.5c.4.2.7.5.9.7.2.3.3.6.3,1.1,0,.7-.3,1.2-.8,1.7-.6.4-1.3.6-2.2.6s-1.2-.1-1.6-.3c-.5-.2-.9-.5-1.1-.9-.3-.4-.4-.8-.4-1.3h1.3c0,.4.2.8.5,1.1.3.3.8.4,1.3.4s.9-.1,1.2-.3c.3-.2.5-.5.5-.8Z"/>
    <path class="cls-16" d="M282.5,114.6c-1.1,0-1.9-.3-2.6-1-.7-.7-1-1.6-1-2.8v-.2c0-.8.1-1.5.4-2.1.3-.6.7-1.1,1.2-1.4.5-.3,1.1-.5,1.7-.5,1,0,1.8.3,2.4,1,.6.7.8,1.6.8,2.9v.6h-5.3c0,.8.2,1.4.7,1.9.4.5,1,.7,1.6.7s.9,0,1.2-.3.6-.4.9-.8l.8.6c-.6,1-1.6,1.5-2.9,1.5ZM282.4,107.6c-.5,0-1,.2-1.3.6-.4.4-.6.9-.7,1.6h3.9c0-.8-.2-1.3-.5-1.7s-.8-.6-1.3-.6Z"/>
    <path class="cls-16" d="M291.6,112.4c0-.4-.1-.6-.4-.8s-.7-.4-1.4-.5c-.7-.1-1.2-.3-1.6-.5-.4-.2-.7-.4-.9-.7-.2-.3-.3-.6-.3-1,0-.6.3-1.2.8-1.6.5-.4,1.2-.7,2.1-.7s1.6.2,2.1.7c.5.5.8,1,.8,1.7h-1.3c0-.4-.2-.7-.5-.9-.3-.3-.7-.4-1.2-.4s-.9.1-1.1.3c-.3.2-.4.5-.4.8s.1.6.4.7c.3.2.7.3,1.4.5s1.2.3,1.6.5c.4.2.7.5.9.7.2.3.3.6.3,1.1,0,.7-.3,1.2-.8,1.7s-1.3.6-2.2.6-1.2-.1-1.6-.3c-.5-.2-.9-.5-1.1-.9-.3-.4-.4-.8-.4-1.3h1.3c0,.4.2.8.5,1.1.3.3.8.4,1.3.4s.9-.1,1.2-.3c.3-.2.5-.5.5-.8Z"/>
  </g>
  <path class="cls-2" d="M488.7,77.9c-3.6-8.3-11.8-14.2-21.4-14.2s-1.8,0-2.7.2c-4-15.3-17.9-26.5-34.5-26.5s-28.2,9.5-33.3,22.9c-14.2,2.4-24.9,14.8-24.9,29.6s12.7,29.3,28.7,30h0c0,.1,81.5.1,81.5.1.4,0,.8,0,1.2,0,11.9,0,21.5-9.6,21.5-21.5s-6.8-18.3-16-20.7Z"/>
  <g>
    <path class="cls-16" d="M395.4,87.8v-10.4h2.9c.9,0,1.7.2,2.4.6s1.2,1,1.6,1.7.6,1.6.6,2.6v.7c0,1-.2,1.8-.6,2.6-.4.7-.9,1.3-1.6,1.7s-1.5.6-2.5.6h-2.9ZM396.8,78.5v8.2h1.4c1.1,0,1.9-.3,2.5-1s.9-1.6.9-2.8v-.6c0-1.2-.3-2.1-.8-2.8-.6-.7-1.3-1-2.4-1h-1.6Z"/>
    <path class="cls-16" d="M409.6,87.8c0-.2-.1-.4-.2-.8-.6.6-1.4,1-2.2,1s-1.4-.2-1.9-.6c-.5-.4-.7-1-.7-1.6s.3-1.4.9-1.9c.6-.4,1.5-.7,2.6-.7h1.3v-.6c0-.5-.1-.8-.4-1.1-.3-.3-.7-.4-1.2-.4s-.9.1-1.2.4-.5.5-.5.9h-1.3c0-.4.1-.8.4-1.1.3-.4.6-.6,1.1-.9.5-.2,1-.3,1.6-.3.9,0,1.6.2,2.1.7.5.4.8,1.1.8,1.8v3.6c0,.7,0,1.3.3,1.7h0c0,.1-1.4.1-1.4.1ZM407.4,86.8c.4,0,.8-.1,1.2-.3.4-.2.6-.5.8-.8v-1.6h-1c-1.6,0-2.4.5-2.4,1.4s.1.7.4,1c.3.2.6.4,1.1.4Z"/>
    <path class="cls-16" d="M414.6,78.2v1.9h1.4v1h-1.4v4.8c0,.3,0,.5.2.7.1.2.3.2.7.2s.4,0,.6,0v1.1c-.3,0-.7.1-1,.1-.6,0-1-.2-1.3-.5s-.5-.9-.5-1.5v-4.8h-1.4v-1h1.4v-1.9h1.3Z"/>
    <path class="cls-16" d="M422.4,87.8c0-.2-.1-.4-.2-.8-.6.6-1.4,1-2.2,1s-1.4-.2-1.9-.6c-.5-.4-.7-1-.7-1.6s.3-1.4.9-1.9c.6-.4,1.5-.7,2.6-.7h1.3v-.6c0-.5-.1-.8-.4-1.1-.3-.3-.7-.4-1.2-.4s-.9.1-1.2.4-.5.5-.5.9h-1.3c0-.4.1-.8.4-1.1.3-.4.6-.6,1.1-.9.5-.2,1-.3,1.6-.3.9,0,1.6.2,2.1.7.5.4.8,1.1.8,1.8v3.6c0,.7,0,1.3.3,1.7h0c0,.1-1.4.1-1.4.1ZM420.2,86.8c.4,0,.8-.1,1.2-.3.4-.2.6-.5.8-.8v-1.6h-1c-1.6,0-2.4.5-2.4,1.4s.1.7.4,1c.3.2.6.4,1.1.4Z"/>
    <path class="cls-16" d="M432.5,83.1c-1.2-.3-2-.8-2.6-1.2-.5-.5-.8-1.1-.8-1.8s.3-1.5,1-2c.7-.5,1.5-.8,2.6-.8s1.4.1,1.9.4,1,.7,1.3,1.1c.3.5.5,1,.5,1.6h-1.4c0-.6-.2-1.1-.6-1.5s-1-.5-1.7-.5-1.2.1-1.6.4c-.4.3-.6.7-.6,1.2s.2.8.5,1.1c.4.3,1,.6,1.8.8.9.2,1.5.5,2,.8.5.3.9.6,1.1,1s.4.9.4,1.4c0,.8-.3,1.5-1,2s-1.5.8-2.6.8-1.4-.1-2-.4c-.6-.3-1.1-.7-1.4-1.1s-.5-1-.5-1.6h1.4c0,.6.2,1.1.7,1.5.5.4,1.1.5,1.9.5s1.3-.1,1.7-.4c.4-.3.6-.7.6-1.2s-.2-.9-.5-1.2c-.4-.3-1-.6-1.9-.8Z"/>
    <path class="cls-16" d="M441,86.8c.5,0,.9-.1,1.2-.4s.5-.6.6-1.1h1.3c0,.4-.2.9-.5,1.3-.3.4-.7.7-1.1,1-.5.2-1,.4-1.5.4-1.1,0-1.9-.4-2.5-1.1-.6-.7-.9-1.7-.9-2.9v-.2c0-.8.1-1.4.4-2,.3-.6.7-1,1.2-1.4.5-.3,1.1-.5,1.8-.5s1.6.3,2.2.8c.6.5.9,1.2.9,2h-1.3c0-.5-.2-.9-.6-1.2-.3-.3-.8-.5-1.3-.5s-1.2.2-1.6.7-.6,1.2-.6,2.1v.3c0,.9.2,1.6.6,2.1.4.5.9.7,1.6.7Z"/>
    <path class="cls-16" d="M445.6,78c0-.2,0-.4.2-.5.1-.1.3-.2.6-.2s.5,0,.6.2c.1.1.2.3.2.5s0,.4-.2.5c-.1.1-.3.2-.6.2s-.5,0-.6-.2c-.1-.1-.2-.3-.2-.5ZM447.1,87.8h-1.3v-7.8h1.3v7.8Z"/>
    <path class="cls-16" d="M452.4,87.9c-1.1,0-1.9-.3-2.6-1-.7-.7-1-1.6-1-2.8v-.2c0-.8.1-1.5.4-2.1.3-.6.7-1.1,1.2-1.4.5-.3,1.1-.5,1.7-.5,1,0,1.8.3,2.3,1,.6.7.8,1.6.8,2.9v.6h-5.3c0,.8.2,1.4.7,1.9.4.5,1,.7,1.6.7s.9,0,1.2-.3.6-.4.9-.8l.8.6c-.6,1-1.6,1.5-2.9,1.5ZM452.2,81c-.5,0-1,.2-1.3.6-.4.4-.6.9-.7,1.6h3.9c0-.8-.2-1.3-.5-1.7s-.8-.6-1.3-.6Z"/>
    <path class="cls-16" d="M458.2,80v1c.6-.7,1.4-1.1,2.4-1.1,1.6,0,2.5.9,2.5,2.8v5.1h-1.3v-5.1c0-.6-.1-1-.4-1.2-.2-.3-.6-.4-1.2-.4s-.8.1-1.1.3c-.3.2-.6.5-.8.9v5.5h-1.3v-7.8h1.3Z"/>
    <path class="cls-16" d="M468.2,86.8c.5,0,.9-.1,1.2-.4s.5-.6.6-1.1h1.3c0,.4-.2.9-.5,1.3-.3.4-.7.7-1.1,1-.5.2-1,.4-1.5.4-1.1,0-1.9-.4-2.5-1.1-.6-.7-.9-1.7-.9-2.9v-.2c0-.8.1-1.4.4-2,.3-.6.7-1,1.2-1.4.5-.3,1.1-.5,1.8-.5s1.6.3,2.2.8c.6.5.9,1.2.9,2h-1.3c0-.5-.2-.9-.6-1.2-.3-.3-.8-.5-1.3-.5s-1.2.2-1.6.7-.6,1.2-.6,2.1v.3c0,.9.2,1.6.6,2.1.4.5.9.7,1.6.7Z"/>
    <path class="cls-16" d="M475.9,87.9c-1.1,0-1.9-.3-2.6-1-.7-.7-1-1.6-1-2.8v-.2c0-.8.1-1.5.4-2.1.3-.6.7-1.1,1.2-1.4.5-.3,1.1-.5,1.7-.5,1,0,1.8.3,2.3,1,.6.7.8,1.6.8,2.9v.6h-5.3c0,.8.2,1.4.7,1.9.4.5,1,.7,1.6.7s.9,0,1.2-.3.6-.4.9-.8l.8.6c-.6,1-1.6,1.5-2.9,1.5ZM475.8,81c-.5,0-1,.2-1.3.6-.4.4-.6.9-.7,1.6h3.9c0-.8-.2-1.3-.5-1.7s-.8-.6-1.3-.6Z"/>
    <path class="cls-16" d="M395.9,102.1l.2,1.4.3-1.2,2.1-7.3h1.2l2,7.3.3,1.3.2-1.4,1.6-7.1h1.4l-2.5,10.4h-1.3l-2.1-7.6-.2-.8-.2.8-2.2,7.6h-1.3l-2.5-10.4h1.4l1.6,7.1Z"/>
    <path class="cls-16" d="M405.9,101.4c0-.8.1-1.4.4-2,.3-.6.7-1.1,1.2-1.4.5-.3,1.1-.5,1.8-.5,1.1,0,1.9.4,2.6,1.1.7.7,1,1.7,1,2.9h0c0,.8-.1,1.5-.4,2.1-.3.6-.7,1.1-1.2,1.4-.5.3-1.2.5-1.9.5-1.1,0-1.9-.4-2.6-1.1-.7-.7-1-1.7-1-2.9h0ZM407.3,101.6c0,.9.2,1.5.6,2.1.4.5.9.8,1.6.8s1.2-.3,1.6-.8.6-1.3.6-2.2-.2-1.5-.6-2.1c-.4-.5-.9-.8-1.6-.8s-1.2.3-1.6.8-.6,1.3-.6,2.2Z"/>
    <path class="cls-16" d="M418.4,98.8c-.2,0-.4,0-.7,0-.9,0-1.5.4-1.8,1.1v5.5h-1.3v-7.8h1.3v.9c.5-.7,1.1-1,1.9-1s.5,0,.6.1v1.2Z"/>
    <path class="cls-16" d="M421.8,101.8l-.8.9v2.7h-1.3v-11h1.3v6.7l.7-.9,2.4-2.6h1.6l-3,3.2,3.4,4.5h-1.6l-2.7-3.6Z"/>
    <path class="cls-16" d="M433.6,101.6c0,1.2-.3,2.1-.8,2.9-.5.7-1.3,1.1-2.2,1.1s-1.7-.3-2.3-1v.9h-1.3v-11h1.3v4.1c.5-.7,1.3-1,2.2-1s1.7.4,2.2,1.1c.5.7.8,1.7.8,2.9h0ZM432.3,101.4c0-.9-.2-1.6-.5-2.1-.3-.5-.8-.7-1.5-.7s-1.5.4-1.9,1.2v3.4c.4.8,1,1.2,1.9,1.2s1.1-.2,1.5-.7c.4-.5.5-1.2.5-2.2Z"/>
    <path class="cls-16" d="M438.5,105.5c-1.1,0-1.9-.3-2.6-1-.7-.7-1-1.6-1-2.8v-.2c0-.8.1-1.5.4-2.1.3-.6.7-1.1,1.2-1.4.5-.3,1.1-.5,1.7-.5,1,0,1.8.3,2.3,1,.6.7.8,1.6.8,2.9v.6h-5.3c0,.8.2,1.4.7,1.9.4.5,1,.7,1.6.7s.9,0,1.2-.3.6-.4.9-.8l.8.6c-.6,1-1.6,1.5-2.9,1.5ZM438.3,98.6c-.5,0-1,.2-1.3.6-.4.4-.6.9-.7,1.6h3.9c0-.8-.2-1.3-.5-1.7s-.8-.6-1.3-.6Z"/>
    <path class="cls-16" d="M444.3,97.6v1c.6-.7,1.4-1.1,2.4-1.1,1.6,0,2.5.9,2.5,2.8v5.1h-1.3v-5.1c0-.6-.1-1-.4-1.2-.2-.3-.6-.4-1.2-.4s-.8.1-1.1.3c-.3.2-.6.5-.8.9v5.5h-1.3v-7.8h1.3Z"/>
    <path class="cls-16" d="M454.2,104.5c.5,0,.9-.1,1.2-.4s.5-.6.6-1.1h1.3c0,.4-.2.9-.5,1.3-.3.4-.7.7-1.1,1-.5.2-1,.4-1.5.4-1.1,0-1.9-.4-2.5-1.1-.6-.7-.9-1.7-.9-2.9v-.2c0-.8.1-1.4.4-2,.3-.6.7-1,1.2-1.4.5-.3,1.1-.5,1.8-.5s1.6.3,2.2.8c.6.5.9,1.2.9,2h-1.3c0-.5-.2-.9-.6-1.2-.3-.3-.8-.5-1.3-.5s-1.2.2-1.6.7-.6,1.2-.6,2.1v.3c0,.9.2,1.6.6,2.1.4.5.9.7,1.6.7Z"/>
    <path class="cls-16" d="M460.1,98.6c.6-.7,1.4-1.1,2.3-1.1,1.6,0,2.5.9,2.5,2.8v5.1h-1.3v-5.1c0-.6-.1-1-.4-1.2-.2-.3-.6-.4-1.2-.4s-.8.1-1.1.3c-.3.2-.6.5-.8.9v5.5h-1.3v-11h1.3v4.2Z"/>
    <path class="cls-16" d="M470.1,105.5c-1.1,0-1.9-.3-2.6-1-.7-.7-1-1.6-1-2.8v-.2c0-.8.1-1.5.4-2.1.3-.6.7-1.1,1.2-1.4.5-.3,1.1-.5,1.7-.5,1,0,1.8.3,2.3,1,.6.7.8,1.6.8,2.9v.6h-5.3c0,.8.2,1.4.7,1.9.4.5,1,.7,1.6.7s.9,0,1.2-.3.6-.4.9-.8l.8.6c-.6,1-1.6,1.5-2.9,1.5ZM470,98.6c-.5,0-1,.2-1.3.6-.4.4-.6.9-.7,1.6h3.9c0-.8-.2-1.3-.5-1.7s-.8-.6-1.3-.6Z"/>
    <path class="cls-16" d="M479.2,103.3c0-.4-.1-.6-.4-.8s-.7-.4-1.4-.5c-.7-.1-1.2-.3-1.6-.5-.4-.2-.7-.4-.9-.7-.2-.3-.3-.6-.3-1,0-.6.3-1.2.8-1.6.5-.4,1.2-.7,2.1-.7s1.6.2,2.1.7c.5.5.8,1,.8,1.7h-1.3c0-.4-.2-.7-.5-.9-.3-.3-.7-.4-1.2-.4s-.9.1-1.1.3c-.3.2-.4.5-.4.8s.1.6.4.7c.3.2.7.3,1.4.5s1.2.3,1.6.5c.4.2.7.5.9.7.2.3.3.6.3,1.1,0,.7-.3,1.2-.8,1.7s-1.3.6-2.2.6-1.2-.1-1.6-.3c-.5-.2-.9-.5-1.1-.9-.3-.4-.4-.8-.4-1.3h1.3c0,.4.2.8.5,1.1.3.3.8.4,1.3.4s.9-.1,1.2-.3c.3-.2.5-.5.5-.8Z"/>
  </g>
  <path class="cls-2" d="M623,159.1c-3.9-9.1-12.9-15.4-23.3-15.4s-2,0-3,.2c-4.4-16.6-19.5-28.9-37.5-28.9s-30.6,10.4-36.2,24.9c-15.4,2.6-27.1,16.1-27.1,32.2s13.8,31.9,31.2,32.7h0c0,.1,88.6.1,88.6.1.4,0,.9,0,1.3,0,12.9,0,23.3-10.5,23.3-23.3s-7.4-19.9-17.4-22.5Z"/>
  <g>
    <path class="cls-16" d="M526.4,168.3h-4.5v3.7h5.3v1.1h-6.6v-10.4h6.6v1.1h-5.2v3.4h4.5v1.1Z"/>
    <path class="cls-16" d="M530.1,173.1h-1.3v-11h1.3v11Z"/>
    <path class="cls-16" d="M537,173.1c0-.2-.1-.4-.2-.8-.6.6-1.4,1-2.2,1s-1.4-.2-1.9-.6c-.5-.4-.7-1-.7-1.6s.3-1.4.9-1.9c.6-.4,1.5-.7,2.6-.7h1.3v-.6c0-.5-.1-.8-.4-1.1-.3-.3-.7-.4-1.2-.4s-.9.1-1.2.4-.5.5-.5.9h-1.3c0-.4.1-.8.4-1.1.3-.4.6-.6,1.1-.9.5-.2,1-.3,1.6-.3.9,0,1.6.2,2.1.7.5.4.8,1.1.8,1.8v3.6c0,.7,0,1.3.3,1.7h0c0,.1-1.4.1-1.4.1ZM534.8,172.1c.4,0,.8-.1,1.2-.3.4-.2.6-.5.8-.8v-1.6h-1c-1.6,0-2.4.5-2.4,1.4s.1.7.4,1c.3.2.6.4,1.1.4Z"/>
    <path class="cls-16" d="M544.7,171.1c0-.4-.1-.6-.4-.8s-.7-.4-1.4-.5c-.7-.1-1.2-.3-1.6-.5-.4-.2-.7-.4-.9-.7-.2-.3-.3-.6-.3-1,0-.6.3-1.2.8-1.6.5-.4,1.2-.7,2.1-.7s1.6.2,2.1.7c.5.5.8,1,.8,1.7h-1.3c0-.4-.2-.7-.5-.9-.3-.3-.7-.4-1.2-.4s-.9.1-1.1.3c-.3.2-.4.5-.4.8s.1.6.4.7c.3.2.7.3,1.4.5s1.2.3,1.6.5c.4.2.7.5.9.7.2.3.3.6.3,1.1,0,.7-.3,1.2-.8,1.7s-1.3.6-2.2.6-1.2-.1-1.6-.3c-.5-.2-.9-.5-1.1-.9-.3-.4-.4-.8-.4-1.3h1.3c0,.4.2.8.5,1.1.3.3.8.4,1.3.4s.9-.1,1.2-.3c.3-.2.5-.5.5-.8Z"/>
    <path class="cls-16" d="M549.5,163.5v1.9h1.4v1h-1.4v4.8c0,.3,0,.5.2.7.1.2.3.2.7.2s.4,0,.6,0v1.1c-.3,0-.7.1-1,.1-.6,0-1-.2-1.3-.5s-.5-.9-.5-1.5v-4.8h-1.4v-1h1.4v-1.9h1.3Z"/>
    <path class="cls-16" d="M552.5,163.3c0-.2,0-.4.2-.5.1-.1.3-.2.6-.2s.5,0,.6.2c.1.1.2.3.2.5s0,.4-.2.5c-.1.1-.3.2-.6.2s-.5,0-.6-.2c-.1-.1-.2-.3-.2-.5ZM554,173.1h-1.3v-7.8h1.3v7.8Z"/>
    <path class="cls-16" d="M559.2,172.2c.5,0,.9-.1,1.2-.4s.5-.6.6-1.1h1.3c0,.4-.2.9-.5,1.3-.3.4-.7.7-1.1,1-.5.2-1,.4-1.5.4-1.1,0-1.9-.4-2.5-1.1-.6-.7-.9-1.7-.9-2.9v-.2c0-.8.1-1.4.4-2,.3-.6.7-1,1.2-1.4.5-.3,1.1-.5,1.8-.5s1.6.3,2.2.8c.6.5.9,1.2.9,2h-1.3c0-.5-.2-.9-.6-1.2-.3-.3-.8-.5-1.3-.5s-1.2.2-1.6.7-.6,1.2-.6,2.1v.3c0,.9.2,1.6.6,2.1.4.5.9.7,1.6.7Z"/>
    <path class="cls-16" d="M571.1,171.3l3-8.6h1.5l-3.9,10.4h-1.2l-3.9-10.4h1.5l3,8.6Z"/>
    <path class="cls-16" d="M576.8,163.3c0-.2,0-.4.2-.5.1-.1.3-.2.6-.2s.5,0,.6.2c.1.1.2.3.2.5s0,.4-.2.5c-.1.1-.3.2-.6.2s-.5,0-.6-.2c-.1-.1-.2-.3-.2-.5ZM578.2,173.1h-1.3v-7.8h1.3v7.8Z"/>
    <path class="cls-16" d="M584.1,166.6c-.2,0-.4,0-.7,0-.9,0-1.5.4-1.8,1.1v5.5h-1.3v-7.8h1.3v.9c.5-.7,1.1-1,1.9-1s.5,0,.6.1v1.2Z"/>
    <path class="cls-16" d="M587.4,163.5v1.9h1.4v1h-1.4v4.8c0,.3,0,.5.2.7.1.2.3.2.7.2s.4,0,.6,0v1.1c-.3,0-.7.1-1,.1-.6,0-1-.2-1.3-.5s-.5-.9-.5-1.5v-4.8h-1.4v-1h1.4v-1.9h1.3Z"/>
    <path class="cls-16" d="M595.2,172.4c-.5.6-1.3.9-2.3.9s-1.5-.2-1.9-.7-.7-1.2-.7-2.1v-5h1.3v5c0,1.2.5,1.8,1.4,1.8s1.7-.4,2-1.1v-5.6h1.3v7.8h-1.3v-.8Z"/>
    <path class="cls-16" d="M603.3,173.1c0-.2-.1-.4-.2-.8-.6.6-1.4,1-2.2,1s-1.4-.2-1.9-.6c-.5-.4-.7-1-.7-1.6s.3-1.4.9-1.9c.6-.4,1.5-.7,2.6-.7h1.3v-.6c0-.5-.1-.8-.4-1.1-.3-.3-.7-.4-1.2-.4s-.9.1-1.2.4-.5.5-.5.9h-1.3c0-.4.1-.8.4-1.1.3-.4.6-.6,1.1-.9.5-.2,1-.3,1.6-.3.9,0,1.6.2,2.1.7.5.4.8,1.1.8,1.8v3.6c0,.7,0,1.3.3,1.7h0c0,.1-1.4.1-1.4.1ZM601.1,172.1c.4,0,.8-.1,1.2-.3.4-.2.6-.5.8-.8v-1.6h-1c-1.6,0-2.4.5-2.4,1.4s.1.7.4,1c.3.2.6.4,1.1.4Z"/>
    <path class="cls-16" d="M607.9,173.1h-1.3v-11h1.3v11Z"/>
    <path class="cls-16" d="M528.5,190.7h-1.4v-4.8h-5.3v4.8h-1.4v-10.4h1.4v4.5h5.3v-4.5h1.4v10.4Z"/>
    <path class="cls-16" d="M532.3,186.7v4.1h-1.4v-10.4h3.8c1.1,0,2,.3,2.7.9.6.6,1,1.4,1,2.3s-.3,1.8-.9,2.3c-.6.5-1.5.8-2.7.8h-2.5ZM532.3,185.5h2.5c.7,0,1.3-.2,1.7-.5.4-.3.6-.8.6-1.5s-.2-1.1-.6-1.5c-.4-.4-.9-.6-1.6-.6h-2.6v4.1Z"/>
    <path class="cls-16" d="M547.9,187.4c-.1,1.1-.5,2-1.2,2.6-.7.6-1.6.9-2.7.9s-2.2-.4-3-1.3c-.7-.9-1.1-2.1-1.1-3.5v-1c0-1,.2-1.8.5-2.6.3-.7.8-1.3,1.5-1.7.6-.4,1.4-.6,2.2-.6s2,.3,2.7.9c.7.6,1.1,1.5,1.2,2.6h-1.4c-.1-.8-.4-1.4-.8-1.8-.4-.4-1-.6-1.7-.6s-1.6.3-2.1,1c-.5.6-.7,1.6-.7,2.8v1c0,1.1.2,2,.7,2.7.5.7,1.1,1,2,1s1.4-.2,1.8-.5c.4-.3.7-.9.8-1.8h1.4Z"/>
    <path class="cls-16" d="M561.1,187.4c-.1,1.1-.5,2-1.2,2.6-.7.6-1.6.9-2.7.9s-2.2-.4-3-1.3c-.7-.9-1.1-2.1-1.1-3.5v-1c0-1,.2-1.8.5-2.6.3-.7.8-1.3,1.5-1.7.6-.4,1.4-.6,2.2-.6s2,.3,2.7.9c.7.6,1.1,1.5,1.2,2.6h-1.4c-.1-.8-.4-1.4-.8-1.8-.4-.4-1-.6-1.7-.6s-1.6.3-2.1,1c-.5.6-.7,1.6-.7,2.8v1c0,1.1.2,2,.7,2.7.5.7,1.1,1,2,1s1.4-.2,1.8-.5c.4-.3.7-.9.8-1.8h1.4Z"/>
    <path class="cls-16" d="M564.2,190.7h-1.3v-11h1.3v11Z"/>
    <path class="cls-16" d="M571.1,190c-.5.6-1.3.9-2.3.9s-1.5-.2-1.9-.7-.7-1.2-.7-2.1v-5h1.3v5c0,1.2.5,1.8,1.4,1.8s1.7-.4,2-1.1v-5.6h1.3v7.8h-1.3v-.8Z"/>
    <path class="cls-16" d="M578.9,188.7c0-.4-.1-.6-.4-.8s-.7-.4-1.4-.5c-.7-.1-1.2-.3-1.6-.5-.4-.2-.7-.4-.9-.7-.2-.3-.3-.6-.3-1,0-.6.3-1.2.8-1.6.5-.4,1.2-.7,2.1-.7s1.6.2,2.1.7c.5.5.8,1,.8,1.7h-1.3c0-.4-.2-.7-.5-.9-.3-.3-.7-.4-1.2-.4s-.9.1-1.1.3c-.3.2-.4.5-.4.8s.1.6.4.7c.3.2.7.3,1.4.5s1.2.3,1.6.5c.4.2.7.5.9.7.2.3.3.6.3,1.1,0,.7-.3,1.2-.8,1.7s-1.3.6-2.2.6-1.2-.1-1.6-.3c-.5-.2-.9-.5-1.1-.9-.3-.4-.4-.8-.4-1.3h1.3c0,.4.2.8.5,1.1.3.3.8.4,1.3.4s.9-.1,1.2-.3c.3-.2.5-.5.5-.8Z"/>
    <path class="cls-16" d="M583.8,181.1v1.9h1.4v1h-1.4v4.8c0,.3,0,.5.2.7.1.2.3.2.7.2s.4,0,.6,0v1.1c-.3,0-.7.1-1,.1-.6,0-1-.2-1.3-.5s-.5-.9-.5-1.5v-4.8h-1.4v-1h1.4v-1.9h1.3Z"/>
    <path class="cls-16" d="M590,190.9c-1.1,0-1.9-.3-2.6-1-.7-.7-1-1.6-1-2.8v-.2c0-.8.1-1.5.4-2.1.3-.6.7-1.1,1.2-1.4.5-.3,1.1-.5,1.7-.5,1,0,1.8.3,2.3,1,.6.7.8,1.6.8,2.9v.6h-5.3c0,.8.2,1.4.7,1.9.4.5,1,.7,1.6.7s.9,0,1.2-.3.6-.4.9-.8l.8.6c-.6,1-1.6,1.5-2.9,1.5ZM589.8,183.9c-.5,0-1,.2-1.3.6-.4.4-.6.9-.7,1.6h3.9c0-.8-.2-1.3-.5-1.7s-.8-.6-1.3-.6Z"/>
    <path class="cls-16" d="M598.3,184.2c-.2,0-.4,0-.7,0-.9,0-1.5.4-1.8,1.1v5.5h-1.3v-7.8h1.3v.9c.5-.7,1.1-1,1.9-1s.5,0,.6.1v1.2Z"/>
    <path class="cls-16" d="M604,188.7c0-.4-.1-.6-.4-.8s-.7-.4-1.4-.5c-.7-.1-1.2-.3-1.6-.5-.4-.2-.7-.4-.9-.7-.2-.3-.3-.6-.3-1,0-.6.3-1.2.8-1.6.5-.4,1.2-.7,2.1-.7s1.6.2,2.1.7c.5.5.8,1,.8,1.7h-1.3c0-.4-.2-.7-.5-.9-.3-.3-.7-.4-1.2-.4s-.9.1-1.1.3c-.3.2-.4.5-.4.8s.1.6.4.7c.3.2.7.3,1.4.5s1.2.3,1.6.5c.4.2.7.5.9.7.2.3.3.6.3,1.1,0,.7-.3,1.2-.8,1.7s-1.3.6-2.2.6-1.2-.1-1.6-.3c-.5-.2-.9-.5-1.1-.9-.3-.4-.4-.8-.4-1.3h1.3c0,.4.2.8.5,1.1.3.3.8.4,1.3.4s.9-.1,1.2-.3c.3-.2.5-.5.5-.8Z"/>
  </g>
  <path class="cls-1" d="M547.5,255.1c-3.6-8.5-12.1-14.5-22-14.5s-1.9,0-2.8.2c-4.1-15.6-18.4-27.2-35.3-27.2s-28.8,9.8-34.1,23.5c-14.5,2.5-25.5,15.1-25.5,30.3s13,30,29.4,30.7h0c0,.1,83.4.1,83.4.1.4,0,.8,0,1.3,0,12.1,0,22-9.8,22-22s-7-18.7-16.4-21.2Z"/>
  <g>
    <path class="cls-16" d="M471.2,264c0,1-.2,1.9-.5,2.7s-.8,1.3-1.5,1.7c-.6.4-1.4.6-2.2.6s-1.5-.2-2.2-.6c-.6-.4-1.1-1-1.5-1.7-.4-.7-.5-1.6-.5-2.6v-.8c0-1,.2-1.9.5-2.7.3-.8.8-1.4,1.5-1.8s1.4-.6,2.2-.6,1.6.2,2.2.6,1.1,1,1.5,1.8.5,1.7.5,2.7v.7ZM469.8,263.3c0-1.2-.2-2.2-.7-2.8-.5-.7-1.2-1-2.1-1s-1.6.3-2.1,1c-.5.7-.8,1.6-.8,2.8v.8c0,1.2.3,2.1.8,2.8s1.2,1,2.1,1,1.6-.3,2.1-1,.7-1.6.8-2.8v-.8Z"/>
    <path class="cls-16" d="M474.3,261.1v1c.6-.7,1.4-1.1,2.4-1.1,1.6,0,2.5.9,2.5,2.8v5.1h-1.3v-5.1c0-.6-.1-1-.4-1.2-.2-.3-.6-.4-1.2-.4s-.8.1-1.1.3c-.3.2-.6.5-.8.9v5.5h-1.3v-7.8h1.3Z"/>
    <path class="cls-16" d="M484.4,269c-1.1,0-1.9-.3-2.6-1-.7-.7-1-1.6-1-2.8v-.2c0-.8.1-1.5.4-2.1.3-.6.7-1.1,1.2-1.4.5-.3,1.1-.5,1.7-.5,1,0,1.8.3,2.3,1,.6.7.8,1.6.8,2.9v.6h-5.3c0,.8.2,1.4.7,1.9.4.5,1,.7,1.6.7s.9,0,1.2-.3c.3-.2.6-.4.9-.8l.8.6c-.6,1-1.6,1.5-2.9,1.5ZM484.2,262.1c-.5,0-1,.2-1.3.6-.4.4-.6.9-.7,1.6h3.9c0-.8-.2-1.3-.5-1.7s-.8-.6-1.3-.6Z"/>
    <path class="cls-16" d="M491.7,265h-3.5v-1.1h3.5v1.1Z"/>
    <path class="cls-16" d="M500.8,265.6c-.1,1.1-.5,2-1.2,2.6s-1.6.9-2.7.9-2.2-.4-3-1.3c-.7-.9-1.1-2.1-1.1-3.5v-1c0-1,.2-1.8.5-2.6.3-.7.8-1.3,1.5-1.7.6-.4,1.4-.6,2.2-.6s2,.3,2.7.9,1.1,1.5,1.2,2.6h-1.4c-.1-.8-.4-1.4-.8-1.8-.4-.4-1-.6-1.7-.6s-1.6.3-2.1,1c-.5.7-.7,1.6-.7,2.8v1c0,1.1.2,2,.7,2.7s1.1,1,2,1,1.4-.2,1.8-.5c.4-.3.7-.9.8-1.8h1.4Z"/>
    <path class="cls-16" d="M504,268.9h-1.3v-11h1.3v11Z"/>
    <path class="cls-16" d="M506.1,259.1c0-.2,0-.4.2-.5.1-.1.3-.2.6-.2s.5,0,.6.2c.1.1.2.3.2.5s0,.4-.2.5c-.1.1-.3.2-.6.2s-.5,0-.6-.2c-.1-.1-.2-.3-.2-.5ZM507.5,268.9h-1.3v-7.8h1.3v7.8Z"/>
    <path class="cls-16" d="M512.7,267.9c.5,0,.9-.1,1.2-.4.4-.3.5-.6.6-1.1h1.3c0,.4-.2.9-.5,1.3-.3.4-.7.7-1.1,1-.5.2-1,.4-1.5.4-1.1,0-1.9-.4-2.5-1.1-.6-.7-.9-1.7-.9-2.9v-.2c0-.8.1-1.4.4-2,.3-.6.7-1,1.2-1.4.5-.3,1.1-.5,1.8-.5s1.6.3,2.2.8c.6.5.9,1.2.9,2h-1.3c0-.5-.2-.9-.6-1.2-.3-.3-.8-.5-1.3-.5s-1.2.2-1.6.7c-.4.5-.6,1.2-.6,2.1v.2c0,.9.2,1.6.6,2.1.4.5.9.7,1.6.7Z"/>
    <path class="cls-16" d="M519.5,265.3l-.8.9v2.7h-1.3v-11h1.3v6.7l.7-.9,2.4-2.6h1.6l-3,3.2,3.4,4.5h-1.6l-2.7-3.6Z"/>
    <path class="cls-16" d="M456.8,286.5h-1.4v-10.4h1.4v10.4Z"/>
    <path class="cls-16" d="M460.4,278.7v1c.6-.7,1.4-1.1,2.4-1.1,1.6,0,2.5.9,2.5,2.8v5.1h-1.3v-5.1c0-.6-.1-1-.4-1.2-.2-.3-.6-.4-1.2-.4s-.8.1-1.1.3c-.3.2-.6.5-.8.9v5.5h-1.3v-7.8h1.3Z"/>
    <path class="cls-16" d="M469,276.8v1.9h1.4v1h-1.4v4.8c0,.3,0,.5.2.7s.3.2.7.2.4,0,.6,0v1.1c-.3,0-.7.1-1,.1-.6,0-1-.2-1.3-.5-.3-.4-.5-.9-.5-1.5v-4.8h-1.4v-1h1.4v-1.9h1.3Z"/>
    <path class="cls-16" d="M475.3,286.6c-1.1,0-1.9-.3-2.6-1-.7-.7-1-1.6-1-2.8v-.2c0-.8.1-1.5.4-2.1.3-.6.7-1.1,1.2-1.4.5-.3,1.1-.5,1.7-.5,1,0,1.8.3,2.3,1,.6.7.8,1.6.8,2.9v.6h-5.3c0,.8.2,1.4.7,1.9.4.5,1,.7,1.6.7s.9,0,1.2-.3c.3-.2.6-.4.9-.8l.8.6c-.6,1-1.6,1.5-2.9,1.5ZM475.1,279.7c-.5,0-1,.2-1.3.6-.4.4-.6.9-.7,1.6h3.9c0-.8-.2-1.3-.5-1.7s-.8-.6-1.3-.6Z"/>
    <path class="cls-16" d="M483.6,279.9c-.2,0-.4,0-.7,0-.9,0-1.5.4-1.8,1.1v5.5h-1.3v-7.8h1.3v.9c.5-.7,1.1-1,1.9-1s.5,0,.6,0v1.2Z"/>
    <path class="cls-16" d="M489.3,286.5c0-.2-.1-.4-.2-.8-.6.6-1.4,1-2.2,1s-1.4-.2-1.9-.6c-.5-.4-.7-1-.7-1.6s.3-1.4.9-1.9c.6-.4,1.5-.7,2.6-.7h1.3v-.6c0-.5-.1-.8-.4-1.1-.3-.3-.7-.4-1.2-.4s-.9.1-1.2.4c-.3.2-.5.5-.5.9h-1.3c0-.4.1-.8.4-1.1s.6-.6,1.1-.9c.5-.2,1-.3,1.6-.3.9,0,1.6.2,2.1.7.5.4.8,1.1.8,1.8v3.6c0,.7,0,1.3.3,1.7h0c0,.1-1.4.1-1.4.1ZM487.1,285.5c.4,0,.8-.1,1.2-.3.4-.2.6-.5.8-.8v-1.6h-1c-1.6,0-2.4.5-2.4,1.4s.1.7.4,1c.3.2.6.4,1.1.4Z"/>
    <path class="cls-16" d="M495.6,285.5c.5,0,.9-.1,1.2-.4.4-.3.5-.6.6-1.1h1.3c0,.4-.2.9-.5,1.3-.3.4-.7.7-1.1,1-.5.2-1,.4-1.5.4-1.1,0-1.9-.4-2.5-1.1-.6-.7-.9-1.7-.9-2.9v-.2c0-.8.1-1.4.4-2,.3-.6.7-1,1.2-1.4.5-.3,1.1-.5,1.8-.5s1.6.3,2.2.8c.6.5.9,1.2.9,2h-1.3c0-.5-.2-.9-.6-1.2-.3-.3-.8-.5-1.3-.5s-1.2.2-1.6.7c-.4.5-.6,1.2-.6,2.1v.2c0,.9.2,1.6.6,2.1.4.5.9.7,1.6.7Z"/>
    <path class="cls-16" d="M502,276.8v1.9h1.4v1h-1.4v4.8c0,.3,0,.5.2.7s.3.2.7.2.4,0,.6,0v1.1c-.3,0-.7.1-1,.1-.6,0-1-.2-1.3-.5-.3-.4-.5-.9-.5-1.5v-4.8h-1.4v-1h1.4v-1.9h1.3Z"/>
    <path class="cls-16" d="M505,276.7c0-.2,0-.4.2-.5.1-.1.3-.2.6-.2s.5,0,.6.2c.1.1.2.3.2.5s0,.4-.2.5c-.1.1-.3.2-.6.2s-.5,0-.6-.2c-.1-.1-.2-.3-.2-.5ZM506.4,286.5h-1.3v-7.8h1.3v7.8Z"/>
    <path class="cls-16" d="M508.2,282.5c0-.8.1-1.4.4-2s.7-1.1,1.2-1.4c.5-.3,1.1-.5,1.8-.5,1.1,0,1.9.4,2.6,1.1.7.7,1,1.7,1,2.9h0c0,.8-.1,1.5-.4,2.1s-.7,1.1-1.2,1.4c-.5.3-1.2.5-1.9.5-1.1,0-1.9-.4-2.6-1.1-.7-.7-1-1.7-1-2.9h0ZM509.5,282.7c0,.9.2,1.5.6,2.1.4.5.9.8,1.6.8s1.2-.3,1.6-.8c.4-.5.6-1.3.6-2.2s-.2-1.5-.6-2.1c-.4-.5-.9-.8-1.6-.8s-1.2.3-1.6.8c-.4.5-.6,1.3-.6,2.2Z"/>
    <path class="cls-16" d="M518.1,278.7v1c.6-.7,1.4-1.1,2.4-1.1,1.6,0,2.5.9,2.5,2.8v5.1h-1.3v-5.1c0-.6-.1-1-.4-1.2-.2-.3-.6-.4-1.2-.4s-.8.1-1.1.3c-.3.2-.6.5-.8.9v5.5h-1.3v-7.8h1.3Z"/>
    <path class="cls-16" d="M529.5,284.4c0-.4-.1-.6-.4-.8s-.7-.4-1.4-.5c-.7-.1-1.2-.3-1.6-.5-.4-.2-.7-.4-.9-.7-.2-.3-.3-.6-.3-1,0-.6.3-1.2.8-1.6.5-.4,1.2-.7,2.1-.7s1.6.2,2.1.7c.5.5.8,1,.8,1.7h-1.3c0-.4-.2-.7-.5-.9-.3-.3-.7-.4-1.2-.4s-.9.1-1.1.3c-.3.2-.4.5-.4.8s.1.6.4.7.7.3,1.4.5,1.2.3,1.6.5.7.5.9.7.3.6.3,1.1c0,.7-.3,1.2-.8,1.7s-1.3.6-2.2.6-1.2-.1-1.6-.3-.9-.5-1.1-.9c-.3-.4-.4-.8-.4-1.3h1.3c0,.4.2.8.5,1.1.3.3.8.4,1.3.4s.9-.1,1.2-.3c.3-.2.5-.5.5-.8Z"/>
  </g>
  <polygon class="cls-5" points="484 223.1 484 247.3 490.2 241.1 494.8 249.8 498.1 248.1 493.7 239.7 502.1 239.7 484 223.1"/>
  <path id="Icon_awesome-server" data-name="Icon awesome-server" class="cls-9" d="M573.8,136.8h-23.1c-.9,0-1.7-.7-1.7-1.7v-3.3c0-.9.7-1.7,1.7-1.7h23.1c.9,0,1.7.7,1.7,1.7v3.3c0,.9-.7,1.7-1.7,1.7ZM571.3,132.3c-.7,0-1.2.6-1.2,1.2s.6,1.2,1.2,1.2,1.2-.6,1.2-1.2h0c0-.7-.6-1.2-1.2-1.2s0,0,0,0ZM568,132.3c-.7,0-1.2.6-1.2,1.2s.6,1.2,1.2,1.2,1.2-.6,1.2-1.2h0c0-.7-.6-1.2-1.2-1.2s0,0,0,0ZM573.8,145.1h-23.1c-.9,0-1.7-.7-1.7-1.7v-3.3c0-.9.7-1.7,1.7-1.7h23.1c.9,0,1.7.7,1.7,1.7v3.3c0,.9-.7,1.7-1.7,1.7ZM571.3,140.5c-.7,0-1.2.6-1.2,1.2s.6,1.2,1.2,1.2,1.2-.6,1.2-1.2h0c0-.7-.6-1.2-1.2-1.2h0ZM568,140.5c-.7,0-1.2.6-1.2,1.2s.6,1.2,1.2,1.2,1.2-.6,1.2-1.2h0c0-.7-.6-1.2-1.2-1.2h0ZM573.8,153.3h-23.1c-.9,0-1.7-.7-1.7-1.7v-3.3c0-.9.7-1.7,1.7-1.7h23.1c.9,0,1.7.7,1.7,1.7v3.3c0,.9-.7,1.7-1.7,1.7ZM571.3,148.8c-.7,0-1.2.6-1.2,1.2s.6,1.2,1.2,1.2,1.2-.6,1.2-1.2h0c0-.7-.6-1.2-1.2-1.2h0ZM568,148.8c-.7,0-1.2.6-1.2,1.2s.6,1.2,1.2,1.2,1.2-.6,1.2-1.2h0c0-.7-.6-1.2-1.2-1.2h0Z"/>
  <circle class="cls-4" cx="191.7" cy="324.7" r="168"/>
  <g id="layer1">
    <g id="g855">
      <g id="ecf0c6f4-1fb9-44ab-9823-1297099be5b7">
        <path id="path840" class="cls-10" d="M283.3,396.8c3-3.3,8.3.7,5.6,4.3-3.1,3.7-6.3,7.3-9.8,10.7-1.4,1.4-3.6,1.4-5,0-1.4-1.4-1.4-3.6,0-4.9,3.3-3.2,6.4-6.5,9.3-10h0ZM299.3,370.9c2-4.1,8.3-1.4,6.6,2.7-1.9,4.4-4.2,8.6-6.6,12.7-1,1.7-3.2,2.2-4.9,1.3-1.7-.9-2.3-3.1-1.3-4.7,2.3-3.9,4.4-7.9,6.3-12h0ZM220.4,436.9c4.5-1.2,8.9-2.6,13.2-4.2,4.5-1.7,7.1,4.8,2.7,6.5-4.5,1.8-9.2,3.2-14,4.5-1.9.5-3.9-.6-4.4-2.5s.6-3.7,2.5-4.2h0ZM189.6,440.8c4.6,0,9.2-.3,13.8-.8,2-.2,3.7,1.1,4,3.1.2,1.9-1.2,3.6-3.2,3.8-4.9.5-9.7.8-14.6.8h0c-2,0-3.5-1.5-3.5-3.5s1.7-3.5,3.6-3.5h0ZM298.2,268.1c-1.7.9-3.9.4-4.9-1.3-2.3-3.9-4.9-7.7-7.6-11.3-2.6-3.7,2.9-7.6,5.8-4.1,2.9,3.8,5.6,7.8,8.1,11.9,1,1.7.4,3.8-1.3,4.7h0ZM93.3,253.7c-3,0-4.7-3.4-2.8-5.6,3.1-3.7,6.3-7.3,9.8-10.6,3.4-3.4,8.6,1.7,5,4.9-3.3,3.2-6.4,6.5-9.3,10-.7.8-1.7,1.3-2.8,1.3h0ZM81.2,381.4c1.7-.9,3.9-.4,4.9,1.3,2.3,3.9,4.9,7.7,7.7,11.3,2.8,3.7-2.9,7.9-5.8,4.1-2.9-3.8-5.6-7.8-8.1-11.9-1-1.7-.4-3.8,1.3-4.7ZM249.3,425.3c4-2.3,7.9-4.7,11.6-7.4,3.8-2.7,8,2.8,4.3,5.6-4,2.8-8.1,5.4-12.3,7.8-4.1,2.2-7.6-3.6-3.6-6h0ZM176,209.4c-4.7.5-5.5-6.4-.8-6.9,4.8-.5,9.5-.8,14.4-.8h.3c2,0,3.4,1.5,3.4,3.5s-1.8,3.5-3.7,3.5c-4.5,0-9.1.3-13.6.7h0ZM118.5,231.4c-3.8,2.7-8.1-2.8-4.3-5.6,4-2.8,8.1-5.4,12.3-7.8,4.1-2.2,7.6,3.7,3.6,6-4,2.3-7.9,4.7-11.6,7.4h0ZM80.1,262.9c2.4-4,8.6-.5,6.2,3.5-2.3,3.9-4.4,7.9-6.3,12-1.9,4.2-8.5,1.5-6.6-2.8,2-4.4,4.2-8.6,6.7-12.7h0ZM221.8,212.8c-.3,0-.6,0-.9-.1-4.5-1.2-9-2.1-13.6-2.7-1.9-.3-3.3-2-3-4,.3-1.9,2.1-3.2,4.1-2.9,4.8.7,9.7,1.7,14.4,2.9,4,1.1,3.2,6.8-.9,6.8h0ZM66.5,320.8c2,0,3.6,1.6,3.6,3.5v.5c0,4.5.3,9,.8,13.5.4,4.5-6.4,5.3-7.1.8-.6-4.8-.9-9.5-.9-14.4v-.4c0-1.9,1.6-3.5,3.6-3.5h0ZM251.4,224.8c-.6,0-1.3-.2-1.8-.5-4-2.3-8.2-4.3-12.4-6.1-4.1-1.9-1.4-8,2.8-6.4,4.5,1.9,8.9,4.1,13.2,6.4,3.2,1.8,1.9,6.5-1.8,6.5ZM145.8,216.7c-4.3,1.4-6.8-4.6-2.6-6.5,4.6-1.8,9.2-3.2,14-4.5,1.9-.5,3.9.6,4.4,2.5.5,1.8-.6,3.7-2.6,4.2-4.5,1.2-8.9,2.6-13.2,4.2h0ZM309.1,324.7c0-4.4-.3-8.9-.8-13.2-.2-1.9,1.2-3.6,3.2-3.8,2-.3,3.7,1.2,4,3.1.5,4.6.8,9.4.8,14.1v.2c0,1.9-1.6,3.4-3.6,3.4s-3.6-1.7-3.6-3.6h0ZM158.6,436.8c4.5,1.2,9,2.1,13.6,2.7,4.9.5,3.8,7.7-1,6.9-4.9-.7-9.7-1.7-14.4-2.9-4.8-1.1-2.9-8.1,1.8-6.7h0ZM69.7,352.3c1.9-.5,3.9.6,4.4,2.5,1.2,4.4,2.7,8.6,4.4,12.8,1.4,4.2-4.8,6.6-6.7,2.6-1.8-4.5-3.3-9-4.6-13.6-.5-1.8.6-3.7,2.5-4.2h0ZM309.5,297.4c-1.9.5-3.9-.6-4.4-2.5-1.2-4.4-2.7-8.6-4.3-12.8-1.8-4.3,4.9-6.8,6.7-2.6,1.8,4.5,3.3,9,4.6,13.6.5,1.8-.6,3.7-2.6,4.2h0ZM74.2,294.3c-1.2,4.3-2.2,8.7-2.8,13.2-.6,4.7-7.9,3.6-7.1-1,.7-4.7,1.7-9.4,3-14,.5-1.8,2.5-3,4.4-2.4,1.9.5,3,2.4,2.5,4.3h0ZM129.8,425.2c4,2.3,8.2,4.3,12.4,6.1,1.8.8,2.7,2.8,1.8,4.5-.8,1.8-2.9,2.6-4.7,1.8-4.5-1.9-8.9-4.1-13.1-6.4-4.1-2.3-.5-8.3,3.6-6h0ZM105.1,406.8c3.2,3.2,6.8,6.2,10.4,9,2.7,2,1.2,6.2-2.2,6.2s-1.6-.3-2.2-.8c-3.8-3-7.5-6.1-11-9.5-3.4-3.3,1.7-8.2,5-4.9h0ZM305.1,355c1.2-4.3,2.2-8.7,2.8-13.2.3-1.9,2.1-3.2,4.1-2.9,1.9.3,3.3,2,3,4-.7,4.7-1.7,9.4-3,14-1.3,4.5-8.2,2.7-6.9-1.8h0ZM274.4,242.9c-3.3-3.2-6.7-6.2-10.4-9-3.9-2.9.7-8.5,4.5-5.4,3.8,3,7.5,6.2,11,9.5,3.1,3.3-1.7,7.9-5.1,4.9h0Z"/>
      </g>
      <g id="g1055">
        <g id="_178f47e0-6b1f-4606-87a3-fdb6c24c1003" data-name=" 178f47e0-6b1f-4606-87a3-fdb6c24c1003">
          <path id="path1037" class="cls-8" d="M146.4,258.7c10.2,3.3,20.4,6.8,30.7,9.9,10.3,3.1,20.6,7,31.1,8.1,13.1,1.4,25.5-8.2,29.7-20.6,2.2-6.5,5.5-4.5,9.2-2.1,15,9.4,24.4,23.2,29.4,39.4,3.2,10.3,3.6,21.5,4.6,32.3.5,6-3.5,9.7-8.7,12.4-29.7,15.3-56.8,9.5-83.6-8.2-14.5-9.6-30.1-18.2-46.2-24.9-8.2-3.4-18.6-2.2-28-2.2-10.4,0-14.1-3.8-10-13,8.5-18.9,17.5-29.3,41.7-31h0Z"/>
          <path id="path1039" class="cls-14" d="M98,333.3c-.1-15.9.4-15.4,11.8-18.1,23.5-5.4,42.6,3.5,61,16.1,13.6,9.3,26.8,19.3,43.3,23.7,18.2,5,35.9,4.5,53.6-2.1,2.5-.9,5.5-.5,8.3-.7-.4,2.7-.4,5.7-1.4,8.2-10.9,27.6-43.2,33-70,21.4-7.9-3.4-15.9-7-24.2-9.3-16.4-4.5-32.4,2.8-39.2,18-3,6.8-5.8,6.1-10.7,2.5-21.9-15.9-30-38.6-32.5-59.8h0Z"/>
          <path id="path1041" class="cls-15" d="M236.2,405c-11.3,3.5-20.4,6.9-29.9,9.1-16.1,3.7-31.9,1.9-46.9-5-9.4-4.3-10.5-14.1-2.7-20.8,7.7-6.5,16.8-7,25.4-3.8,15.9,5.9,30.9,14.6,48.4,15.8,1.2,0,2.3,1.8,5.7,4.8h0ZM146.8,243.1c8.6-2.7,16.9-6.4,25.6-8,14.5-2.6,29.2-2.6,43.5,2.9,6.4,2.5,11.3,6.4,10.9,13.4s-5.9,11.5-12.2,12.3c-7.1.9-14.8.8-21.6-1.2-14.3-4.1-28.1-9.7-42.1-14.7-1.2-.5-2.3-1-3.5-1.6-.2-1.1-.4-2.2-.6-3.2h0Z"/>
        </g>
      </g>
    </g>
  </g>
  <path class="cls-13" d="M261.8,78.3c-4.5,0-8.2-3.7-8.2-8.2s3.7-8.2,8.2-8.2,3.7.7,5.1,1.8l-4.1,3.5,10.8,1.6v-10.9s-3.8,3.3-3.8,3.3c-2.1-1.9-4.9-3.1-8-3.1-6.6,0-12,5.4-12,12s5.4,12,12,12,9.6-3.3,11.3-7.9l-3.8-.6c-1.3,2.8-4.2,4.7-7.4,4.7Z"/>
  <path class="cls-11" d="M439,62h0c0,0-.1,0-.2,0l-7.5-7.5c-.5-.5-1.3-.7-1.9-.4l1.2-3.4c.2-.6,0-1.4-.4-1.8l-2.4-2.4c-.4-.4-1.3-.6-1.8-.4l-1.5.5c-.2,0-.4.2-.4.4,0,.2,0,.4.2.5l1.6,1.6c.6.6.6,1.5,0,2l-1.7,1.7c-.3.3-.6.4-1,.4s-.7-.1-1-.4l-1.6-1.6c-.2-.2-.4-.3-.5-.2-.2,0-.3.2-.4.4l-.5,1.5c-.2.6,0,1.4.4,1.8l2.4,2.4c.4.4,1.3.6,1.8.4l3.4-1.2c-.2.7,0,1.4.4,1.9l7.5,7.5c0,0,0,.1,0,.2,0,2.2,1.8,4,4,4s4-1.8,4-4-1.8-4-4-4ZM439,68c-1.1,0-2.1-.9-2.1-2.1s.2-1.1.6-1.5c.4-.4.9-.6,1.5-.6,1.1,0,2.1.9,2.1,2.1s-.9,2.1-2.1,2.1Z"/>
  <path class="cls-3" d="M472.8,353.4c-4.1-9.6-13.6-16.4-24.8-16.4s-2.1,0-3.1.2c-4.6-17.6-20.7-30.6-39.8-30.6s-32.5,11-38.4,26.5c-16.3,2.8-28.8,17-28.8,34.2s14.7,33.8,33.1,34.6h0c0,.1,94,.1,94,.1.5,0,.9,0,1.4,0,13.7,0,24.8-11.1,24.8-24.8s-7.8-21.1-18.5-23.9Z"/>
  <path class="cls-2" d="M405.6,186c-3.6-8.4-11.9-14.3-21.6-14.3s-1.8,0-2.7.2c-4.1-15.4-18.1-26.7-34.7-26.7s-28.4,9.6-33.6,23.1c-14.3,2.4-25.1,14.9-25.1,29.8s12.8,29.5,28.9,30.2h0c0,.1,82.1.1,82.1.1.4,0,.8,0,1.2,0,11.9,0,21.6-9.7,21.6-21.6s-6.8-18.4-16.1-20.9Z"/>
  <g>
    <path class="cls-16" d="M326.4,191.7c-1.2-.3-2-.8-2.6-1.2-.5-.5-.8-1.1-.8-1.8s.3-1.5,1-2c.7-.5,1.5-.8,2.6-.8s1.4.1,1.9.4,1,.7,1.3,1.1c.3.5.5,1,.5,1.6h-1.4c0-.6-.2-1.1-.6-1.5s-1-.5-1.7-.5-1.2.1-1.6.4c-.4.3-.6.7-.6,1.2s.2.8.5,1.1c.4.3,1,.6,1.8.8.9.2,1.5.5,2,.8.5.3.9.6,1.1,1s.4.9.4,1.4c0,.8-.3,1.5-1,2s-1.5.8-2.6.8-1.4-.1-2-.4c-.6-.3-1.1-.7-1.4-1.1s-.5-1-.5-1.6h1.4c0,.6.2,1.1.7,1.5.5.4,1.1.5,1.9.5s1.3-.1,1.7-.4c.4-.3.6-.7.6-1.2s-.2-.9-.5-1.2c-.4-.3-1-.6-1.9-.8Z"/>
    <path class="cls-16" d="M333.6,186.7v1.9h1.4v1h-1.4v4.8c0,.3,0,.5.2.7.1.2.3.2.7.2s.4,0,.6,0v1.1c-.3,0-.7.1-1,.1-.6,0-1-.2-1.3-.5s-.5-.9-.5-1.5v-4.8h-1.4v-1h1.4v-1.9h1.3Z"/>
    <path class="cls-16" d="M340.3,189.8c-.2,0-.4,0-.7,0-.9,0-1.5.4-1.8,1.1v5.5h-1.3v-7.8h1.3v.9c.5-.7,1.1-1,1.9-1s.5,0,.6.1v1.2Z"/>
    <path class="cls-16" d="M344.7,196.5c-1.1,0-1.9-.3-2.6-1-.7-.7-1-1.6-1-2.8v-.2c0-.8.1-1.5.4-2.1.3-.6.7-1.1,1.2-1.4.5-.3,1.1-.5,1.7-.5,1,0,1.8.3,2.3,1,.6.7.8,1.6.8,2.9v.6h-5.3c0,.8.2,1.4.7,1.9.4.5,1,.7,1.6.7s.9,0,1.2-.3.6-.4.9-.8l.8.6c-.6,1-1.6,1.5-2.9,1.5ZM344.6,189.5c-.5,0-1,.2-1.3.6-.4.4-.6.9-.7,1.6h3.9c0-.8-.2-1.3-.5-1.7s-.8-.6-1.3-.6Z"/>
    <path class="cls-16" d="M354.1,196.3c0-.2-.1-.4-.2-.8-.6.6-1.4,1-2.2,1s-1.4-.2-1.9-.6c-.5-.4-.7-1-.7-1.6s.3-1.4.9-1.9c.6-.4,1.5-.7,2.6-.7h1.3v-.6c0-.5-.1-.8-.4-1.1-.3-.3-.7-.4-1.2-.4s-.9.1-1.2.4-.5.5-.5.9h-1.3c0-.4.1-.8.4-1.1.3-.4.6-.6,1.1-.9.5-.2,1-.3,1.6-.3.9,0,1.6.2,2.1.7.5.4.8,1.1.8,1.8v3.6c0,.7,0,1.3.3,1.7h0c0,.1-1.4.1-1.4.1ZM351.9,195.3c.4,0,.8-.1,1.2-.3.4-.2.6-.5.8-.8v-1.6h-1c-1.6,0-2.4.5-2.4,1.4s.1.7.4,1c.3.2.6.4,1.1.4Z"/>
    <path class="cls-16" d="M358.5,188.6v.9c.6-.7,1.4-1,2.3-1s1.8.4,2.2,1.2c.3-.4.6-.7,1-.9.4-.2.9-.3,1.5-.3,1.7,0,2.6.9,2.6,2.7v5.2h-1.3v-5.1c0-.6-.1-1-.4-1.2-.3-.3-.7-.4-1.3-.4s-.9.1-1.2.4c-.3.3-.5.7-.6,1.2v5.1h-1.3v-5.1c0-1.1-.6-1.7-1.7-1.7s-1.5.4-1.8,1.1v5.7h-1.3v-7.8h1.3Z"/>
    <path class="cls-16" d="M370.2,186.5c0-.2,0-.4.2-.5.1-.1.3-.2.6-.2s.5,0,.6.2c.1.1.2.3.2.5s0,.4-.2.5c-.1.1-.3.2-.6.2s-.5,0-.6-.2c-.1-.1-.2-.3-.2-.5ZM371.6,196.3h-1.3v-7.8h1.3v7.8Z"/>
    <path class="cls-16" d="M375,188.6v1c.6-.7,1.4-1.1,2.4-1.1,1.6,0,2.5.9,2.5,2.8v5.1h-1.3v-5.1c0-.6-.1-1-.4-1.2-.2-.3-.6-.4-1.2-.4s-.8.1-1.1.3c-.3.2-.6.5-.8.9v5.5h-1.3v-7.8h1.3Z"/>
    <path class="cls-16" d="M381.5,192.4c0-1.2.3-2.2.8-2.9.6-.7,1.3-1.1,2.2-1.1s1.7.3,2.2,1v-.9h1.3v7.6c0,1-.3,1.8-.9,2.4-.6.6-1.4.9-2.4.9s-1.1-.1-1.6-.4c-.5-.2-.9-.6-1.2-1l.7-.8c.6.7,1.3,1.1,2.1,1.1s1.1-.2,1.5-.5c.4-.4.5-.9.5-1.5v-.7c-.5.6-1.3.9-2.2.9s-1.6-.4-2.2-1.1c-.6-.7-.8-1.7-.8-3ZM382.8,192.5c0,.9.2,1.6.5,2.1s.9.7,1.5.7,1.4-.4,1.8-1.1v-3.5c-.4-.7-1-1.1-1.8-1.1s-1.1.3-1.5.8c-.4.5-.5,1.2-.5,2.2Z"/>
    <path class="cls-16" d="M317.7,212.6c-.4.5-.8.9-1.5,1.1-.6.3-1.4.4-2.2.4s-1.6-.2-2.3-.6c-.7-.4-1.2-1-1.5-1.7-.4-.7-.5-1.6-.6-2.6v-.9c0-1.6.4-2.8,1.1-3.7.7-.9,1.8-1.3,3.1-1.3s2,.3,2.6.8c.7.6,1.1,1.3,1.2,2.4h-1.4c-.3-1.4-1.1-2.1-2.5-2.1s-1.6.3-2.1,1c-.5.6-.7,1.6-.7,2.8v.9c0,1.2.3,2.1.8,2.8.5.7,1.3,1,2.2,1s1,0,1.4-.2c.4-.1.7-.3,1-.6v-2.3h-2.4v-1.1h3.8v3.8Z"/>
    <path class="cls-16" d="M321.3,209.9v4.1h-1.4v-10.4h3.8c1.1,0,2,.3,2.7.9.6.6,1,1.4,1,2.3s-.3,1.8-.9,2.3c-.6.5-1.5.8-2.7.8h-2.5ZM321.3,208.7h2.5c.7,0,1.3-.2,1.7-.5.4-.3.6-.8.6-1.5s-.2-1.1-.6-1.5c-.4-.4-.9-.6-1.6-.6h-2.6v4.1Z"/>
    <path class="cls-16" d="M336.5,203.5v7.1c0,1-.3,1.8-.9,2.4-.6.6-1.4,1-2.5,1.1h-.4c-1.1,0-2.1-.3-2.7-.9-.7-.6-1-1.5-1-2.5v-7.1h1.4v7.1c0,.8.2,1.3.6,1.8.4.4,1,.6,1.8.6s1.4-.2,1.8-.6.6-1,.6-1.8v-7.1h1.4Z"/>
    <path class="cls-16" d="M342.4,213.9v-10.4h2.9c.9,0,1.7.2,2.4.6s1.2,1,1.6,1.7.6,1.6.6,2.6v.7c0,1-.2,1.8-.6,2.6-.4.7-.9,1.3-1.6,1.7s-1.5.6-2.5.6h-2.9ZM343.7,204.6v8.2h1.4c1.1,0,1.9-.3,2.5-1s.9-1.6.9-2.8v-.6c0-1.2-.3-2.1-.8-2.8-.6-.7-1.3-1-2.4-1h-1.6Z"/>
    <path class="cls-16" d="M355,214.1c-1.1,0-1.9-.3-2.6-1-.7-.7-1-1.6-1-2.8v-.2c0-.8.1-1.5.4-2.1.3-.6.7-1.1,1.2-1.4.5-.3,1.1-.5,1.7-.5,1,0,1.8.3,2.3,1,.6.7.8,1.6.8,2.9v.6h-5.3c0,.8.2,1.4.7,1.9.4.5,1,.7,1.6.7s.9,0,1.2-.3.6-.4.9-.8l.8.6c-.6,1-1.6,1.5-2.9,1.5ZM354.8,207.1c-.5,0-1,.2-1.3.6-.4.4-.6.9-.7,1.6h3.9c0-.8-.2-1.3-.5-1.7s-.8-.6-1.3-.6Z"/>
    <path class="cls-16" d="M364.1,211.9c0-.4-.1-.6-.4-.8s-.7-.4-1.4-.5c-.7-.1-1.2-.3-1.6-.5-.4-.2-.7-.4-.9-.7-.2-.3-.3-.6-.3-1,0-.6.3-1.2.8-1.6.5-.4,1.2-.7,2.1-.7s1.6.2,2.1.7c.5.5.8,1,.8,1.7h-1.3c0-.4-.2-.7-.5-.9-.3-.3-.7-.4-1.2-.4s-.9.1-1.1.3c-.3.2-.4.5-.4.8s.1.6.4.7c.3.2.7.3,1.4.5s1.2.3,1.6.5c.4.2.7.5.9.7.2.3.3.6.3,1.1,0,.7-.3,1.2-.8,1.7s-1.3.6-2.2.6-1.2-.1-1.6-.3c-.5-.2-.9-.5-1.1-.9-.3-.4-.4-.8-.4-1.3h1.3c0,.4.2.8.5,1.1.3.3.8.4,1.3.4s.9-.1,1.2-.3c.3-.2.5-.5.5-.8Z"/>
    <path class="cls-16" d="M369.3,210.4l-.8.9v2.7h-1.3v-11h1.3v6.7l.7-.9,2.4-2.6h1.6l-3,3.2,3.4,4.5h-1.6l-2.7-3.6Z"/>
    <path class="cls-16" d="M376.3,204.3v1.9h1.4v1h-1.4v4.8c0,.3,0,.5.2.7.1.2.3.2.7.2s.4,0,.6,0v1.1c-.3,0-.7.1-1,.1-.6,0-1-.2-1.3-.5s-.5-.9-.5-1.5v-4.8h-1.4v-1h1.4v-1.9h1.3Z"/>
    <path class="cls-16" d="M378.8,210c0-.8.1-1.4.4-2,.3-.6.7-1.1,1.2-1.4.5-.3,1.1-.5,1.8-.5,1.1,0,1.9.4,2.6,1.1.7.7,1,1.7,1,2.9h0c0,.8-.1,1.5-.4,2.1-.3.6-.7,1.1-1.2,1.4-.5.3-1.2.5-1.9.5-1.1,0-1.9-.4-2.6-1.1-.7-.7-1-1.7-1-2.9h0ZM380.2,210.2c0,.9.2,1.5.6,2.1.4.5.9.8,1.6.8s1.2-.3,1.6-.8.6-1.3.6-2.2-.2-1.5-.6-2.1c-.4-.5-.9-.8-1.6-.8s-1.2.3-1.6.8-.6,1.3-.6,2.2Z"/>
    <path class="cls-16" d="M394.1,210.2c0,1.2-.3,2.1-.8,2.9s-1.3,1.1-2.2,1.1-1.7-.3-2.2-.9v3.7h-1.3v-10.7h1.2v.9c.6-.7,1.4-1,2.3-1s1.7.4,2.2,1.1c.5.7.8,1.7.8,2.9h0ZM392.8,210c0-.9-.2-1.6-.6-2.1-.4-.5-.9-.8-1.5-.8s-1.4.4-1.8,1.1v3.7c.4.7,1,1.1,1.8,1.1s1.1-.3,1.5-.8.6-1.3.6-2.2Z"/>
    <path class="cls-16" d="M400.3,211.9c0-.4-.1-.6-.4-.8s-.7-.4-1.4-.5c-.7-.1-1.2-.3-1.6-.5-.4-.2-.7-.4-.9-.7-.2-.3-.3-.6-.3-1,0-.6.3-1.2.8-1.6.5-.4,1.2-.7,2.1-.7s1.6.2,2.1.7c.5.5.8,1,.8,1.7h-1.3c0-.4-.2-.7-.5-.9-.3-.3-.7-.4-1.2-.4s-.9.1-1.1.3c-.3.2-.4.5-.4.8s.1.6.4.7c.3.2.7.3,1.4.5s1.2.3,1.6.5c.4.2.7.5.9.7.2.3.3.6.3,1.1,0,.7-.3,1.2-.8,1.7s-1.3.6-2.2.6-1.2-.1-1.6-.3c-.5-.2-.9-.5-1.1-.9-.3-.4-.4-.8-.4-1.3h1.3c0,.4.2.8.5,1.1.3.3.8.4,1.3.4s.9-.1,1.2-.3c.3-.2.5-.5.5-.8Z"/>
  </g>
  <path id="Icon_awesome-desktop" data-name="Icon awesome-desktop" class="cls-12" d="M362.3,155.5h-22.8c-1.3,0-2.3,1-2.3,2.3v15.2c0,1.3,1,2.3,2.3,2.3h9.1l-.8,2.3h-3.4c-.6,0-1.1.5-1.1,1.2,0,.6.5,1.1,1.1,1.1h12.9c.6,0,1.1-.5,1.1-1.2,0-.6-.5-1.1-1.1-1.1h-3.4l-.8-2.3h9.1c1.3,0,2.3-1,2.3-2.3v-15.2c0-1.3-1-2.3-2.3-2.3ZM361.6,172.2h-21.3v-13.7h21.3v13.7Z"/>
  <g>
    <path class="cls-16" d="M374.2,364.8c-.1,1.1-.5,2-1.2,2.6s-1.6.9-2.7.9-2.2-.4-3-1.3c-.7-.9-1.1-2.1-1.1-3.5v-1c0-1,.2-1.8.5-2.6.3-.7.8-1.3,1.5-1.7.6-.4,1.4-.6,2.2-.6s2,.3,2.7.9,1.1,1.5,1.2,2.6h-1.4c-.1-.8-.4-1.4-.8-1.8-.4-.4-1-.6-1.7-.6s-1.6.3-2.1,1c-.5.7-.7,1.6-.7,2.8v1c0,1.1.2,2,.7,2.7s1.1,1,2,1,1.4-.2,1.8-.5c.4-.3.7-.9.8-1.8h1.4Z"/>
    <path class="cls-16" d="M380.7,367.3c-.5.6-1.3.9-2.3.9s-1.5-.2-1.9-.7c-.4-.5-.7-1.2-.7-2.1v-5h1.3v5c0,1.2.5,1.8,1.4,1.8s1.7-.4,2-1.1v-5.6h1.3v7.8h-1.3v-.8Z"/>
    <path class="cls-16" d="M388.5,366.1c0-.4-.1-.6-.4-.8s-.7-.4-1.4-.5c-.7-.1-1.2-.3-1.6-.5-.4-.2-.7-.4-.9-.7-.2-.3-.3-.6-.3-1,0-.6.3-1.2.8-1.6.5-.4,1.2-.7,2.1-.7s1.6.2,2.1.7c.5.5.8,1,.8,1.7h-1.3c0-.4-.2-.7-.5-.9-.3-.3-.7-.4-1.2-.4s-.9.1-1.1.3c-.3.2-.4.5-.4.8s.1.6.4.7.7.3,1.4.5,1.2.3,1.6.5.7.5.9.7.3.6.3,1.1c0,.7-.3,1.2-.8,1.7s-1.3.6-2.2.6-1.2-.1-1.6-.3-.9-.5-1.1-.9c-.3-.4-.4-.8-.4-1.3h1.3c0,.4.2.8.5,1.1.3.3.8.4,1.3.4s.9-.1,1.2-.3c.3-.2.5-.5.5-.8Z"/>
    <path class="cls-16" d="M393.4,358.5v1.9h1.4v1h-1.4v4.8c0,.3,0,.5.2.7s.3.2.7.2.4,0,.6,0v1.1c-.3,0-.7.1-1,.1-.6,0-1-.2-1.3-.5-.3-.4-.5-.9-.5-1.5v-4.8h-1.4v-1h1.4v-1.9h1.3Z"/>
    <path class="cls-16" d="M395.9,364.2c0-.8.1-1.4.4-2s.7-1.1,1.2-1.4c.5-.3,1.1-.5,1.8-.5,1.1,0,1.9.4,2.6,1.1.7.7,1,1.7,1,2.9h0c0,.8-.1,1.5-.4,2.1s-.7,1.1-1.2,1.4c-.5.3-1.2.5-1.9.5-1.1,0-1.9-.4-2.6-1.1-.7-.7-1-1.7-1-2.9h0ZM397.2,364.3c0,.9.2,1.5.6,2.1.4.5.9.8,1.6.8s1.2-.3,1.6-.8c.4-.5.6-1.3.6-2.2s-.2-1.5-.6-2.1c-.4-.5-.9-.8-1.6-.8s-1.2.3-1.6.8c-.4.5-.6,1.3-.6,2.2Z"/>
    <path class="cls-16" d="M405.8,360.4v.9c.6-.7,1.4-1,2.3-1s1.8.4,2.2,1.2c.3-.4.6-.7,1-.9.4-.2.9-.3,1.5-.3,1.7,0,2.6.9,2.6,2.7v5.2h-1.3v-5.1c0-.6-.1-1-.4-1.2-.3-.3-.7-.4-1.3-.4s-.9.1-1.2.4c-.3.3-.5.7-.6,1.2v5.1h-1.3v-5.1c0-1.1-.6-1.7-1.7-1.7s-1.5.4-1.8,1.1v5.7h-1.3v-7.8h1.3Z"/>
    <path class="cls-16" d="M417.5,358.3c0-.2,0-.4.2-.5.1-.1.3-.2.6-.2s.5,0,.6.2c.1.1.2.3.2.5s0,.4-.2.5c-.1.1-.3.2-.6.2s-.5,0-.6-.2c-.1-.1-.2-.3-.2-.5ZM418.9,368.1h-1.3v-7.8h1.3v7.8Z"/>
    <path class="cls-16" d="M422.3,367h4.5v1.1h-6.2v-1l4.3-5.7h-4.2v-1.1h5.9v.9l-4.3,5.7Z"/>
    <path class="cls-16" d="M433.1,368.1c0-.2-.1-.4-.2-.8-.6.6-1.4,1-2.2,1s-1.4-.2-1.9-.6c-.5-.4-.7-1-.7-1.6s.3-1.4.9-1.9c.6-.4,1.5-.7,2.6-.7h1.3v-.6c0-.5-.1-.8-.4-1.1-.3-.3-.7-.4-1.2-.4s-.9.1-1.2.4c-.3.2-.5.5-.5.9h-1.3c0-.4.1-.8.4-1.1s.6-.6,1.1-.9c.5-.2,1-.3,1.6-.3.9,0,1.6.2,2.1.7.5.4.8,1.1.8,1.8v3.6c0,.7,0,1.3.3,1.7h0c0,.1-1.4.1-1.4.1ZM430.9,367.1c.4,0,.8-.1,1.2-.3.4-.2.6-.5.8-.8v-1.6h-1c-1.6,0-2.4.5-2.4,1.4s.1.7.4,1c.3.2.6.4,1.1.4Z"/>
    <path class="cls-16" d="M442.8,364.3c0,1.2-.3,2.1-.8,2.9-.5.7-1.3,1.1-2.2,1.1s-1.7-.3-2.3-1v.9h-1.3v-11h1.3v4.1c.5-.7,1.3-1,2.2-1s1.7.4,2.2,1.1c.5.7.8,1.7.8,2.9h0ZM441.5,364.2c0-.9-.2-1.6-.5-2.1s-.8-.7-1.5-.7-1.5.4-1.9,1.2v3.4c.4.8,1,1.2,1.9,1.2s1.1-.2,1.5-.7c.4-.5.5-1.2.5-2.2Z"/>
    <path class="cls-16" d="M445.9,368.1h-1.3v-11h1.3v11Z"/>
    <path class="cls-16" d="M451.3,368.3c-1.1,0-1.9-.3-2.6-1-.7-.7-1-1.6-1-2.8v-.2c0-.8.1-1.5.4-2.1.3-.6.7-1.1,1.2-1.4.5-.3,1.1-.5,1.7-.5,1,0,1.8.3,2.3,1,.6.7.8,1.6.8,2.9v.6h-5.3c0,.8.2,1.4.7,1.9.4.5,1,.7,1.6.7s.9,0,1.2-.3c.3-.2.6-.4.9-.8l.8.6c-.6,1-1.6,1.5-2.9,1.5ZM451.1,361.3c-.5,0-1,.2-1.3.6-.4.4-.6.9-.7,1.6h3.9c0-.8-.2-1.3-.5-1.7s-.8-.6-1.3-.6Z"/>
    <path class="cls-16" d="M365.3,382.4c-.1,1.1-.5,2-1.2,2.6s-1.6.9-2.7.9-2.2-.4-3-1.3c-.7-.9-1.1-2.1-1.1-3.5v-1c0-1,.2-1.8.5-2.6.3-.7.8-1.3,1.5-1.7.6-.4,1.4-.6,2.2-.6s2,.3,2.7.9,1.1,1.5,1.2,2.6h-1.4c-.1-.8-.4-1.4-.8-1.8-.4-.4-1-.6-1.7-.6s-1.6.3-2.1,1c-.5.7-.7,1.6-.7,2.8v1c0,1.1.2,2,.7,2.7s1.1,1,2,1,1.4-.2,1.8-.5c.4-.3.7-.9.8-1.8h1.4Z"/>
    <path class="cls-16" d="M368.4,385.7h-1.3v-11h1.3v11Z"/>
    <path class="cls-16" d="M370.2,381.8c0-.8.1-1.4.4-2s.7-1.1,1.2-1.4c.5-.3,1.1-.5,1.8-.5,1.1,0,1.9.4,2.6,1.1.7.7,1,1.7,1,2.9h0c0,.8-.1,1.5-.4,2.1s-.7,1.1-1.2,1.4c-.5.3-1.2.5-1.9.5-1.1,0-1.9-.4-2.6-1.1-.7-.7-1-1.7-1-2.9h0ZM371.5,381.9c0,.9.2,1.5.6,2.1.4.5.9.8,1.6.8s1.2-.3,1.6-.8c.4-.5.6-1.3.6-2.2s-.2-1.5-.6-2.1c-.4-.5-.9-.8-1.6-.8s-1.2.3-1.6.8c-.4.5-.6,1.3-.6,2.2Z"/>
    <path class="cls-16" d="M383.7,385c-.5.6-1.3.9-2.3.9s-1.5-.2-1.9-.7c-.4-.5-.7-1.2-.7-2.1v-5h1.3v5c0,1.2.5,1.8,1.4,1.8s1.7-.4,2-1.1v-5.6h1.3v7.8h-1.3v-.8Z"/>
    <path class="cls-16" d="M386.7,381.8c0-1.2.3-2.1.8-2.9.6-.7,1.3-1.1,2.2-1.1s1.6.3,2.2.9v-4h1.3v11h-1.2v-.8c-.6.6-1.3,1-2.3,1s-1.6-.4-2.2-1.1c-.6-.7-.8-1.7-.8-2.9h0ZM388,381.9c0,.9.2,1.6.5,2.1.4.5.9.7,1.5.7s1.5-.4,1.8-1.1v-3.6c-.4-.7-1-1.1-1.8-1.1s-1.2.3-1.5.8c-.4.5-.5,1.2-.5,2.2Z"/>
    <path class="cls-16" d="M400.6,385.7h-1.4v-10.4h1.4v10.4Z"/>
    <path class="cls-16" d="M404.2,378v1c.6-.7,1.4-1.1,2.4-1.1,1.6,0,2.5.9,2.5,2.8v5.1h-1.3v-5.1c0-.6-.1-1-.4-1.2-.2-.3-.6-.4-1.2-.4s-.8.1-1.1.3c-.3.2-.6.5-.8.9v5.5h-1.3v-7.8h1.3Z"/>
    <path class="cls-16" d="M412.8,376.1v1.9h1.4v1h-1.4v4.8c0,.3,0,.5.2.7s.3.2.7.2.4,0,.6,0v1.1c-.3,0-.7.1-1,.1-.6,0-1-.2-1.3-.5-.3-.4-.5-.9-.5-1.5v-4.8h-1.4v-1h1.4v-1.9h1.3Z"/>
    <path class="cls-16" d="M419,385.9c-1.1,0-1.9-.3-2.6-1-.7-.7-1-1.6-1-2.8v-.2c0-.8.1-1.5.4-2.1.3-.6.7-1.1,1.2-1.4.5-.3,1.1-.5,1.7-.5,1,0,1.8.3,2.3,1,.6.7.8,1.6.8,2.9v.6h-5.3c0,.8.2,1.4.7,1.9.4.5,1,.7,1.6.7s.9,0,1.2-.3c.3-.2.6-.4.9-.8l.8.6c-.6,1-1.6,1.5-2.9,1.5ZM418.9,378.9c-.5,0-1,.2-1.3.6-.4.4-.6.9-.7,1.6h3.9c0-.8-.2-1.3-.5-1.7s-.8-.6-1.3-.6Z"/>
    <path class="cls-16" d="M427.3,379.2c-.2,0-.4,0-.7,0-.9,0-1.5.4-1.8,1.1v5.5h-1.3v-7.8h1.3v.9c.5-.7,1.1-1,1.9-1s.5,0,.6,0v1.2Z"/>
    <path class="cls-16" d="M429.3,385.7v-6.7h-1.2v-1h1.2v-.8c0-.8.2-1.5.7-1.9.4-.5,1.1-.7,1.9-.7s.6,0,.9.1v1.1c-.3,0-.5,0-.8,0-.4,0-.8.1-1,.4-.2.3-.4.6-.4,1.1v.8h1.7v1h-1.7v6.7h-1.3Z"/>
    <path class="cls-16" d="M438.5,385.7c0-.2-.1-.4-.2-.8-.6.6-1.4,1-2.2,1s-1.4-.2-1.9-.6c-.5-.4-.7-1-.7-1.6s.3-1.4.9-1.9c.6-.4,1.5-.7,2.6-.7h1.3v-.6c0-.5-.1-.8-.4-1.1-.3-.3-.7-.4-1.2-.4s-.9.1-1.2.4c-.3.2-.5.5-.5.9h-1.3c0-.4.1-.8.4-1.1s.6-.6,1.1-.9c.5-.2,1-.3,1.6-.3.9,0,1.6.2,2.1.7.5.4.8,1.1.8,1.8v3.6c0,.7,0,1.3.3,1.7h0c0,.1-1.4.1-1.4.1ZM436.3,384.7c.4,0,.8-.1,1.2-.3.4-.2.6-.5.8-.8v-1.6h-1c-1.6,0-2.4.5-2.4,1.4s.1.7.4,1c.3.2.6.4,1.1.4Z"/>
    <path class="cls-16" d="M444.8,384.8c.5,0,.9-.1,1.2-.4.4-.3.5-.6.6-1.1h1.3c0,.4-.2.9-.5,1.3-.3.4-.7.7-1.1,1-.5.2-1,.4-1.5.4-1.1,0-1.9-.4-2.5-1.1-.6-.7-.9-1.7-.9-2.9v-.2c0-.8.1-1.4.4-2,.3-.6.7-1,1.2-1.4.5-.3,1.1-.5,1.8-.5s1.6.3,2.2.8c.6.5.9,1.2.9,2h-1.3c0-.5-.2-.9-.6-1.2-.3-.3-.8-.5-1.3-.5s-1.2.2-1.6.7c-.4.5-.6,1.2-.6,2.1v.2c0,.9.2,1.6.6,2.1.4.5.9.7,1.6.7Z"/>
    <path class="cls-16" d="M452.6,385.9c-1.1,0-1.9-.3-2.6-1-.7-.7-1-1.6-1-2.8v-.2c0-.8.1-1.5.4-2.1.3-.6.7-1.1,1.2-1.4.5-.3,1.1-.5,1.7-.5,1,0,1.8.3,2.3,1,.6.7.8,1.6.8,2.9v.6h-5.3c0,.8.2,1.4.7,1.9.4.5,1,.7,1.6.7s.9,0,1.2-.3c.3-.2.6-.4.9-.8l.8.6c-.6,1-1.6,1.5-2.9,1.5ZM452.5,378.9c-.5,0-1,.2-1.3.6-.4.4-.6.9-.7,1.6h3.9c0-.8-.2-1.3-.5-1.7s-.8-.6-1.3-.6Z"/>
    <path class="cls-16" d="M461.7,383.7c0-.4-.1-.6-.4-.8s-.7-.4-1.4-.5c-.7-.1-1.2-.3-1.6-.5-.4-.2-.7-.4-.9-.7-.2-.3-.3-.6-.3-1,0-.6.3-1.2.8-1.6.5-.4,1.2-.7,2.1-.7s1.6.2,2.1.7c.5.5.8,1,.8,1.7h-1.3c0-.4-.2-.7-.5-.9-.3-.3-.7-.4-1.2-.4s-.9.1-1.1.3c-.3.2-.4.5-.4.8s.1.6.4.7.7.3,1.4.5,1.2.3,1.6.5.7.5.9.7.3.6.3,1.1c0,.7-.3,1.2-.8,1.7s-1.3.6-2.2.6-1.2-.1-1.6-.3-.9-.5-1.1-.9c-.3-.4-.4-.8-.4-1.3h1.3c0,.4.2.8.5,1.1.3.3.8.4,1.3.4s.9-.1,1.2-.3c.3-.2.5-.5.5-.8Z"/>
  </g>
  <path class="cls-7" d="M417.4,316.5l-25.5,1.5c-.5,0-.9.4-1,.9l-2.4,17.7.3,1.3c.2.2.5.3.8.3l25.5-1.5c.5,0,.9-.4,1-.9l2.4-18c0-.7-.5-1.3-1.1-1.2Z"/>
  <g>
    <path class="cls-6" d="M400.7,349.6c-.4,0-.7-.1-1-.4h-.1c0-.1-.4-1.6-.4-1.6l2.4-17.8c.1-.8.7-1.3,1.5-1.4,0,0,25.5-1.5,25.5-1.5.6,0,1,.2,1.3.5.3.3.4.8.4,1.3l-2.4,18c-.1.8-.7,1.3-1.5,1.4l-25.6,1.5Z"/>
    <path class="cls-4" d="M428.5,327.4c.7,0,1.2.6,1.1,1.2l-2.4,18c0,.5-.5.9-1,.9l-25.5,1.5s0,0,0,0c-.3,0-.5-.1-.7-.3l-.3-1.3,2.4-17.7c0-.5.5-.9,1-.9l25.5-1.5s0,0,0,0M428.5,326.4s0,0-.1,0l-25.5,1.5c-1,0-1.8.8-1.9,1.8l-2.4,17.7v.2s0,.2,0,.2l.3,1.3v.3c0,0,.3.2.3.2.4.3.9.5,1.4.5s0,0,.1,0l25.5-1.5c1,0,1.8-.8,1.9-1.8l2.4-18c0-.6-.1-1.2-.5-1.7-.4-.5-1-.7-1.6-.7h0Z"/>
  </g>
  <path class="cls-4" d="M140.1,105.4c-2-4.8-6.8-8.2-12.3-8.2s-1,0-1.6,0c-2.3-8.8-10.3-15.3-19.8-15.3s-16.2,5.5-19.2,13.2c-8.1,1.4-14.4,8.5-14.4,17s7.3,16.9,16.5,17.3h0c0,0,46.9,0,46.9,0,.2,0,.5,0,.7,0,6.8,0,12.4-5.5,12.4-12.4s-3.9-10.5-9.2-11.9Z"/>
  <path class="cls-4" d="M627.4,422.2c-2-4.6-6.6-7.9-12-7.9s-1,0-1.5,0c-2.2-8.5-10-14.8-19.2-14.8s-15.7,5.3-18.6,12.8c-7.9,1.4-13.9,8.2-13.9,16.5s7.1,16.4,16,16.8h0c0,0,45.5,0,45.5,0,.2,0,.5,0,.7,0,6.6,0,12-5.4,12-12s-3.8-10.2-8.9-11.6Z"/>
  <path class="cls-4" d="M607,69.7c-1.6-3.7-5.2-6.3-9.5-6.3s-.8,0-1.2,0c-1.8-6.7-7.9-11.7-15.2-11.7s-12.4,4.2-14.7,10.1c-6.2,1.1-11,6.5-11,13.1s5.6,12.9,12.7,13.2h0s36,0,36,0c.2,0,.4,0,.5,0,5.2,0,9.5-4.2,9.5-9.5s-3-8.1-7.1-9.1Z"/>
  <path class="cls-4" d="M503.5,460.5c-1.4-3.2-4.6-5.5-8.3-5.5s-.7,0-1.1,0c-1.6-5.9-6.9-10.3-13.4-10.3s-10.9,3.7-12.9,8.9c-5.5.9-9.7,5.7-9.7,11.5s4.9,11.4,11.1,11.6h0s31.6,0,31.6,0c.2,0,.3,0,.5,0,4.6,0,8.3-3.7,8.3-8.3s-2.6-7.1-6.2-8Z"/>
  <path class="cls-4" d="M63.6,473c-1.1-2.5-3.6-4.3-6.5-4.3s-.5,0-.8,0c-1.2-4.6-5.4-8-10.4-8s-8.5,2.9-10,6.9c-4.3.7-7.5,4.4-7.5,8.9s3.8,8.8,8.6,9h0s24.5,0,24.5,0c.1,0,.2,0,.4,0,3.6,0,6.5-2.9,6.5-6.5s-2-5.5-4.8-6.2Z"/>
</svg>