<?xml version="1.0" encoding="UTF-8"?><svg id="Layer_1" xmlns="http://www.w3.org/2000/svg" xmlns:xlink="http://www.w3.org/1999/xlink" viewBox="0 0 216 72"><defs><style>.cls-1{fill:url(#linear-gradient-2);}.cls-2{fill:#0f92bf;}.cls-3{fill:url(#linear-gradient-3);}.cls-4{fill:url(#linear-gradient);}.cls-5{fill:url(#linear-gradient-4);}</style><linearGradient id="linear-gradient" x1="-169.48" y1="344.67" x2="-165.93" y2="344.67" gradientTransform="translate(2697.81 5342.99) scale(15.86 -15.4)" gradientUnits="userSpaceOnUse"><stop offset="0" stop-color="#3774ba"/><stop offset="1" stop-color="#37c3e0"/></linearGradient><linearGradient id="linear-gradient-2" x1="-189.34" y1="404.55" x2="-186.11" y2="404.55" gradientTransform="translate(2338.83 2679.41) scale(12.26 -6.55)" xlink:href="#linear-gradient"/><linearGradient id="linear-gradient-3" x1="-189.98" y1="407.51" x2="-186.99" y2="407.51" gradientTransform="translate(2521.57 2523.71) scale(13.18 -6.09)" xlink:href="#linear-gradient"/><linearGradient id="linear-gradient-4" x1="-180.09" y1="371.87" x2="-176.92" y2="371.87" gradientTransform="translate(1156.63 4798.08) scale(6.27 -12.81)" xlink:href="#linear-gradient"/></defs><g id="layer1"><g id="g855"><g id="ecf0c6f4-1fb9-44ab-9823-1297099be5b7"><path id="path840" class="cls-4" d="M58.21,51.75c.67-.74,1.84,.16,1.25,.96-.68,.83-1.41,1.62-2.18,2.37-.31,.3-.81,.3-1.12,0-.31-.3-.31-.79,0-1.09,.73-.71,1.42-1.45,2.06-2.23Zm3.56-5.76c.44-.91,1.84-.32,1.46,.61-.43,.97-.93,1.92-1.47,2.83-.22,.37-.71,.49-1.09,.28-.38-.21-.51-.69-.29-1.05,.52-.86,.98-1.76,1.39-2.67h0Zm-17.52,14.66c1-.26,1.97-.57,2.93-.94,.99-.38,1.57,1.06,.59,1.44-1.01,.39-2.05,.72-3.11,1-.42,.11-.86-.14-.97-.55-.11-.41,.14-.83,.56-.94h0Zm-6.84,.86c1.02,0,2.04-.06,3.06-.17,.44-.05,.83,.25,.88,.68,.05,.42-.26,.81-.7,.85-1.08,.12-2.16,.18-3.24,.18h-.02c-.44,0-.78-.34-.78-.77s.37-.77,.81-.77h0ZM61.52,23.18c-.38,.21-.87,.09-1.09-.28-.51-.87-1.08-1.7-1.69-2.51-.58-.82,.64-1.69,1.28-.92,.65,.85,1.25,1.74,1.79,2.65,.22,.37,.09,.84-.29,1.05Zm-45.5-3.2c-.67,0-1.04-.75-.62-1.25,.68-.83,1.41-1.62,2.18-2.36,.75-.75,1.9,.37,1.12,1.09-.73,.71-1.42,1.45-2.06,2.23-.15,.18-.38,.29-.62,.29h0Zm-2.69,28.35c.38-.21,.87-.09,1.09,.28,.52,.87,1.08,1.7,1.7,2.5,.63,.83-.64,1.75-1.28,.92-.65-.85-1.25-1.74-1.8-2.65-.22-.37-.09-.84,.29-1.05Zm37.33,9.74c.89-.5,1.75-1.05,2.58-1.65,.85-.59,1.78,.62,.95,1.24-.88,.63-1.79,1.21-2.73,1.74-.91,.48-1.68-.81-.79-1.34ZM34.4,10.14c-1.05,.11-1.23-1.42-.18-1.53,1.06-.12,2.12-.17,3.19-.17h.07c.44,0,.76,.34,.76,.77s-.39,.77-.83,.77c-1.01,0-2.02,.06-3.01,.16h0Zm-12.78,4.89c-.85,.61-1.8-.63-.95-1.24,.88-.63,1.79-1.21,2.74-1.74,.91-.49,1.69,.82,.79,1.34-.89,.5-1.75,1.05-2.58,1.64h0Zm-8.53,6.98c.53-.89,1.91-.11,1.37,.78-.52,.86-.98,1.75-1.39,2.67-.42,.94-1.88,.33-1.46-.62,.44-.97,.93-1.92,1.48-2.83h0Zm31.47-11.12c-.07,0-.14,0-.21-.03-.99-.26-2-.46-3.02-.61-.43-.06-.73-.45-.67-.88,.06-.42,.47-.72,.9-.65,1.07,.15,2.15,.37,3.2,.65,.89,.24,.72,1.51-.21,1.52ZM10.08,34.87c.44,0,.8,.35,.8,.77v.1c0,1,.06,2,.18,2.99,.09,1-1.43,1.17-1.58,.18-.13-1.06-.19-2.12-.19-3.19v-.08c0-.43,.36-.77,.8-.77h0ZM51.14,13.56c-.14,0-.28-.04-.4-.1-.89-.5-1.81-.95-2.75-1.35-.91-.43-.31-1.77,.63-1.42,1,.42,1.97,.9,2.92,1.43,.71,.39,.42,1.44-.4,1.44Zm-23.46-1.8c-.95,.31-1.5-1.03-.58-1.44,1.02-.39,2.05-.72,3.11-.99,.42-.11,.86,.14,.97,.55,.11,.41-.14,.83-.57,.94-1,.26-1.97,.57-2.93,.93h0Zm36.27,23.98c0-.98-.06-1.97-.17-2.94-.05-.42,.26-.81,.7-.85,.45-.06,.83,.26,.88,.68,.12,1.03,.18,2.08,.18,3.12v.05c0,.43-.36,.75-.8,.75s-.8-.37-.8-.8h0ZM30.52,60.63c.99,.26,2,.46,3.02,.61,1.09,.12,.85,1.71-.23,1.53-1.08-.15-2.15-.37-3.2-.64-1.07-.24-.64-1.8,.41-1.49ZM10.79,41.86c.42-.11,.86,.14,.97,.55,.27,.97,.59,1.91,.97,2.84,.32,.93-1.06,1.46-1.48,.57-.4-.99-.74-1.99-1.03-3.02-.11-.41,.14-.83,.56-.94h0Zm53.25-12.19c-.42,.11-.86-.14-.97-.55-.26-.97-.59-1.92-.96-2.84-.39-.96,1.09-1.52,1.48-.57,.4,.99,.74,1.99,1.02,3.02,.11,.41-.14,.83-.57,.94h0Zm-52.25-.68c-.27,.96-.48,1.94-.63,2.93-.14,1.04-1.75,.81-1.57-.23,.16-1.04,.38-2.09,.67-3.11,.11-.41,.55-.66,.98-.54,.42,.11,.67,.54,.56,.95h0Zm12.34,29.07c.89,.5,1.81,.95,2.75,1.35,.4,.17,.59,.62,.41,1.01-.17,.39-.64,.57-1.05,.4-1-.42-1.98-.9-2.92-1.43-.92-.52-.12-1.85,.8-1.34h0Zm-5.49-4.1c.72,.7,1.5,1.37,2.3,1.99,.59,.45,.26,1.38-.49,1.38-.18,0-.35-.06-.49-.17-.85-.66-1.67-1.36-2.44-2.11-.75-.73,.37-1.82,1.12-1.09h0Zm44.41-11.5c.27-.96,.48-1.94,.63-2.93,.06-.42,.47-.72,.9-.65,.43,.06,.73,.45,.67,.88-.16,1.05-.38,2.09-.66,3.11-.28,.99-1.81,.59-1.54-.4h0Zm-6.82-24.89c-.73-.71-1.49-1.37-2.3-2-.86-.64,.16-1.88,.99-1.21,.85,.66,1.67,1.37,2.44,2.11,.69,.73-.38,1.76-1.13,1.09h0Z"/></g><g id="g1055"><g id="_178f47e0-6b1f-4606-87a3-fdb6c24c1003"><path id="path1037" class="cls-1" d="M27.82,21.09c2.27,.74,4.52,1.52,6.81,2.2,2.28,.68,4.57,1.55,6.91,1.79,2.92,.3,5.67-1.81,6.6-4.58,.48-1.44,1.22-1,2.05-.47,3.32,2.08,5.41,5.16,6.52,8.75,.71,2.28,.81,4.77,1.03,7.17,.12,1.33-.77,2.16-1.93,2.76-6.59,3.39-12.62,2.11-18.56-1.81-3.23-2.14-6.68-4.05-10.26-5.54-1.82-.76-4.13-.48-6.22-.49-2.32-.01-3.13-.85-2.22-2.88,1.88-4.19,3.89-6.5,9.27-6.89h0Z"/><path id="path1039" class="cls-3" d="M17.08,37.65c-.03-3.53,.09-3.42,2.63-4.01,5.21-1.21,9.45,.78,13.54,3.57,3.03,2.06,5.95,4.28,9.61,5.27,4.04,1.1,7.98,1.01,11.9-.46,.56-.21,1.23-.11,1.84-.16-.09,.61-.08,1.26-.3,1.82-2.43,6.12-9.6,7.33-15.54,4.76-1.76-.76-3.53-1.56-5.38-2.06-3.64-.99-7.19,.62-8.7,4-.67,1.51-1.28,1.36-2.38,.56-4.86-3.54-6.67-8.57-7.22-13.28h0Z"/><path id="path1041" class="cls-5" d="M47.75,53.57c-2.5,.77-4.54,1.53-6.65,2.01-3.57,.82-7.08,.43-10.42-1.11-2.09-.96-2.33-3.14-.59-4.62,1.71-1.44,3.72-1.55,5.63-.85,3.54,1.31,6.86,3.24,10.75,3.5,.27,.02,.51,.41,1.27,1.06h0ZM27.91,17.61c1.9-.61,3.75-1.43,5.69-1.77,3.23-.57,6.49-.58,9.65,.65,1.43,.56,2.5,1.42,2.42,2.98-.08,1.56-1.31,2.55-2.72,2.73-1.57,.2-3.29,.17-4.79-.26-3.17-.91-6.24-2.15-9.35-3.26-.26-.1-.52-.23-.77-.35-.04-.24-.09-.48-.13-.72h0Z"/></g></g></g></g><g><path class="cls-2" d="M84.01,45.49h-11.04V25.98h11.04v2.7h-7.85v5.31h7.35v2.67h-7.35v6.13h7.85v2.71Z"/><path class="cls-2" d="M91.17,37.95l-4.95-7.22h3.58l3.36,5.16,3.39-5.16h3.55l-4.96,7.22,5.22,7.54h-3.55l-3.64-5.53-3.63,5.53h-3.55l5.19-7.54Z"/><path class="cls-2" d="M116.04,38.09c0,2.41-.62,4.29-1.86,5.65-1.24,1.35-2.96,2.03-5.16,2.03-1.38,0-2.6-.31-3.66-.93-1.06-.62-1.87-1.52-2.44-2.68-.57-1.17-.85-2.52-.85-4.06,0-2.39,.61-4.26,1.84-5.61,1.23-1.34,2.96-2.02,5.19-2.02s3.83,.69,5.07,2.06,1.87,3.23,1.87,5.56Zm-10.74,0c0,3.41,1.26,5.11,3.78,5.11s3.74-1.7,3.74-5.11-1.25-5.06-3.76-5.06c-1.32,0-2.27,.44-2.86,1.31-.59,.87-.89,2.12-.89,3.75Z"/><path class="cls-2" d="M129.56,41.29c0,1.44-.53,2.55-1.57,3.32-1.05,.77-2.55,1.15-4.51,1.15s-3.55-.3-4.74-.89v-2.71c1.73,.8,3.35,1.2,4.84,1.2,1.93,0,2.9-.58,2.9-1.75,0-.37-.11-.69-.32-.93-.21-.25-.57-.51-1.05-.77-.49-.27-1.17-.57-2.04-.91-1.7-.66-2.85-1.32-3.45-1.98-.6-.66-.9-1.51-.9-2.56,0-1.26,.51-2.24,1.53-2.94,1.02-.7,2.4-1.05,4.16-1.05s3.38,.35,4.92,1.05l-1.01,2.36c-1.59-.66-2.93-.99-4.02-.99-1.66,0-2.48,.47-2.48,1.41,0,.46,.22,.85,.65,1.17,.43,.32,1.37,.76,2.82,1.32,1.22,.47,2.1,.9,2.66,1.29,.55,.39,.96,.84,1.23,1.35,.27,.51,.4,1.12,.4,1.84Z"/><path class="cls-2" d="M140.43,45.76c-1.87,0-3.32-.67-4.35-2.02h-.19c.12,1.25,.19,2,.19,2.27v6.05h-3.14V30.73h2.54c.07,.28,.22,.93,.44,1.98h.16c.98-1.49,2.45-2.24,4.4-2.24,1.84,0,3.28,.67,4.3,2,1.03,1.33,1.54,3.21,1.54,5.62s-.52,4.29-1.57,5.65c-1.05,1.35-2.49,2.03-4.33,2.03Zm-.76-12.73c-1.25,0-2.16,.36-2.73,1.09-.57,.73-.86,1.9-.86,3.5v.47c0,1.8,.28,3.1,.85,3.9,.57,.81,1.5,1.21,2.79,1.21,1.09,0,1.92-.44,2.51-1.33,.59-.89,.88-2.16,.88-3.8s-.29-2.91-.87-3.76c-.58-.85-1.44-1.27-2.57-1.27Z"/><path class="cls-2" d="M162.96,45.49h-3.15v-9.08c0-1.14-.23-1.99-.69-2.55-.46-.56-1.19-.84-2.18-.84-1.32,0-2.28,.39-2.9,1.18-.62,.79-.93,2.11-.93,3.96v7.33h-3.14V24.73h3.14v5.27c0,.85-.05,1.75-.16,2.71h.2c.43-.71,1.02-1.26,1.78-1.66,.76-.39,1.65-.59,2.66-.59,3.58,0,5.36,1.8,5.36,5.41v9.62Z"/><path class="cls-2" d="M173.77,45.76c-2.3,0-4.09-.67-5.38-2.01-1.29-1.34-1.94-3.18-1.94-5.53s.6-4.31,1.8-5.69c1.2-1.38,2.85-2.07,4.95-2.07,1.95,0,3.49,.59,4.62,1.78,1.13,1.18,1.7,2.81,1.7,4.88v1.7h-9.84c.04,1.43,.43,2.53,1.16,3.3,.73,.77,1.76,1.15,3.08,1.15,.87,0,1.68-.08,2.44-.25,.75-.16,1.56-.44,2.42-.82v2.55c-.77,.36-1.54,.62-2.32,.77-.78,.15-1.68,.23-2.68,.23Zm-.57-12.92c-1,0-1.8,.32-2.4,.95-.6,.63-.96,1.55-1.07,2.76h6.7c-.02-1.22-.31-2.14-.88-2.77-.57-.63-1.35-.94-2.35-.94Z"/><path class="cls-2" d="M190.56,30.47c.63,0,1.15,.04,1.56,.13l-.31,2.92c-.44-.11-.91-.16-1.39-.16-1.25,0-2.27,.41-3.05,1.23-.78,.82-1.17,1.88-1.17,3.19v7.71h-3.14v-14.76h2.46l.41,2.6h.16c.49-.88,1.13-1.58,1.92-2.1,.79-.52,1.64-.77,2.54-.77Z"/><path class="cls-2" d="M201.31,45.76c-2.3,0-4.09-.67-5.39-2.01-1.3-1.34-1.94-3.18-1.94-5.53s.6-4.31,1.8-5.69c1.2-1.38,2.85-2.07,4.95-2.07,1.95,0,3.49,.59,4.62,1.78,1.13,1.18,1.69,2.81,1.69,4.88v1.7h-9.84c.04,1.43,.43,2.53,1.16,3.3,.73,.77,1.76,1.15,3.08,1.15,.87,0,1.68-.08,2.44-.25,.75-.16,1.56-.44,2.42-.82v2.55c-.76,.36-1.54,.62-2.32,.77s-1.68,.23-2.68,.23Zm-.57-12.92c-1,0-1.8,.32-2.4,.95-.6,.63-.96,1.55-1.07,2.76h6.7c-.02-1.22-.31-2.14-.88-2.77-.57-.63-1.35-.94-2.35-.94Z"/></g></svg>