<?xml version="1.0" encoding="UTF-8"?>
<svg id="Layer_2" data-name="Layer 2" xmlns="http://www.w3.org/2000/svg" version="1.1" viewBox="0 0 3017.4 1349.7">
  <defs>
    <style>
      .cls-1 {
        fill: #00759f;
      }

      .cls-1, .cls-2, .cls-3 {
        stroke-width: 0px;
      }

      .cls-2 {
        fill: #a2dbdf;
      }

      .cls-3 {
        fill: #fff;
      }
    </style>
  </defs>
  <g>
    <path class="cls-2" d="M1285.7,173V2h308.9v57.2c0,.5.2.9.4,1.3l14.8,18.2v50.7c0,.2,0,.4,0,.6l12.5,43.1h-336.7Z"/>
    <path class="cls-3" d="M1592.5,4v55.2c0,.9.3,1.8.9,2.5l14.4,17.7v50c0,.4,0,.8.2,1.1l11.7,40.5h-332.1V4h304.9M1596.5,0h-312.9v175h341.4l-13.2-45.6v-51.4l-15.3-18.8V0h0Z"/>
  </g>
  <g>
    <path class="cls-2" d="M1596.8,344.6c-.3-.1-.6-.2-.9-.2s-.1,0-.2,0l-32.5,3.6-19.5-7.6c-.2,0-.5-.1-.7-.1h-257.4v-157.8h333.8l-4.7,6.5c-.2.3-.4.7-.4,1.2v14c0,.8.4,1.5,1.1,1.8l18,8.6v21.5l-9.4,9.4c-.7.7-.8,1.8-.2,2.6l9.6,12.5v47.6l-6.4,6.8c-.4.4-.6,1-.5,1.6l2.3,24.3-3.3,17.9-28.9-14Z"/>
    <path class="cls-3" d="M1615.5,184.4l-2.4,3.3c-.5.7-.8,1.5-.8,2.3v13.9c0,1.5.9,2.9,2.3,3.6l16.9,8v19.4l-8.8,8.9c-1.4,1.4-1.6,3.7-.3,5.3l9.2,11.9v46.1l-5.9,6.3c-.8.8-1.2,2-1.1,3.1l2.3,24-2.8,15-26.5-12.9c-.5-.3-1.1-.4-1.7-.4s-.3,0-.4,0l-32,3.6-19-7.4c-.5-.2-1-.3-1.5-.3h-255.4v-153.8h327.9M1623.4,180.4h-339.7v161.8h259.4l19.9,7.8,33-3.7,31.2,15.2,3.8-20.7-2.4-24.6,6.9-7.4v-49.1l-10-13,10-10v-23.6l-19.2-9.1v-13.9l7-9.7h0Z"/>
  </g>
  <g>
    <path class="cls-1" d="M2040.4,630.7c-.3-.1-.6-.2-.9-.2s-.7,0-1,.3l-5,2.8v-11.8l25-29.1c.3-.4.5-.8.5-1.3v-18.3c0-.6-.3-1.2-.8-1.6l-6.2-4.9v-7l6.5-8.3c.3-.4.4-.8.4-1.2v-141.7c2-.2,4.3-.8,7.1-1.8h0c.4.4.9.6,1.4.6h108.8v172.7c-1.8.5-3.5.8-4.8.8s-1.6-.2-1.7-.3c-2.1-1.2-4.4-1.9-7-1.9-4.1,0-7.4,1.6-7.7,1.8,0,0,0,0-.1,0l-11.4,6.7c-.6.4-1,1-1,1.7v4.2l-14.6,21.4-5.4,7-15.3-19.4c-.4-.5-1-.8-1.6-.8s-.3,0-.4,0c-.8.2-1.3.8-1.5,1.5l-5.8,26.4-15.9-5.9c-.2,0-.5-.1-.7-.1-.3,0-.7,0-1,.3l-13,7.3h-13.1c-.4,0-.8.1-1.1.4l-4.8,3.3-7.9-3.8Z"/>
    <path class="cls-3" d="M2065.8,408.9c.5.3,1.1.4,1.7.4h106.8v169.1c-1.1.2-2,.4-2.8.4s-.7,0-.8,0c-2.4-1.4-5.1-2.1-8-2.1-4.5,0-8,1.7-8.7,2,0,0-.1,0-.2.1l-11.4,6.7c-1.2.7-2,2-2,3.4v3.6l-14.2,20.9-3.8,4.9-13.7-17.4c-.8-1-1.9-1.5-3.1-1.5s-.6,0-.9.1c-1.5.3-2.7,1.5-3,3l-5.3,24.2-13.8-5.1c-.4-.2-.9-.2-1.4-.2-.7,0-1.4.2-2,.5l-12.5,7.1h-12.6c-.8,0-1.6.2-2.3.7l-3.9,2.7-6.9-3.3c-.5-.3-1.1-.4-1.7-.4s-1.4.2-2,.5l-2.1,1.2v-7.6l24.5-28.5c.6-.7,1-1.6,1-2.6v-18.3c0-1.2-.6-2.4-1.5-3.1l-5.4-4.3v-5.3l6.1-7.7c.6-.7.9-1.6.9-2.5v-140c1.5-.3,3.1-.7,4.8-1.3M2066.6,404.3c-3.2,1.3-6.4,2.2-8.8,2.2s-.5,0-.8,0v143.7l-7,8.8v8.7l7,5.5v18.3l-25.5,29.7v15.9l8-4.5,9,4.3,5.8-4h13.6l13.4-7.6,18.1,6.6,6.2-28.6,16.9,21.5,7-9.1,14.9-22v-4.8l11.4-6.7c.3-.1,3.2-1.6,6.8-1.6s4,.4,6,1.6c.7.4,1.7.6,2.8.6,2.2,0,4.8-.7,6.8-1.3v-176.2h-110.8l-1-1h0Z"/>
  </g>
  <g>
    <path class="cls-2" d="M1642.4,312.5h.1c.3-.5.5-1,.5-1.5v-53.1c0-.4-.1-.9-.4-1.2l-7.2-9.3,7-7c.4-.4.6-.9.6-1.4v-29.3c0-.8-.4-1.5-1.1-1.8l-18-8.6v-6.8l9.5-13.1c.4-.5.5-1.1.3-1.7l-14.3-49v-52.7c0-.5-.2-.9-.5-1.3l-14.8-18.2V2h118.5l15.6,19c.4.5.9.7,1.5.7h25.8l23.3,5.8c.2,0,.3,0,.5,0,.4,0,.7,0,1-.3l10.1-6.1,14.1,6c.2.1.5.2.8.2h9.2l11.8,15.1c.4.5,1,.8,1.6.8h18.7l8.7,17.4c.3.7,1,1.1,1.8,1.1s.3,0,.4,0l48.9-10.5,16.3,4.1,15.1,5.8c.2,0,.5.1.7.1h4.4l-38.5,8.5c-.2,0-.4.1-.6.2l-63.9,37.9-9.3,2.2c-.5.1-1,.5-1.3,1l-15.8,27.5c-.2.3-.3.6-.3,1v29.3l-30,24.6c-.5.4-.7.9-.7,1.5,0,.6.2,1.1.7,1.5l13.9,12.4-7.8,28.6c-.2.6,0,1.2.3,1.7l7.6,10.3c.2.3.5.5.8.6l16.9,8,4.7,6.3c0,.1.2.2.3.3l15.3,13.5c0,0,.2.1.3.2l29.7,18.7v15.5h-232.9Z"/>
    <path class="cls-3" d="M1721.6,4l15,18.2c.8.9,1.9,1.5,3.1,1.5h25.5l23.1,5.8c.3,0,.6.1,1,.1.7,0,1.4-.2,2.1-.6l9.3-5.6,13.2,5.6c.5.2,1,.3,1.6.3h8.2l11.2,14.3c.8,1,1.9,1.5,3.1,1.5h17.4l8.2,16.3c.7,1.4,2.1,2.2,3.6,2.2s.6,0,.8,0l48.5-10.4,15.7,4,10.9,4.1-28.9,6.4c-.4,0-.8.2-1.2.5l-63.6,37.8-9,2.1c-1.1.3-2,.9-2.6,1.9l-15.8,27.5c-.3.6-.5,1.3-.5,2v28.3l-29.3,24c-.9.7-1.4,1.8-1.5,3,0,1.2.5,2.3,1.3,3.1l13,11.6-7.5,27.4c-.3,1.2,0,2.4.6,3.4l7.6,10.3c.4.5.9,1,1.5,1.2l16.5,7.8,4.4,5.9c.2.2.4.4.6.6l15.3,13.5c.2.1.3.3.5.4l28.8,18.1v12.3h-228.3v-52.6c0-.9-.3-1.7-.8-2.4l-6.1-7.9,5.7-5.7c.7-.8,1.2-1.8,1.2-2.8v-29.3c0-1.5-.9-2.9-2.3-3.6l-16.9-8v-4.9l9.1-12.6c.7-1,.9-2.3.6-3.5l-14.2-48.7v-52.4c0-.9-.3-1.8-.9-2.5l-14.4-17.6V4h115.6M1723.5,0h-121.5v57.2l15.3,18.8v53l14.4,49.3-9.8,13.7v8.7l19.2,9.1v29.3l-8.2,8.2,8.2,10.7v53.1l-3.3,3.5h239.5v-18.6l-30.6-19.3-15.3-13.5-5-6.7-17.4-8.2-7.6-10.3,8.1-29.8-14.8-13.2,30.7-25.2v-30.2l15.8-27.5,9.6-2.3,64.2-38.1,43.2-9.6,1.9-2.9h-11.5l-15.2-5.8-16.8-4.3-49.4,10.6-9.3-18.5h-19.9l-12.4-15.8h-10.1l-15.1-6.4-11,6.6-23.6-5.9h-26l-16.2-19.7h0Z"/>
  </g>
  <g>
    <path class="cls-2" d="M1904.8,367.9l-20.1-17.2v-57.7c0-.7-.4-1.3-.9-1.7l-32.7-20.5-14.1-12.3-5.5-7.4c-.2-.3-.5-.5-.8-.6l-16.9-8-4.3-5.9,8.1-29.5c.2-.7,0-1.5-.6-2l-10.8-9.7,26-21.3c.5-.4.7-.9.7-1.5v-30.8l11.8-20.6.3.6c.4.6,1,.9,1.7.9h19.6c.2,0,.3,0,.5,0l21.6-5.4v9.6c0,.7.4,1.4,1.1,1.8l15.5,8c.3.1.6.2.9.2s.5,0,.7-.1l13.8-5.5-4.2,7.5c-.3.6-.3,1.3,0,2l10,17.9c.3.5.7.8,1.3,1l78.6,19.9,27.8,15.1,8,25.7-11.5,16.2c-.3.5-.5,1.1-.3,1.6s.5,1,1,1.3c.2.1,1.3.6,3,.6s2-.2,2.9-.6c2.3-.9,16.8-14.9,24.4-22.4l3.9,4.7-10.6,15.1c0,0,0,.1-.1.2l-17.8,33.8c0,.2-.2.4-.2.6l-6.6,39.9c0,.1,0,.2,0,.3v34.1c0,.8.5,1.6,1.3,1.9l8.6,3.3-9.3,10.5c-.5.6-.6,1.4-.4,2.1l1.8,4.5h-127.2Z"/>
    <path class="cls-3" d="M1886.3,119.5v7.1c0,1.5.8,2.9,2.2,3.6l15.5,8c.6.3,1.2.4,1.8.4s1,0,1.5-.3c0,0,3.4-1.3,8.6-3.4l-1.4,2.5c-.7,1.2-.7,2.7,0,3.9l10,17.9c.5,1,1.4,1.7,2.5,1.9l78.4,19.8,26.9,14.6,7.5,24-10.9,15.4c-.7,1-.9,2.2-.6,3.3.3,1.1,1.1,2.1,2.1,2.6.4.2,1.8.8,3.9.8s2.5-.2,3.6-.7c.8-.3,2.9-1.2,23.5-21.3l1.6,1.9-9.7,13.9c0,.1-.2.3-.3.4l-17.8,33.8c-.2.4-.3.8-.4,1.2l-6.6,39.9c0,.2,0,.4,0,.6v34.1c0,1.7,1,3.1,2.6,3.7l5.9,2.3-7.4,8.3c-1,1.1-1.3,2.8-.7,4.2l.7,1.8h-123.5l-18.8-16.1v-56.8c0-1.4-.7-2.7-1.9-3.4l-32.6-20.4-13.8-12.1-5.4-7.3c-.4-.5-.9-1-1.5-1.2l-16.5-7.8-3.4-4.7,7.8-28.6c.4-1.5,0-3-1.2-4l-9.1-8.1,24.2-19.9c.9-.8,1.5-1.9,1.5-3.1v-30.3l10.3-17.9c.5.2,1,.3,1.6.3h19.6c.3,0,.7,0,1-.1l19.1-4.8M1890.3,114.4l-24.1,6.1h-19.6l-2.1-3.4-13.8,24v31.4l-27.8,22.8,12.6,11.2-8.3,30.5,5.2,7,17.4,8.2,5.6,7.6,14.4,12.6,32.9,20.6v58.6l21.3,18.3h130.9l-3-7.3,11.3-12.7-11.3-4.3v-34.1l6.6-39.9,17.8-33.8,11.5-16.4-6.3-7.5s-23,22.5-25.3,23.5c-.8.3-1.5.4-2.1.4-1.3,0-2.1-.4-2.1-.4l12.1-17-8.5-27.4-28.8-15.6-78.9-20-10-17.9,6.9-12.4c-10.7,4.2-19,7.6-19,7.6l-15.5-8v-12.2h0Z"/>
  </g>
  <path class="cls-2" d="M2027.9,706.5l4.5-3.4h203.7l24.5-13.1,14.1-16.5,20.4-5.5,6.9-13.4-23.1-33.6v-15.2l-12.3-12.5h-25c0,0-18.2-3.9-18.2-3.9l-9.8,4.9-6.7-12.9-9.4-13.6-13.7,3.6v14l-1.7.7c-1.1.5-10.6,4.4-16.2,1.1-3.2-1.9-7.4,0-7.4.1l-8.5,5v3.4l-16,23.5-11.4,14.8-14.1-17.9-5.1,23.5-21.6-7.9-12.5,7h-13.4l-7,4.8-9.3-4.5-8.2,4.6v.5h-.9l-3.3,1.8-4.6,16.6-12.3,5.3v15.3l-8.3-.2-22.8-8.4v23.5l-7.1,8.8h55.5Z"/>
  <g>
    <path class="cls-2" d="M1757,899.1v-19.9c0-.8-.5-1.6-1.3-1.9l-24.3-9.5v-112.6c0-.1,0-.3,0-.4l-5.4-25.6v-12.1h195.1l.9,2.4-5.6,6.1c-.3.4-.5.9-.5,1.4v15.6c0,1.1.9,2,2,2h24v7.7l-5,9.3c0,0,0,.1,0,.2l-13.1,32.2-16.4,9.1c-.6.4-1,1-1,1.7v12.6l-11.6,13.3c-.1.2-.2.3-.3.5l-6.8,15.3c-.1.2-.2.5-.2.8l-.2,12.3-12.8,8.5c-.6.4-.9,1-.9,1.7v10.6c0,.2,0,.5.1.7l4.9,12.6-3.1,5.6h-118.3Z"/>
    <path class="cls-3" d="M1919.6,719l-4.7,5.1c-.7.7-1.1,1.7-1.1,2.7v15.6c0,2.2,1.8,4,4,4h22v5.2l-4.8,8.8c0,.1-.1.3-.2.4l-12.8,31.5-15.7,8.7c-1.3.7-2.1,2-2.1,3.5v11.9l-11.1,12.7c-.3.3-.5.6-.6,1l-6.8,15.3c-.2.5-.3,1-.3,1.6l-.2,11.2-11.9,8c-1.1.7-1.8,2-1.8,3.3v10.6c0,.5,0,1,.3,1.4l4.5,11.8-2.1,3.8h-115.2v-17.9c0-1.6-1-3.1-2.5-3.7l-23-9v-111.3c0-.3,0-.6,0-.8l-5.4-25.4v-9.9h191.6M1922.6,715h-198.5v14.3l5.5,25.8v114l25.5,10v21.9h121.5l4.1-7.5-5.2-13.5v-10.6l13.7-9.1.2-13.3,6.8-15.3,12.1-13.8v-13.4l17-9.4,13.3-32.9,5.3-9.7v-10.3h-26v-15.6l6.4-7-1.7-4.8h0Z"/>
  </g>
  <g>
    <path class="cls-2" d="M2343.3,661c-.2,0-.5-.1-.7-.1s-.4,0-.6,0l-13.8,4.2-19.6-14.1-22.2-32.3v-9.3h7.7c.8,0,1.5-.4,1.8-1.1l15.4-31.6,11.9-3.6c.8-.3,1.4-1,1.4-1.9v-9.9l46.3-20.7c.8-.4,1.3-1.2,1.2-2l-1.9-20.2,4.2-20v36.2c0,1.1.9,2,2,2h49.3v22.4c0,1.1.9,2,2,2h13.3c.4,0,.9-.2,1.2-.4l17.5-13.7,10.5,5.5v14.1c-2.7,1.5-6.1,3.4-9.2,4.9-5,2.5-15.6,6-16,6.1l-1.2.4c-.6.2-1,.6-1.2,1.2l-6.9,17.8-5.4,2.8-12.2-4.7c-.2,0-.5-.1-.7-.1-.7,0-1.3.3-1.7,1l-22.4,36.5-8.5,4.6c-.7.3-1.1,1-1.1,1.8v13l-29.2,13.8-10.9-4.2Z"/>
    <path class="cls-3" d="M2372.3,517.7v2.2-1.5c-.1,0,0-.7,0-.7M2374,537.7c.6.5,1.4.7,2.3.7h47.3v20.4c0,2.2,1.8,4,4,4h13.3c.9,0,1.8-.3,2.5-.9l16.5-12.9,8.3,4.4v11.7c-2.5,1.4-5.4,3-8.1,4.3-3.8,1.9-11.7,4.7-15.7,6l-1.2.4c-1.1.4-2.1,1.2-2.5,2.4l-6.6,17-4,2-11.4-4.3c-.5-.2-.9-.3-1.4-.3-1.4,0-2.7.7-3.4,1.9l-22.1,36-8.1,4.3c-1.3.7-2.1,2.1-2.1,3.5v11.7l-27.3,12.9-10.1-3.9c-.5-.2-.9-.3-1.4-.3s-.8,0-1.2.2l-12.9,3.9-18.5-13.3-21.7-31.5v-6.7h5.7c1.5,0,2.9-.9,3.6-2.3l15-30.8,11.1-3.4c1.7-.5,2.8-2.1,2.8-3.8v-8.6l45.2-20.2c1.6-.7,2.5-2.3,2.4-4v-.6M2376.3,483.5l-1.2.9-7,33.7,2,20.5-47.5,21.2v11.2l-12.7,3.9-15.7,32.4h-9.7v11.9l22.8,33.1,20.7,14.9,14.8-4.4,11.7,4.5,31.1-14.7v-14.2l9-4.8,22.7-36.9,13.1,5,6.9-3.6,7.1-18.5,1.2-.4c.1,0,11.1-3.6,16.3-6.2,3.8-1.9,8.2-4.3,10.3-5.5v-16.5l-12.7-6.7-18.5,14.5h-13.3v-24.4h-51.3v-50.8h0Z"/>
  </g>
  <g>
    <path class="cls-2" d="M2303.1,1050.5l-18.3-27.4c-.4-.5-1-.9-1.6-.9l-102.5-.9-11.4-27.7v-48.5h11.8c1.1,0,2-.9,2-2v-27.3c0-.4-.1-.8-.4-1.2l-13.4-18.2v-94.6h79.4l-8.2,14.4c-.5.9-.2,2.2.7,2.7l25.7,15.2,5.8,12.4c0,.2.2.4.4.5l32,34.1,10.7,19.2c.1.2.3.4.4.5l20.8,18.4v11.1c0,.3,0,.5.1.7l4.4,11.1v10.4c0,.6.3,1.2.7,1.6l8.8,7.1-5,6.5c-.2.3-.4.6-.4,1l-5.1,39c0,.2,0,.4,0,.6,0,0,1.4,7.1,3,15.5l-7.3,8.1-21-3.6c-.1,0-.2,0-.3,0-.9,0-1.6.5-1.9,1.4l-6.8,20.9h-3.1Z"/>
    <path class="cls-3" d="M2245.2,803.8l-6.5,11.4c-1.1,1.9-.4,4.3,1.4,5.4l25.2,14.9,5.5,11.8c.2.4.4.7.7,1l31.9,33.9,10.6,19c.2.4.5.7.8,1l20.1,17.8v10.2c0,.5,0,1,.3,1.5l4.3,10.8v10c0,1.2.6,2.4,1.5,3.1l7.3,5.8-3.8,4.9c-.4.6-.7,1.2-.8,1.9l-5.1,39c0,.4,0,.9,0,1.3,0,0,1.3,6.6,2.8,14.5l-5.9,6.6-20-3.4c-.2,0-.5,0-.7,0-1.7,0-3.3,1.1-3.8,2.8l-6.3,19.5h-.6l-17.8-26.5c-.7-1.1-2-1.8-3.3-1.8l-101.2-.9-10.8-26.2v-46.1h9.8c2.2,0,4-1.8,4-4v-27.3c0-.9-.3-1.7-.8-2.4l-13-17.7v-92h74M2252,799.8h-84.9v97.3l13.8,18.8v27.3h-13.8v50.9l12.1,29.3,103.8.9,18.9,28.3h5.7l7.2-22.3,22.1,3.8,8.7-9.7c-1.7-8.8-3.2-16.5-3.2-16.5l5.1-39,6.2-8.1-10.3-8.3v-10.8l-4.6-11.5v-12l-21.5-19-10.9-19.4-32.2-34.2-6-12.9-26.2-15.5,9.9-17.4h0Z"/>
  </g>
  <g>
    <path class="cls-1" d="M2255.6,701.1l8.9-4.8c.2-.1.4-.3.6-.5l13.7-15.8,20.5-5.6c.5-.1,1-.5,1.3-1l6.3-12.3,18.7,13.6c.3.3.8.4,1.2.4s.4,0,.6,0l14.9-4.5,11.5,4.4c.2,0,.5.1.7.1s.6,0,.9-.2l36.4-17.2c.7-.3,1.1-1,1.1-1.8v-13.2l6.4-3.4c.3-.2.6-.4.8-.7l20.2-32.9,9.6,3.6c.2,0,.5.1.7.1s.6,0,.9-.2l10.9-5.6c.4-.2.8-.6.9-1.1l6.6-17.1c4.2-1.4,11-3.9,15.2-5.9,5.6-2.8,12-6.5,12.1-6.5l1.4-.8c.6-.4,1-1,1-1.7v-18.2l13.6-6,41,30.4c.3.3.8.4,1.2.4h1.5l-11.3,28c-.4,1,0,2.1,1,2.5l67.2,34-.7,22.7c0,.5.2,1,.5,1.4l16.4,17.5-.8,17.8h-353.5Z"/>
    <path class="cls-3" d="M2492.9,548.7l40.1,29.7c.3.2.7.4,1.1.6l-10.3,25.5c-.8,1.9,0,4.1,1.9,5.1l66,33.4-.7,21.5c0,1.1.4,2.1,1.1,2.9l15.8,16.9-.7,15.1h-343.6l1.9-1c.4-.2.8-.5,1.1-.9l13.3-15.3,19.9-5.4c1.1-.3,2-1,2.5-2l5.2-10.2,16.8,12.3c.7.5,1.5.8,2.4.8s.8,0,1.2-.2l14.3-4.3,10.9,4.2c.5.2.9.3,1.4.3s1.2-.1,1.7-.4l36.4-17.2c1.4-.7,2.3-2.1,2.3-3.6v-12l5.3-2.8c.6-.3,1.2-.8,1.5-1.4l19.4-31.5,8,3.1c.5.2.9.3,1.4.3s1.3-.2,1.8-.4l10.9-5.6c.9-.4,1.5-1.2,1.9-2.1l6.3-16.2c4.3-1.5,10.6-3.8,14.5-5.7,5.7-2.8,12.1-6.5,12.2-6.6l1.4-.8c1.2-.7,2-2,2-3.5v-16.9l11.3-5M2493.4,544.1l-15.9,6.9v19.5l-1.4.8c-.3.2-6.5,3.7-12,6.5-4.6,2.3-12.7,5.1-15.8,6.1l-7,18-10.9,5.6-11.1-4.2-21.1,34.3-7.4,4v14.4l-36.4,17.2-12.1-4.6-15.6,4.7-20.6-15-7.4,14.3-21.1,5.7-14.1,16.3-15.9,8.5h363.4l.9-20.6-16.9-18.1.7-24-68.3-34.5,12.4-30.7h-4.5l-41.9-31.1h0Z"/>
  </g>
  <g>
    <path class="cls-2" d="M1934.5,792.4l10.9-26.9,5.7-10.5c.2-.3.2-.6.2-1v-19.4l10.7-16.5,5-4.2h62.6c.4,0,.9-.1,1.2-.4l4-3h280.2v7.3l-5.2,6.7-5.8,5.7h-12.7c-.5,0-.9.2-1.3.5l-8.7,7.4-5.4-3.7c-.3-.2-.7-.4-1.1-.4s-1,.2-1.4.5l-24.3,22.4-33.9,5.5c-.7.1-1.3.6-1.5,1.2l-6.2,16-11.2,4.5c-.8.3-1.3,1-1.3,1.9v6.2h-260.6Z"/>
    <path class="cls-3" d="M2313.1,712.6v4.6l-4.7,6-5.1,5.1h-11.9c-.9,0-1.9.3-2.6,1l-7.6,6.4-4.1-2.9c-.7-.5-1.5-.7-2.3-.7s-2,.4-2.7,1.1l-23.8,22-33.3,5.4c-1.4.2-2.6,1.2-3.1,2.5l-5.9,15.2-10.4,4.2c-1.5.6-2.5,2.1-2.5,3.7v4.2h-255.6l9.7-24,5.7-10.4c.3-.6.5-1.2.5-1.9v-18.8l10.2-15.7,4.3-3.5h61.9c.9,0,1.7-.3,2.4-.8l3.4-2.6h277.5M2317.1,708.6h-282.9l-4.5,3.4h-63.3l-5.8,4.9-11.2,17.2v20l-5.8,10.6-12,29.7h265.5v-8.2l12-4.8,6.5-16.8,34.5-5.6,24.7-22.8,6.7,4.6,9.9-8.4h13.6l6.5-6.4,5.7-7.3v-10h0Z"/>
  </g>
  <g>
    <path class="cls-2" d="M1711.6,863.8l-15.8-14.9c-.4-.4-.9-.5-1.4-.5s-.6,0-.9.2l-14.8,7-14.7-9.5c-.3-.2-.7-.3-1.1-.3s-.7,0-1,.2c-.6.4-1,1-1,1.8v12l-19.5,3.6-13-5.2c-.2,0-.5-.1-.7-.1s-.1,0-.2,0l-8.7.9-9.8-3.8c-.2,0-.5-.1-.7-.1-.5,0-.9.2-1.3.5l-8.3,7.2c-5.4-3-9.8-5.7-10.9-6.8-1.8-1.8-4.7-2.6-8.9-2.6s-4.8.2-7.7.7l-7.3-11.3c-.4-.6-1-.9-1.7-.9h-48.5l-7.6-9.3-10.3-11.8c-.4-.4-.9-.7-1.4-.7,0,0,0,0,0,0-.5,0-1,.2-1.4.6l-8.8,8.4-11.8-11.8v-107.5c0-1.1-.9-2-2-2h-137.9v-20.6h384v42.7c0,.1,0,.3,0,.4l5.4,25.6v109.8l-10.4-1.6Z"/>
    <path class="cls-3" d="M1714.6,688.9v40.7c0,.3,0,.6,0,.8l5.4,25.4v107.3l-7.5-1.2-15.3-14.4c-.8-.7-1.7-1.1-2.7-1.1s-1.2.1-1.7.4l-13.8,6.5-13.8-8.9c-.7-.4-1.4-.6-2.2-.6s-1.3.2-1.9.5c-1.3.7-2.1,2-2.1,3.5v10.4l-17.3,3.2-12.5-5c-.5-.2-1-.3-1.5-.3s-.3,0-.4,0l-8.2.8-9.4-3.7c-.5-.2-1-.3-1.4-.3-.9,0-1.9.3-2.6,1l-7.3,6.2c-5-2.8-8.5-5-9.2-5.7-2.2-2.2-5.5-3.2-10.3-3.2s-4.2.2-6.7.5l-6.6-10.2c-.7-1.1-2-1.8-3.4-1.8h-47.6l-7-8.5s0,0,0-.1l-10.3-11.7c-.7-.8-1.7-1.3-2.8-1.4,0,0-.1,0-.2,0-1,0-2,.4-2.8,1.1l-7.3,7-9.8-9.8v-106.7c0-2.2-1.8-4-4-4h-135.9v-16.6h380M1718.6,684.9h-388v24.6h139.9v108.3l13.7,13.7,10.2-9.7,10.3,11.7,8.2,10h49.5l8,12.5c2.6-.5,5.8-.9,8.6-.9s6,.5,7.5,2c1.6,1.6,7.9,5.3,12.5,7.8l9.4-8.1,10.3,4,9.1-.9,13.6,5.4,21.7-4v-13.7l15.6,10.1,15.8-7.4,16.2,15.3,13.3,2.1v-112.4l-5.5-25.8v-44.7h0Z"/>
  </g>
  <g>
    <path class="cls-2" d="M541.1,567v-160.8h267.8v325.6l-4.8,1.8-10.4-6.1c-.3-.2-.7-.3-1-.3s-.7,0-1,.3l-13.7,8c-.6.4-1,1-1,1.7v33.5c0,1.1.9,2,2,2h4.4v17.3l-242.3-223Z"/>
    <path class="cls-3" d="M806.9,408.2v322.2l-2.6,1-9.6-5.6c-.6-.4-1.3-.5-2-.5s-1.4.2-2,.5l-13.7,8c-1.2.7-2,2-2,3.5v33.5c0,2.2,1.8,4,4,4h2.4v10.7l-238.3-219.3v-157.9h263.8M810.9,404.2h-271.8v163.7l246.3,226.7v-23.9h-6.4v-33.5l13.7-8,11.2,6.5,7-2.6v-329h0Z"/>
  </g>
  <g>
    <path class="cls-2" d="M2383.7,526.9v-136.5s21.8-9.8,26.4-11.8v20.7c0,1.1.9,2,2,2h206.6l14,4.7.7,18.5c0,.6.4,1.2.9,1.6l13.4,8.7-15.8,16c-.4.5-.7,1.1-.5,1.7l1.7,10.5-5.2,7.8c-.4.5-.4,1.2-.2,1.8l6.7,17.1,3.8,16.8-32.4,20.3h-222Z"/>
    <path class="cls-3" d="M2408.1,381.7v17.7c0,2.2,1.8,4,4,4h206.3l12.3,4.1.7,17.1c0,1.3.7,2.5,1.8,3.2l11.3,7.4-14,14.3c-.9.9-1.3,2.2-1.1,3.5l1.6,9.7-4.8,7.2c-.7,1.1-.9,2.5-.4,3.7l6.7,16.9,3.4,15.3-30.7,19.2h-219.4v-133.2c3.3-1.5,6.7-3,10.1-4.5,4.2-1.9,8.4-3.8,12.3-5.5M2412.1,375.5c-8.6,3.9-20.3,9.1-30.4,13.6v139.8h224.6l34.1-21.4-4.1-18.3-6.8-17.2,5.7-8.5-1.9-11.3,17.5-17.8-15.4-10-.8-19.9-15.6-5.2h-206.9v-23.8h0Z"/>
  </g>
  <g>
    <path class="cls-2" d="M2720.8,352.7v-61.9c0-.2,0-.4,0-.6l-3-10.2,8.7-11.8c.3-.3.4-.8.4-1.2v-20.6h68.4l-1.5,10.4-17.9,10.6c-.6.4-1,1-1,1.7v15.8l-21,17.5c-.4.3-.7.8-.7,1.3l-5.2,48.9h-27Z"/>
    <path class="cls-3" d="M2792.9,248.5l-1.1,7.1-17.1,10.1c-1.2.7-2,2-2,3.4v14.8l-20.3,16.9c-.8.7-1.3,1.6-1.4,2.6l-5,47.1h-23.2v-59.9c0-.4,0-.8-.2-1.1l-2.7-9.2,8.1-11c.5-.7.8-1.5.8-2.4v-18.6h64.1M2797.5,244.5h-72.7v22.6l-9.3,12.6,3.3,11.1v63.9h30.8l5.4-50.7,21.7-18.1v-16.7l18.8-11.1,2-13.6h0Z"/>
  </g>
  <g>
    <path class="cls-2" d="M677.9,396.7v-108.1l10.4-9.4c.5-.4.7-1.1.6-1.7,0-.6-.4-1.2-1-1.5l-18-10.1v-4.9l34.6-63.2c.4-.8.3-1.7-.3-2.4l-26.3-26.3V2h33.9v56.3c0,.5.2,1,.5,1.3l17.3,19.1v13.2c0,.7.4,1.4,1,1.8l19.2,10.4,32.4,37.2c.4.4.9.7,1.5.7h8.1v16.4l-5.7,8.5c-.4.7-.4,1.5,0,2.2l4.6,6.9-3.3,4.2c-.3.4-.4.8-.4,1.2v17.8c0,.9.6,1.7,1.4,1.9l15.2,4.6c.2,0,.4,0,.6,0,.4,0,.7-.1,1.1-.3l9.2-5.8,18.4,25.3v18.3c0,1.1.9,2,2,2h18.5l10,29.3c.2.7.8,1.2,1.5,1.3.1,0,.3,0,.4,0,.6,0,1.1-.2,1.5-.7l7.9-8.7h15.7c.6,0,1.3-.3,1.6-.8l2.8-4h33.4c.4,0,.9-.2,1.2-.4l9-7.1h4.4l5,5.9v136.5h-269.9Z"/>
    <path class="cls-3" d="M709.7,4v54.3c0,1,.4,1.9,1,2.7l16.8,18.5v12.4c0,1.5.8,2.8,2.1,3.5l18.8,10.2,32.2,37c.8.9,1.9,1.4,3,1.4h6.1v13.8l-5.4,8c-.9,1.3-.9,3.1,0,4.4l3.8,5.7-2.4,3.1c-.5.7-.8,1.6-.8,2.5v17.8c0,1.8,1.2,3.3,2.8,3.8l15.2,4.6c.4.1.8.2,1.2.2.8,0,1.5-.2,2.1-.6l7.6-4.8,16.9,23.2v17.7c0,2.2,1.8,4,4,4h17.1l9.5,27.9c.5,1.3,1.6,2.3,3,2.6.3,0,.5,0,.8,0,1.1,0,2.2-.5,3-1.3l7.3-8.1h14.8c1.3,0,2.5-.6,3.3-1.7l2.2-3.1h32.4c.9,0,1.8-.3,2.5-.9l8.5-6.7h2.8l3.9,4.6v133.8h-265.9v-105.2l9.7-8.8c1-.9,1.4-2.1,1.3-3.4-.1-1.3-.9-2.4-2-3l-17-9.5v-3.2l34.4-62.8c.9-1.6.6-3.5-.7-4.7l-25.7-25.7V4h29.9M713.7,0h-37.9v170l26.9,26.9-34.9,63.7v6.6l19,10.7-11.1,9.9v111h273.9v-139.2l-6.1-7.2h-6l-9.6,7.5h-34.4l-3.4,4.8h-16.6l-8.5,9.4-10.4-30.6h-19.9v-19l-19.9-27.3-10.8,6.8-15.2-4.6v-17.8l4.2-5.3-5.4-8.1,6-9v-19h-10.1l-32.6-37.5-19.5-10.6v-14l-17.8-19.7V0h0Z"/>
  </g>
  <g>
    <path class="cls-2" d="M2757.4,352.7l4.8-44.9,21.3-17.8c.5-.4.7-.9.7-1.5v-15l17.3-10.2c.5-.3.9-.8,1-1.4l2.3-15.3h2.9c.8,0,1.5-.4,1.8-1.1l13.4-27.8,3,.4v124.4l-15.8,10.3h-52.6Z"/>
    <path class="cls-3" d="M2823.8,220.2v121.1l-14.4,9.3h-49.8l4.5-41.8,20.7-17.3c.9-.8,1.4-1.9,1.4-3.1v-13.9l16.4-9.7c1-.6,1.7-1.7,1.9-2.9l2-13.6h1.1c1.5,0,2.9-.9,3.6-2.3l12.6-26.1M2821.7,215.4l-14,29.1h-4.6l-2.5,17-18.3,10.8v16.1l-22,18.4-5.1,47.9h55.4l17.2-11.2v-127.3l-6.1-.8h0Z"/>
  </g>
  <g>
    <path class="cls-2" d="M1971.5,677.4l-8.6-4.5-3.5-30.7c0-.5-.3-1-.7-1.3l-33.4-28-2.6-10.9,12-8.4c.4-.3.7-.8.8-1.3l3.5-20.3c.1-.6,0-1.2-.4-1.6-.4-.5-.9-.7-1.5-.7h-26.7l-10.9-23.1c-.1-.3-.3-.5-.6-.7l-22.4-17.3-3.9-8.4-3.3-11.5,3.7-16.5c.1-.6,0-1.2-.4-1.7l-1.9-2.4,27.2-29.9c.7-.8.7-1.9,0-2.7l-13.2-14.2v-2.2l22.6-3.2c.5,0,1-.4,1.3-.8l27.7-37.6c.6-.8.5-2-.3-2.7l-20.2-17.3h120l4.6,11.4c0,0,0,.2.1.2.2.3,4.6,8.1,8.9,13.8v144.9l-6.5,8.3c-.3.4-.4.8-.4,1.2v13.2c0,.6.3,1.2.8,1.6l6.2,4.9v11.9l-25,29.1c-.3.4-.5.8-.5,1.3v19.9l-2.3,1.3c-.5.3-.8.7-.9,1.2l-4.3,15.3-12.3,5.3c-.7.3-1.2,1-1.2,1.8v11.1l-28.4-10.5c-.2,0-.5-.1-.7-.1-.4,0-.8.1-1.1.4-.5.4-.9,1-.9,1.6v11.1h-.5Z"/>
    <path class="cls-3" d="M2034.5,379.3l4.1,10.1c0,.2.1.3.2.5.2.3,4.4,7.7,8.6,13.4v143.6l-6.1,7.7c-.6.7-.9,1.6-.9,2.5v13.2c0,1.2.6,2.4,1.5,3.1l5.4,4.3v10.2l-24.5,28.5c-.6.7-1,1.6-1,2.6v18.7l-1.3.7c-.9.5-1.6,1.4-1.9,2.4l-4,14.4-11.4,4.9c-1.5.6-2.4,2.1-2.4,3.7v8.2l-25.7-9.5c-.5-.2-.9-.2-1.4-.2-.8,0-1.6.2-2.3.7-1.1.7-1.7,2-1.7,3.3v8l-5.2-2.7-3.3-29.6c-.1-1-.6-2-1.4-2.6l-32.9-27.5-2.1-8.9,10.9-7.6c.9-.6,1.5-1.5,1.7-2.6l3.5-20.3c.2-1.2-.1-2.4-.9-3.3-.8-.9-1.9-1.4-3.1-1.4h-25.4l-10.3-22c-.3-.6-.7-1.1-1.2-1.5l-22-17-3.6-7.9-3.1-10.8,3.6-16c.3-1.2,0-2.4-.8-3.4l-.9-1.1,26.1-28.6c1.4-1.5,1.4-3.9,0-5.4l-12.4-13.3,20.7-2.9c1.1-.2,2-.7,2.7-1.6l27.7-37.6c1.2-1.7,1-4-.6-5.4l-16.1-13.8h113.2M2037.2,375.3h-126.7l24.3,20.9-27.7,37.6-24.3,3.5v4.8l13.8,14.7-28.4,31.2,3,3.8-3.8,17,3.4,12.1,4.1,9,22.8,17.6,11.4,24.2h28l-3.5,20.3-13.1,9.2,3,12.9,33.9,28.4,3.6,31.7,10,5.3h3v-13.1l29.7,11h1.4v-13.4l13.2-5.7,4.5-16.3,3.3-1.9v-21l25.5-29.7v-13.6l-7-5.5v-13.2l7-8.8v-146.3c-4.3-5.6-9.2-14.1-9.2-14.1l-5.1-12.6h0Z"/>
  </g>
  <g>
    <path class="cls-2" d="M2283.6,599.9l-13.3-13.6c-.4-.4-.9-.6-1.4-.6h-26.2l-19.6-4.2c-.1,0-.3,0-.4,0-.3,0-.6,0-.9.2l-4.9,2.4-3.5-6.6c0,0,0-.1-.1-.2l-11.8-17.1c-.4-.5-1-.9-1.6-.9s-.3,0-.5,0l-13.5,3.5v-155.6h59.6l20.2,17.6c.4.3.8.5,1.3.5s.1,0,.2,0l42.9-4.8c.2,0,.3,0,.5-.1,4.9-1.9,48-18.5,50.8-19.9.8-.4,6.6-3,12.9-5.8v81l-5.3,3.9c-.4.3-.7.7-.8,1.2l-7.6,36.6c0,.2,0,.4,0,.6l1.5,16-45.9,20.5c-.7.3-1.2,1-1.2,1.8v9.2l-9.7,3c-.5.2-1,.5-1.2,1l-14.7,30.3h-5.8Z"/>
    <path class="cls-3" d="M2372.3,397.8v76.9l-4.5,3.3c-.8.6-1.3,1.4-1.5,2.4l-7.6,36.6c0,.4-.1.8,0,1.2l1.4,14.6-44.6,19.9c-1.4.6-2.4,2.1-2.4,3.7v7.7l-8.3,2.5c-1.1.3-1.9,1.1-2.4,2.1l-14.2,29.2h-3.7l-12.7-13c-.8-.8-1.8-1.2-2.9-1.2h-26l-19.4-4.1c-.3,0-.6,0-.8,0-.6,0-1.2.1-1.8.4l-3.2,1.6-2.6-4.9c0-.1-.2-.3-.2-.4l-11.8-17.1c-.8-1.1-2-1.7-3.3-1.7s-.7,0-1,.1l-11,2.9v-151h56.9l19.6,17.1c.7.6,1.7,1,2.6,1s.3,0,.4,0l42.9-4.8c.3,0,.7-.1,1-.2,8-3.1,48.2-18.6,51-20,.7-.3,5.5-2.5,10-4.5M2376.3,391.6c-8.5,3.8-14.9,6.7-15.8,7.1-2.8,1.4-50.7,19.8-50.7,19.8l-42.9,4.8-20.4-17.8v-.3h-62.7v160.2l16-4.2,11.8,17.1,4.4,8.4,6.7-3.3,19.8,4.2h26.4l13.9,14.2h7.9l15.3-31.5,11.1-3.4v-10.7l47.2-21.1-1.7-17.4,7.6-36.6,6.1-4.5v-85.1h0Z"/>
  </g>
  <g>
    <path class="cls-2" d="M860.6,237.3c-.3-.8-1-1.4-1.9-1.4h-16.4v-13.3c0-.4-.1-.8-.4-1.2l-23.9-32.9c-.4-.5-1-.8-1.6-.8s-.7.1-1.1.3l-12.2,7.7-6.6-2v-9.7l5-6.4c.5-.7.6-1.6,0-2.3l-4.8-7.2,4.2-6.3c.2-.3.3-.7.3-1.1v-26.1c0-1.1-.9-2-2-2h-12.2l-30.7-35.3c-.2-.2-.3-.3-.5-.4l-16.8-9.3v-11.7c0-.5-.2-1-.5-1.3l-17.3-19.1V2h555v226.4h-326.4c-1.1,0-2,.9-2,2v15.1c-.4-.4-.9-.7-1.5-.7h-10.4c-.4,0-.9.2-1.2.4l-9,7.1h-34.7c-.6,0-1.3.3-1.6.8l-2.8,4h-15.2c-.6,0-1.1.2-1.5.7l-1.6,1.8-7.6-22.3Z"/>
    <path class="cls-3" d="M1274.2,4v222.4h-324.4c-2.2,0-4,1.8-4,4v12.4h-9.9c-.9,0-1.8.3-2.5.9l-8.5,6.7h-34c-1.3,0-2.5.6-3.3,1.7l-2.2,3.1h-14.2c-.8,0-1.6.2-2.2.7l-6.6-19.2c-.6-1.6-2.1-2.7-3.8-2.7h-14.4v-11.3c0-.8-.3-1.7-.8-2.4l-23.9-32.9c-.8-1.1-2-1.6-3.2-1.6s-1.5.2-2.1.6l-11.4,7.2-4.3-1.3v-7.5l4.6-5.9c1.1-1.4,1.1-3.2.2-4.7l-4.1-6.1,3.4-5.2c.4-.7.7-1.4.7-2.2v-26.1c0-2.2-1.8-4-4-4h-11.3l-30.1-34.6c-.3-.4-.7-.6-1.1-.9l-15.7-8.7v-10.5c0-1-.4-1.9-1-2.7l-16.8-18.5V4h551M1278.2,0h-559v56.2l17.8,19.7v12.8l17.8,9.9,31.3,36h13.1v26.1l-4.9,7.4,5.6,8.3-5.4,7v11.8l8.9,2.7,13-8.2,23.9,32.9v15.3h18.4l8.7,25.5,3.9-4.3h16.2l3.4-4.8h35.4l9.6-7.5h10.4l3.5,4.2v-20.6h328.4V0h0Z"/>
  </g>
  <g>
    <path class="cls-2" d="M1858.3,472c-.4-.5-1-.8-1.6-.8h-186.3v-32.7c0-.3,0-.6-.2-.9l-8.6-17-6.2-21.3c-.1-.3-.3-.7-.6-.9l-10.8-10-10-23.4,4.4-23.6c0-.2,0-.4,0-.6l-1.8-18.9h238.6v32.1c0,.6.3,1.1.7,1.5l48.7,41.7-21.8,29.5-25.9,3.7c-1,.1-1.7,1-1.7,2v11.7c0,.5.2,1,.5,1.4l10.5,11.3-21.5,23.6-6.5-8.4Z"/>
    <path class="cls-3" d="M1873.3,324v30.1c0,1.2.5,2.3,1.4,3l47.3,40.5-20.2,27.4-25.1,3.6c-2,.3-3.4,2-3.4,4v11.7c0,1,.4,2,1.1,2.7l9.3,9.9-18.7,20.5-5.1-6.6c-.8-1-1.9-1.6-3.2-1.6h-184.3v-30.7c0-.6-.1-1.3-.4-1.8l-8.6-16.8-6.2-21.1c-.2-.7-.6-1.3-1.1-1.8l-10.4-9.7-9.6-22.5,4.3-23c0-.4,0-.7,0-1.1l-1.6-16.7h234.4M1877.3,320h-242.8l2,21.1-4.5,24.2,10.4,24.4,11.1,10.3,6.3,21.5,8.7,17.2v34.7h188.3l8,10.3,24.4-26.7-11.8-12.6v-11.7l26.8-3.8,23.3-31.7-50.1-42.9v-34.1h0Z"/>
  </g>
  <g>
    <path class="cls-2" d="M1379.4,677.4v-160.2h300.7l4,4c.4.4.9.6,1.4.6h16.5v3.5l-6.7,16.3c-.3.7-.2,1.5.4,2.1l20.9,23.5v110.2h-337.2Z"/>
    <path class="cls-3" d="M1679.3,519.2l3.4,3.4c.8.8,1.8,1.2,2.8,1.2h14.5v1.1l-6.5,16c-.6,1.4-.3,3,.7,4.2l20.4,23v107.5h-333.2v-156.2h297.9M1680.9,515.2h-303.5v164.2h341.2v-113l-21.4-24.1,6.8-16.7v-5.8h-18.5l-4.6-4.6h0Z"/>
  </g>
  <g>
    <path class="cls-2" d="M1379.4,507.7v-53.6c0-1.1-.9-2-2-2h-91.7v-102.4h256l19.9,7.8c.2,0,.5.1.7.1s.1,0,.2,0l32.1-3.6,30.9,15,10.3,24c.1.2.3.5.5.7l10.7,10.2,5.9,20c0,.1,0,.2.1.3l8.1,16v41.9c0,.4.1.7.3,1l9.7,15.9v8c0,.2,0,.3,0,.5h-291.6Z"/>
    <path class="cls-3" d="M1541.2,351.7l19.5,7.7c.5.2,1,.3,1.5.3s.3,0,.4,0l31.6-3.5,29.7,14.5,10,23.3c.2.5.5.9.9,1.3l10.3,9.8,5.7,19.5c0,.2.2.5.3.7l7.9,15.6v41.4c0,.7.2,1.4.6,2.1l9.4,15.5v6h-287.6v-51.6c0-2.2-1.8-4-4-4h-89.7v-98.4h253.6M1542,347.7h-258.3v106.4h93.7v55.6h298.1l-2.5-2.5v-8.6l-10-16.4v-42.4l-8.3-16.5-6-20.5-11.1-10.6-10.5-24.7-32.1-15.6-32.7,3.6-20.2-7.9h0Z"/>
  </g>
  <g>
    <path class="cls-2" d="M2082.8,397.8c3.9-3.4,18.7-17.5,20.5-19.2.4-.4.6-.9.6-1.5l-.5-52.6c0-.3,0-.6-.2-.9l-10-20.5c3.1-14.4,8-37.1,8.7-38.9.7-1.8,12-25.5,16.6-35.1l10.2-6.8,5.6,12.8c.2.5.6.9,1.2,1.1.2,0,.4.1.7.1s.6,0,.9-.2c1.3-.7,8.1-4.2,10.1-7.3,1.9-2.9,1.3-12.5.9-17.4l20.4-25.3,28.8,2.7,14.5,13.2c.4.3.8.5,1.3.5s0,0,.1,0l14.7-.8,10.8,50.7-5.7,14.2-23.7,29.3c-.6.8-.6,2,.1,2.7l7.5,7.5c.4.4.9.6,1.4.6s.9-.1,1.2-.4l31.5-24.5,14.7-1.6,16.1,52.8c0,0,0,.1,0,.2l4.7,11.6-3.6,12.1-12.5-12.9c-.4-.4-.9-.6-1.4-.6s-.5,0-.8.1c-.8.3-1.2,1-1.2,1.9v12.9c-4,3.9-8.8,8.2-10.1,8.7-1.3,0-3.8,1.1-17.7,24.2-.3.6-.4,1.2-.1,1.8l2,4.6h-158.2Z"/>
    <path class="cls-3" d="M2169.4,188.5l27,2.5,14,12.7c.7.7,1.7,1,2.7,1s.2,0,.2,0l13-.7,10.3,48.5-5.4,13.3-23.6,29.1c-1.3,1.6-1.2,3.9.3,5.3l7.5,7.5c.8.8,1.8,1.2,2.8,1.2s1.7-.3,2.5-.8l31-24.2,12.5-1.4,15.6,51.2c0,.1,0,.2.1.3l4.5,11-2.5,8.2-10.1-10.4c-.8-.8-1.8-1.2-2.9-1.2s-1,0-1.5.3c-1.5.6-2.5,2.1-2.5,3.7v12c-3.4,3.3-7.2,6.7-8.7,7.6-2.2.3-4.3,2.4-11.5,13.4-3.8,5.8-7.3,11.7-7.4,11.7-.7,1.1-.8,2.5-.3,3.6l.8,1.8h-150c5.4-5,13.6-12.8,16.7-15.8.8-.8,1.3-1.8,1.2-2.9l-.5-52.6c0-.6-.1-1.2-.4-1.7l-9.7-19.9c3-14,7.7-35.6,8.4-37.9.8-1.8,10.2-21.6,16.3-34.4l7.8-5.2,4.7,10.6c.4,1,1.3,1.8,2.3,2.2.4.2.9.2,1.4.2s1.2-.1,1.8-.4c2-1,8.6-4.5,10.9-7.9,2.1-3,1.9-11.1,1.3-17.9l19.2-23.8M2167.6,184.3l-21.6,26.7s1.4,14.1-.5,16.9c-1.9,2.8-9.4,6.6-9.4,6.6l-6.6-15-12.7,8.4s-16,33.3-16.9,35.7c-.9,2.3-8.9,39.9-8.9,39.9l10.3,21.1.5,52.6s-19.2,18.3-21.1,19.7c-.5.4-2.4,1.6-4.9,3h168.1l-3.2-7.4s14.1-23.2,16.2-23.2,12-9.9,12-9.9v-13.7l14.7,15.1,1.3,1.8-.3-4.3,4-13.4-5-12.3-16.5-54.4-16.9,1.9-31.9,24.9-7.5-7.5,23.9-29.6,6.1-15-11.2-53-16.4.9-15-13.6-30.5-2.8h0Z"/>
  </g>
  <path class="cls-2" d="M2034.4,87.2l-8.1-7h-16.8s-37.1,28.2-38.5,28.6c-.8.3-20.6,8.1-38.1,15.1l-8.7,15.6,7.3,13.1,77.6,19.7,31,16.9,7.6,24.5,1.6-.8,18.5-26.2h8l13.1-11.7,9.1,14.6v-5.7l10.3-5.2,23.9-6.1,11.7-6.1,13.6-2.8,9.4,8.9h10.3l13.6-12.2,5.6,6.3h13.1l-.9-6.3.8-6.5c-2.6-3.3-5.1-6.3-6.6-8-1.9-2.1-2-3.9-1.7-5.1h-13.6l-22.5-3.8-8.9-16.4-34.7,2.7-24.9,15.2-13.1,5.2-39.9-11.5-19.7-19.5-17.8,1.9,11.3-16,16.9-11.3Z"/>
  <g>
    <path class="cls-2" d="M2350.9,949v-7.8c0-.3,0-.5-.1-.7l-4.4-11.1v-13.5c0-.6-.2-1.1-.7-1.5l-22.1-19.4-10.6-19c0-.1-.2-.3-.3-.4l-31.8-33.7-6.4-13.8c-.2-.4-.4-.7-.8-.9l-21.3-12.6,7.3-12.7h6.4c.3,0,.6,0,.9-.2l26.6-12.5,59.1,2.6,24,9.7c.2,0,.5.1.7.1l5.8.2,10.4,14.7c.4.5,1,.8,1.6.8h27.8l37.1,36.7-1.4,1.9c0,0,0,.1-.1.2l-12.3,21.3-12.5,14.4-11.3,4.3c-.2,0-.5.2-.6.4l-16.2,14.8-20,8.3c-.2,0-.4.2-.6.3l-9.6,8.5c-.2.2-.4.4-.5.7l-1.6,3.6-16.2,20.9-5.9-4.7Z"/>
    <path class="cls-3" d="M2293.7,791.1l58.3,2.6,23.7,9.6c.4.2.9.3,1.4.3h4.8c0,.1,9.8,14,9.8,14,.7,1.1,2,1.7,3.3,1.7h26.9l35.2,34.9-.4.5c0,.1-.2.2-.2.4l-12.2,21.1-12.1,13.9-10.9,4.1c-.5.2-.9.5-1.3.8l-15.9,14.6-19.7,8.2c-.4.2-.8.4-1.1.7l-9.6,8.5c-.4.4-.8.9-1,1.4l-1.5,3.4-14.8,19.1-3.5-2.8v-6.8c0-.5,0-1-.3-1.5l-4.3-10.8v-13.1c0-1.2-.5-2.2-1.4-3l-21.9-19.2-10.5-18.7c-.2-.3-.4-.5-.6-.8l-31.6-33.5-6.3-13.5c-.3-.7-.9-1.3-1.6-1.7l-19.7-11.6,5.7-10h5.2c.6,0,1.2-.1,1.7-.4l26.1-12.3M2292.9,787.1l-27,12.7h-7.5l-8.8,15.4,23,13.7,6.6,14,32,34,10.8,19.3,22.4,19.6v13.9l4.6,11.5v8.7l8.2,6.6,17.5-22.7,1.7-3.8,9.6-8.5,20.3-8.5,16.4-15.1,11.8-4.5,13-14.9,12.4-21.5,2.4-3.3-38.9-38.4h-28.6l-10.9-15.5-6.8-.2-24.3-9.9-60-2.7h0Z"/>
  </g>
  <g>
    <path class="cls-2" d="M1956.3,1023.3c0-1.1-.9-2-2-2h-83.9l-7.3-4.5,19.6-49.7c0-.1,0-.2.1-.3l6.5-32.5c0-.3,0-.5,0-.8l-6.1-28.9,5.2-9.6c.3-.5.3-1.1.1-1.7l-5.6-14v-5.7l12.8-8.5c.6-.4.9-1,.9-1.7v-14.2l5.7-13,13-14.8c.3-.4.5-.8.5-1.3v-11l12.9-7.2h91.3l-17.1,222.5-20-2.2c0,0-.1,0-.2,0-.5,0-1,.2-1.4.6l-9.1,9.2-15.8,2.2v-10.9Z"/>
    <path class="cls-3" d="M2017.8,803.8l-16.8,218.3-17.9-1.9c-.1,0-.3,0-.4,0-1.1,0-2.1.4-2.8,1.2l-8.7,8.8-12.9,1.8v-8.6c0-2.2-1.8-4-4-4h-83.3l-5.4-3.3,19-48.1c0-.2.2-.5.2-.7l6.5-32.5c.1-.5.1-1.1,0-1.6l-6-28.2,4.9-9c.6-1,.6-2.3.2-3.4l-5.5-13.7v-4.2l11.9-7.9c1.1-.7,1.8-2,1.8-3.3v-13.7l5.4-12.4,12.8-14.6c.6-.7,1-1.7,1-2.6v-9.8l11.4-6.3h88.6M2022.1,799.8h-93.9l-14.4,8v12.2l-13.2,15.1-6,13.7v14.6l-13.7,9.1v7.1l5.8,14.4-5.6,10.3,6.3,29.7-6.5,32.5-20.3,51.2,9.2,5.7h84.4v13.2s18.8-2.6,18.8-2.6l9.6-9.7,22,2.4h0l17.4-226.7h0Z"/>
  </g>
  <g>
    <path class="cls-2" d="M1956.5,1078.1l.5-7.9c0-.7-.3-1.5-1-1.8-.3-.2-.7-.3-1-.3s-.7,0-1,.3l-14.7,9c-.4.2-.6.6-.8.9l-4.4,10.7-7.9-2.3-14.6-4.5c-.2,0-.4,0-.6,0s-.4,0-.6,0l-22.6,6.9-13.8-12.7c-.1-.1-.3-.2-.4-.3l-16.4-8.5c-.3-.1-.6-.2-.9-.2-.5,0-.9.2-1.3.5l-4,3.5-22.8.5-5.1-4.1c-.4-.3-.8-.4-1.2-.4s-.2,0-.4,0l-9,1.7-12,2.7-32.4-10.1v-9.3c0,0,13-30.4,13-30.4.2-.5.2-1.2,0-1.7l-23.8-45.7v-66.2h117.3l5.4,25.4-6,30.3-21.7,54.9c-.4.9,0,1.9.8,2.4l14.5,8.9c.3.2.7.3,1,.3h78.5v15c0,1.1.9,2,2,2h11.1l6,1.9,4.1,8.6-14.2,1.9c-.8.1-1.5.7-1.7,1.6-.2.8.2,1.7.9,2.1l29.7,17.9,3.7,4.1-11.4,6.1-20.6-13.9Z"/>
    <path class="cls-3" d="M1872.7,910.6l5,23.4-5.9,29.7-21.7,54.7c-.7,1.8,0,3.9,1.6,4.9l14.5,8.9c.6.4,1.4.6,2.1.6h76.5v13c0,2.2,1.8,4,4,4h10.8l4.9,1.5,2.5,5.3-11.5,1.5c-1.7.2-3,1.5-3.4,3.1s.4,3.4,1.8,4.2l.8.5c-.7,0-1.4.2-2,.6l-14.7,9c-.7.4-1.3,1.1-1.6,1.9l-3.7,9.1-6.1-1.8-14.6-4.5c-.4-.1-.8-.2-1.2-.2s-.8,0-1.2.2l-21.5,6.6-13-11.9c-.3-.2-.6-.4-.9-.6l-16.4-8.5c-.6-.3-1.2-.4-1.8-.4-.9,0-1.9.3-2.6,1l-3.4,3-21.4.5-4.5-3.6c-.7-.6-1.6-.9-2.5-.9s-.5,0-.7,0l-9,1.7c0,0-.1,0-.2,0l-11.4,2.6-30.4-9.5v-7.4c0,0,12.8-30,12.8-30,.5-1.1.4-2.3-.1-3.4l-23.6-45.3v-63.7h113.7M1958.6,1068.3l24.9,15,1.8,2-8,4.3-18.7-12.6.4-6.7c0-.7,0-1.4-.4-2M1876,906.6h-120.9v68.7l24,46.2-13.1,30.8v11.1c-.1,0,34.2,10.7,34.2,10.7l12.4-2.8,9-1.7,5.6,4.5,24.3-.6,4.5-4,16.4,8.5,14.7,13.5,23.7-7.3,14.7,4.5,9.6,2.8,5.1-12.4,14.7-9-.6,9,22.6,15.3,14.7-7.9-5.7-6.2-29.9-18.1,16.9-2.3-5.6-11.9-7.1-2.2h-11.4v-17h-80.5l-14.5-8.9,21.8-55,6.1-30.9-5.8-27.4h0Z"/>
  </g>
  <g>
    <path class="cls-1" d="M1547.4,1289.5c-.3-.3-.7-.5-1.2-.6l-17.4-1.9c0,0-.1,0-.2,0-.3,0-.6,0-.8.2l-3.5,1.6-3.8-1.2-.7-1.8c-.3-.8-1-1.3-1.9-1.3h-1.1l-3.9-3.5c-.2-.2-.5-.3-.7-.4l-9-2.9c-.2,0-.4,0-.6,0s-.6,0-.8.2l-1.2.6-4.5-5.4c-.4-.4-.9-.7-1.4-.7l-8.2-.5-2-.9-1.1-3.8c-.1-.5-.4-.9-.8-1.1l-3.8-2.5-.2-1.7-.9-7.7c0-.6-.4-1.2-1-1.5l-3.5-2.1.7-2.4c.2-.8,0-1.6-.7-2.1l-4.2-3.2.7-8.2c0-.5-.1-1.1-.5-1.5l-3.2-3.6.4-8.2c0-.2,0-.4,0-.7l-3-10.3c-.2-.6-.7-1.1-1.3-1.3l-8.1-2.7-4.9-3.9-2.1-6.9c0,0,0-.1,0-.2l-1.3-3c-.2-.6-.7-1-1.3-1.1l-2.2-.6-3.4-8c-.2-.5-.7-.9-1.2-1.1l-3.3-1.1-4.4-2.9v-2.9c0-.7-.4-1.3-1-1.7l-1.4-.9-.3-3.2.6-1.7c.3-.8,0-1.6-.6-2.2l-2-1.6-4.8-10.7c0-.1-.1-.2-.2-.3l-5.9-8.4v-3c0-.2,0-.5,0-.7-.4-1.2-3.1-6.6-3.9-8.2,0,0,0-.1,0-.2l-1.9-3.2-1-3.5c-.2-.7-.8-1.3-1.5-1.4l-4.3-.8-4.9-5.3-.3-2.9c0-.5-.3-1-.8-1.4-.4-.3-.8-.4-1.2-.4s-.2,0-.3,0l-4.3.6-.8-1.9c-.2-.5-.6-1-1.2-1.2h-.3c.3-1,0-2.1-1-2.5l.4-.8c.2-.5.2-1.1,0-1.6-.2-.5-.6-.9-1.1-1.1l-4.1-1.6-1.2-2.5c-.2-.3-.4-.6-.7-.8l-6.4-4.1-2.2-1.5c-.3-.2-.7-.3-1.1-.3s-.7.1-1.1.3l-3.2,2-2.9.4-1.8-1.8c-.4-.4-.9-.6-1.4-.6s-.3,0-.5,0l-5.5,1.4-8.7-2.5-9.2-2.6c-.2,0-.4,0-.5,0-.6,0-1.2.3-1.6.8l-2.9,3.9c-.3-.2-.8-.4-1.2-.4s-.5,0-.8.1l-12.2,4.9c-.7.3-1.2.9-1.2,1.6l-.5,4.4-4.6,8.7c-.1.2-.2.5-.2.7l-.4,3.6-1.8,2.8-2.3,3.5c-.3.5-.4,1.1-.3,1.6l.3,1.2-1.3,1c0,0-.2.1-.2.2l-6.9,7.2-1.3.6-3.8-2c0,0-.2,0-.3-.1l-3.6-1.2-2.1-5.9c-.2-.5-.6-.9-1.1-1.2-.3-.1-.5-.2-.8-.2s-.5,0-.8.2l-3,1.3h-3.5l-2.3-5.2c-.3-.7-1-1.2-1.8-1.2h-7.3l-7-3.8-.7-4.4c0-.6-.5-1.2-1-1.5l-2.1-1.1-12.3-7.1-1.1-6.4c0-.2-.1-.4-.2-.6l-5.1-9.2.4-3c0,0,0-.2,0-.3v-9.3c-.1-.3-.2-.5-.3-.8l-3.5-8c-.2-.5-.7-1-1.3-1.1l-1.4-.4-2-9.9c-.2-.9-1-1.6-2-1.6h-1.8l-1.6-4c-.3-.8-1-1.2-1.9-1.2h-1.1l-3.9-4.7c-.2-.3-.6-.5-1-.6l-7.8-2.4-.4-1.6c-.1-.4-.3-.8-.6-1l-5.8-4.9-1.4-3.5c-.1-.3-.3-.5-.5-.7l-5.6-5.5c-.3-.2-.6-.4-.9-.5l-2.9-.7-5.1-5.8-1-4.2c-.2-.9-1-1.5-1.9-1.5h-3.4l-4.9-4.1-1.1-2.6c0-.2-.1-.3-.3-.4l-1.6-2.1-2.7-6c-.1-.3-.3-.6-.6-.8l-3.7-2.8v-5h168.2c1.1,0,2-.9,2-2v-267.1h130.4v103.1c0,.5.2,1,.6,1.4l19.1,19.1c.4.4.9.6,1.4.6s1-.2,1.4-.6l8.4-8,5.1,5.8,9.7,11.9c.4.5.9.7,1.5.7h48l7.8,12.2c.4.6,1,.9,1.7.9s.3,0,.4,0l1.9-.4c3.2-.7,6.9-1.1,9.5-1.1s1.7,0,1.9.1c3.2,2.9,11.9,7.7,15.6,9.7l1.7.9c.3.2.6.2.9.2.5,0,.9-.2,1.3-.5l8.8-7.6,7.3,2.9c.2,0,.5.1.7.1s.1,0,.2,0l8.6-.9,13.3,5.3c.2,0,.5.1.7.1s.2,0,.4,0l27.7-5.1c.9-.2,1.6-1,1.6-2v-4.5l6.7,4.3c.3.2.7.3,1.1.3s.6,0,.9-.2l14-6.6,13.8,13c.3.3.7.5,1.1.5l17.7,2.8,22.1,8.7v92.3c0,.3,0,.6.2.9l23,44.2-11.9,28c-.1.2-.2.5-.2.8v17h-16.1l.8-6.2c.1-.8-.3-1.7-1.1-2.1-.3-.1-.6-.2-.9-.2-.5,0-1,.2-1.4.6l-11.4,11.4-20.3,3.8c-.1,0-.2,0-.3,0l-18.1,6.8-6.1,2.2-10.6-3.9c-.2,0-.5-.1-.7-.1-.6,0-1.2.3-1.6.8-.5.7-.6,1.7,0,2.4l6.3,8.8-3.7,15.6-6.3,11.8-21.2,5.9c-.3,0-.5.2-.7.3l-42.2,32.9-12.2,5.9c-.8.4-1.2,1.2-1.1,2l.5,5-5.8,3.9c-.5.3-.8.9-.9,1.5l-.5,7.7-5.6,5.2c-.6.5-.8,1.4-.5,2.1l2.4,6.8-8.3,10.4c-.2.2-.3.4-.3.7l-7.3,23.7c0,0,0,.2,0,.2l-2.8,16.2c0,.3,0,.7,0,1l7.2,21.9-1.4,19.2-3-.7c-.2,0-.3,0-.5,0-.4,0-.7,0-1,.3l-2.8,1.7-2.5-.9c-.2,0-.5-.1-.7-.1-.5,0-.9.2-1.3.4-.6.4-.8,1.2-.7,1.9l.3,1.9-6.6-6.5Z"/>
    <path class="cls-3" d="M1461,719v101.1c0,1.1.4,2.1,1.2,2.8l19.1,19.1c.8.8,1.8,1.2,2.8,1.2s2-.4,2.8-1.1l6.9-6.6,3.6,4.2,9.7,11.9c.8.9,1.9,1.5,3.1,1.5h46.9l7.2,11.3c.7,1.2,2,1.8,3.4,1.8s.6,0,.8,0l1.9-.4c3.1-.7,6.6-1.1,9.1-1.1.5,0,.8,0,1.1,0,3.5,3,11.1,7.2,15.6,9.5l1.7.9c.6.3,1.2.5,1.9.5.9,0,1.9-.3,2.6-1l7.9-6.8,6.2,2.4c.5.2,1,.3,1.4.3s.3,0,.4,0l8.1-.8,12.9,5.2c.5.2,1,.3,1.5.3s.5,0,.7,0l27.7-5.1c1.9-.4,3.3-2,3.3-3.9v-.8l3.6,2.3c.7.4,1.4.6,2.2.6s1.2-.1,1.7-.4l12.7-6,12.8,12c.6.6,1.3.9,2.1,1l17.4,2.7,20.6,8.1v90.9c0,.6.2,1.3.5,1.8l22.6,43.4-11.5,27.2c-.2.5-.3,1-.3,1.5v15h-11.9l.5-3.9c.2-1.7-.7-3.4-2.2-4.1-.6-.3-1.2-.4-1.8-.4-1,0-2.1.4-2.8,1.2l-11,11-19.7,3.7c-.2,0-.4.1-.7.2l-18,6.8-5.4,2-9.9-3.7c-.5-.2-.9-.3-1.4-.3-1.2,0-2.4.6-3.2,1.6-1.1,1.4-1.1,3.3,0,4.8l5.7,8.1-3.4,14.5-5.7,10.8-20.4,5.7c-.5.1-1,.4-1.4.7l-42,32.8-12,5.8c-1.5.7-2.4,2.3-2.3,4l.3,3.8-4.8,3.2c-1,.7-1.7,1.8-1.8,3.1l-.5,6.9-5,4.6c-1.2,1.1-1.6,2.8-1.1,4.3l2.1,5.7-7.6,9.5c-.3.4-.5.8-.7,1.3l-7.3,23.7c0,.2,0,.3-.1.5l-2.8,16.2c-.1.6,0,1.3.1,1.9l7.1,21.5-1.2,16.5-.7-.2c-.3,0-.6-.1-.9-.1-.7,0-1.4.2-2.1.6l-2,1.2-1.6-.6c-.5-.2-.9-.3-1.4-.3-.9,0-1.8.3-2.5.9-.3.3-.6.6-.8.9l-3.6-3.5c-.6-.6-1.5-1-2.4-1.1l-17.4-1.9c-.1,0-.3,0-.4,0-.6,0-1.1.1-1.7.4l-2.8,1.3-2.1-.7-.3-.9c-.6-1.6-2.1-2.7-3.8-2.7h-.3l-3.4-3c-.4-.4-.9-.6-1.4-.8l-9-2.9c-.4-.1-.8-.2-1.2-.2s-1,0-1.5.3l-3.5-4.2c-.7-.9-1.7-1.4-2.8-1.4l-7.8-.4-.8-.4-.8-3c-.3-.9-.8-1.7-1.7-2.3l-3-2v-.7c0,0-1-7.7-1-7.7-.1-1.3-.9-2.4-2-3l-2.2-1.3.2-.9c.4-1.6-.1-3.3-1.5-4.2l-3.3-2.5.6-7.1c0-1.1-.3-2.2-1-3l-2.7-3,.3-7.4c0-.4,0-.9-.2-1.3l-3-10.3c-.4-1.3-1.3-2.3-2.6-2.7l-7.8-2.6-4.2-3.3-1.9-6.3c0-.1,0-.3-.2-.4l-1.3-3c-.5-1.1-1.5-2-2.6-2.3l-1.2-.3-3-7.1c-.4-1.1-1.3-1.9-2.4-2.2l-3-1-3.3-2.2v-1.9c0-1.4-.8-2.6-1.9-3.3l-.6-.4-.2-1.8.4-1.3c.5-1.6,0-3.3-1.3-4.3l-1.6-1.3-4.6-10.2c-.1-.2-.2-.5-.4-.7l-5.5-7.9v-2.3c0-.5,0-.9-.2-1.3-.4-1.2-2.7-5.8-4-8.4,0-.1-.1-.2-.2-.3l-1.8-2.9-1-3.3c-.4-1.4-1.6-2.5-3.1-2.8l-3.6-.7-4-4.3-.2-2.3c-.1-1.1-.7-2-1.5-2.7-.7-.6-1.6-.9-2.5-.9s-.3,0-.5,0l-2.7.4-.2-.5c-.3-.7-.7-1.3-1.3-1.7,0-.6-.3-1.2-.7-1.8.3-.9.2-1.8-.2-2.7-.4-1-1.2-1.8-2.3-2.2l-3.4-1.3-.8-1.7c-.3-.7-.8-1.3-1.5-1.7l-6.4-4.1-2.3-1.5c-.7-.4-1.4-.7-2.2-.7s-1.5.2-2.1.6l-2.8,1.8-1.5.2-1.1-1.1c-.8-.8-1.8-1.2-2.8-1.2s-.6,0-1,.1l-5,1.2-8.2-2.3-9.2-2.6c-.4-.1-.7-.2-1.1-.2-1.3,0-2.5.6-3.2,1.6l-2,2.7c-.1,0-.3,0-.4,0-.5,0-1,0-1.5.3l-12.2,4.9c-1.4.5-2.3,1.8-2.5,3.2l-.5,4.1-4.4,8.4c-.2.5-.4.9-.4,1.5l-.3,3.1-1.6,2.4-2.3,3.5c-.6.9-.8,2.1-.5,3.2l-.3.2c-.2.1-.3.3-.4.4l-6.7,6.9h0s-3-1.5-3-1.5c-.2,0-.3-.2-.5-.2l-2.7-.9-1.8-5c-.4-1-1.1-1.9-2.1-2.3-.5-.2-1.1-.3-1.6-.3s-1,.1-1.5.3l-2.7,1.1h-1.8l-1.8-4c-.6-1.4-2.1-2.4-3.7-2.4h-6.7l-5.7-3.1-.5-3.4c-.2-1.2-1-2.3-2.1-2.9l-2.1-1.1-11.5-6.6-1-5.5c0-.4-.2-.9-.4-1.2l-4.7-8.6.3-2.4c0-.2,0-.4,0-.5v-9.3c-.2-.5-.3-1.1-.5-1.5l-3.5-8c-.5-1.1-1.4-1.9-2.6-2.2h-.2c0,0-1.8-8.8-1.8-8.8-.4-1.9-2-3.2-3.9-3.2h-.4l-1.1-2.7c-.6-1.5-2.1-2.5-3.7-2.5h-.1l-3.3-3.9c-.5-.6-1.2-1-1.9-1.3l-6.8-2v-.5c-.3-.8-.8-1.5-1.4-2l-5.4-4.6-1.2-3c-.2-.5-.5-1-.9-1.4l-5.6-5.5c-.5-.5-1.1-.8-1.8-1l-2.3-.6-4.3-4.9-.9-3.7c-.4-1.8-2-3.1-3.9-3.1h-2.6l-3.9-3.4-.9-2.2c-.1-.3-.3-.6-.5-.9l-1.4-1.9-2.6-5.8c-.3-.6-.7-1.1-1.2-1.5l-2.9-2.2v-2h166.2c2.2,0,4-1.8,4-4v-265.1h126.4M1465,715h-134.4v269.1h-170.2v8l4.4,3.4,2.8,6.2,1.7,2.3,1.3,3.1,5.8,4.9h4.1l1.1,4.7,5.8,6.6,3.5.9,5.6,5.5,1.6,3.9,6.2,5.2.7,2.7,8.9,2.7,4.5,5.4h2l2.1,5.2h3.1l2.3,11.1,2.5.7,3.5,8v9.3c.1,0-.3,3.7-.3,3.7l5.4,9.8,1.3,7.3,13.1,7.6,2.1,1.1.8,5.4,8.3,4.5h7.8l2.8,6.4h5.2l3.4-1.4,2.4,6.8,4.5,1.6,4.7,2.4,2.5-1.1,7.2-7.5,2.4-1.8-.7-2.5,2.3-3.5,2.1-3.2.4-4.1,4.8-9.1.6-4.8,12.2-4.9,1.5,1.3,4.1-5.6,9.2,2.6,9.2,2.6,6-1.5,2.5,2.4,4.3-.6,3.6-2.2,2.3,1.5,6.4,4.1,1.5,3.2,4.9,1.9-1.2,2.7,1.7.7-.7,1.9,2.2.8,1.3,3.4,5.8-.8.4,3.6,5.8,6.2,4.9.9,1.1,3.8,2.1,3.4s3.4,6.8,3.8,7.9v3.6c0,0,6.2,9,6.2,9l5,11.1,2.3,1.9-.7,2.1.4,4.6,2.3,1.4v3.9c0,0,5.6,3.7,5.6,3.7l3.5,1.2,3.7,8.9,3.1.8,1.3,3,2.3,7.5,5.7,4.5,8.5,2.8,3,10.3-.4,9,3.7,4.2-.8,9.3,5.1,3.8-1.1,3.9,4.9,2.8.9,7.7.3,2.6,4.5,3,1.3,4.7,3.2,1.5,8.5.5,5.4,6.6,2.6-1.2,9,2.9,4.5,4h1.8l1,2.8,5.5,1.7,4.2-1.9,17.4,1.9,8.7,8.5,1.5-2.8-.4-2.8,3.4,1.3,3.7-2.2,5.3,1.3,1.6-22-7.3-22.2,2.8-16.2,7.3-23.7,9-11.3-2.8-7.9,6.2-5.7.6-8.5,6.8-4.5-.6-6.2,12.4-5.9,42.4-33,22-6.1,6.8-12.8,4-16.8-6.8-9.5,11.3,4.2,6.8-2.5,18.1-6.8,20.9-3.9,11.9-11.9-1.1,8.5h19.8l.5-.6.2-18.4,12.3-28.9-23.4-45.1v-93.7l-23.5-9.2-17.9-2.8-14.8-13.9-15.2,7.2-9.7-6.3v8.2l-27.7,5.1-13.8-5.5-9.1.9-8.5-3.3-9.7,8.4-1.7-.9c-1.3-.7-12.5-6.7-15.5-9.6-.4-.3-1.5-.4-3.1-.4-2.6,0-6.4.4-9.9,1.2l-1.9.4-8.4-13.1h-49.1l-9.8-11.9-6.4-7.4-9.9,9.5-19.1-19.1v-105.1h0Z"/>
  </g>
  <g>
    <path class="cls-2" d="M1052.8,1006.9v-320h270.2v289.7h-168.2c-1.1,0-2,.9-2,2v8.2s-73.1-2.4-73.1-2.4c-.5,0-1,.2-1.4.6-.4.4-.6.9-.6,1.4l-.3,21.9-24.6-1.5Z"/>
    <path class="cls-3" d="M1321,688.9v285.7h-166.2c-2.2,0-4,1.8-4,4v6.2l-71-2.4s0,0-.1,0c-1,0-2,.4-2.8,1.1-.8.7-1.2,1.8-1.2,2.8l-.2,19.8-20.7-1.2v-316.1h266.2M1325,684.9h-274.2v323.8l28.6,1.7.3-24,75.1,2.5v-10.3h170.2v-293.7h0Z"/>
  </g>
  <g>
    <path class="cls-2" d="M2427.1,808.4c-.4-.4-.9-.6-1.4-.6h-26.9l-10.4-14.7c-.4-.5-1-.8-1.6-.8h-7.7l-23.9-9.7c-.2,0-.4-.1-.7-.1,0,0-62.8-3-62.8-3-.3,0-.6,0-.9.2l-26.1,12.6h-60.3v-1.2l9.5-3.8c.5-.2.9-.6,1.1-1.1l5.8-15,31.9-5.2c.4,0,.7-.2,1-.5l21.5-19.9,5.2,3.6c.3.2.7.4,1.1.4s.9-.2,1.3-.5l11-9.4h13.1c.5,0,1-.2,1.4-.6l8.3-8.2c0,0,.1-.1.2-.2l7-9.1c.3-.4.4-.8.4-1.2v-9.9h283.2l-5.4,15.7-16.8,8.7c-.8.4-1.3,1.4-1,2.3.2.9,1,1.5,1.9,1.5s20.4-.5,20.4-.5l2.7,3.3-13.8,10.8-23.2,3.2c-.6,0-1.1.4-1.4.8s-.4,1-.3,1.6l2.1,9.2-3.8,10.8c-.3.8,0,1.6.5,2.1l7.1,6.6,2.7,4.6-14.1,6.8-20,1.7c-.3,0-.6.1-.9.3l-32.2,19.8c-.5.3-.9.9-.9,1.5l-1.6,13.2-7.9,4.9-22,3.2-6.7-4.1c-.3-.2-.7-.3-1-.3-.6,0-1.2.3-1.6.8l-5.4,7.3-38.3-37.8Z"/>
    <path class="cls-3" d="M2604.9,712.6l-4.2,12.3-16.1,8.3c-1.7.9-2.5,2.7-2,4.6.5,1.8,2.1,3,3.9,3s0,0,.1,0l19.4-.5.8,1-11.7,9.2-22.7,3.1c-1.1.2-2.1.8-2.8,1.7-.6.9-.9,2.1-.6,3.2l2,8.6-3.6,10.2c-.5,1.5-.1,3.2,1.1,4.3l6.9,6.4,1.5,2.5-11.8,5.7-19.6,1.6c-.6,0-1.2.3-1.8.6l-32.2,19.8c-1,.6-1.7,1.7-1.9,2.9l-1.5,12.2-6.7,4.2-20.9,3.1-6.1-3.8c-.7-.4-1.4-.6-2.1-.6-1.2,0-2.4.6-3.2,1.6l-4,5.5-36.6-36.2c-.7-.7-1.8-1.2-2.8-1.2h-25.9l-9.8-13.8c-.7-1.1-2-1.7-3.3-1.7h-7.3l-23.5-9.5c-.4-.2-.9-.3-1.3-.3l-62.7-3c0,0-.1,0-.2,0-.6,0-1.2.1-1.7.4l-25.7,12.4h-52.4l2.8-1.1c1-.4,1.8-1.2,2.2-2.3l5.4-13.9,30.8-5c.8-.1,1.5-.5,2.1-1l20.4-18.8,3.9,2.7c.7.5,1.5.7,2.3.7s1.8-.3,2.6-1l10.5-8.9h12.3c1.1,0,2.1-.4,2.8-1.2l8.3-8.2c.1-.1.2-.3.3-.4l7-9.1c.5-.7.8-1.6.8-2.5v-7.9h278.4M2610.5,708.6h-288v11.9l-7,9.1-8.3,8.2h-13.8l-11.6,9.8-6.5-4.5-22.7,21-33,5.4-6.3,16.1-10.7,4.3v4.5h62.7l26.5-12.8,62.7,3,24.2,9.8h8.1l10.9,15.5h28l39.9,39.5,6.7-9.2,7.3,4.5,23.2-3.4,9-5.6,1.7-14.1,32.2-19.8,20.3-1.7,16.4-7.9-4-6.8-7.4-6.8,4-11.3-2.3-9.8,23.7-3.2,15.8-12.4-4.7-5.7-21.3.6,17.5-9,6.5-19.1h0Z"/>
  </g>
  <g>
    <path class="cls-2" d="M2361.7,1304.4l2.5-11.4c0-.2,0-.5,0-.7l-3.4-22.7c0-.5-.3-.9-.7-1.2l-12.4-10.6-14.9-12-6-16c-.1-.3-.3-.5-.5-.7l-6.2-5.9v-19.2c0-.9-.6-1.7-1.5-1.9l-11.3-3.2-13.5-14.6-6.8-17.2,6-7.6c.6-.8.6-1.9,0-2.6-.4-.4-.9-.7-1.5-.7s-.8.1-1.1.3l-7.3,4.7-2.6-10.5,3.2-20.7,5.4-2.9c.7-.4,1.1-1.1,1-1.9l-1.7-18.6-1.7-15.4c0-.7-.5-1.3-1.1-1.6l-25.4-12.1-5.3-11.2-6.8-14.7c-.2-.4-.5-.8-.9-1l-29.9-14.7c-.3-.1-.6-.2-.9-.2-.4,0-.9.1-1.2.4l-28.9,22.8-20.1,1.5-10.1-18.5c-.2-.3-.5-.6-.8-.8l-33.9-18.9c-.3-.2-.6-.3-1-.3h-68.2l-2-22.4h111.2l12.3,29.8c.3.7,1,1.2,1.8,1.2l103.5.9,18.4,27.4c.4.6,1,.9,1.7.9h12.6c.9,0,1.6-.6,1.9-1.4l6.4-19.9,18.7,3.2c.1,0,.2,0,.3,0,.6,0,1.1-.2,1.5-.7l5.2-5.8c1.8,9.6,2.5,13.7,2.6,14.3,0,.5,0,2.1,26.7,54.4l15.3,45.1s0,0,0,.1l20.1,48.8-1.1,45.6-14.1,13.6c-.3.3-.5.7-.6,1.1-2.3,13-5.9,32.5-6.6,35.6-1.9,1.6-12.2,7.4-22,12.5l-4.4-2Z"/>
    <path class="cls-3" d="M2160.1,1001.8l11.7,28.5c.6,1.5,2.1,2.5,3.7,2.5l102.5.9,17.8,26.5c.7,1.1,2,1.8,3.3,1.8h12.6c1.7,0,3.3-1.1,3.8-2.8l5.9-18.2,17,2.9c.2,0,.5,0,.7,0,1.1,0,2.2-.5,3-1.3l2.5-2.8c1.5,7.8,1.7,9.6,1.8,10,0,1.3.6,3,13.7,29.1,6.1,12,12.2,24.1,13.2,26l15.2,44.9c0,0,0,.2,0,.2l20,48.4-1.1,44.4-13.5,13c-.6.6-1,1.3-1.2,2.2-2.1,11.7-5.5,30.2-6.5,34.8-2.7,1.9-11.8,7-20.2,11.5l-2.1-.9,2.1-9.9c.1-.5.1-1,0-1.4l-3.4-22.7c-.1-1-.6-1.8-1.4-2.4l-12.4-10.6s0,0,0,0l-14.4-11.6-5.8-15.5c-.2-.6-.5-1.1-1-1.5l-5.5-5.3v-18.4c0-1.8-1.2-3.4-2.9-3.8l-10.8-3.1-12.9-13.9-6.2-15.8,5.3-6.7c1.2-1.5,1.2-3.7-.2-5.2-.8-.9-1.9-1.3-3-1.3s-1.5.2-2.2.6l-4.9,3.2-1.8-7.4,3-19.3,4.5-2.4c1.4-.8,2.2-2.3,2.1-3.9l-1.7-18.6s0,0,0,0l-1.7-15.3c-.2-1.4-1-2.6-2.3-3.2l-24.7-11.8-5-10.5-6.8-14.7c-.4-.8-1-1.5-1.9-1.9l-29.9-14.7c-.6-.3-1.2-.4-1.8-.4-.9,0-1.8.3-2.5.9l-28.4,22.4-18.2,1.4-9.5-17.4c-.4-.7-.9-1.2-1.6-1.6l-33.9-18.9c-.6-.3-1.3-.5-1.9-.5h-66.3l-1.6-18.4h107.6M2162.8,997.8h-114.7l2.3,26.4h70l33.9,18.9,10.7,19.6,22-1.7,29.4-23.2,29.9,14.7,6.8,14.7,5.6,11.9,26,12.4,1.7,15.3,1.7,18.6-6.2,3.4-3.4,22,3.4,13.6,9.6-6.2-6.8,8.5,7.3,18.6,14.1,15.3,11.9,3.4v20.1l6.8,6.5,6.2,16.5,15.2,12.3,12.4,10.6,3.4,22.7-2.8,13,6.8,3.1s23.2-12.1,23.7-13.8c.6-1.7,6.8-36.1,6.8-36.1l14.7-14.1,1.1-46.9-20.3-49.1-15.3-45.2s-26.5-52-26.5-53.7-1.6-9.4-3.4-18.6l-7.9,8.8-20.5-3.5-7,21.5h-12.6l-19-28.3-104.6-.9-12.8-31h0Z"/>
  </g>
  <g>
    <polygon class="cls-1" points="2012.1 1027.6 2029.4 801.8 2159.9 801.8 2159.9 899.5 2173.7 918.2 2173.7 935.9 2159.9 935.9 2159.9 990.3 2040 990.3 2042.6 1019.9 2040.2 1018.2 2034.9 1019 2014.8 1028.9 2012.1 1027.6"/>
    <path class="cls-3" d="M2157.9,803.8v96.3l.8,1.1,13,17.7v15h-13.8v54.4h-120.1l.4,4.4,2.1,23.5-1.1.2-4.2.6h-.6c0,0-.6.4-.6.4l-19,9.3-.6-.3,17.1-222.6h126.6M2161.9,799.8h-134.3l-17.6,229.1,4.9,2.2,20.7-10.2,4.2-.6,5.3,3.6-2.8-31.6h119.8v-54.4h13.8v-20.3l-13.8-18.7v-99h0Z"/>
  </g>
  <g>
    <path class="cls-2" d="M422.2,192.6l-9.5-2.8-4.5-13.5c-.1-.4-.4-.7-.7-1l-10.7-8c-.2-.1-.4-.3-.7-.3l-16-4.5-10-7.8c-.4-.3-.8-.4-1.2-.4h-19.2l-16.3-78.2c0-.4-.2-.7-.5-1l-16.8-17.9,3.5-23.6,18,2.5,8.1,4.9c.2.1.5.2.7.3l16.9,2.8c.1,0,.2,0,.3,0s20.1-.5,20.1-.5l23.1,60.8c.3.8,1,1.3,1.9,1.3s.1,0,.2,0c.9,0,1.6-.7,1.8-1.6l12-63.8c0-.5,0-.9-.2-1.3L402.1,2h266.3v164.4h-98.2c-.4,0-.7,0-1,.3l-14.6,8.6h-20.6c-.6,0-1.2.3-1.6.8l-4.1,5.7-4.2,1.7h-14.9c-.3,0-.7,0-1,.2l-7.8,4.2c-2.8-.2-5.2-.3-7.1-.3-3.5,0-5,.3-5.9.8-.2,0-.5,0-1.1,0-1.7,0-4.1-.2-6.4-.4,0,0-.1,0-.2,0s-11.4.4-11.4.4h-24.5c-.2,0-.4,0-.6,0l-12.8,4.1h-8.1Z"/>
    <path class="cls-3" d="M666.4,4v160.4h-96.2c-.7,0-1.4.2-2,.6l-14.1,8.3h-20.1c-1.3,0-2.5.6-3.3,1.7l-3.8,5.2-3.3,1.3h-14.5c-.7,0-1.3.2-1.9.5l-7.3,3.9c-2.6-.2-4.8-.3-6.7-.3-3.1,0-5,.2-6.4.8-.2,0-.4,0-.6,0-1.6,0-4-.1-6.2-.4-.1,0-.3,0-.4,0s0,0-.1,0l-11.2.4h-24.5c-.4,0-.8,0-1.2.2l-12.5,4h-7.5l-8.2-2.4-4.2-12.5c-.3-.8-.7-1.4-1.4-1.9l-10.7-8c-.4-.3-.8-.5-1.3-.6l-15.6-4.4-9.7-7.5c-.7-.5-1.6-.8-2.4-.8h-17.6l-16-76.6c-.2-.7-.5-1.4-1-1.9l-16.2-17.2,3.1-20.7,15.6,2.2,7.8,4.7c.4.3.9.4,1.4.5l16.9,2.8c.2,0,.4,0,.7,0s0,0,.1,0l18.6-.5,22.6,59.4c.6,1.6,2.1,2.6,3.7,2.6s.2,0,.4,0c1.8-.2,3.2-1.5,3.6-3.2l12-63.8c.2-.9,0-1.9-.4-2.7l-18.8-33.8h260.9M670.4,0h-271.7l22.1,39.7-12,63.8-23.6-62.1-21.5.6-16.9-2.8-8.5-5.1-20.3-2.8-4,26.6,17.5,18.6,16.6,79.8h20.8l10.3,8,16.4,4.6,10.7,8,4.8,14.5,10.7,3.1h8.7l13.1-4.2h24.6l11.3-.4c2.5.3,5,.4,6.7.4s1.6,0,1.9-.1c.2-.2,1-.7,5.2-.7s4.2,0,7.5.4l8.3-4.5h15.2l5.1-2,4.4-6.2h21.2l15.1-8.9h100.2V0h0Z"/>
  </g>
  <polygon class="cls-2" points="598.1 1159 583.4 1160 586.5 1166.5 601.3 1179.9 607.5 1187.3 609.9 1187.3 609.9 1184.6 600.8 1169 598.1 1159"/>
  <g>
    <path class="cls-2" d="M818.4,677.4v-271.3h129.4v53.4c0,1.1.9,2,2,2h93.6v215.8h-225Z"/>
    <path class="cls-3" d="M945.8,408.2v51.4c0,2.2,1.8,4,4,4h91.6v211.8h-221v-267.3h125.4M949.8,404.2h-133.4v275.3h229v-219.8h-95.6v-55.4h0Z"/>
  </g>
  <g>
    <path class="cls-2" d="M810.1,914.4c-.4-.3-.8-.5-1.3-.5h-103.1v-1c0-.5-.2-.9-.5-1.3l-29.9-34.7c-.1-.2-.3-.3-.5-.4l-31.6-18.1s0,0-.1,0l-23.2-11.2-21-14.3c-.2-.2-.5-.3-.7-.3l-20.7-4.1-12.5-8.4c-.2-.1-.4-.2-.6-.3l-30.1-8.3c-.2,0-.4,0-.5,0h-27.6l-4.3-40.4c0-.4-.2-.7-.4-1l-31.6-39.9c0-.1-.2-.2-.3-.3l-26.5-20.6-1.9-10.6,9.7-5.3c.7-.4,1.1-1.1,1-1.9l-.7-11.3c0-.6-.4-1.2-.9-1.6-.3-.2-.7-.3-1.1-.3s-.5,0-.8.2l-13.8,5.7-9.5-16.3-6.5-24,1.8-2.5h5.4l13.7,11.6c.4.3.8.5,1.3.5s.9-.1,1.2-.4c.7-.6,1-1.6.6-2.5l-2-3.9,2.8-2.6h14.3c.9,0,1.7-.6,1.9-1.5.2-.9-.1-1.8-.9-2.2l-29.3-17.8-4.3-7.8c-.4-.7-1-1-1.8-1s-.4,0-.6,0c-.9.3-1.5,1.1-1.4,2.1l.7,8-2.2-2.1c-.4-.3-.9-.5-1.4-.5s-.1,0-.2,0l-20.8,1.7-5.3-24.3c-.1-.5-.4-.9-.8-1.2l-26.5-18.4-7.7-27.6-3.4-31.7c0-.7-.5-1.3-1.1-1.6l-20.5-9.7-3.1-23,12.1-21c.2-.3.3-.6.3-.9l1.1-44.2c0-.4,0-.7-.3-1.1l-7.1-11.9h196.4v164.1c0,.6.2,1.1.6,1.5l252,231.9,7.9,23.3c.1.4.4.8.8,1l8.3,5.3-14.5,13.1c-.4.4-.7.9-.7,1.5v26.6h-7.1c-1.1,0-2,.9-2,2v13.5c0,.9.6,1.6,1.4,1.9l30.6,9.9,4,12-2.9.7Z"/>
    <path class="cls-3" d="M529.6,408.2v162.1c0,1.1.5,2.2,1.3,2.9l251.6,231.6,7.8,22.9c.3.9.9,1.6,1.6,2.1l6.1,3.9-12.6,11.3c-.8.8-1.3,1.8-1.3,3v24.6h-5.1c-2.2,0-4,1.8-4,4v13.5c0,1.7,1.1,3.3,2.8,3.8l29.7,9.6,3,9c-.5-.2-1-.3-1.6-.3h-101.3c-.2-.6-.4-1.1-.8-1.6l-29.9-34.7c-.3-.3-.7-.6-1-.9l-31.6-18.1c0,0-.2,0-.2-.1l-23.1-11.1-20.8-14.2c-.4-.3-.9-.5-1.5-.6l-20.3-4.1-12.1-8.1c-.4-.2-.8-.4-1.2-.5l-30.1-8.3c-.3,0-.7-.1-1.1-.1h-25.8l-4.1-38.6c0-.8-.4-1.5-.8-2.1l-31.6-39.9c-.2-.3-.4-.5-.7-.7l-25.9-20.1-1.5-8.5,8.4-4.7c1.4-.8,2.2-2.2,2.1-3.8l-.7-11.3c0-1.3-.8-2.5-1.9-3.1-.6-.4-1.4-.6-2.1-.6s-1,.1-1.5.3l-12.2,5.1-8.5-14.6-6.1-22.9.7-1h3.7l13.2,11.1c.7.6,1.7.9,2.6.9s1.7-.3,2.5-.9c1.5-1.2,2-3.2,1.1-4.9l-1.3-2.6,1.2-1.1h13.5c1.8,0,3.4-1.2,3.9-2.9.5-1.7-.2-3.6-1.8-4.5l-28.8-17.5-4-7.3c-.7-1.3-2.1-2.1-3.5-2.1s-.8,0-1.2.2c-1.8.5-3,2.3-2.8,4.2l.3,3.4c-.4-.1-.8-.2-1.2-.2s-.2,0-.3,0l-19.1,1.6-4.9-22.6c-.2-1-.8-1.9-1.6-2.4l-25.9-18-7.4-26.8-3.4-31.5c-.1-1.4-1-2.6-2.3-3.2l-19.5-9.2-2.9-21.3,11.7-20.4c.3-.6.5-1.2.5-1.9l1.1-44.2c0-.8-.2-1.5-.6-2.1l-5.3-8.9h190.9M533.6,404.2h-201.9l8.9,15-1.1,44.2-12.4,21.5,3.4,24.8,21.5,10.2,3.4,31.8,7.9,28.5,27.1,18.8,5.7,26,22.6-1.9,6,5.6-1.1-13.2,4.5,8.3,29.8,18.1h-15.1l-4.5,4.1,2.6,5.3-14.3-12.1h-7.2l-3,4.1,6.8,25.2,10.5,18.1,15.4-6.4.7,11.3-10.9,6,2.3,12.8,27.1,21.1,31.6,39.9,4.5,42.2h29.4l30.1,8.3,12.8,8.6,21.1,4.2,21.1,14.4,23.3,11.3,31.6,18.1,29.9,34.7v3h105.1l.4.7,6.3-1.6-5-15-31.6-10.2v-13.5h9.1v-28.6l16.5-14.8-10.5-6.7-8.1-23.8-252.4-232.2v-166.1h0Z"/>
  </g>
  <g>
    <path class="cls-1" d="M961,1001.4l-149.4-70.7,1.1-7.1,10.4-2.6c.5-.1,1-.5,1.3-1,.3-.5.3-1.1.1-1.6l-7.8-23.2c-.2-.6-.7-1.1-1.3-1.3l-29.1-9.4v-.6h7.1c1.1,0,2-.9,2-2v-30.7l19.3-17.4c.5-.4.7-1,.7-1.7,0-.6-.4-1.2-.9-1.5l-14.4-9.2-7.4-21.5v-34.8c0-1.1-.9-2-2-2h-4.4v-21.7l6.2-3.6,9.7,5.6c.3.2.7.3,1,.3s.5,0,.7-.1l13-4.7c.8-.3,1.3-1,1.3-1.9v-50.1h225v319.4l-82.3-4.9Z"/>
    <path class="cls-3" d="M1041.3,688.9v315.3l-79.8-4.7-147.7-69.9.6-4.3,9.2-2.3c1.1-.3,2-1,2.5-2,.5-1,.6-2.1.3-3.2l-7.8-23.2c-.4-1.2-1.4-2.1-2.6-2.5l-20.5-6.6c1.2-.7,2-2,2-3.4v-29.8l18.7-16.8c.9-.8,1.4-2.1,1.3-3.3-.1-1.2-.8-2.4-1.8-3l-13.8-8.8-7.1-20.5v-34.4c0-2.2-1.8-4-4-4h-2.4v-18.6l4.2-2.5,8.7,5.1c.6.4,1.3.5,2,.5s.9,0,1.4-.2l13-4.7c1.6-.6,2.6-2.1,2.6-3.8v-48.1h221M1045.3,684.9h-229v52.1l-13,4.7-10.7-6.2-8.2,4.8v24.9h6.4v35.1l7.8,22.4,15,9.6-20,18v31.6h-9.1v4l30.4,9.8,7.8,23.2-11.7,2.9-1.5,9.9,151.1,71.5,84.8,5v-323.5h0Z"/>
  </g>
  <g>
    <path class="cls-2" d="M329.5,396.7l-1.6-2.6,4.4-23.4c0-.5,0-1-.3-1.5l-9.6-14.6,21.2-70.3c0-.1,0-.3,0-.4l10.2-109.6c0-.2,0-.4,0-.6l-2.1-10h14.7l8.8,6.8c.2.2.4.3.7.3l16.1,4.6,8.1,6.1,5,15c.2.6.7,1.1,1.3,1.3l13.9,4c.2,0,.4,0,.5,0,0,0,10.8.1,10.8.1.2,0,.4,0,.6-.1l12.3-4.1h23.9l10.9-.4c2.6.3,4.9.4,6.7.4,2.9,0,4.3-.4,5.1-.8.3,0,.8,0,1.8,0,2.1,0,5.3.2,8.1.4h.8c0,0,.1,0,.2,0,.3,0,.7,0,1-.2l8.1-4.4h13.8c.2,0,.5,0,.7-.1l8.1-3c.4-.1.7-.4.9-.7l3.2-4.4h18.8c.4,0,.7,0,1-.3l14.6-8.6h98.9l22.3,22.3-32.8,60c-.2.3-.2.6-.2,1v11.2c0,.7.4,1.4,1,1.7l12.7,7.1-5.1,4.6c-.4.4-.7.9-.7,1.5v111.4h-338.9Z"/>
    <path class="cls-3" d="M365.7,165.7l8.2,6.3c.4.3.9.5,1.3.7l15.7,4.5,7.3,5.5,4.8,14.4c.4,1.2,1.4,2.2,2.7,2.6l13.9,4c.4.1.7.2,1.1.2h10.8c0,.1,0,.1,0,.1.4,0,.8,0,1.3-.2l12-4h23.6c0,0,.1,0,.2,0l10.7-.4c2.6.3,4.9.4,6.8.4s4.3-.2,5.6-.8c.3,0,.7,0,1.3,0,2.1,0,5.2.2,7.9.4h.8c.1,0,.2,0,.3,0,.7,0,1.3-.2,1.9-.5l7.6-4.1h13.3c.5,0,.9,0,1.4-.2l8.1-3c.8-.3,1.4-.8,1.9-1.4l2.6-3.6h17.8c.7,0,1.4-.2,2-.6l14.1-8.3h97.5l20.7,20.7-32.1,58.7c-.3.6-.5,1.2-.5,1.9v11.2c0,1.4.8,2.8,2,3.5l10.3,5.8-3,2.7c-.8.8-1.3,1.8-1.3,3v109.4h-335.7l-.6-1,4.2-22.6c.2-1,0-2.1-.6-2.9l-9.1-13.9,20.9-69.4c0-.3.1-.5.2-.8l10.2-109.6c0-.4,0-.8,0-1.2l-1.6-7.6h11.5M367.1,161.7h-17.8l2.6,12.4-10.2,109.6-21.5,71.2,10.2,15.4-4.5,24.1,2.5,4.2h342v-113.4l7.2-6.5-15.2-8.5v-11.2l33.6-61.3-24-24h-100.3l-15.1,8.9h-19.9l-3.8,5.2-8.1,3h-14.4l-8.5,4.6h-.8c-2.8-.3-6-.5-8.3-.5-1.2,0-2.1,0-2.5.2-.1.1-.9.7-4.4.7s-3.7-.1-6.6-.4l-11,.4h-24.3l-12.6,4.2h-10.8c0-.1-13.9-4.2-13.9-4.2l-5.2-15.6-8.9-6.7-16.4-4.7-9.3-7.2h0Z"/>
  </g>
  <g>
    <path class="cls-2" d="M2835.3,342v-122.8l3,.4c0,0,.2,0,.3,0,.6,0,1.2-.3,1.5-.7l21.5-25.9s0,0,0-.1l12.1-17.3c.2-.3.4-.7.4-1.1v-24.8l7-16.1,37.7-35h3.2c0-.1,0,24,0,24,0,.7.4,1.4,1,1.7.3.2.7.3,1,.3s.6,0,.9-.2l38-20.2,12.2,9.7v26l-9,23.8c-.1.3-.2.6-.1.9v.8c.1.5,1.2,11.4,2.6,15.4,1.1,3.3,6.7,21.8,6.7,21.9l.7,2.4c.3.8,1,1.4,1.9,1.4h15.2v10.4c0,.7.3,1.3.8,1.6l16.3,11.5c-.3,0-.6.1-.9.3l-13.4,9c-.4.3-.8.8-.9,1.3l-2.8,15-12.6,11.6-31.1,5.5c-.2,0-.3,0-.5.1l-20.3,9c-.7.3-1.2,1-1.2,1.8v16.3l-17.4,2c-.3,0-.6.1-.8.3l-20.3,12.4c-.2.1-.4.3-.5.5l-24.8,31.6c-.3.3-.4.7-.4,1.1l-.4,7.3-26.7-13.3Z"/>
    <path class="cls-3" d="M2920.1,100.5v22c0,1.4.7,2.7,1.9,3.4.6.4,1.3.6,2.1.6s1.3-.2,1.9-.5l36.8-19.6,10.4,8.3v24.6l-8.9,23.5c-.2.6-.3,1.2-.2,1.8v.8c.2,1.2,1.3,11.7,2.7,15.8,1,3.2,6.4,21,6.7,21.9,0,0,0,0,0,0l.7,2.4c.5,1.7,2.1,2.8,3.8,2.8h13.2v8.4c0,1.3.6,2.5,1.7,3.3l13.7,9.7-11.7,7.8c-.9.6-1.5,1.5-1.7,2.6l-2.7,14.3-11.7,10.7-30.5,5.4c-.3,0-.6.2-.9.3l-20.3,9c-1.4.6-2.4,2.1-2.4,3.7v14.5l-15.7,1.8c-.6,0-1.1.3-1.6.6l-20.3,12.4c-.4.2-.8.6-1.1.9l-24.8,31.6c-.5.6-.8,1.4-.8,2.3l-.2,4.3-22.9-11.4v-119.3h.7c.2.1.3.1.5.1,1.2,0,2.3-.5,3.1-1.4l21.5-25.9c0,0,.1-.2.2-.3l12.1-17.3c.5-.7.7-1.5.7-2.3v-24.4l6.7-15.3,36.9-34.2h.4M2924.1,96.3l-6,.2-38.6,35.8-7.4,16.8v25.2l-12.1,17.3-21.5,25.9-5.3-.7v126.4l30.6,15.2.5-10.3,24.8-31.6,20.3-12.4,19.2-2.3v-18.1l20.3-9,31.6-5.6,13.6-12.4,2.9-15.6,13.4-9,6.8.5-22.2-15.6v-12.4h-17.2l-.7-2.4c0-.2-5.6-18.7-6.7-22-1.2-3.6-2.3-13.8-2.4-15v-.8c0,0,9-24.2,9-24.2v-27.3l-13.9-11.2-39.2,20.8v-26.2h0Z"/>
  </g>
  <g>
    <path class="cls-2" d="M2850.6,419c0-.7-.4-1.3-1-1.6-.3-.2-.7-.3-1-.3s-.6,0-.9.2l-10.2,4.9s0,0-.1,0l-5,2.9-22.5-32.4c-.4-.5-1-.9-1.6-.9h-93.4l5.1-29.8h92.1c.4,0,.8-.1,1.1-.3l17.6-11.4,30.6,15.2-.2,4.6c0,.4,0,.8.3,1.1l13.6,22.3-14,7.6c-.7.4-1.1,1.1-1,1.8,0,.8.5,1.4,1.2,1.8l13.6,6.2-8.5,11.5-14.9,11.9-.9-15.5Z"/>
    <path class="cls-3" d="M2831,352.7l28.4,14.1-.2,3.3c0,.8.2,1.6.6,2.3l12.5,20.5-12.1,6.6c-1.3.7-2.1,2.1-2.1,3.6,0,1.5,1,2.9,2.3,3.5l11.3,5.2-6.9,9.3-11.6,9.4-.7-11.6c0-1.3-.8-2.5-2-3.2-.6-.4-1.3-.6-2-.6s-1.2.1-1.7.4l-10.2,4.9c0,0-.2,0-.3.1l-3.4,2-21.5-30.9c-.7-1.1-2-1.7-3.3-1.7h-91l4.5-25.8h90.5c.8,0,1.5-.2,2.2-.6l16.6-10.8M2830.7,348.1l-18.5,12h-93.8l-5.8,33.8h95.7l23.5,33.9,6.6-3.8,10.2-4.9,1.1,19.4,18.1-14.5,10.2-13.7-15.8-7.3,15.8-8.6-14.7-24.1.3-5.9-32.8-16.3h0Z"/>
  </g>
  <g>
    <path class="cls-2" d="M2645.9,550.9c-.3-.7-1.1-1.2-1.8-1.2s-.3,0-.5,0l-8.2,2.2-17.8-21.2,30.1-18.8c.7-.5,1.1-1.3.9-2.1l-5.1-22.5c0,0,0-.2,0-.3l-5.5-14,4.7-7.1c.3-.4.4-.9.3-1.4l-1.6-9.6,14.4-14.7,32.7,21.3v15.8l-2.3,8.3c-.2.7,0,1.6.6,2.1l7,6-3.2,18.5-6.5,19.5-17.4,9.8c-.4.2-.7.6-.9,1l-3.3,8.4-10.3,14.3-6.5-14.2Z"/>
    <path class="cls-3" d="M2656,442.7l30.5,19.8v14.5l-2.2,8c-.4,1.5,0,3.1,1.3,4.1l6.2,5.2-3,17.2-6.2,18.6-16.7,9.4c-.8.5-1.4,1.2-1.8,2l-3.2,8.2-8.1,11.3-5.1-11c-.7-1.4-2.1-2.3-3.6-2.3s-.7,0-1,.1l-7,1.8-15.5-18.5,28.2-17.6c1.4-.9,2.2-2.6,1.8-4.3l-5.1-22.5c0-.2-.1-.4-.2-.6l-5.1-13,4.1-6.2c.6-.8.8-1.9.6-2.9l-1.4-8.6,12.6-12.8M2655.5,437.5l-16.3,16.6,1.8,10.6-5.3,7.9,5.9,14.9,5.1,22.5-32.1,20.1,20.1,24,9.4-2.5,7.9,17.3,12.4-17.3,3.4-8.7,18.1-10.2,6.8-20.3,3.4-19.8-7.9-6.7,2.3-8.5v-17.2l-35-22.8h0Z"/>
  </g>
  <g>
    <path class="cls-2" d="M2611.9,599.9v-61.3l14,16.7c-.1.3-.1.6-.1.9l.6,8.4c0,.4.2.7.4,1l14.1,19.6-4.3,14.7h-24.6Z"/>
    <path class="cls-3" d="M2613.9,544.1l9.9,11.8c0,.1,0,.3,0,.4l.6,8.4c0,.7.3,1.5.7,2.1l13.5,18.8-3.6,12.3h-21.1v-53.8M2609.9,533.1h0v68.8h28.1l5-17-14.7-20.4-.6-8.4,1.1-.3-18.9-22.6h0Z"/>
  </g>
  <g>
    <path class="cls-2" d="M2613.3,628.4c0-.5-.2-1-.5-1.4l-11.8-13.5-9.3-13.1-3.9-29.4c-.1-.8-.6-1.4-1.4-1.7-.2,0-.4,0-.6,0-.6,0-1.1.2-1.5.7l-7.9,8.9c-.4.5-.6,1.2-.4,1.9l8.5,31.2c0,.2.1.3.2.5l9.3,16.5v2.4c0,0-57.2-28.9-57.2-28.9l12.9-31.9c.2-.6.2-1.3-.2-1.9-.4-.6-1-.9-1.7-.9h-10.2l-42.3-31.3h106.9v71c0,1.1.9,2,2,2h29.3l-1,3.5-20.1,34.6.8-19ZM2435.1,551.3v-14.9h22.2l-19,14.9h-3.2ZM2460.5,536.4h32l-17.5,7.7-14.5-7.7Z"/>
    <path class="cls-3" d="M2600.4,538.4v69c0,2.2,1.8,4,4,4h26.6l-.2.7-15.9,27.4.5-10.9c0-1-.3-2-1-2.8l-11.7-13.4-8.9-12.6-3.8-29c-.2-1.6-1.3-2.8-2.8-3.3-.4-.1-.8-.2-1.2-.2-1.1,0-2.2.5-3,1.3l-7.9,8.9c-.9,1-1.2,2.4-.9,3.7l8.5,31.2c0,.3.2.6.4.9l8,14.1-51.6-26.1,12.2-30.2c.5-1.2.4-2.6-.4-3.7-.7-1.1-2-1.8-3.3-1.8h-9.5l-36.9-27.4h98.9M2482.9,538.4l-7.9,3.4-6.5-3.4h14.4M2451.5,538.4l-13.9,10.9h-.5v-10.9h14.4M2604.4,534.4h-171.3v18.9h5.9l19.8-15.6,16.1,8.5,19.2-8.4,43,31.9h10.8l-13.6,33.6,61.5,31.1.2-6.1-9.6-16.9-8.5-31.2,7.9-8.9,4,29.9,9.6,13.6,11.9,13.6-1.1,27.1,24.3-41.8,1.8-6.3h-32v-73h0Z"/>
  </g>
  <g>
    <path class="cls-2" d="M2798.4,439.2v-37.9h6l19.8,28.5-4.2,2.4c-.1,0-.3.2-.4.3l-13,12.4-8.2-5.7Z"/>
    <path class="cls-3" d="M2803.3,403.4l18,25.8-2.3,1.3c-.3.2-.5.4-.8.6l-11.8,11.3-6-4.2v-34.8h2.9M2805.4,399.4h-9v40.9l10.4,7.3,14.2-13.6,6.1-3.5-21.6-31.1h0Z"/>
  </g>
  <g>
    <path class="cls-2" d="M2710,441.6l8-29c.1-.4,0-.8,0-1.2l-3.5-10h74.5v29.7l-3.4-3c-.4-.3-.8-.5-1.3-.5s-.3,0-.5,0l-52,14.1h-21.7Z"/>
    <path class="cls-3" d="M2786.9,403.4v23.2h0c-.7-.7-1.7-1.1-2.7-1.1s-.7,0-1,.1l-51.7,14h-18.8l7.3-26.5c.2-.8.2-1.6,0-2.4l-2.6-7.3h69.7M2790.9,399.4h-79.3l4.5,12.7-8.7,31.6h24.6l52.2-14.1,6.7,6v-36.2h0Z"/>
  </g>
  <g>
    <path class="cls-1" d="M2697,480.4v-23.1c0-.3-.2-.7-.5-.8l-54.8-35.6-.8-20.3c0-.4-.3-.8-.7-.9l-19.6-6.5c-.1,0-.2,0-.3,0h-201.8v-19.3c3.9-1.7,5.9-2.7,6.4-2.9,2.7-1.4,8.4-10.6,9.9-13.2l24.7,2.7s0,0,.1,0c.5,0,.9-.4,1-.9l.3-2.1s12.9.8,12.9.8c.5,0,.9-.3,1-.8l5.2-29.2c0-.2,0-.4,0-.6v-.9c.2-.4,0-.7-.3-1l-8.3-5.7,13.5-9.9,24.9,3.3,12.6,5.6c.1,0,.3,0,.4,0s10.9-.3,10.9-.3c0,0,0,0,.1,0l29.6-4.2c.1,0,.2,0,.3,0l11.6-5.6c.4-.2.6-.6.6-1l-2.6-17.1h15.2c.2,0,.4,0,.6-.2l67.5-45h61.7v19.5l-9.6,13.1c-.2.3-.2.6-.2.9l3.8,12.4v65.7l-7.4,42.6c0,.2,0,.3,0,.5l4.3,12.1-10.1,36.5c0,.3,0,.6.2.9.2.2.5.4.8.4h27.3l-1.9,7.8c0,.3,0,.6.2.9s.5.4.8.4h23.7c.1,0,.2,0,.3,0l26.5-9.3,8.6,9c.2.2.5.3.7.3h11.1l-9.2,8.9h-32.4c0,0-.1,0-.2,0l-20.3,4.5-17.7,2.2c-.2,0-.4.1-.6.3l-6.7,6.9,1.3-9.5c0-.4-.2-.8-.6-1-.1,0-.3,0-.4,0-.3,0-.5.1-.7.3l-11,11.6-2-2.9Z"/>
    <path class="cls-3" d="M2717.3,246.5v18.1l-9.5,12.8c-.4.5-.5,1.2-.3,1.8l3.8,12.3v65.5l-7.4,42.5c0,.3,0,.7,0,1l4.2,11.8-10,36.2c-.2.6,0,1.2.3,1.7.4.5,1,.8,1.6.8h26.1l-1.6,6.6c-.1.6,0,1.2.4,1.7.4.5,1,.8,1.6.8h23.7c.2,0,.4,0,.7-.1l25.9-9,8.1,8.5c.4.4.9.6,1.4.6h8.6l-7.1,6.9h-32c-.1,0-.3,0-.4,0l-20.3,4.5-17.7,2.2c-.5,0-.9.3-1.2.6l-4.5,4.7.9-6.5c.1-.9-.3-1.7-1.1-2.1-.3-.1-.6-.2-.9-.2-.5,0-1.1.2-1.5.6l-10.2,10.7-1.1-1.6v-22.8c0-.7-.3-1.3-.9-1.7l-54.4-35.3-.8-19.8c0-.8-.6-1.6-1.4-1.8l-19.6-6.5c-.2,0-.4-.1-.6-.1h-200.8v-17.7c4.6-2.1,5.5-2.5,5.9-2.7,2.8-1.4,7.8-9.3,10-13l24.1,2.7c0,0,.1,0,.2,0,1,0,1.9-.7,2-1.7v-1.1c.1,0,12,.8,12,.8,0,0,0,0,.1,0,1,0,1.8-.7,2-1.6l5.2-29.2c0-.3,0-.6,0-.8v-.7c.2-.7-.1-1.5-.8-1.9l-7.2-4.9,12-8.8,24.3,3.3,12.5,5.5c.3.1.5.2.8.2s0,0,0,0l10.9-.3c0,0,.2,0,.2,0l29.6-4.2c.2,0,.4,0,.6-.2l11.6-5.6c.8-.4,1.2-1.2,1.1-2.1l-2.4-16h14.1c.4,0,.8-.1,1.1-.3l67.3-44.8h60.4M2719.3,244.5h-63l-67.8,45.2h-16.4l2.7,18.3-11.6,5.6-29.6,4.2-10.9.3-12.8-5.6-25.4-3.4-15,10.9,9.5,6.5-.2,1.4h.1s-5.2,29.3-5.2,29.3l-13.7-.9-.4,3-25.3-2.8s-7,12-9.9,13.4c-.5.3-3.1,1.4-7,3.2v20.8h202.7c0,.1,19.6,6.7,19.6,6.7l.8,20.9,55.2,35.9v23.7h0c0-.1,2.8,3.9,2.8,3.9l11.9-12.5-1.7,12.5,8.8-9.1,17.8-2.3,20.3-4.5h32.8l11.3-10.9h-13.6l-9-9.5-27.1,9.5h-23.7l2.2-9.1h-28.6l10.2-36.8-4.4-12.4,7.4-42.7v-65.9l-3.9-12.6,9.8-13.4v-20.8h0Z"/>
  </g>
  <polygon class="cls-1" points="960 1130.4 960.1 1130.5 960.2 1130.5 960 1130.4"/>
  <polygon class="cls-2" points="597.5 1156.7 601.3 1148.6 598.4 1145.8 590 1150.9 589.3 1143.4 578.3 1144.4 580.7 1154.2 582.7 1158.3 597.6 1157.4 597.5 1156.7"/>
  <polygon class="cls-2" points="71.3 1149 67.4 1154.9 69.3 1154.9 61.3 1162.3 55.9 1159.4 50.2 1159.4 42.6 1171.6 46.6 1171.6 57 1163.4 62.7 1166.6 76 1159.4 83.1 1154.9 77 1151.2 71.3 1149"/>
  <path class="cls-2" d="M44.1,947.7l-8.6-3.4-13.4-6.7-9.5,2.5-12.5-2.5,2.5,9h8.6l12.2,3.6,6.8,4.7v2.9l4.3-7.2s3.9.4,5.4.4,4.3-3.2,4.3-3.2Z"/>
  <g>
    <rect class="cls-2" x="957.3" y="237.9" width="318.9" height="214.2"/>
    <path class="cls-3" d="M1274.2,239.9v210.2h-314.9v-210.2h314.9M1278.2,235.9h-322.9v218.2h322.9v-218.2h0Z"/>
  </g>
  <polygon class="cls-2" points="83.1 1149 89.6 1149 92.4 1145.1 86.4 1145.1 83.1 1149"/>
  <g>
    <rect class="cls-2" x="1052.8" y="461.6" width="317.1" height="215.8"/>
    <path class="cls-3" d="M1367.9,463.6v211.8h-313.1v-211.8h313.1M1371.9,459.6h-321.1v219.8h321.1v-219.8h0Z"/>
  </g>
  <g>
    <path class="cls-2" d="M1925.4,734.9v-5.2l6.7-7.3c.5-.5.7-1.3.4-2l-4.2-11.6c-.3-.8-1-1.3-1.9-1.3h-200.4v-143.2c0-.5-.2-1-.5-1.3l-19.7-22.2,5.3-12.9c0-.2.1-.5.1-.7l.2-12.9c0-.5-.2-1.1-.6-1.4-.4-.4-.9-.6-1.4-.6h-20.8l-8.2-8.2v-7c0-.4-.1-.7-.3-1l-9.3-15.4h182.2l9.7,12.6c0,.1.2.2.3.3l-3.3,14.9c0,.3,0,.7,0,1l4,13.8c0,0,0,.2.1.3l4.8,10.7c.1.3.3.6.6.8l22.4,17.4,12.1,25.8c.3.7,1,1.1,1.8,1.1h22.6l-1.5,8.5-13.6,9.5c-.7.5-1,1.3-.8,2.1l4.3,18.2c0,.4.3.8.7,1.1l33,27.6,3.6,31.6c0,.7.5,1.2,1.1,1.5l13.7,7.2c.3.2.6.2.9.2h2.3v8.2l-6,7.4-10.6,8.8c-.2.1-.3.3-.4.4l-12.8,19.5c-.2.3-.3.7-.3,1.1v2.5h-16.5Z"/>
    <path class="cls-3" d="M1852.1,482.7l7.1,9.3s0,0,0,0l1.6,2.1-3.1,13.9c-.1.7-.1,1.3,0,2l4,13.8c0,.2.1.4.2.6l4.8,10.7c.3.6.7,1.1,1.2,1.5l22.1,17.1,11.9,25.3c.7,1.4,2.1,2.3,3.6,2.3h20.2l-.9,5.3-12.9,9c-1.3.9-2,2.6-1.6,4.2l4.3,18.2c.2.8.7,1.6,1.3,2.2l32.4,27.1,3.5,30.8c.1,1.3.9,2.5,2.1,3.1l13.7,7.2c.6.3,1.2.5,1.9.5h.3v5.5l-5.4,6.7-10.4,8.7c-.3.3-.6.5-.8.9l-12.8,19.5c-.4.7-.7,1.4-.7,2.2v.5h-12.5v-2.4l6.2-6.7c1-1.1,1.3-2.7.8-4.1l-4.2-11.6c-.6-1.6-2.1-2.6-3.8-2.6h-198.4v-141.2c0-1-.4-1.9-1-2.7l-18.9-21.2,4.8-11.7c.2-.5.3-1,.3-1.4l.2-12.9c0-1.1-.4-2.1-1.1-2.9-.8-.8-1.8-1.2-2.9-1.2h-20l-7-7v-6.2c0-.7-.2-1.4-.6-2.1l-7.5-12.3h177.7M1854,478.7h-185.6v2l10,16.4v7.8l9.3,9.3h21.7l-.2,12.9-5.7,14,20.5,23.1v145.2h202.4l4.2,11.6-7.2,7.8v7.9h20.5v-4.5l12.8-19.5,10.7-9,6.5-8.2v-10.9h-4.3l-13.7-7.2-3.6-32.4-33.7-28.2-4.3-18.2,14.3-10,2-11.6h-24.9l-12.3-26.2-22.8-17.7-4.8-10.7-4-13.8,3.5-15.8-.8-1h0s-2-2.5-2-2.5h0s-8.3-10.8-8.3-10.8h0Z"/>
  </g>
  <polygon class="cls-1" points="1125.2 1189 1123.3 1187.7 1121.2 1188 1119.3 1185.1 1116 1185.1 1109.5 1179.7 1106.6 1179.1 1104.4 1180.2 1101.6 1180.2 1097.1 1183.6 1094 1184.1 1091.8 1185.7 1090.3 1185.3 1088.5 1183 1087.1 1182.9 1087.3 1181.9 1085.8 1179 1083 1177 1080.9 1176.8 1079.8 1175.5 1075.8 1176.3 1075.3 1178.1 1074 1178.7 1072.3 1184.2 1073.8 1189.2 1078.7 1194 1079.7 1195.2 1081.5 1195.3 1082.2 1195.9 1085.2 1196.2 1087.2 1197 1088.9 1196.8 1089 1195.2 1092.2 1194.8 1093.6 1196 1093.3 1197 1095.6 1201.7 1097 1211.4 1100.7 1212.3 1109.2 1211.6 1116.5 1206.5 1121.9 1205.9 1126.1 1203.4 1128.6 1203 1129.1 1200.1 1131.8 1199.4 1132.9 1197.1 1133.1 1193.1 1129.8 1189.6 1125.2 1189"/>
  <polygon class="cls-2" points="78.5 1014.7 74.5 1018.4 67.4 1018.4 65.2 1021.8 80.6 1030.1 87.8 1025.1 92.4 1022.4 87.8 1014.7 78.5 1014.7"/>
  <polygon class="cls-1" points="1232.1 1281 1230.4 1279.3 1228.3 1278.4 1227.1 1273 1224.8 1270.7 1222.2 1270.9 1219.5 1271.7 1218.1 1270.9 1217.3 1262.4 1216.4 1259.7 1214.5 1259.1 1207.5 1253.1 1200.7 1249.7 1187.4 1244.9 1175 1242.8 1173 1244 1171.2 1242.4 1167.9 1242.3 1166.1 1240.3 1162.2 1239.3 1161.4 1238 1159.3 1238.1 1158.9 1235.8 1149.9 1233.5 1148.4 1233.5 1145.8 1235.9 1146.2 1242.8 1149.9 1249.8 1154.3 1254.1 1154.3 1258.9 1152.6 1259.4 1152.1 1260.8 1150.8 1262.1 1150.1 1265.2 1148.8 1267 1148.1 1268.6 1148.3 1270.2 1147.1 1271.3 1145.1 1271.2 1143.8 1272.3 1140.1 1277.4 1138.9 1279.1 1138.9 1282.9 1139.9 1284.1 1139.8 1285.8 1141.6 1286.8 1141.9 1289.3 1146.1 1291.3 1148.2 1296.9 1149.8 1298.1 1150.6 1303.2 1153 1303 1154.1 1308 1158 1315.7 1157.5 1333.7 1158.5 1336.7 1158.4 1337.9 1161.9 1340.6 1161.9 1341.6 1169.5 1342.7 1172.8 1345.1 1175 1345.5 1179.6 1348 1179.8 1349.7 1181.8 1348.5 1184 1344.3 1185.5 1343.7 1185.5 1341.9 1188.3 1337.5 1188.7 1335.1 1188.4 1333.7 1191.4 1329.9 1191.3 1328.5 1195.8 1325.9 1197.9 1323.3 1201.5 1320.9 1202 1321.2 1204.2 1318.9 1204.4 1317 1210.3 1313.7 1214.3 1314.2 1221.6 1311.2 1223.4 1309.4 1232 1304.1 1232.9 1302.1 1243.8 1290.5 1244 1285.9 1241.7 1286 1232.1 1281"/>
  <polygon class="cls-2" points="295.6 1060.7 294 1058.2 285.9 1058.2 286.1 1053.5 277.7 1057.8 272.7 1065 270 1067.7 279.3 1067.7 268.2 1068.8 264.8 1070.7 264.8 1077.4 262.8 1074.1 257.6 1075.2 253 1078.3 254.1 1086.5 258.9 1090.3 262.1 1094.7 254.8 1097.3 258.9 1099.4 266.1 1098.2 262.3 1096.2 265.3 1092.8 270.4 1088.5 270.9 1084.9 275.6 1085.8 283.1 1084 283.8 1077.9 290.1 1077.9 290.1 1072.7 281.3 1068.2 284.3 1066.6 295.6 1060.7"/>
  <g>
    <path class="cls-2" d="M108.7,1139.8c-.8,0-2.3-.4-3.4-.7.2-.2.4-.5.6-.8.4-1.2,1-2.6,1.3-3.2.3-.2.7-.5,1.1-.8,2.5-1.6,3.7-2.5,4.2-3.2.5-.3,1.5-.7,2.6-1.1l8.2.7c0,0,.1,0,.2,0h3c-1,1.6-2,3.3-2.6,4.2-1.6-.1-5.1-.6-7.2-.9,0,0-.2,0-.3,0-.5,0-.9.2-1.3.5-2,1.7-5.1,4.3-6.3,5.3ZM574.4,1124.3l-1-3.1,4.3,3.8c.4.3.8.5,1.3.5s.7,0,1-.3c.7-.5,1.1-1.3.9-2.2l-1.8-7.1c-.1-.4-.4-.8-.7-1.1l-5.7-4.3,1-6.8h4c0,.4.2.8.5,1.1l7.1,8.4,6.5,9.1,2.8,6.3-2,2.1-6.3-4.4c-.3-.2-.7-.4-1.1-.4s-.9.2-1.3.5c-.7.6-.9,1.6-.5,2.4l1.7,3.5h-.1c0,0-10.4-7.9-10.4-7.9ZM611.6,1129.5l.8-14.2c0-1-.7-1.9-1.7-2.1-.1,0-.2,0-.3,0-.9,0-1.7.6-1.9,1.5l-1.2,4.9c-.2-.3-.5-.6-.9-.8-.2-.1-.5-.2-.8-.2-.7,0-1.3.3-1.7.9l-2.5,3.9-1.7-2.9.5-8.5c0-.9-.6-1.8-1.5-2-.2,0-.4,0-.5,0-.7,0-1.4.4-1.8,1.1l-1.1,2.2-.9-1.3,2.2-4.3c.4-.8.2-1.7-.3-2.3-.4-.4-.9-.6-1.4-.6s-.6,0-.8.2l-4.2,1.9-1.2-.8-1.2-3.5c-.3-.8-1-1.3-1.9-1.3s-.4,0-.4,0c.1-.3.2-.6.2-.9v-5.6c0-.4-.1-.8-.3-1.1l-2.5-3.8c-.4-.6-1-.9-1.7-.9s-.6,0-.8.2c-.9.4-1.4,1.4-1.1,2.3l1.2,4.6-7.4.5-1.9-3.6c-.4-.7-1-1.1-1.8-1.1s-.3,0-.4,0l-6.2,1.3-.5-1.4.3-2,4.6-2.7,6.3-1.1,7.8,1c0,0,.2,0,.3,0,.9,0,1.7-.6,1.9-1.5.3-1-.2-2-1.2-2.4l-8.7-3.5-2.1-9.2c0-.1,0-.3-.1-.4l-2-4.1c-.3-.7-1-1.1-1.8-1.1s-.3,0-.4,0c-.9.2-1.6.9-1.6,1.9l-.7,12-6.2,3.6-2.6-11.7-1.1-9.9c0,0,0-.1,0-.2l-2.3-11.5c-.2-.8-.9-1.5-1.7-1.6l-1.4-.2c0,0-.2,0-.2,0-.5,0-1.1.2-1.4.6-.4.5-.6,1.1-.5,1.7l1.8,11.6c-.2,0-.4,0-.5,0-.4,0-.8.1-1.1.3-.8.5-1.1,1.5-.8,2.4l5.5,14,4.3,20.9-6.7-5.6.3-7.2c0-.9-.6-1.8-1.4-2l-5-1.4c-.2,0-.4,0-.6,0s-.3,0-.4,0l.3-.6c.3-.8.2-1.7-.4-2.3l-12.7-12.5-1.5-2.4c.5-.6,1-1.2,1.2-1.6.5-.7.8-1.9-.8-4.9-.3-.5-.7-.8-1.2-1-.2,0-.4,0-.6,0-.3,0-.7,0-1,.3l-3.3,1.8-7.5-6.1c0,0-.2-.1-.2-.2l-17-10.2-22-13.1,1.7-3c.4-.7.3-1.7-.2-2.3-.4-.5-.9-.7-1.5-.7s-.5,0-.7.1l-9.3,3.6-3-1.3c-.2,0-.3-.1-.5-.1l-7-1v-3c.1-.6,0-1.1-.5-1.5-.4-.4-.9-.6-1.4-.6s-6.3.2-6.3.2l-9.3-1.4c0,0-.2,0-.3,0s-.1,0-.2,0l-21.1,1.6-3.5.3-3-2.5c-.2-.2-.5-.3-.7-.4l-7.9-2.3v-4c0-.8-.5-1.5-1.2-1.8-.3-.1-.5-.2-.8-.2-.5,0-1,.2-1.4.6-1.3,1.2-2.8,2.7-3.8,3.5-.1-.1-.2-.2-.3-.3-.1-.1-.3-.3-.4-.4l-4.8-3c-.3-.2-.7-.3-1.1-.3s-.8.1-1.2.4l-3.3,2.5-5.6,1.7-.3-.7,5.2-2c.6-.2,1.1-.7,1.2-1.4l.5-2.1c.2-1-.3-2-1.2-2.4l-5.4-2,.2-.5c.2-.6,0-1.3-.3-1.8-.4-.5-1-.8-1.6-.8s0,0-.1,0c0,0-6.1.4-8.8.5,0,0-.1,0-.2,0-.4-.6-1-.9-1.7-.9s-.1,0-.2,0l-9,.7c-.4,0-.7.2-1,.4l-2.5,1.8-2.4-1c-.2-.1-.5-.2-.8-.2-.4,0-.8.1-1.1.3l-3.2,2.2c-.6.4-.9,1.1-.9,1.8,0,.7.5,1.3,1.1,1.7l1.3.7-.3.2c-.7.5-1,1.5-.7,2.3.3.8,1,1.3,1.9,1.3s.1,0,.2,0l4.1-.4-.4.8c-.3.6-.2,1.2,0,1.7.2.3.4.5.6.7l-2.1-.4c-.1,0-.2,0-.4,0-.8,0-1.5.5-1.8,1.2-.4.9,0,1.9.7,2.4l2.4,1.6-1.3-.6c-.3-.1-.6-.2-.9-.2s-.5,0-.7.1l-8.5,3.1-2.5-.9c-.2,0-.5-.1-.7-.1s-.1,0-.2,0l-7.9.8c-.6,0-1.1.4-1.4.8l-5.9,8.4-1.8,1.2c-.2-.4-.6-.7-1.1-.9-.2,0-.4,0-.6,0-.6,0-1.1.2-1.5.7l-1.7,2-10.9,3.6-6.3.4.4-1.6,4.2-3.5c.7-.5.9-1.4.6-2.2-.3-.8-1-1.3-1.9-1.3h-.2l-.8-5.1,4-4.3c.2-.2.3-.4.4-.7l3-8.5c.2-.6.1-1.3-.3-1.8l-.7-1,7.6-6.2,7.1-4.6c.8-.5,1.1-1.5.8-2.4-.3-.8-1-1.3-1.9-1.3s-.2,0-.3,0l-12.1,1.7c-.3,0-.6.2-.9.3l-10.3,7c-.2.1-.4.3-.5.5l-8,11.2-2.1,1.8c-.4.3-.6.8-.7,1.3l-.3,3-4.8,3.7c-.2.1-.3.3-.4.5l-5.3,7.8-.3-.4c-.4-.5-1-.8-1.6-.8s0,0,0,0c-.6,0-1.2.4-1.6.9l-5.3,8.1c-.3.5-.4,1.1-.2,1.6.2.6.6,1,1.1,1.3l3.1,1.5,3.1,4-9.1,6.5c-.6.4-.9,1.2-.8,2l.7,4.2-10,1.3c-.3,0-.7.2-1,.4l-6.9,5.3c0,0-.1.1-.2.2l-5.1,5-10.3,4.4c-.5.2-.9.6-1.1,1.1l-1.4,3.6-3.4,1.1c-.4.1-.8.4-1,.7l-3,4.3-2.9,2.1-5.9,1.3c-.3,0-.6.2-.8.4l-5.5,4.4-6.9,3.9c-.9.5-1.3,1.6-.8,2.6l.7,1.6-2.1,2.1-8.6.3c-.3,0-.6.1-.9.3l-4.2,2.4-6.1.6c-.4,0-.8.2-1.1.4l-5,3.9c-.1,0-.2.2-.3.3l-2.6,3-3.2,1.6c0,0-.1,0-.2.1l-1.7-4c-.2-.5-.6-.8-1.1-1l-4.8-2c-.3-.1-.5-.2-.8-.2-.6,0-1.2.3-1.6.8l-3.2,4.4s0,0,0,.1l-3.9,6.6c-1.3.4-3.1,1-4.2,1s-.2,0-.2,0c-.3,0-.6,0-1,0-2.3,0-5.7.7-6.2.8l3.2-3.8c.1-.1.2-.3.3-.4l1.2-2.4,4-2.8c0,0,.1,0,.2-.2l6.5-5.8,10.6-1.7,1.4,3.5c.2.5.6.9,1.1,1.1.2,0,.5.1.7.1s.6,0,.9-.2c.6-.3,1.3-.6,1.8-.9.3.2.7.4,1.2.4s.3,0,.4,0l2.4-.5c.6-.1,1.2-.6,1.4-1.2s.2-1.3-.1-1.8l-1.6-2.7,1.5-3.3,5.4-5.7,6.5-.9c.6,0,1.1-.4,1.4-.9l1.5-2.3,6.3-2.1,2.1.4c.1,0,.2,0,.4,0,.4,0,.9-.1,1.2-.4.4-.3.7-.8.8-1.4l.3-3.4,1.1-2.7,10.2-7.7c.1,0,.2-.2.3-.3l2.6-3.2c.3-.3.4-.7.4-1.2,0-1.3.2-4.5.2-4.9s0-.4-.4-4.1l1.9-2.2c.4-.4.5-.9.5-1.5,0-.5-.3-1-.7-1.4l-.5-.4,2.4-3.6,6.3-7.7c.6-.7.6-1.8,0-2.5-.4-.5-1-.7-1.5-.7s-.6,0-.9.2l-1.8,1-8.1,4.4-4.9,2.3-4.1-.2-.3-1.3c0-.2-.1-.3-.2-.5l-2-3.6c-.4-.6-1-1-1.7-1s-.5,0-.7.1c0,0-2.7,1-3,1.1-1.1.4-1.4,1-2.2,5.7,0,.3,0,.6,0,.8l.5,1.9h-.7l-5.5-7.7c-.3-.5-.8-.8-1.4-.8l-4.3-.5c0,0-.2,0-.2,0-.5,0-.9.2-1.3.4l-1.5,1.2-.4-.5c-.2-.2-.3-.4-.5-.5,0,0-3.2-2-3.3-2l-2.6-1.4c-.3-.2-.6-.2-.9-.2s-.5,0-.7.1l-2.9,1.1c-.4.2-.8.5-1.1.9l-1.2,2.2-4.5,1.1c-.2,0-.3.1-.5.2l-5.2,2.8-4.1-.4c.2-.2.3-.5.3-.8l1-5.5c.1-.8-.2-1.6-.9-2.1l-2.8-1.7-.4-2.1,3.4-5.1c.3-.4.4-.9.3-1.4l-1-6.9c0-.6-.4-1.1-1-1.4l-4.3-2.6-.2-4.7,1.4-7.4c.2-1-.4-1.9-1.3-2.3-.2,0-.4-.1-.7-.1-.7,0-1.4.4-1.8,1.1l-3.6,6.9c-.1.3-.2.6-.2.9l-.2,5.5-1.5.2c-.1,0-.3,0-.4,0l-8.3,3h-11.2l-.6-2.3c0-.2-.2-.5-.3-.7l-4.1-5.7c-.2-.3-.4-.5-.7-.6l-4-2-.9-3.2c-.3-.9-1-1.4-1.9-1.4s-.2,0-.2,0c-.5,0-1,.1-1.4.2.3-.2.6-.4.8-.7l.7-1.2c.1-.2.2-.4.3-.7l.2-1.2,2.8-.3c1-.1,1.7-.9,1.8-1.9,0-1-.6-1.8-1.5-2.1l-4.1-1c0,0-.2,0-.3,0h-1.2c0-.1-1.1-4.2-1.1-4.2-.1-.5-.5-1-1-1.2-.3-.2-.6-.3-1-.3s-.4,0-.6,0l-2.4.7c0,0-.1,0-.2,0l-1.3.6-.5-1.5c0-.3-.3-.6-.5-.8l-1-1-.8-3.3c-.2-.9-1-1.5-1.9-1.5h-3.2l.7-.7c.2-.2.3-.4.4-.6l1-2.4,5.2-.4c.6,0,1.2-.4,1.5-.9.3-.5.4-1.2.2-1.8l-.9-2.5-.4-2.5,3.3-1.9c.8-.4,1.2-1.3.9-2.2l-.2-.8,2.9-2.7,4.9-1.8c.9-.3,1.4-1.2,1.3-2.2l-1.3-8.6,3.6-.3c1,0,1.7-.8,1.8-1.8l.3-3.1,5.9-.9c1.5-.3,3.7-.6,5.2-.9.1.4.3,1,.4,1.5,0,.1,0,.2,0,.3l1.4,3.8c.3.8,1,1.3,1.8,1.3,0,0,6,.2,6,.2.6,0,1.2-.3,1.6-.8l1-1.5,3.9-3.2,5.2-3.9c.7-.5,1-1.5.7-2.3l-.7-1.9c-.1-.3-.3-.5-.5-.7l.6.3,4.1,3.4c.2.2.5.3.8.4l5.3,1.2c.1,0,.3,0,.4,0,.4,0,.7,0,1-.3l5.3-3.1s0,0,.1,0l4.5-3.1c.5-.3.8-.8.8-1.3l.5-3.1c0-.6,0-1.1-.4-1.6l-1.5-1.8c.5-1.5.7-2.6.7-3.2v-3.1c0-.4-.1-.7-.3-1l-1.9-3.1c-.3-.5-.8-.9-1.4-.9l-2.1-.3,2.5-.3c.5,0,1-.3,1.3-.8l3.3-4.3c.4-.5.5-1.1.4-1.6-.1-.6-.5-1.1-1-1.3l-4.2-2.3-4.2-3.2c-.4-.3-.8-.4-1.2-.4s-.4,0-.6,0c-.6.2-1.1.7-1.3,1.3l-.8,2.3h-1.3c0,.1-2-.7-2-.7-.2,0-.5-.1-.7-.1-.5,0-.9.2-1.3.5l-5.1,4.1-7.4,3.5c-.3.2-.6.4-.8.7-.1-.2-.2-.3-.4-.4l-4.3-3.6c-.4-.3-.8-.5-1.3-.5s-.5,0-.8.2l-1.7.7c-.9.4-1.3,1.3-1.2,2.1l-2.5-1.1c-.3-.1-.5-.2-.8-.2h-15.5c-.6,0-1.2.3-1.6.8l-1.6,2.1-5.5.4-.8-.7c-.3-.2-.6-.4-.9-.4l-3.8-.7-6.4-1.2c-1.3-1-2.7-2.3-3.4-2.9.2-.7.6-2,1-3.2.2-.6.2-1.3-.2-1.8-.3-.5-.9-.9-1.6-.9l-4.2-.3,1.6-.3c.3,0,.7-.2.9-.5l3.8-3.3c.6-.5.8-1.4.6-2.1-.3-.8-.9-1.3-1.8-1.4l-3.2-.2-5.3-.9-6.9-3.7c-.2-.1-.4-.2-.7-.2l-10.1-1.4h2c.2,0,.5-.1.7-.2l3.6-1.4,4.7-1.6,6.1-2.4c.3-.1.7-.4.9-.7l1.7-2.4,3.6-2.6,4.4-1.9,1.7,2.1c.4.5,1,.8,1.6.8h3.6c.8,0,1.5-.5,1.8-1.2.3-.7.2-1.6-.3-2.1l-1.6-1.8,2.1-1.7,11.8-1.1c.9,0,1.7-.8,1.8-1.7l.3-2,6.3-1.3,5.8-.2,1.6,1.7-1.7,3.6-2.5,3.2c-.4.5-.5,1.3-.3,1.9.2.6.8,1.1,1.5,1.3l2.9.6,1.1.9c.3.3.8.4,1.2.5,0,0,25.9,1.2,25.9,1.2.8,0,1.4-.4,1.8-1.1l1.5-2.9,2.3-1.7,5,.4c0,0,.1,0,.2,0,.8,0,1.5-.5,1.8-1.2.3-.8.2-1.7-.5-2.3l-2.9-2.6c-.3-.3-.7-.5-1.2-.5h-1c0,0,1.4-.7,1.4-.7l1.7,1.5c.2.2.4.3.6.4l7.6,3.1c.2,0,.5.1.8.1s.7,0,1-.3l4.1-2.4c.5-.3.9-.9,1-1.5s-.1-1.2-.6-1.7l-3.1-3.1c-.2-.2-.3-.3-.5-.4l-5.7-2.9c-.3-.1-.6-.2-.9-.2s-4.6.2-4.6.2c-.3,0-.6,0-.8.2l-3,1.6-3.8-.8v-2.4c-.1,0,.3-5.4.3-5.4,0-.6-.1-1.1-.5-1.5-.4-.4-.9-.6-1.5-.6s-10.3.2-10.3.2c-.5,0-.9.2-1.3.5-.1,0-.2,0-.3,0h-7.4l-8.3-2.3-4.1-7.4c0-.1-.1-.2-.2-.3l-11.5-13.4c-.2-.2-.4-.4-.7-.5-8.6-4-18.2-8.6-19.3-9.4-.9-.6-2.1-.9-3.8-.9s-3.4.3-4.5.4c-.3,0-.5,0-.7,0-.3,0-.8-.2-1.5-.4l1-.8c.1-.1.2-.2.3-.4l3.6-4.8c0,0,.1-.2.2-.3l3.5-7h19.3c.1,0,.2,0,.4,0l11.9-2.1c.1,0,.3,0,.4-.1l8.4-3.3c.3-.1.5-.3.8-.5l3.8-4.3c.2-.2.3-.4.4-.7l2.1-6.2c0-.2.1-.4.1-.7v-2.9l3-1.2c.3-.1.6-.3.8-.6l3-3.6,9.3-7,1.2-.3h0c0,.7.3,1.3.8,1.7.4.3.8.4,1.2.4s.3,0,.5,0l9.1-2.4,13.2-3.6c.5-.1.9-.4,1.1-.8l6.1-9,4.3-.2h11.1c.2,0,.4,0,.6,0l10.5-3.1c0,0,.1,0,.2,0l11.5-4.8c.2,0,.4-.2.5-.3l6.4-5.5,3.3.9c.1,0,.3,0,.4,0l8.3.6v.6c0,0-2.6,6-2.6,6-.3.7-.2,1.4.2,2,.4.5,1,.8,1.6.8s.2,0,.3,0l3.3-.5c.4,0,.7-.2,1-.4l5.6-4.5,3.6-.7v3.3c0,.8.5,1.5,1.2,1.8l6.9,3.1c.3.1.5.2.8.2.6,0,1.1-.2,1.5-.7l1.3-1.5h12.2l13.2.5,3.7,1.6-1.8,2.8c-.3.5-.4,1.1-.2,1.7.2.6.6,1,1.2,1.3l2.3.9,4.5,2.3,3.9,3.2c.4.3.8.5,1.3.5s.5,0,.7-.1l5.2-1.9,8-2.4,6.4,1.8c.2,0,.4,0,.5,0,.6,0,1.2-.3,1.6-.8l1.8-2.5h6.3l9.9.7,7.9,5c0,0,.2,0,.3.1l9.8,4.3c.2.1.5.2.8.2l10,.2h15.5s14,4.7,14,4.7c.2,0,.4.1.6.1.5,0,1-.2,1.4-.5l2.8-2.6,26.6.5,8.3,8c.3.3.7.5,1.2.6l6.1.6,1.4,2.6c.3.7,1,1.1,1.8,1.1s4.5-.2,4.5-.2v225.3c0,1.1.9,2,2,2h15.2c.2,0,.4,0,.6,0l11-3.2,2.1.9-1,1.1c-.4.4-.6,1-.5,1.5,0,.6.3,1.1.8,1.4l16.1,12.6,5.6,7.3,4.4,8.7c.2.5.7.9,1.2,1,.2,0,.4,0,.6,0,.3,0,.7,0,1-.3l10-5.5,7.4.7c0,0,.1,0,.2,0,.5,0,1-.2,1.3-.5.4-.4.7-.9.7-1.5v-7.2l11.1-5.7,5.9,5.7-1.5,4.1c-.4,1,.1,2.1,1.1,2.5l19.7,8.6,27.6,45.8c.2.3.5.6.9.8l23.1,10.8-1.7,7.8c-.2.7,0,1.5.6,1.9l3.5,3.1-7.5,8.5-3.8.5-.5-.6ZM163.7,1124.5c.2-.3.3-.7.3-1h1.8c.4.3.8.7,1.1.9-.3.3-.6.6-.9.9l-2.3-.8ZM356.7,1025.2l-.9-2c.3.2.7.3,1,.3s.6,0,.9-.2l2.2-1.1c0,0,.2,0,.2-.1,1-.7,2.1-1.4,3.1-2.1l-5.3,5.3h-1.2ZM139.1,939.4h.2s.3,0,.3,0h-.5ZM137.4,860.6v-2.3c.1,0,3.5.5,3.5.5l.7,1.5.4,1.8-3,.5-1.6-1.9Z"/>
    <path class="cls-3" d="M224.8,748.2l2.2.6c.3,0,.5.1.8.1l5.8.4-1.8,4c-.6,1.3-.4,2.9.5,4,.8,1,1.9,1.6,3.2,1.6s.4,0,.6,0l3.3-.5c.7-.1,1.4-.4,1.9-.8l5.2-4.2h.7c0-.1,0,.8,0,.8,0,1.6.9,3,2.4,3.7l6.9,3.1c.5.2,1.1.3,1.6.3,1.1,0,2.2-.5,3-1.3l.7-.8h11.3l12.8.5,1.1.5-.5.8c-.7,1-.8,2.2-.5,3.4.4,1.1,1.2,2.1,2.3,2.5l2.2.9,4.2,2.1,3.7,3.1c.7.6,1.6.9,2.5.9s.9,0,1.4-.2l5.2-1.9,7.4-2.3,5.8,1.6c.4,0,.7.1,1.1.1,1.3,0,2.5-.6,3.3-1.7l1.2-1.7h5.2l9.4.6,7.5,4.7c.2.1.3.2.5.3l9.8,4.3c.5.2,1,.3,1.5.3l10,.2s0,0,0,0h15.1l13.7,4.6c.4.1.8.2,1.3.2,1,0,2-.4,2.7-1.1l2.2-2,25,.4,7.7,7.5c.6.6,1.5,1,2.4,1.1l5,.5.9,1.7c.7,1.3,2.1,2.1,3.5,2.1s.1,0,.2,0h2.3c0-.1,0,223,0,223,0,.5,0,.9.2,1.3l-5.6.2-9.1-1.4c-.2,0-.4,0-.6,0s-.2,0-.3,0l-21.2,1.6-2.6.2-2.3-2c-.4-.4-.9-.6-1.5-.8l-6.4-1.9v-2.5c0-1.6-1-3.1-2.4-3.7-.5-.2-1-.3-1.6-.3-1,0-2,.4-2.8,1.1-.8.8-1.7,1.6-2.5,2.3l-4.5-2.8c-.7-.4-1.4-.6-2.1-.6s-.9,0-1.4.3c.2-1.8-.9-3.5-2.6-4.1l-3.9-1.4c0-.8-.3-1.6-.8-2.3-.8-1-1.9-1.5-3.1-1.5s-.2,0-.2,0c0,0-5.1.3-8,.5-.7-.5-1.6-.9-2.5-.9s-.2,0-.3,0l-9,.7c-.7,0-1.5.3-2.1.8l-1.6,1.2-1.3-.6c-.5-.2-1-.3-1.6-.3-.8,0-1.6.2-2.2.7l-3.2,2.2c-1.2.8-1.9,2.2-1.8,3.6,0,1.1.6,2.1,1.4,2.8-.3.8-.3,1.7,0,2.6.5,1.3,1.6,2.2,2.8,2.5-.3.3-.5.7-.6,1-.4.9-.4,1.9-.1,2.7l-6.3,2.3-1.9-.7c-.4-.2-.9-.2-1.4-.2s-.3,0-.4,0l-7.9.8c-1.2.1-2.2.7-2.9,1.7l-5.7,8.1h-.2c-.2,0-.4,0-.6-.1-.4-.1-.8-.2-1.2-.2-1.2,0-2.3.5-3,1.4l-1.3,1.5-10.2,3.4h-1.5c0,.1,1.5-1.1,1.5-1.1,1.3-1.1,1.8-2.8,1.2-4.4-.4-1.1-1.2-1.9-2.2-2.3l-.4-2.8,3.3-3.6c.4-.4.7-.9.8-1.4l3-8.5c.4-1,.3-2.1-.2-3.1l6.1-4.9,7-4.5c1.6-1,2.2-3,1.6-4.8-.6-1.6-2.1-2.6-3.7-2.6s-.4,0-.6,0l-12.1,1.7c-.6,0-1.2.3-1.7.7l-10.3,7c-.4.3-.7.6-1,1l-7.9,11-1.9,1.7c-.8.7-1.3,1.6-1.3,2.6l-.2,2.1-4.1,3.1c-.4.3-.7.6-.9,1l-4,6c-.5-.2-1-.3-1.5-.3s-.1,0-.2,0c-1.3,0-2.5.7-3.2,1.8l-5.3,8.1c-.6,1-.8,2.2-.5,3.3.3,1.1,1.1,2,2.2,2.5l2.7,1.3,1.5,1.9-7.4,5.3c-1.2.9-1.9,2.4-1.6,3.9l.4,2.1-7.9,1c-.7,0-1.4.4-1.9.8l-6.9,5.3c-.1.1-.3.2-.4.3l-4.8,4.7-9.9,4.2c-1,.4-1.7,1.2-2.1,2.2l-1.1,2.7-2.6.9c-.8.3-1.5.8-2,1.5l-2.8,4-2.3,1.6-5.5,1.2c-.6.1-1.2.4-1.6.8l-5.3,4.3-6.7,3.8c-1.8,1-2.6,3.3-1.7,5.2v.3c.1,0-.4.6-.4.6l-7.8.3c-.7,0-1.3.2-1.9.5l-3.8,2.2-5.7.5c-.7,0-1.3.3-1.9.7,0-.1-.1-.3-.2-.4l-1.1-1.8.9-2,4.7-4.9,5.8-.8c1.1-.2,2.2-.8,2.8-1.7l1.2-1.7,5.1-1.7,1.6.3c.2,0,.5,0,.7,0,.9,0,1.7-.3,2.4-.8.9-.7,1.5-1.7,1.6-2.8l.3-3.1.8-1.9,9.8-7.3c.3-.2.5-.4.7-.7l2.6-3.2c.5-.7.8-1.5.9-2.3.2-4.5.2-4.9.2-5,0-.2,0-.5-.3-3.5l1.4-1.6c.7-.8,1.1-1.8,1-2.9,0-.7-.2-1.3-.6-1.8l1.5-2.2,6.2-7.6c1.2-1.5,1.2-3.6,0-5.1-.8-1-1.9-1.5-3.1-1.5s-1.3.2-1.9.5l-1.8,1-8,4.4-4.3,2h-2.1c0-.4-.2-.7-.4-1l-2-3.6c-.7-1.3-2.1-2-3.5-2s-.9,0-1.4.2c-1,.4-2.7,1-3,1.1-1.9.7-2.5,2.3-3,4.8l-2.4-3.4c-.6-.9-1.7-1.5-2.8-1.6l-4.3-.5c-.2,0-.3,0-.5,0-.9,0-1.8.3-2.5.9h-.1c0,.1,0,.1,0,.1l-3.2-1.9c0,0-.1,0-.2-.1l-2.6-1.4c-.6-.3-1.2-.5-1.9-.5s-.9,0-1.4.2l-2.9,1.1c-.9.3-1.6,1-2.1,1.8l-.8,1.4-3.6.9c-.3,0-.7.2-1,.4l-4.6,2.5h-1.2c0-.1.7-4.3.7-4.3.3-1.6-.5-3.3-1.9-4.1l-2-1.2v-.5c0,0,2.8-4.4,2.8-4.4.5-.8.8-1.8.6-2.8l-1-6.9c-.2-1.2-.9-2.3-1.9-2.9l-3.4-2v-3.3c-.1,0,1.2-7.2,1.2-7.2.4-2-.8-3.9-2.6-4.5-.4-.1-.9-.2-1.3-.2-1.5,0-2.8.8-3.6,2.2l-3.6,6.9c-.3.5-.4,1.1-.4,1.7v3.9c-.3,0-.5,0-.7.2l-7.9,2.9h-9.3l-.2-.8c-.1-.5-.3-.9-.6-1.3l-4.1-5.7c-.4-.5-.9-1-1.5-1.3l-3.2-1.6-.7-2.4c-.3-1.1-1-1.9-1.9-2.4,0,0,0-.2,0-.2h1.3c1.9-.4,3.4-1.9,3.6-3.9.1-1.9-1.2-3.7-3.1-4.1l-4.1-1c-.1,0-.3,0-.4,0l-.7-2.8c-.3-1.1-1-1.9-1.9-2.5-.6-.3-1.3-.5-2-.5s-.8,0-1.1.2l-2.2.7c-.2-.4-.5-.8-.8-1.1l-.7-.7-.7-2.7c-.4-1.5-1.5-2.6-3-2.9l3.2-.2c1.2,0,2.4-.8,3.1-1.8.7-1.1.8-2.4.4-3.5l-.8-2.3-.2-1,2.1-1.2c1.4-.8,2.2-2.4,2-4.1l1.8-1.7,4.5-1.6c1.8-.7,2.9-2.5,2.6-4.4l-1-6.5h1.5c1.9-.3,3.4-1.8,3.6-3.7l.2-1.5,4.3-.7s0,0,0,0c1.4-.2,2.5-.4,3.4-.6,0,0,0,.1,0,.2l1.4,3.8c.6,1.5,2,2.5,3.6,2.6l6,.2c0,0,.1,0,.2,0,1.3,0,2.5-.6,3.3-1.7l.9-1.3,3.6-3,5.2-3.9c.6-.4,1-1,1.3-1.7l.4.4c.5.4,1.1.7,1.7.8l5.3,1.2c.3,0,.6,0,.9,0,.7,0,1.4-.2,2-.6l5.3-3.1c0,0,.2,0,.2-.1l4.5-3.1c.9-.6,1.5-1.6,1.7-2.7l.5-3.1c.2-1.1-.1-2.3-.9-3.1l-.8-1c.5-1.8.5-2.4.5-2.7v-3.1c0-.7-.2-1.5-.6-2.1l-1.8-2.9s0-.1.1-.2l3.3-4.3c.7-.9,1-2.1.8-3.3-.2-1.1-1-2.1-2-2.7l-4-2.2-4.1-3.2c-.7-.6-1.6-.8-2.5-.8s-.8,0-1.2.2c-1.2.4-2.2,1.3-2.6,2.6l-.3.9-1.1-.4c-.5-.2-1-.3-1.5-.3-.9,0-1.8.3-2.5.9l-4.9,4-7,3.3-3.5-3c-.7-.6-1.6-.9-2.6-.9s-1.1.1-1.6.3l-1.7.7c-.7.3-1.2.7-1.6,1.3l-.4-.2c-.5-.2-1.1-.3-1.6-.3h-15.5c-1.2,0-2.4.6-3.2,1.6l-1,1.4-3.8.3-.2-.2c-.5-.4-1.2-.7-1.8-.9l-3.8-.7-6-1.2c-.7-.6-1.4-1.2-2-1.7.2-.6.4-1.3.6-1.9.4-1.2.3-2.5-.4-3.6-.4-.5-.8-1-1.4-1.3l1.6-1.4c1.2-1.1,1.7-2.8,1.2-4.3-.5-1.5-1.9-2.6-3.5-2.7l-3.2-.2-4.9-.8-6.6-3.5c-.4-.2-.9-.4-1.3-.4h-.9c0-.1,2.1-.9,2.1-.9,0,0,.1,0,.2,0l6-2.4c.7-.3,1.3-.8,1.7-1.4l1.5-2.1,3.2-2.3,2.8-1.2.7.9c.8,1,1.9,1.5,3.1,1.5h3.6c1.6,0,3-.9,3.6-2.4.6-1.4.4-3.1-.7-4.3v-.2c-.1,0,11-1.1,11-1.1,1.8-.2,3.3-1.6,3.6-3.4v-.6c0,0,4.9-1,4.9-1l4.8-.2h0s-1,2.2-1,2.2l-2.4,3c-.9,1.1-1.1,2.5-.6,3.8.5,1.3,1.6,2.3,2.9,2.6l2.4.5.7.6c.7.6,1.5.9,2.4.9l25.8,1.2c0,0,.1,0,.2,0,1.5,0,2.9-.9,3.6-2.2l1.2-2.5,1.3-1,4.3.4c.1,0,.2,0,.3,0,1.6,0,3-.9,3.7-2.4.2-.4.3-.8.3-1.2l2.9,1.2c.5.2,1,.3,1.5.3s1.4-.2,2-.6l4.1-2.4c1.1-.6,1.8-1.7,1.9-2.9.2-1.2-.3-2.5-1.1-3.3l-3.1-3.1c-.3-.3-.7-.6-1-.7l-5.7-2.9c-.6-.3-1.2-.4-1.8-.4s-.1,0-.2,0l-4.5.2c-.6,0-1.2.2-1.7.5l-2.3,1.2-1.5-.3v-.7s.4-5.2.4-5.2c0-1.1-.3-2.3-1.1-3.1-.8-.8-1.8-1.3-2.9-1.3s0,0,0,0l-10.3.2c-.7,0-1.3.2-1.8.5h-6.9l-7.2-2-3.7-6.7c-.1-.2-.3-.5-.5-.7l-11.5-13.4c-.4-.4-.8-.8-1.3-1-8.3-3.9-17.7-8.4-19-9.2-1.2-.9-2.8-1.3-4.9-1.3s-1.5,0-2.2.1l2.1-2.7c.1-.2.3-.4.4-.6l3-5.9h18.1c.2,0,.5,0,.7,0l11.9-2.1c.3,0,.5-.1.8-.2l8.4-3.3c.6-.2,1.1-.6,1.5-1.1l3.8-4.3c.3-.4.6-.9.8-1.3l2.1-6.2c.1-.4.2-.9.2-1.3v-1.6l1.7-.7c.6-.3,1.2-.7,1.7-1.2l2.8-3.4,8-6c.2.2.4.4.6.6.7.5,1.6.8,2.4.8s.7,0,1-.1l9.1-2.4,13.1-3.6c.9-.2,1.7-.8,2.3-1.6l5.6-8.1h3.2c0-.1,11.1-.1,11.1-.1.4,0,.8,0,1.1-.2l10.5-3.1c.1,0,.3,0,.4-.1l11.5-4.8c.4-.2.8-.4,1.1-.7l5.5-4.8M481.9,1017.6c0,.4-.1.8-.1,1.3,0,1.1.6,2.2,1.5,2.8l15.9,12.4,5.4,6.9,2.4,4.8-8.3-5-20.3-12.1.7-1.2c.8-1.5.7-3.3-.4-4.6-.8-.9-1.9-1.4-3-1.4s-1,0-1.5.3l-8.5,3.3-2.3-1c-.3-.1-.7-.2-1-.3l-5.2-.7v-1.2c0-.5,0-1-.2-1.4h14.6c.4,0,.8,0,1.1-.2l9.1-2.7M543.8,1032.3l4,3.8-1,2.9c-.7,2,.2,4.2,2.2,5l19.1,8.4,27.1,44.9.2.3c.4.7,1,1.2,1.7,1.6l21.7,10.1-1.4,6.2c-.3,1.4.2,2.9,1.3,3.9l2.1,1.8-5.7,6.5h-1.2c0,.1.7-12.2.7-12.2.1-2.1-1.3-3.9-3.4-4.2-.2,0-.4,0-.6,0-1.8,0-3.4,1.2-3.9,3l-.6,2.4c-.1,0-.2,0-.4,0-1.3,0-2.6.7-3.4,1.8l-.4.6.4-7c.1-1.9-1.1-3.6-2.9-4.1-.2,0-.4-.1-.7-.1.4-1.4.1-2.9-.9-4-.8-.8-1.8-1.2-2.9-1.2s-1.1.1-1.6.3l-3,1.3-.9-2.6c-.3-1-1-1.8-1.9-2.2v-4.9c0-.8-.2-1.6-.7-2.2l-2.5-3.8c-.1-.2-.3-.4-.5-.6.6-.5,1.1-1.2,1.4-2.1.5-1.9-.5-4-2.4-4.7l-7.7-3.2-1.9-8.2c0-.3-.2-.6-.3-.8l-2-4.1c-.7-1.4-2.1-2.3-3.6-2.3s-.5,0-.8,0c-1.8.4-3.1,1.9-3.2,3.7l-.6,10.9-2.9,1.7-2-8.9-1.1-9.8c0-.1,0-.2,0-.4l-2.3-11.5c-.3-1.7-1.7-3-3.4-3.2l-1.4-.2c-.2,0-.3,0-.5,0-1.1,0-2.1.4-2.9,1.2-.9.9-1.3,2.2-1.1,3.4l1.5,9.6c-.2,0-.3.2-.4.3-1.6,1-2.2,3-1.5,4.8l5.4,13.8,1,4.9c-.5-.6-1.2-1.1-2-1.3l-4.1-1.2c0-1-.5-1.9-1.2-2.7l-12.6-12.4-.6-1c.2-.2.3-.4.4-.6,1.5-2.3.4-4.9-.7-7-.5-.9-1.4-1.6-2.4-1.9-.4-.1-.7-.2-1.1-.2-.7,0-1.4.2-2,.5l-2.1,1.2-6.5-5.3c-.1-.1-.3-.2-.5-.3l-.5-.3,8.6-4.8,6.8.7c.1,0,.3,0,.4,0,1,0,1.9-.4,2.7-1,.8-.8,1.3-1.8,1.3-3v-6l8.7-4.5M551.9,1087.2l1.3,6.1-1.5-1.2.2-4.8M573.3,1087.9l4.4.6c-.7.9-.9,2.2-.6,3.4l.6,2.3-3.7.2-1.3-2.4c-.7-1.3-2.1-2.1-3.5-2.1s-.6,0-.8,0l-3.6.8,2.9-1.7,5.7-1M576.2,1105.5c.1.2.2.3.3.5l7.1,8.3,6.3,8.8,2,4.6-4.7-3.3c-.7-.5-1.5-.7-2.3-.7s-1.6.2-2.2.7c.2-.6.2-1.3,0-2l-1.8-7.1c-.2-.9-.7-1.7-1.5-2.2l-4.7-3.6.6-4h.8M158.5,1111.3l.3.8-1.5-.6,1.2-.2M150.7,1112.6l-2.9,4c0,0-.1.2-.2.3l-3.6,5.9c-1.1.3-2.2.6-2.8.6-.4,0-.8,0-1.2,0s-.8,0-1.3,0c.1-.2.2-.4.3-.6l1-2,3.6-2.5c.1,0,.3-.2.4-.3l6-5.4h.6M165.7,1115.1c0,0,.1,0,.2,0l-1.2,1.4-1.2.6-.5-1.1c.6,0,1.2-.1,1.8-.4.3-.1.6-.3.9-.4M581.2,1126.8c0,0,0,.1,0,.2h0c0-.1,0-.1.1-.2M115.4,1132.1h.1c-.1,0-.3,0-.4.1,0,0,.2,0,.3-.1M119.1,1132.4l3.8.3c0,0,0,.1,0,.2-1-.1-2.3-.3-3.7-.5M114.4,1132.5c-.2.1-.5.3-.7.5-2,1.7-4.1,3.5-5.4,4.6.2-.4.3-.8.5-1.1.2-.1.5-.3.7-.4,2.1-1.4,3.5-2.3,4.4-3.3.2,0,.4-.2.6-.3M223.8,743.8l-7.2,6.2-11.5,4.8-10.5,3.1h-11.2l-5.3.2-6.7,9.8-13.1,3.6-9.1,2.4v-2.6l-4.1,1-9.8,7.4-3.1,3.8-4.3,1.7v4.3l-2.1,6.2-3.8,4.3-8.4,3.3-11.9,2.1h-20.5l-4.1,8.1-3.6,4.8-3.8,3.1s4.8,1.7,5.5,1.7,3.1-.5,5.3-.5,2.1.1,2.6.5c1.7,1.2,19.6,9.6,19.6,9.6l11.5,13.4,4.5,8.1,9.3,2.6h7.6l-.2,4.5,2.9,3.3,6.2-1-1-4.1-1.2-2.6-5-.7,10.3-.2-.5,5.5.2,4.1,6,1.2,3.6-1.9,4.5-.2,5.7,2.9,3.1,3.1-4.1,2.4-7.6-3.1-2.6-2.4-4.5,1.9h-5.7l.7,2.4,8.6.7,2.9,2.6-5.7-.5-3.3,2.4-1.7,3.3-25.8-1.2-1.4-1.2-3.3-.7,2.6-3.3,2.4-5-3.1-3.3-6.9.2-7.9,1.7-.5,3.3-12.4,1.2-3.8,3.1.7,1.4,1.9,2.1h-3.6l-2.6-3.3-6,2.6-4.1,2.9-1.9,2.6-6,2.4-4.8,1.7-3.6,1.4-6.4.2,2.6,3.6,11.7,1.7,7.2,3.8,5.7,1,3.3.2-3.8,3.3-6.2,1.2,1.7,2.9,7.4.5s-1.4,3.8-1.2,4.5c.2.7,4.5,4.1,4.5,4.1l6.9,1.3,3.8.7,1.4,1.2,7.2-.5,2.1-2.8h15.5l3.6,1.6,3.1,1-1.4-3.6,1.7-.7,4.3,3.6,2.2,4.3,1.4-2.4-.2-1.9,7.6-3.6,5.3-4.3,2.4,1,3.1-.2,1.2-3.6,4.3,3.3,4.3,2.4-3.3,4.3-8.1,1,.5,2.6,7.2,1,1.9,3.1v3.1c0,.7-1,3.6-1,3.6l2.1,2.6-.5,3.1-4.5,3.1-5.3,3.1-5.3-1.2-4.3-3.6-3.3-1.4-4.5,1.2-.5,2.1,5.3,1,.7,1.9-5.3,4-4.1,3.4-1.2,1.7-6-.2-1.4-3.8s-.7-3.4-1.4-3.4c0,0,0,0,0,0-.7.2-6.4,1.2-6.4,1.2l-7.4,1.1-.5,4.6-5.7.5,1.7,10.8-5.3,1.9-4.1,3.8.5,1.9-4.5,2.6.7,4.1,1,2.6-6.5.5-1.4,3.6-2.1,2.4v1.7h6.2l1,3.8,1.4,1.4,1.2,3.6,3.3-1.4,2.4-.7,1.4,5.5,2.6.2,4.1,1-4.3.5-.5,2.6-.7,1.2-2.9,1.2s0,2.9.7,2.9,4.8-.5,4.8-.5l1.2,4.1,4.8,2.4,4.1,5.7,1,3.8h13.1l8.6-3.1,3.1-.5.2-7.2,3.6-6.9-1.4,7.6.2,6,5.3,3.1,1,6.9-3.8,5.7.7,3.8,3.6,2.2-1,5.5-3.1,2.6,9.3,1,5.7-3.1,5-1.2-1.5,1.6-3.3,3.6,3.1.7,2.9-1.7-1.8-2.7,2.6-4.6,2.9-1.1,2.6,1.4,3.2,1.9,1.6,2.1,3.1-2.5,4.3.5,6.1,8.5h4.3l-1.2-4.4s.7-4.1,1-4.2c.3-.1,2.9-1.1,2.9-1.1l2,3.6.7,2.7,6,.4,5.4-2.5,8.1-4.4,1.8-1-6.3,7.8-3.5,5.1,1.8,1.6-2.5,2.9s.5,4.4.5,4.8-.2,4.8-.2,4.8l-2.6,3.2-10.6,8-1.4,3.5-.4,3.7-2.6-.5-7.4,2.5-1.9,2.9-7.2,1-6.1,6.4-2,4.5,2.2,3.6-2.4.5s-.6-.6-1-.6,0,0,0,0c-.4.1-2.7,1.3-2.7,1.3l-2-5-12.8,2-6.9,6.2-4.4,3.1-1.4,2.9-6.4,7.6h-5.6l-8.6-.7s-3.9,1.4-3.9,1.9-4.9,3.5-5.3,3.8c-.4.4-1.7,3.8-1.7,3.8l-1.9.6s.5,1.9,1,2.3c.4.3,4.7,1.4,6.1,1.4s.3,0,.4,0c.5-.4,6.8-5.7,6.8-5.7,0,0,6.6,1,8.2,1s.3,0,.3,0c.5-.2,3.8-6,3.8-6l5.6-2.9s3.6-.8,5.8-.8.5,0,.8,0c.1,0,.3,0,.5,0,2.1,0,5.5-1.3,5.5-1.3l4.3-7.2,3.2-4.4,4.8,2,3,6.9-1.4,2.1,6,2s3-2.7,3-3.2-3-2.9-3-2.9h-2.9l3.6-1.8,2.9-3.3,5-3.9,6.6-.6,4.5-2.6,9.3-.4,3.7-3.6-1.3-2.9,7-3.9,5.6-4.5,6.3-1.4,3.5-2.5,3.2-4.5,4.3-1.4,1.8-4.4,10.6-4.5,5.4-5.3,6.9-5.3,12.1-1.6-1.1-6.2,10.8-7.8-4.7-6-3.6-1.7,5.3-8.1,2,2.6,6.8-10.2,5.5-4.2.4-3.9,2.3-2,8.1-11.3,10.3-7,12.1-1.7-7.2,4.7-9.2,7.4,1.8,2.5-3,8.5-4.7,5,1.2,7.8h1.9l-4.8,3.9-1.1,4.9,9.2-.7,11.7-3.9,2-2.4.2,2.4,4.7-3.2,6.1-8.7,7.9-.8,3.2,1.2,9.2-3.3,2.5,1.2,3.3,2.1,1.4,3,3.2.4,9.9-9.8s-.2-2.7-.7-2.7-8.8,5.6-8.8,5.6l-2.2,1.1-7.7-5.2,6.8,1.3,2.2-3.4-5.4-1.1,1.8-3.9-7.5.7,3-2.2-4.3-2.1,3.2-2.2,3.4,1.4,3.4-2.5,9-.7s-.6.9,1.4.9.4,0,.6,0c2.7-.2,8.8-.5,8.8-.5l-.7,2.3,7.2,2.7-.5,2.1-7.2,2.7,1.8,4.3,7.7-2.3,3.6-2.7,4.8,3s1.3,1.4,1.8,1.4,5.2-4.5,5.2-4.5v5.6l9.3,2.7,3.6,3,4.3-.4,21.1-1.6,9.5,1.4,6.5-.2-.2,4.8,8.8,1.3,3.8,1.6,10-3.9-2.7,4.7,23.7,14.2,17,10.2,8.6,7,4.5-2.5s1.3,2.3.9,2.9c-.4.5-2,2.5-2,2.5l2.3,3.8,12.9,12.7-2.9,6.3,3.6,1.1,1.3-3.9,5,1.4-.4,8.2,11.8,9.9-5.6-26.7-5.6-14.2,3.4,3.4-2.7-17.2,1.4.2,2.3,11.5,1.1,10,3.2,14.5,9.5-5.6.7-13.1,2,4.1,2.3,10.2,9.7,3.9-8.1-1.1-7,1.3-5.7,3.4-.5,3.4,1.3,3.6,7.9-1.7,2.5,4.7,11.1-.7-1-4-.8-3,2.5,3.8v5.6l-2.9,1.3-8.6.2-1.4,9.7,6.6,5,1.8,7.1-5-4.4h-3.4l2.1,6.5,12,9.2,2.9-1.7-2.5-5.2,7.7,5.4,4.1-4.3-3.4-7.7-6.6-9.3-7.2-8.4,5.9-.4,1.4,4.1,2.7,1.8,5.2-2.3-2.7,5.4,3.4,5,2.7-5.2-.5,9.1,3.6,6.3,4.3-6.6-2,9.5,3,.4,3.8-15.3-.9,15,1.7,2,5.7-.7,9.4-10.6-5-4.5,2.1-9.4-24.6-11.5-.2-.3-27.8-46-20.3-8.9,1.9-5.3-7.9-7.6-13.4,6.9v8.4l-8-.8-10.5,5.8-4.5-8.9-5.9-7.6-16.3-12.7,3-3.2-5.3-2.4-11.7,3.4h-15.2v-227.4l-6.5.3-1.9-3.6-7.2-.7-8.8-8.6-28.2-.5-3.3,3.1-14.3-4.8h-15.8l-10-.2-9.8-4.3-8.4-5.3-10.5-.7h-7.4l-2.4,3.3-6.9-1.9-8.6,2.6-5.3,1.9-4.1-3.3-4.8-2.4-2.4-1,3.1-4.8-6.2-2.6-13.6-.5h-13.1l-1.9,2.1-6.9-3.1v-5.7l-6.4,1.2-6,4.8-3.3.5,2.9-6.5-.2-2.9-10-.7-4.3-1.2h0Z"/>
  </g>
  <polygon class="cls-1" points="1066.7 1164.4 1062.2 1165.2 1061.1 1165.8 1060.1 1165.6 1058.2 1166.3 1050.4 1167.1 1048.3 1165.6 1046.8 1163.6 1045.4 1164.2 1045.7 1166 1044.2 1166.6 1040.3 1166.9 1034.1 1166.3 1031.8 1167 1028.7 1166.7 1028.3 1165.5 1024.1 1165.5 1023.6 1166.4 1024.2 1166.9 1024.4 1170.1 1021.5 1172.8 1020.5 1176.4 1019.3 1177.1 1021.2 1177.5 1026.7 1177.4 1033.3 1176.2 1037.6 1174.2 1043.8 1174.7 1053.6 1176.7 1056 1177.5 1057.7 1176.6 1059.4 1176.1 1060.7 1175 1062 1174.8 1067.8 1168.6 1068.8 1165.9 1066.8 1166.1 1066.7 1164.4"/>
  <polygon class="cls-1" points="1088.5 1217 1089.1 1214.1 1086.9 1212.2 1084.2 1213 1081.8 1216.1 1076.2 1219.5 1078.1 1221.8 1080.8 1222.1 1084.8 1219.8 1087.1 1220.5 1089.1 1219.2 1090.1 1219.2 1089.4 1217.8 1088.5 1217"/>
  <polygon class="cls-1" points="842.1 1100.2 839.3 1098.6 838.9 1098.5 837.3 1099.4 832.9 1099.5 831.9 1099.3 831.1 1099.9 831.2 1101.2 830.6 1101.9 826.5 1100.2 824.3 1100.8 818.3 1106 813.3 1108.6 812.1 1113.9 809.6 1116.2 809.6 1120.3 810.9 1121.5 812.9 1123.6 818.9 1124.4 822.3 1126.7 823 1128.1 825.7 1129.3 825.8 1129.9 826.3 1129.9 826.2 1129.1 828.5 1129.6 834.2 1129.4 838.7 1130.2 843.1 1126.7 843.6 1125.4 845.4 1124.3 845.9 1123.6 845.1 1123.1 845.5 1121.8 847.1 1122 847.4 1120.8 846.4 1118.8 846 1114.1 847.4 1113 848.3 1105.9 844.3 1101 842.1 1100.2"/>
  <polygon class="cls-1" points="1058.9 1190.1 1055.9 1188.6 1049.9 1188.5 1048.6 1188.2 1047.7 1188.8 1044.9 1189.2 1043.3 1190.3 1043.3 1193.3 1048.7 1195.6 1050.2 1198.9 1050.7 1203 1053.5 1205.1 1058.3 1204 1062.8 1201.6 1064.7 1197.4 1064.8 1195 1060.8 1192 1058.9 1190.1"/>
  <polygon class="cls-1" points="787.3 1124.4 786 1125 784.8 1124.7 783.5 1125.2 783.6 1128.4 781.4 1130.4 775.8 1133.9 774.9 1136 775.5 1138 774.3 1139.9 774.6 1142.8 778.3 1144.9 778.8 1143.9 778.6 1142 781.4 1136.2 784.3 1136 787.7 1133.7 787.2 1132.2 786.8 1128.7 788.7 1125.8 787.3 1124.4"/>
  <polygon class="cls-1" points="985.9 1159.9 984.8 1155.9 982.2 1155.3 981.7 1153.4 982.4 1150.3 979.1 1150.8 979.3 1154.2 976.4 1154.2 975.6 1151.7 972.3 1147.6 973.3 1146.4 973.1 1144.1 970.4 1142.1 969.1 1142.6 965.6 1138.2 965.1 1135.3 960.1 1130.5 958.1 1130.7 953.4 1136.4 953.5 1137.9 949.3 1143.2 938.7 1144.4 936.7 1145 937 1145.9 941.3 1148.1 941.6 1152.8 945.5 1156.1 947.2 1159.6 949.9 1160 953.3 1167.2 955 1167.6 963.8 1164.7 963.1 1162.7 960.2 1161.5 960.4 1159.7 962.3 1161.1 963.4 1160.9 962.3 1158.9 963.8 1159.1 966 1160.9 964.5 1161.9 965.1 1164.1 969.3 1164.1 970.3 1163 974.1 1166.3 976.5 1166.4 978.1 1168.5 980 1168 983 1165.8 985.6 1165.4 986.1 1164.1 987.3 1164.3 986.9 1165.9 988.2 1165.9 990.8 1162.3 988.7 1160.8 985.9 1159.9"/>
  <g>
    <path class="cls-3" d="M2099,482.4h6v33.1h-6v-33.1Z"/>
    <path class="cls-3" d="M2112.3,482.4h6.1l8.6,17.6,3,7.1h.2c-.3-3.4-.8-7.8-.8-11.6v-13.2h5.6v33.1h-6l-8.6-17.7-3-7.1h-.2c.3,3.6.7,7.7.7,11.5v13.3h-5.6v-33.1Z"/>
  </g>
  <g>
    <path class="cls-3" d="M2606.2,323.3h6.1l8.6,17.6,3,7.1h.2c-.3-3.4-.8-7.8-.8-11.6v-13.2h5.6v33.1h-6l-8.6-17.7-3-7.1h-.2c.3,3.6.7,7.7.7,11.5v13.3h-5.6v-33.1Z"/>
    <path class="cls-3" d="M2641.4,344.3l-8.9-21h6.3l3,8c.8,2.5,1.6,4.8,2.6,7.3h.2c.9-2.5,1.8-4.9,2.7-7.3l3-8h6.2l-9,21v12.1h-6v-12.1Z"/>
  </g>
  <g>
    <path class="cls-3" d="M2082,919.4h-9.7l-2.1,8.5h-6l9.5-33.1h7l9.6,33.1h-6.2l-2.1-8.5ZM2080.7,914.3l-.9-3.6c-.9-3.4-1.7-7.2-2.6-10.8h-.2c-.8,3.6-1.6,7.4-2.5,10.8l-.9,3.6h7.1Z"/>
    <path class="cls-3" d="M2093.8,894.8h6v27.5h12.1v5.5h-18v-33.1Z"/>
  </g>
  <g>
    <path class="cls-3" d="M2464.2,631.2h6.2l3.9,16.1c.9,3.7,1.5,7,2.5,10.7h.2c.9-3.7,1.6-7,2.5-10.7l3.9-16.1h6l-9.1,33.1h-7.1l-9.1-33.1Z"/>
    <path class="cls-3" d="M2506.1,655.8h-9.7l-2.1,8.5h-6l9.5-33.1h7l9.6,33.1h-6.2l-2.1-8.5ZM2504.8,650.6l-.9-3.6c-.9-3.4-1.7-7.2-2.6-10.8h-.2c-.8,3.6-1.6,7.4-2.5,10.8l-.9,3.6h7.1Z"/>
  </g>
  <g>
    <path class="cls-3" d="M1500.8,971h-8.4v-5.5h22.8v5.5h-8.4v27.6h-6v-27.6Z"/>
    <path class="cls-3" d="M1524.4,981.5l-7.8-16h6.6l3,6.8c.7,1.6,1.3,3.2,2.2,5.2h.2c.7-2.1,1.3-3.7,2-5.2l2.8-6.8h6.3l-7.8,16.3,8.4,16.8h-6.6l-3.3-7.3c-.8-1.7-1.4-3.4-2.3-5.5h-.2c-.8,2-1.4,3.8-2.2,5.5l-3.2,7.3h-6.3l8.4-17.1Z"/>
  </g>
  <g>
    <path class="cls-3" d="M916.7,833.6h-9.7l-2.1,8.5h-6l9.5-33.1h7l9.6,33.1h-6.2l-2.1-8.5ZM915.4,828.5l-.9-3.6c-.9-3.4-1.7-7.2-2.6-10.8h-.2c-.8,3.6-1.6,7.4-2.5,10.8l-.9,3.6h7.1Z"/>
    <path class="cls-3" d="M926.4,838.2l13.9-23.6h-12.5v-5.5h19.8v3.9l-13.8,23.6h14v5.5h-21.3v-4Z"/>
  </g>
  <g>
    <path class="cls-3" d="M1168.9,1268.4h6v13h11.3v-13h5.9v33.1h-5.9v-14.3h-11.3v14.3h-6v-33.1Z"/>
    <path class="cls-3" d="M1199.3,1268.4h6v33.1h-6v-33.1Z"/>
  </g>
</svg>