<?xml version="1.0" encoding="UTF-8"?><svg id="uuid-df34fbca-db96-46a8-bcfa-7f2038e0ac53" xmlns="http://www.w3.org/2000/svg" viewBox="0 0 100 100"><defs><style>.uuid-ca14f7e9-37c9-40a4-b03e-4ccede8692b9{fill:#bcbec0;}.uuid-ca14f7e9-37c9-40a4-b03e-4ccede8692b9,.uuid-1f261aad-c849-443e-b48c-24776e023088{stroke-width:0px;}.uuid-1f261aad-c849-443e-b48c-24776e023088{fill:#414042;}</style></defs><rect class="uuid-ca14f7e9-37c9-40a4-b03e-4ccede8692b9" x="0" y="0" width="100" height="100" transform="translate(100 100) rotate(-180)"/><path class="uuid-1f261aad-c849-443e-b48c-24776e023088" d="M86.69,91.66l-30.4-5.72c.34-1.32.72-2.71,1.12-4.09h0l1.26-3.47c1.92.47,4.06.86,6.45,1.16,11.6-6.94,16.71-18.04,17.61-29.92,1.72-1.97,3.02-5.07,3.57-8.76,1.27-2.05,1.93-4.3,2.26-6.13.27.04.45-1.42.36-3.68-.3-6.99-3.25-21.48-14.53-22.05-.51-.46-1.11-.8-1.83-.97C40.52.42,26.74,18.21,22.13,27.31c-4.57-3.51-9.73-3.88-11.94,8.96-3.59,20.83,10.03,42.68,15.04,49.86l-15.96,2.21-12.46,13.98,60.64,7.75,36.25-5.67-7.01-12.73ZM32.03,61.64c1.97,4.11,4.13,8.01,6.43,11.22l-3.22,11.88h0l-7.71,1.07,4.49-24.17Z"/></svg>