<?xml version="1.0" encoding="UTF-8"?><svg id="uuid-5572ceb7-8989-44e2-9035-69019d489359" xmlns="http://www.w3.org/2000/svg" viewBox="0 0 100 100"><defs><style>.uuid-7fc2af24-f024-4859-9f69-aaa7aeba2d39{fill:#bcbec0;}.uuid-7fc2af24-f024-4859-9f69-aaa7aeba2d39,.uuid-6975fb9d-e887-4a60-81d3-3f151b412659{stroke-width:0px;}.uuid-6975fb9d-e887-4a60-81d3-3f151b412659{fill:#414042;}</style></defs><rect class="uuid-7fc2af24-f024-4859-9f69-aaa7aeba2d39" x="0" y="0" width="100" height="100" transform="translate(100 100) rotate(-180)"/><path class="uuid-6975fb9d-e887-4a60-81d3-3f151b412659" d="M103.24,91.56l-43.86-5.25c.16-2.64.39-5.58.61-8.15,2.59.84,5.63,1.49,9.27,1.96,15.28-9.14,19.32-25.49,17.27-41.36,1.07-2.37,1.57-5.44,1.57-5.44.46,2.77.96,1.15.82-2.29-.3-6.99-3.25-21.48-14.53-22.05-.51-.46-1.11-.8-1.83-.97C25.5-3.14,17.83,40.48,20.76,30.86c0,0,4.57,26.09,14.14,37.91l-4.58,16.52-37.54,4.27,4.03,12.75,60.64,7.75,53.32-4.4-7.53-14.11Z"/></svg>