<?xml version="1.0" encoding="UTF-8"?><svg id="uuid-9ba37429-c245-40c7-ad93-3890752e5367" xmlns="http://www.w3.org/2000/svg" viewBox="0 0 100 100"><defs><style>.uuid-02810f93-0c76-4716-b94e-9dda9eb01326{fill:#603913;}.uuid-02810f93-0c76-4716-b94e-9dda9eb01326,.uuid-3571e459-5d89-4887-b340-3ef802776c6b,.uuid-d3763f92-86e6-4053-b3a5-939abf2237c2,.uuid-2cc20bb4-78d5-457b-828e-733ccfe9b045,.uuid-13fb05ae-0067-4f17-8aa5-56425337266c,.uuid-0746015d-fcb6-4787-afa8-87bef6e67a78,.uuid-229fa5b3-72d6-4061-9c7f-60e68b2cabd8,.uuid-94932812-3de0-4ebf-8c27-bd2ab8970e0a{stroke-width:0px;}.uuid-3571e459-5d89-4887-b340-3ef802776c6b{fill:#905b36;}.uuid-d3763f92-86e6-4053-b3a5-939abf2237c2{fill:#7f4e2a;}.uuid-2cc20bb4-78d5-457b-828e-733ccfe9b045{fill:#efac95;}.uuid-3c0e830c-d7bf-4937-b576-5160c7bf2c41{fill:#fff;stroke:#77471d;stroke-miterlimit:10;stroke-width:.5px;}.uuid-13fb05ae-0067-4f17-8aa5-56425337266c{fill:#231f20;}.uuid-0746015d-fcb6-4787-afa8-87bef6e67a78{fill:#00aeef;}.uuid-229fa5b3-72d6-4061-9c7f-60e68b2cabd8{fill:#3c2415;}.uuid-94932812-3de0-4ebf-8c27-bd2ab8970e0a{fill:#262262;}</style></defs><rect class="uuid-0746015d-fcb6-4787-afa8-87bef6e67a78" x="0" y="0" width="100" height="100" transform="translate(100 100) rotate(-180)"/><path class="uuid-3571e459-5d89-4887-b340-3ef802776c6b" d="M55.52,79.45l-2.2,2.58-7.86-1.8.91-6.1c1.24,3.56,4.31,5.33,9.15,5.31Z"/><path class="uuid-02810f93-0c76-4716-b94e-9dda9eb01326" d="M26.8,69.75c2.42,8.11,11.68,10.85,11.68,10.85l3.12-13.63-1.61-30.77-14.99-17.45c-3.53,11.44-1.18,40.42,1.79,51Z"/><polygon class="uuid-3571e459-5d89-4887-b340-3ef802776c6b" points="51.49 83.35 65.74 92.72 55.13 106.2 48.13 91.58 51.49 83.35"/><path class="uuid-2cc20bb4-78d5-457b-828e-733ccfe9b045" d="M62.69,71.55s-3.6,18.01-3.14,21.44c.46,3.43-3.08,12.9-3.08,12.9-7.9-1.36-23.29-10.12-29.67-19.83l11.57-30.74,24.32,16.24Z"/><path class="uuid-3571e459-5d89-4887-b340-3ef802776c6b" d="M40.66,60.08c2.56,8.99,10.55,19.68,19.63,24.88l2.43-12.44-22.72-11.54.66-.9Z"/><ellipse class="uuid-02810f93-0c76-4716-b94e-9dda9eb01326" cx="77.64" cy="36.54" rx="8.44" ry="15.58" transform="translate(-.7 1.52) rotate(-1.12)"/><path class="uuid-2cc20bb4-78d5-457b-828e-733ccfe9b045" d="M29.8,39.37c1.38-.5,2.94-.08,4.37.98l-.43-2.11-.53-21.18,40.43-3.37c11.3,20.15,14.72,51.84-9.06,66.07-18.85-2.42-21.92-9.8-26.98-22.42l-.47-2.34c-.4.4-.86.71-1.38.9-2.86,1.03-6.52-1.83-8.16-6.4-1.64-4.56-.65-9.1,2.21-10.13Z"/><path class="uuid-d3763f92-86e6-4053-b3a5-939abf2237c2" d="M29.78,39.31c1.53-.57,3.2.04,4.45.97,0,0-.15.09-.15.09,0-.02-.45-2.11-.44-2.12-.19-5.93-.6-15.18-.87-21.17,0,0-.02-.41-.02-.41l.43-.04c13.52-1.37,27.07-2.3,40.63-3.22,5.87,10.9,9.33,23.28,8.82,35.72-.38,12.59-6.77,24.97-17.9,31.32-16.44-2.02-22.21-7.58-27.54-22.94,0-.02-.02-.06-.02-.08,0,0-.43-2.35-.43-2.35l.67.2c-1.59,1.71-4.33,1.35-6.01.01-4.29-2.95-7.35-13.2-1.63-15.97h0ZM29.82,39.43c-5.51,2.76-2.38,12.73,1.9,15.4,1.95,1.35,4.18,1.32,5.63-.67.11.54.57,2.51.69,3.08,0,0-.02-.08-.02-.08,5.72,14.65,10.62,19.87,26.65,21.94,0,0-.42.09-.42.09,16.93-9.7,20.57-30.64,15.96-48.34-1.45-5.96-3.78-11.71-6.81-17.03,0,0,.27.14.27.14-10.1.98-20.19,2.02-30.3,2.79-3.37.24-6.74.52-10.12.74l.41-.45c.06,6,.06,15.32.19,21.17.01.15.46,2.27.46,2.35-1.24-.98-2.92-1.7-4.49-1.14h0Z"/><polygon class="uuid-02810f93-0c76-4716-b94e-9dda9eb01326" points="42.51 34.09 37.42 46.74 30.56 33.52 42.51 34.09"/><ellipse class="uuid-229fa5b3-72d6-4061-9c7f-60e68b2cabd8" cx="53.25" cy="43.8" rx="2.12" ry="3.67"/><ellipse class="uuid-229fa5b3-72d6-4061-9c7f-60e68b2cabd8" cx="74.57" cy="44.72" rx="3.75" ry="1.78" transform="translate(24.32 115.67) rotate(-85.64)"/><path class="uuid-d3763f92-86e6-4053-b3a5-939abf2237c2" d="M69.49,44.72s4.18,9.78,4.98,11.04-3.7,3.62-3.7,3.62c1.73-2.02.12-8.48-1.29-14.66Z"/><path class="uuid-02810f93-0c76-4716-b94e-9dda9eb01326" d="M75.13,29.21c-11.93-6.83-39.45,5.71-36.44,9.65,1.77,2.32-18.29-13.52-12.59-22.97.2-.34.44-.67.7-1,4.87-6.14,26.73-11.04,45.23-6.65,7.38,1.75,3.1,20.97,3.1,20.97Z"/><path class="uuid-02810f93-0c76-4716-b94e-9dda9eb01326" d="M66.53,19.42s17.6,10.78,17.11,22.24c-.12,2.79,3.93-8.11,3.93-8.11.46,2.77.96,1.15.82-2.29-.36-8.51-4.66-28.17-23.14-20.22-4.07,1.75,1.29,8.38,1.29,8.38Z"/><path class="uuid-13fb05ae-0067-4f17-8aa5-56425337266c" d="M59.55,41.57c-4.11-3.06-8.33-2.36-12.61,0,4.41-1.26,8.7-1.74,12.61,0Z"/><path class="uuid-13fb05ae-0067-4f17-8aa5-56425337266c" d="M81.53,42.69c-3.37-3.06-6.84-2.36-10.35,0,3.62-1.26,7.14-1.74,10.35,0Z"/><path class="uuid-3c0e830c-d7bf-4937-b576-5160c7bf2c41" d="M54.65,62.12l17.38,1.38s-3.45,5.07-6.95,5.62-10.43-7-10.43-7Z"/><path class="uuid-02810f93-0c76-4716-b94e-9dda9eb01326" d="M75.41,61.73c-1.07-.39-16.81-4.48-25.33-2.57,0,0-5.21,13.22-.82,16.95,5.15,4.37,15.44,5.44,15.44,4.35,4.01-1.93,8.05-3.9,9.87-7.84,0,0,1.91-10.5.84-10.89ZM63.34,76.11c-8.24-1.34-12.24-5.89-10.09-13.98,6.64-1.24,13.15-.93,19.51,1.15-.03,6.91-2.66,11.62-9.42,12.84Z"/><path class="uuid-02810f93-0c76-4716-b94e-9dda9eb01326" d="M61.91,71.08c1.32,1.13,3.2.74,5.2,0v5.03s-3.78,1.53-3.78,1.53l-3.78-.7,2.36-5.86Z"/><polygon class="uuid-d3763f92-86e6-4053-b3a5-939abf2237c2" points="69.63 57.79 65.74 56.97 67.11 58.69 69.63 57.79"/><path class="uuid-229fa5b3-72d6-4061-9c7f-60e68b2cabd8" d="M62.69,38.35l-1.04-4.34-.25,2.43-1.74-1.76s-13.6-1.28-15.67,3.56c0,0,11.23-2.86,18.7.12Z"/><path class="uuid-229fa5b3-72d6-4061-9c7f-60e68b2cabd8" d="M69.62,39.53l1.27-4.27-.11,2.32,1.47-1.83s9.95-2.24,10.85,2.28c0,0-7.74-1.93-13.48,1.5Z"/><path class="uuid-3571e459-5d89-4887-b340-3ef802776c6b" d="M60.56,91.13s-9.35,2.41-8.51,5.2,4.89,13.95,4.89,13.95l3.62-19.16Z"/><path class="uuid-94932812-3de0-4ebf-8c27-bd2ab8970e0a" d="M60.81,84.74l32.9,5.1,11.39,12.77-47.63,7.46-60.64-7.75-1.18-18.43,34.59-6.95c1.08,10.97,9.83,19.2,24.94,23.06l5.64-15.26Z"/></svg>