<?xml version="1.0" encoding="UTF-8"?><svg id="uuid-b3186092-86ca-4a4d-a1f3-01a4234a7743" xmlns="http://www.w3.org/2000/svg" viewBox="0 0 100 100"><defs><style>.uuid-1d290f7b-fb33-4e9c-84c5-55e869a6599d{fill:#bcbec0;}.uuid-1d290f7b-fb33-4e9c-84c5-55e869a6599d,.uuid-d3951d9e-2d85-4edd-9f5d-e72ab6c1ebbb{stroke-width:0px;}.uuid-d3951d9e-2d85-4edd-9f5d-e72ab6c1ebbb{fill:#414042;}</style></defs><rect class="uuid-1d290f7b-fb33-4e9c-84c5-55e869a6599d" x="0" y="0" width="100" height="100" transform="translate(100 100) rotate(-180)"/><path class="uuid-d3951d9e-2d85-4edd-9f5d-e72ab6c1ebbb" d="M89.88,87.8l-30.4-5.72s0-.03,0-.04c9.99.48,19.52.49,25.45.21,12.99-.6,7.17-55.08,7.17-55.08-.3-6.99-3.25-21.48-14.53-22.05-.51-.46-1.11-.8-1.83-.97C28.68-7,21.02,36.62,23.94,27c0,0-11.31,46.87,3.2,50.99,3.18.9,7.11,1.64,11.46,2.24l-.17.64-25.97,3.6L0,98.46l60.64,7.75,36.25-5.67-7.01-12.73Z"/></svg>