<?xml version="1.0" encoding="UTF-8"?><svg id="uuid-1c31aa5e-6b02-4290-b8eb-8d295be7e2b1" xmlns="http://www.w3.org/2000/svg" viewBox="0 0 100 100"><defs><style>.uuid-77155308-65c8-4d90-86b6-c2a3a7fcd9f5{fill:#662d91;}.uuid-77155308-65c8-4d90-86b6-c2a3a7fcd9f5,.uuid-441a94e5-ac4c-483c-8f3d-c0a38c297698,.uuid-9bc1ba9e-96c6-41f6-9097-eaf7ae89b016,.uuid-367b8c14-187f-426b-ab08-a4c6daf163bb,.uuid-1988c6d3-8689-4cff-924a-c8054f581417,.uuid-0558d57e-01e6-4459-838a-f507eba2d5c6,.uuid-84a3e573-b230-4ee2-92b9-c9d23152d89d,.uuid-8619cb63-9744-4bc9-914b-dc4886b3536d,.uuid-d2c007fb-2efc-4e8b-84f8-d843770de12c,.uuid-c3f9f81d-deed-4ea0-9d9d-14b44d1966b1,.uuid-d3035441-d70c-460d-a8f0-e63530fb89de{stroke-width:0px;}.uuid-441a94e5-ac4c-483c-8f3d-c0a38c297698{fill:#f7941d;}.uuid-9bc1ba9e-96c6-41f6-9097-eaf7ae89b016{fill:#996945;}.uuid-367b8c14-187f-426b-ab08-a4c6daf163bb{fill:#ffeee2;}.uuid-1988c6d3-8689-4cff-924a-c8054f581417{fill:#231f20;}.uuid-0558d57e-01e6-4459-838a-f507eba2d5c6{fill:#2b3990;}.uuid-84a3e573-b230-4ee2-92b9-c9d23152d89d{fill:#be1e2d;}.uuid-8619cb63-9744-4bc9-914b-dc4886b3536d{fill:#b28160;}.uuid-d2c007fb-2efc-4e8b-84f8-d843770de12c{fill:#fff;}.uuid-c3f9f81d-deed-4ea0-9d9d-14b44d1966b1{fill:#00aeef;}.uuid-d3035441-d70c-460d-a8f0-e63530fb89de{fill:#d1a180;}</style></defs><rect class="uuid-c3f9f81d-deed-4ea0-9d9d-14b44d1966b1" x="0" y="0" width="100" height="100" transform="translate(100 100) rotate(-180)"/><path class="uuid-d3035441-d70c-460d-a8f0-e63530fb89de" d="M55.52,79.45l-2.2,2.58-7.86-1.8.91-6.1c1.24,3.56,4.31,5.33,9.15,5.31Z"/><path class="uuid-441a94e5-ac4c-483c-8f3d-c0a38c297698" d="M20.76,30.86s-15.1,39.26-.59,43.39c14.51,4.12,30.79,8.25,43.79,7.65,12.99-.6,22.74-11.55,22.74-11.55L46.87,19.86l-26.11,11Z"/><path class="uuid-441a94e5-ac4c-483c-8f3d-c0a38c297698" d="M88.1,74.96l.82-43.92-24.96,50.86s21.8-.8,24.14-1.11,0-5.83,0-5.83Z"/><polygon class="uuid-d3035441-d70c-460d-a8f0-e63530fb89de" points="52.01 83.13 66.26 92.5 55.65 105.98 48.65 91.36 52.01 83.13"/><path class="uuid-367b8c14-187f-426b-ab08-a4c6daf163bb" d="M60.59,71.54s-5.99,18.05-5.53,21.48c.46,3.43,1.93,12.64,1.93,12.64-7.9-1.36-15.9-9.26-22.28-18.97l7.41-27.37,18.47,12.22Z"/><path class="uuid-d3035441-d70c-460d-a8f0-e63530fb89de" d="M41.18,59.86c2.56,8.99,7.15,16.8,16.23,21.99l3.4-9.41-20.29-11.69.66-.9Z"/><ellipse class="uuid-441a94e5-ac4c-483c-8f3d-c0a38c297698" cx="78.16" cy="36.31" rx="8.44" ry="15.58" transform="translate(-.69 1.53) rotate(-1.12)"/><path class="uuid-367b8c14-187f-426b-ab08-a4c6daf163bb" d="M30.33,39.15c1.38-.5,2.94-.08,4.37.98l-.43-2.11-.53-21.18,40.43-3.37c11.3,20.15,14.72,51.84-9.06,66.07-18.85-2.42-21.92-9.8-26.98-22.42l-.47-2.34c-.4.4-.86.71-1.38.9-2.86,1.03-6.52-1.83-8.16-6.4-1.64-4.56-.65-9.1,2.21-10.13Z"/><path class="uuid-8619cb63-9744-4bc9-914b-dc4886b3536d" d="M30.31,39.09c1.53-.57,3.2.04,4.45.97,0,0-.15.09-.15.09,0-.02-.45-2.11-.44-2.12-.19-5.93-.6-15.18-.87-21.17,0,0-.02-.41-.02-.41,0,0,.43-.04.43-.04,13.52-1.37,27.07-2.3,40.63-3.22,5.87,10.9,9.33,23.28,8.82,35.72-.38,12.59-6.77,24.97-17.9,31.32-16.44-2.02-22.21-7.58-27.54-22.94,0-.02-.02-.06-.02-.08,0,0-.43-2.35-.43-2.35l.67.2c-1.59,1.71-4.33,1.35-6.01.01-4.29-2.95-7.35-13.2-1.63-15.97h0ZM30.35,39.21c-5.51,2.76-2.38,12.73,1.9,15.4,1.95,1.35,4.18,1.32,5.63-.67.11.54.57,2.51.69,3.08,0,0-.02-.08-.02-.08,5.72,14.65,10.62,19.87,26.65,21.94,0,0-.42.09-.42.09,16.93-9.7,20.57-30.64,15.96-48.34-1.45-5.96-3.78-11.71-6.81-17.03,0,0,.27.14.27.14-10.1.98-20.19,2.02-30.3,2.79-3.37.24-6.74.52-10.12.74l.41-.45c.06,6,.06,15.32.19,21.17.01.15.46,2.27.46,2.35-1.24-.98-2.92-1.7-4.49-1.14h0Z"/><polygon class="uuid-441a94e5-ac4c-483c-8f3d-c0a38c297698" points="43.03 33.86 37.95 46.51 31.09 33.29 43.03 33.86"/><path class="uuid-d2c007fb-2efc-4e8b-84f8-d843770de12c" d="M55.17,61.9l17.38,1.38s-3.45,5.07-6.95,5.62-10.43-7-10.43-7Z"/><path class="uuid-84a3e573-b230-4ee2-92b9-c9d23152d89d" d="M55.11,61.87c2.51.03,5.43.03,8.45.2,3.14.23,6.28.94,9.41.99,0,0-.23.35-.23.35-2.8,4.3-6.66,8.58-11.76,4.49-2.26-1.67-4.31-3.71-5.87-6.03h0ZM55.23,61.93c.07-.06.44.31.53.36,2.56,2.02,5.29,4.44,8.26,5.66,2.98,1.21,6.53-2.7,8.34-4.8,0,0,.17.36.17.36-2.81-.39-5.59-.17-8.38-.4-2.77-.29-5.64-.75-8.93-1.18h0Z"/><ellipse class="uuid-0558d57e-01e6-4459-838a-f507eba2d5c6" cx="53.77" cy="44" rx="2.12" ry="3.67"/><ellipse class="uuid-0558d57e-01e6-4459-838a-f507eba2d5c6" cx="75.09" cy="44.49" rx="3.75" ry="1.78" transform="translate(25.02 115.99) rotate(-85.64)"/><path class="uuid-8619cb63-9744-4bc9-914b-dc4886b3536d" d="M69.99,49.38s2.54,5.6,3.05,6.31-2.66,2.25-2.66,2.25c1.25-1.25.36-4.98-.39-8.56Z"/><path class="uuid-1988c6d3-8689-4cff-924a-c8054f581417" d="M81.75,44.75l-4.97,4.99c2.48-1.99,3.79-3.93,2.73-5.74l2.24.75Z"/><path class="uuid-441a94e5-ac4c-483c-8f3d-c0a38c297698" d="M75.65,28.99s-31.49,10.27-36.44,9.65-18.46-7.78-18.46-7.78c-2.93,9.62,4.74-34,51.79-22.84,7.38,1.75,3.1,20.97,3.1,20.97Z"/><path class="uuid-441a94e5-ac4c-483c-8f3d-c0a38c297698" d="M67.06,19.19s14.38,22.86,17.11,22.24,3.93-8.11,3.93-8.11c.46,2.77.96,1.15.82-2.29-.36-8.51-4.66-28.17-23.14-20.22-4.07,1.75,1.29,8.38,1.29,8.38Z"/><path class="uuid-1988c6d3-8689-4cff-924a-c8054f581417" d="M69.92,45.01c4.3-6.62,8.93-5.86,13.93,3.03-.34-2.7-7.23-7.33-13.93-3.03Z"/><path class="uuid-1988c6d3-8689-4cff-924a-c8054f581417" d="M61.16,44.88c-3.29-7.2-8.5-7.07-15.82,1.12.94-2.65,9.42-6.34,15.82-1.12Z"/><path class="uuid-9bc1ba9e-96c6-41f6-9097-eaf7ae89b016" d="M61.61,38.95s-.79-2.54-7.98-2.52-7.13,5.11-7.13,5.11c.49-4.91,7.61-5.05,15.1-2.6Z"/><path class="uuid-9bc1ba9e-96c6-41f6-9097-eaf7ae89b016" d="M72.46,39.44s.6-2.54,6.02-2.52,5.38,5.11,5.38,5.11c-.37-4.91-5.75-5.05-11.4-2.6Z"/><polygon class="uuid-77155308-65c8-4d90-86b6-c2a3a7fcd9f5" points="56.29 85.94 86.69 91.66 93.7 104.39 57.46 110.07 -3.19 102.32 9.27 88.34 35.24 84.74 55.17 100 56.29 85.94"/><circle class="uuid-d3035441-d70c-460d-a8f0-e63530fb89de" cx="57.15" cy="51.22" r=".45"/><circle class="uuid-d3035441-d70c-460d-a8f0-e63530fb89de" cx="60.15" cy="49.7" r=".45"/><circle class="uuid-d3035441-d70c-460d-a8f0-e63530fb89de" cx="59.7" cy="52.11" r=".45"/><circle class="uuid-d3035441-d70c-460d-a8f0-e63530fb89de" cx="75.82" cy="52.86" r=".45"/><circle class="uuid-d3035441-d70c-460d-a8f0-e63530fb89de" cx="78.82" cy="51.35" r=".45"/><circle class="uuid-d3035441-d70c-460d-a8f0-e63530fb89de" cx="78.37" cy="53.76" r=".45"/></svg>